<?xml version="1.0" encoding="UTF-8"?>
<svg xmlns="http://www.w3.org/2000/svg" xmlns:xlink="http://www.w3.org/1999/xlink" viewBox="0 0 3054.22 3561.39">
  <defs>
    <style>
      .cls-1 {
        isolation: isolate;
      }

      .cls-2 {
        fill: url(#radial-gradient-3);
      }

      .cls-2, .cls-3 {
        mix-blend-mode: screen;
      }

      .cls-2, .cls-3, .cls-4, .cls-5 {
        stroke-width: 0px;
      }

      .cls-3 {
        fill: url(#radial-gradient);
      }

      .cls-4 {
        fill: url(#radial-gradient-4);
      }

      .cls-4, .cls-5 {
        mix-blend-mode: color-dodge;
      }

      .cls-5 {
        fill: url(#radial-gradient-2);
      }
    </style>
    <radialGradient id="radial-gradient" cx="-33.37" cy="2259.99" fx="-33.37" fy="2259.99" r="189.01" gradientTransform="translate(1689.41 -10831.24) rotate(-.52) scale(8.08 5.23)" gradientUnits="userSpaceOnUse">
      <stop offset="0" stop-color="#006442"/>
      <stop offset=".15" stop-color="#004a31"/>
      <stop offset=".39" stop-color="#002a1b"/>
      <stop offset=".61" stop-color="#00120c"/>
      <stop offset=".82" stop-color="#000403"/>
      <stop offset="1" stop-color="#000"/>
    </radialGradient>
    <radialGradient id="radial-gradient-2" cx="-36.73" cy="2259.93" fx="-36.73" fy="2259.93" r="96.54" xlink:href="#radial-gradient"/>
    <radialGradient id="radial-gradient-3" cx="-35.15" cy="2562.98" fx="-35.15" fy="2562.98" r="189.01" gradientTransform="translate(1689.41 -10831.24) rotate(-.52) scale(8.08 5.23)" gradientUnits="userSpaceOnUse">
      <stop offset="0" stop-color="#3d0a36"/>
      <stop offset=".19" stop-color="#2a0625"/>
      <stop offset=".48" stop-color="#120310"/>
      <stop offset=".76" stop-color="#040004"/>
      <stop offset="1" stop-color="#000"/>
    </radialGradient>
    <radialGradient id="radial-gradient-4" cx="-38.51" cy="2562.92" fx="-38.51" fy="2562.92" r="96.54" xlink:href="#radial-gradient-3"/>
  </defs>
  <g class="cls-1">
    <g id="Layer_2" data-name="Layer 2">
      <g id="Layer_1-2" data-name="Layer 1">
        <g>
          <path class="cls-3" d="m3054.2,974.62c4.97,545.81-674.72,994.56-1518.1,1002.23C692.73,1984.51,4.99,1548.19.03,1002.39-4.93,456.46,674.74,7.76,1518.14.1c843.38-7.66,1531.09,428.6,1536.06,974.52Z"/>
          <path class="cls-5" d="m2280.01,981.36c2.53,278.77-344.65,507.95-775.43,511.87-430.79,3.99-782.06-218.94-784.6-497.71-2.53-278.83,344.65-508.01,775.41-511.93,430.78-3.93,782.08,218.94,784.62,497.77Z"/>
        </g>
        <g>
          <path class="cls-2" d="m3054.2,2559.06c4.97,545.81-674.72,994.56-1518.1,1002.23C692.73,3568.96,4.99,3132.64.03,2586.83c-4.96-545.92,674.72-994.62,1518.11-1002.29,843.38-7.66,1531.09,428.6,1536.06,974.52Z"/>
          <path class="cls-4" d="m2280.01,2565.8c2.53,278.77-344.65,507.95-775.43,511.87-430.79,3.99-782.06-218.94-784.6-497.71-2.53-278.83,344.65-508.01,775.41-511.93,430.78-3.93,782.08,218.94,784.62,497.77Z"/>
        </g>
      </g>
    </g>
  </g>
</svg>