<?xml version="1.0" encoding="UTF-8"?>
<svg xmlns="http://www.w3.org/2000/svg" viewBox="0 0 1205.52 1205.52">
  <defs>
    <style>
      .cls-1 {
        opacity: .5;
      }

      .cls-2 {
        isolation: isolate;
      }

      .cls-3 {
        mix-blend-mode: color-dodge;
      }

      .cls-4 {
        fill: #a6a6a6;
        stroke-width: 0px;
      }
    </style>
  </defs>
  <g class="cls-2">
    <g id="Layer_2" data-name="Layer 2">
      <g id="Layer_1-2" data-name="Layer 1">
        <g class="cls-1">
          <g class="cls-3">
            <path class="cls-4" d="m602.76,1205.52C270.39,1205.52,0,935.12,0,602.76S270.39,0,602.76,0s602.76,270.39,602.76,602.76-270.4,602.76-602.76,602.76Zm0-1198.15C274.46,7.37,7.37,274.46,7.37,602.76s267.09,595.4,595.39,595.4,595.4-267.09,595.4-595.4S931.06,7.37,602.76,7.37Z"/>
          </g>
          <g class="cls-3">
            <path class="cls-4" d="m602.76,1157.51c-305.88,0-554.74-248.86-554.74-554.75S296.87,48.01,602.76,48.01s554.75,248.86,554.75,554.74-248.86,554.75-554.75,554.75Zm0-1102.13C300.93,55.38,55.38,300.93,55.38,602.76s245.55,547.38,547.38,547.38,547.38-245.56,547.38-547.38S904.59,55.38,602.76,55.38Z"/>
          </g>
        </g>
      </g>
    </g>
  </g>
</svg>