<?xml version="1.0" standalone="no"?>
<!DOCTYPE svg PUBLIC "-//W3C//DTD SVG 20010904//EN"
 "http://www.w3.org/TR/2001/REC-SVG-20010904/DTD/svg10.dtd">
<svg version="1.0" xmlns="http://www.w3.org/2000/svg"
 width="750.000000pt" height="1334.000000pt" viewBox="0 0 750.000000 1334.000000"
 preserveAspectRatio="xMidYMid meet">

<g transform="translate(0.000000,1334.000000) scale(0.100000,-0.100000)"
fill="#000000" stroke="none">
<path d="M1610 13240 c-39 -7 -95 -34 -105 -50 -4 -6 -2 -17 4 -24 9 -11 20
-9 58 10 25 13 61 24 78 24 17 0 53 -11 78 -24 38 -19 49 -21 58 -10 14 17 5
30 -34 51 -42 22 -94 30 -137 23z"/>
<path d="M6200 13225 c-7 -9 -10 -18 -7 -21 9 -9 48 16 42 27 -9 13 -21 11
-35 -6z"/>
<path d="M6320 13230 c0 -12 35 -31 44 -23 8 9 -14 33 -30 33 -8 0 -14 -4 -14
-10z"/>
<path d="M1080 13214 c0 -9 5 -14 12 -12 18 6 21 28 4 28 -9 0 -16 -7 -16 -16z"/>
<path d="M5628 13192 c-87 -39 -101 -62 -38 -62 l40 0 0 -40 c0 -64 23 -49 63
41 33 74 38 101 19 98 -4 0 -42 -17 -84 -37z"/>
<path d="M5889 13201 c-17 -18 -29 -40 -29 -56 0 -82 92 -134 151 -86 32 26
20 35 -20 15 -41 -20 -84 -5 -101 36 -25 61 41 122 98 89 16 -9 26 -23 25 -34
-2 -23 14 -55 27 -55 5 0 14 9 20 20 9 17 5 26 -29 60 -51 52 -97 55 -142 11z"/>
<path d="M150 13135 c0 -68 3 -85 15 -85 10 0 15 15 17 57 l3 57 39 -57 c55
-80 66 -76 66 28 0 68 -3 85 -15 85 -10 0 -15 -15 -17 -56 l-3 -57 -39 57
c-55 80 -66 75 -66 -29z"/>
<path d="M552 13208 c-16 -16 -15 -53 2 -67 8 -7 27 -16 43 -20 18 -5 28 -14
28 -27 0 -25 -32 -30 -56 -8 -22 20 -38 11 -23 -14 7 -10 27 -18 52 -20 32 -2
43 1 55 19 23 32 7 62 -39 75 -41 11 -57 39 -30 50 9 3 27 -1 41 -10 30 -20
35 -20 35 -1 0 31 -83 48 -108 23z"/>
<path d="M3443 13203 c-13 -8 -23 -22 -23 -29 0 -17 5 -17 31 -4 18 10 19 7
19 -55 0 -58 2 -65 20 -65 18 0 20 7 20 85 0 82 -1 85 -22 84 -13 0 -33 -7
-45 -16z"/>
<path d="M3565 13198 c-19 -28 -4 -36 31 -17 18 9 27 10 35 2 14 -14 3 -33
-17 -33 -8 0 -14 -7 -14 -15 0 -8 9 -15 20 -15 24 0 27 -28 4 -37 -8 -3 -20
-1 -27 6 -13 13 -47 15 -47 3 0 -20 39 -42 73 -42 26 0 40 6 51 22 20 28 20
33 0 53 -13 12 -14 19 -5 28 28 28 -4 67 -54 67 -24 0 -39 -7 -50 -22z"/>
<path d="M3823 13203 c-13 -8 -23 -22 -23 -29 0 -17 5 -17 31 -4 18 10 19 7
19 -55 0 -58 2 -65 20 -65 18 0 20 7 20 85 0 82 -1 85 -22 84 -13 0 -33 -7
-45 -16z"/>
<path d="M3956 13204 c-21 -20 -20 -41 0 -52 15 -8 14 -12 -5 -31 -20 -20 -21
-25 -8 -44 19 -29 91 -36 118 -11 23 21 24 38 3 59 -13 12 -14 19 -5 28 17 17
13 45 -8 57 -29 15 -77 12 -95 -6z m74 -29 c0 -21 -30 -31 -40 -14 -11 17 -3
29 21 29 10 0 19 -7 19 -15z m0 -75 c0 -13 -7 -20 -19 -20 -22 0 -35 15 -26
30 12 19 45 11 45 -10z"/>
<path d="M6218 13190 c-26 -27 -29 -35 -24 -68 4 -20 7 -47 7 -60 1 -17 4 -20
14 -12 9 8 20 7 39 -1 19 -9 32 -9 51 -1 15 7 27 8 30 2 11 -18 22 -10 23 18
0 15 4 41 7 59 6 27 3 37 -23 63 -41 41 -83 41 -124 0z m72 -40 c0 -25 -4 -30
-25 -30 -14 0 -25 5 -25 10 0 6 7 10 15 10 8 0 15 9 15 20 0 11 5 20 10 20 6
0 10 -13 10 -30z"/>
<path d="M6506 13204 c-9 -8 -16 -20 -16 -25 0 -15 27 -10 34 6 6 18 27 20 43
4 16 -16 5 -39 -18 -39 -27 0 -24 -15 6 -28 30 -14 33 -38 4 -47 -13 -4 -27 0
-40 11 -22 20 -38 11 -23 -14 13 -21 65 -27 94 -12 23 13 27 58 5 66 -12 5
-12 9 0 28 13 19 13 25 -1 44 -18 26 -65 30 -88 6z"/>
<path d="M6652 13208 c-16 -16 -15 -53 3 -68 33 -28 71 12 54 58 -9 24 -38 29
-57 10z m38 -33 c0 -26 -14 -33 -25 -15 -9 14 1 40 15 40 5 0 10 -11 10 -25z"/>
<path d="M6742 13148 c-64 -96 -65 -98 -53 -98 6 0 32 33 59 73 64 95 65 97
53 97 -6 0 -32 -33 -59 -72z"/>
<path d="M6950 13150 c0 -33 4 -60 10 -60 6 0 10 27 10 60 0 33 -4 60 -10 60
-6 0 -10 -27 -10 -60z"/>
<path d="M3731 13186 c-9 -10 -8 -16 3 -25 10 -9 16 -8 25 3 9 10 8 16 -3 25
-10 9 -16 8 -25 -3z"/>
<path d="M345 13166 c-22 -16 -26 -76 -6 -100 18 -22 64 -20 84 2 52 57 -17
143 -78 98z m65 -52 c0 -38 -21 -54 -45 -34 -20 17 -19 57 2 68 27 16 43 3 43
-34z"/>
<path d="M715 13166 c-22 -16 -26 -76 -6 -100 22 -26 91 -18 91 10 0 11 -5 11
-25 2 -19 -8 -28 -8 -40 2 -26 21 -17 30 30 30 49 0 56 10 29 48 -17 25 -51
29 -79 8z m55 -21 c11 -13 8 -15 -20 -15 -28 0 -31 2 -20 15 7 8 16 15 20 15
4 0 13 -7 20 -15z"/>
<path d="M840 13114 c0 -50 3 -64 15 -64 11 0 15 12 15 46 0 37 4 47 20 51 34
9 23 31 -15 31 l-35 0 0 -64z"/>
<path d="M930 13174 c0 -4 10 -33 21 -65 29 -80 49 -79 76 6 16 50 18 65 8 65
-7 0 -19 -17 -25 -37 -18 -57 -26 -59 -40 -9 -7 26 -19 46 -26 46 -8 0 -14 -3
-14 -6z"/>
<path d="M1080 13115 c0 -51 3 -65 15 -65 12 0 15 14 15 65 0 51 -3 65 -15 65
-12 0 -15 -14 -15 -65z"/>
<path d="M1157 13162 c-22 -25 -21 -75 1 -95 23 -21 66 -22 82 -2 18 22 4 31
-24 16 -31 -17 -46 -7 -46 28 0 38 16 52 46 39 31 -14 45 -1 20 18 -27 19 -60
18 -79 -4z"/>
<path d="M1295 13166 c-22 -16 -26 -76 -6 -100 22 -26 91 -18 91 10 0 11 -5
11 -25 2 -19 -8 -28 -8 -40 2 -26 21 -17 30 30 30 49 0 56 10 29 48 -17 25
-51 29 -79 8z m55 -21 c11 -13 8 -15 -20 -15 -28 0 -31 2 -20 15 7 8 16 15 20
15 4 0 13 -7 20 -15z"/>
<path d="M5929 13153 c-15 -41 -8 -58 29 -61 35 -4 37 1 26 57 -8 40 -40 42
-55 4z m41 7 c0 -5 -7 -10 -16 -10 -8 0 -12 5 -9 10 3 6 10 10 16 10 5 0 9 -4
9 -10z"/>
<path d="M1595 13161 c-35 -15 -48 -36 -30 -51 12 -10 19 -10 27 -2 16 16 91
15 106 0 9 -9 15 -9 27 3 14 14 14 17 -4 33 -23 21 -96 30 -126 17z"/>
<path d="M7371 13144 c0 -11 3 -14 6 -6 3 7 2 16 -1 19 -3 4 -6 -2 -5 -13z"/>
<path d="M6779 13119 c-15 -29 3 -69 31 -69 28 0 46 40 31 69 -7 11 -20 21
-31 21 -11 0 -24 -10 -31 -21z m48 -15 c8 -22 -15 -44 -26 -25 -10 16 -4 41
10 41 5 0 12 -7 16 -16z"/>
<path d="M3730 13106 c-13 -17 -6 -36 15 -36 19 0 26 27 11 39 -10 8 -17 7
-26 -3z"/>
<path d="M1621 13088 l-24 -8 23 -25 24 -25 22 21 c13 12 21 25 19 29 -8 13
-40 17 -64 8z"/>
<path d="M7045 12660 c-19 -21 -18 -21 18 -58 l37 -37 20 21 20 20 -38 37 -38
38 -19 -21z"/>
<path d="M410 12635 c0 -8 7 -15 15 -15 8 0 15 7 15 15 0 8 -7 15 -15 15 -8 0
-15 -7 -15 -15z"/>
<path d="M490 12635 c0 -12 19 -15 115 -15 96 0 115 3 115 15 0 12 -19 15
-115 15 -96 0 -115 -3 -115 -15z"/>
<path d="M3255 12623 c-62 -12 -95 -54 -95 -125 0 -59 29 -104 76 -117 21 -6
48 -8 60 -5 12 3 25 1 28 -5 4 -6 18 -11 32 -11 22 0 23 3 14 20 -8 15 -7 27
5 49 19 37 19 103 1 139 -20 39 -74 63 -121 55z m69 -95 c5 -14 6 -36 3 -50
-6 -21 -11 -24 -38 -20 -29 4 -30 3 -20 -16 9 -17 8 -19 -8 -15 -44 11 -54 91
-16 129 24 24 28 25 48 11 12 -8 26 -26 31 -39z"/>
<path d="M3860 12590 c0 -11 -7 -23 -15 -26 -8 -4 -15 -15 -15 -25 0 -10 7
-19 15 -19 12 0 15 -13 15 -60 0 -48 4 -61 19 -70 33 -17 71 -13 71 9 0 10 -7
21 -15 25 -10 4 -15 20 -15 51 0 33 4 45 15 45 8 0 15 9 15 20 0 11 -6 20 -14
20 -8 0 -16 10 -18 23 -4 31 -58 38 -58 7z"/>
<path d="M6913 12527 c-59 -60 -84 -93 -92 -122 -6 -22 -7 -43 -3 -47 4 -4 25
-3 47 3 48 13 211 167 195 183 -7 7 -30 -9 -68 -47 -55 -54 -59 -56 -75 -40
-16 16 -14 20 40 75 38 38 54 61 47 68 -6 6 -37 -18 -91 -73z m-13 -119 c-40
-32 -62 -13 -35 28 16 25 17 25 37 8 20 -19 20 -19 -2 -36z"/>
<path d="M410 12555 c0 -8 7 -15 15 -15 8 0 15 7 15 15 0 8 -7 15 -15 15 -8 0
-15 -7 -15 -15z"/>
<path d="M490 12555 c0 -12 19 -15 115 -15 96 0 115 3 115 15 0 12 -19 15
-115 15 -96 0 -115 -3 -115 -15z"/>
<path d="M3672 12560 c-29 -12 -54 -71 -46 -108 11 -48 42 -72 91 -72 60 0 93
33 93 90 0 75 -67 118 -138 90z m72 -56 c17 -44 -6 -93 -38 -81 -17 7 -25 47
-15 75 10 26 44 29 53 6z"/>
<path d="M4022 12560 c-29 -12 -54 -71 -46 -108 11 -46 42 -72 89 -72 41 0 85
22 85 42 0 7 -16 9 -46 4 -45 -6 -74 4 -74 25 0 5 29 9 65 9 l65 0 -6 28 c-17
72 -66 98 -132 72z m78 -60 c0 -6 -13 -10 -30 -10 -30 0 -43 24 -17 33 15 5
47 -10 47 -23z"/>
<path d="M4225 12563 c-24 -6 -45 -31 -45 -54 0 -26 26 -47 71 -59 55 -15 39
-32 -22 -24 -52 7 -62 -2 -31 -29 12 -11 36 -17 65 -17 37 0 49 5 66 26 30 38
15 66 -43 82 -27 8 -46 19 -46 28 0 16 36 19 45 4 7 -12 55 -14 55 -2 0 33
-64 58 -115 45z"/>
<path d="M3420 12492 c0 -84 16 -112 65 -112 22 0 38 6 44 18 10 16 10 16 11
0 0 -13 8 -18 30 -18 l30 0 0 90 0 90 -30 0 c-30 0 -30 0 -30 -59 0 -66 -18
-94 -45 -71 -10 8 -15 31 -15 71 0 59 0 59 -30 59 l-30 0 0 -68z"/>
<path d="M410 12475 c0 -8 7 -15 15 -15 8 0 15 7 15 15 0 8 -7 15 -15 15 -8 0
-15 -7 -15 -15z"/>
<path d="M490 12475 c0 -12 19 -15 115 -15 96 0 115 3 115 15 0 12 -19 15
-115 15 -96 0 -115 -3 -115 -15z"/>
<path d="M410 12395 c0 -8 7 -15 15 -15 8 0 15 7 15 15 0 8 -7 15 -15 15 -8 0
-15 -7 -15 -15z"/>
<path d="M490 12395 c0 -12 15 -15 75 -15 60 0 75 3 75 15 0 12 -15 15 -75 15
-60 0 -75 -3 -75 -15z"/>
<path d="M0 10983 l0 -107 63 69 c35 39 78 87 96 108 l33 37 -96 0 -96 0 0
-107z"/>
<path d="M513 10919 c-28 -10 -43 -39 -43 -84 0 -62 25 -95 72 -95 36 0 58 34
58 90 0 71 -36 108 -87 89z m53 -42 c18 -72 -19 -146 -52 -103 -16 23 -19 79
-4 107 15 27 48 24 56 -4z"/>
<path d="M683 10919 c-28 -10 -43 -39 -43 -84 0 -62 25 -95 72 -95 36 0 58 34
58 90 0 71 -36 108 -87 89z m53 -42 c18 -72 -19 -146 -52 -103 -16 23 -19 79
-4 107 15 27 48 24 56 -4z"/>
<path d="M849 10916 c-34 -17 -45 -41 -33 -73 7 -22 17 -29 42 -31 18 -2 40 3
49 10 14 11 15 10 8 -12 -13 -43 -30 -55 -60 -42 -39 18 -50 15 -30 -8 10 -11
31 -20 47 -20 43 0 68 31 68 88 0 75 -40 114 -91 88z m56 -51 c0 -27 -3 -30
-30 -30 -21 0 -31 5 -33 18 -6 33 6 49 35 45 24 -3 28 -8 28 -33z"/>
<path d="M322 10908 c-14 -14 -16 -38 -3 -38 5 0 12 7 15 16 8 21 60 15 64 -8
2 -12 -8 -22 -30 -31 -34 -15 -33 -16 17 -32 21 -6 19 -42 -4 -50 -21 -6 -51
3 -51 16 0 5 -7 9 -15 9 -20 0 -19 -13 3 -33 25 -22 75 -21 95 1 23 25 21 48
-3 65 -18 12 -18 15 -5 20 20 8 20 63 -1 71 -26 10 -69 7 -82 -6z"/>
<path d="M1002 10908 c-16 -16 -15 -43 2 -57 13 -11 12 -15 -5 -32 -24 -24
-24 -34 1 -59 26 -26 81 -26 103 -2 23 25 21 48 -5 66 -19 14 -19 16 -5 22 20
7 23 44 5 62 -7 7 -28 12 -48 12 -20 0 -41 -5 -48 -12z m81 -20 c7 -22 -4 -38
-28 -38 -27 0 -39 14 -31 35 7 18 53 20 59 3z m5 -95 c4 -30 -42 -43 -65 -20
-14 13 -14 19 -3 32 19 23 64 15 68 -12z"/>
<path d="M1360 10900 c-14 -10 -21 -22 -17 -26 4 -4 13 -2 19 4 23 23 28 11
28 -63 0 -60 3 -75 15 -75 12 0 15 17 15 90 0 79 -2 90 -17 90 -10 0 -29 -9
-43 -20z"/>
<path d="M1567 10902 c-21 -23 -22 -32 -3 -32 8 0 17 7 20 16 8 21 50 14 54
-9 2 -9 -17 -41 -42 -71 -25 -29 -46 -56 -46 -60 0 -3 27 -6 60 -6 33 0 60 4
60 10 0 6 -16 10 -35 10 -19 0 -35 3 -35 6 0 3 17 26 37 50 31 39 35 49 27 72
-12 35 -71 43 -97 14z"/>
<path d="M1730 10905 c-16 -20 -5 -32 14 -16 20 17 60 10 64 -12 2 -12 -7 -22
-28 -31 l-32 -13 32 -11 c25 -9 31 -16 28 -34 -4 -28 -54 -39 -64 -14 -7 17
-34 22 -34 7 0 -15 42 -41 65 -41 29 0 65 28 65 50 0 10 -10 26 -22 34 -19 14
-19 16 -5 22 20 7 23 44 5 62 -17 17 -73 15 -88 -3z"/>
<path d="M1892 10908 c-16 -16 -15 -53 3 -68 33 -28 71 12 54 58 -9 24 -38 29
-57 10z m43 -34 c0 -19 -5 -29 -15 -29 -16 0 -25 28 -16 51 10 25 31 10 31
-22z"/>
<path d="M1988 10843 c-68 -97 -71 -103 -61 -103 5 0 37 41 71 90 34 50 58 90
53 90 -5 0 -34 -35 -63 -77z"/>
<path d="M180 10815 c0 -11 11 -15 40 -15 29 0 40 4 40 15 0 11 -11 15 -40 15
-29 0 -40 -4 -40 -15z"/>
<path d="M1230 10816 c0 -12 11 -16 41 -16 52 0 48 24 -4 28 -28 2 -37 -1 -37
-12z"/>
<path d="M2030 10811 c-16 -30 5 -70 37 -71 19 0 35 39 29 66 -8 30 -50 33
-66 5z m48 -23 c-3 -36 -30 -46 -36 -15 -5 26 5 47 23 47 12 0 15 -8 13 -32z"/>
<path d="M1472 10758 c6 -18 28 -21 28 -4 0 9 -7 16 -16 16 -9 0 -14 -5 -12
-12z"/>
<path d="M5303 10729 c-19 -7 -43 -37 -43 -53 0 -13 27 -5 43 14 31 37 70 -6
46 -52 -6 -13 -29 -45 -50 -72 -22 -27 -39 -57 -39 -67 0 -17 8 -19 65 -19 51
0 65 3 65 15 0 11 -11 15 -40 15 -22 0 -40 3 -40 8 0 4 18 31 40 61 42 56 52
103 28 133 -17 20 -48 27 -75 17z"/>
<path d="M7223 10729 c-19 -7 -43 -37 -43 -53 0 -13 27 -5 43 14 31 37 70 -6
46 -52 -6 -13 -29 -45 -50 -72 -22 -27 -39 -57 -39 -67 0 -17 8 -19 65 -19 51
0 65 3 65 15 0 11 -11 15 -40 15 -22 0 -40 3 -40 8 0 4 18 31 40 61 42 56 52
103 28 133 -17 20 -48 27 -75 17z"/>
<path d="M4733 10714 c-26 -13 -63 -64 -63 -87 0 -3 12 -7 28 -9 21 -2 31 3
45 25 23 37 66 34 85 -5 18 -38 -2 -80 -88 -190 -51 -65 -70 -96 -70 -118 l0
-30 110 0 110 0 0 30 0 29 -70 3 -70 3 70 92 c40 54 72 107 76 127 9 50 -12
104 -50 127 -38 23 -70 24 -113 3z"/>
<path d="M6653 10714 c-26 -13 -63 -64 -63 -87 0 -3 12 -7 28 -9 21 -2 31 3
45 25 23 37 66 34 85 -5 18 -38 -2 -80 -88 -190 -51 -65 -70 -96 -70 -118 l0
-30 110 0 110 0 0 30 0 29 -70 3 -70 3 70 92 c40 54 72 107 76 127 9 50 -12
104 -50 127 -38 23 -70 24 -113 3z"/>
<path d="M5022 10587 c-34 -73 -62 -144 -62 -159 l0 -28 75 0 75 0 0 -50 c0
-49 1 -50 30 -50 29 0 30 1 30 50 0 47 2 50 25 50 20 0 25 5 25 25 0 20 -5 25
-25 25 l-25 0 0 135 0 135 -42 0 -43 -1 -63 -132z m98 -37 l0 -100 -50 0 c-27
0 -50 3 -50 6 0 15 85 194 92 194 4 0 8 -45 8 -100z"/>
<path d="M6942 10587 c-34 -73 -62 -144 -62 -159 l0 -28 75 0 75 0 0 -50 c0
-49 1 -50 30 -50 29 0 30 1 30 50 0 47 2 50 25 50 20 0 25 5 25 25 0 20 -5 25
-25 25 l-25 0 0 135 0 135 -42 0 -43 -1 -63 -132z m98 -37 l0 -100 -50 0 c-27
0 -50 3 -50 6 0 15 85 194 92 194 4 0 8 -45 8 -100z"/>
<path d="M3883 10549 c-19 -7 -43 -37 -43 -53 0 -13 27 -5 43 14 31 37 70 -6
46 -52 -6 -13 -29 -45 -50 -72 -22 -27 -39 -57 -39 -67 0 -17 8 -19 65 -19 51
0 65 3 65 15 0 11 -11 15 -40 15 -22 0 -40 3 -40 8 0 4 18 31 40 61 42 56 52
103 28 133 -17 20 -48 27 -75 17z"/>
<path d="M5803 10549 c-19 -7 -43 -37 -43 -53 0 -13 27 -5 43 14 31 37 70 -6
46 -52 -6 -13 -29 -45 -50 -72 -22 -27 -39 -57 -39 -67 0 -17 8 -19 65 -19 51
0 65 3 65 15 0 11 -11 15 -40 15 -22 0 -40 3 -40 8 0 4 18 31 40 61 42 56 52
103 28 133 -17 20 -48 27 -75 17z"/>
<path d="M935 10538 c-28 -16 -35 -28 -35 -65 0 -25 8 -38 40 -63 43 -34 49
-50 24 -71 -13 -10 -19 -10 -36 0 -17 11 -22 10 -29 -1 -12 -19 13 -39 51 -40
39 -1 70 30 70 69 0 24 -51 83 -72 83 -5 0 -8 12 -6 28 3 24 7 27 35 25 32 -3
53 12 37 27 -17 14 -59 19 -79 8z"/>
<path d="M4050 10470 c-22 -44 -40 -86 -40 -94 0 -11 14 -16 48 -18 43 -3 47
-5 50 -30 5 -39 32 -37 32 2 0 17 5 30 10 30 6 0 10 7 10 15 0 8 -4 15 -10 15
-6 0 -10 33 -10 80 0 79 0 80 -25 80 -21 0 -31 -12 -65 -80z m60 -20 l0 -60
-30 0 c-16 0 -30 3 -30 8 0 15 45 112 53 112 4 0 7 -27 7 -60z"/>
<path d="M4236 10527 c-36 -29 -28 -55 10 -31 l24 16 0 -106 c0 -88 3 -106 15
-106 13 0 15 21 15 125 0 112 -2 125 -17 125 -10 0 -31 -11 -47 -23z"/>
<path d="M4416 10527 c-36 -29 -28 -55 10 -31 l24 16 0 -106 c0 -88 3 -106 15
-106 13 0 15 21 15 125 0 112 -2 125 -17 125 -10 0 -31 -11 -47 -23z"/>
<path d="M5970 10470 c-22 -44 -40 -86 -40 -94 0 -11 14 -16 48 -18 43 -3 47
-5 50 -30 5 -39 32 -37 32 2 0 17 5 30 10 30 6 0 10 7 10 15 0 8 -4 15 -10 15
-6 0 -10 33 -10 80 0 79 0 80 -25 80 -21 0 -31 -12 -65 -80z m60 -20 l0 -60
-30 0 c-16 0 -30 3 -30 8 0 15 45 112 53 112 4 0 7 -27 7 -60z"/>
<path d="M6156 10527 c-36 -29 -28 -55 10 -31 l24 16 0 -106 c0 -88 3 -106 15
-106 13 0 15 21 15 125 0 112 -2 125 -17 125 -10 0 -31 -11 -47 -23z"/>
<path d="M6336 10527 c-36 -29 -28 -55 10 -31 l24 16 0 -106 c0 -88 3 -106 15
-106 13 0 15 21 15 125 0 112 -2 125 -17 125 -10 0 -31 -11 -47 -23z"/>
<path d="M170 10535 c0 -2 12 -29 26 -58 l26 -53 -31 -62 -31 -62 23 0 c18 0
28 10 43 48 l20 47 19 -48 18 -48 46 3 c39 3 46 6 49 26 3 18 10 22 37 22 27
0 34 -5 39 -25 4 -16 13 -25 26 -25 25 0 25 -7 -8 125 -26 103 -30 110 -55
113 -28 4 -26 8 -63 -143 -9 -38 -20 -73 -23 -78 -4 -4 -20 19 -35 51 l-28 59
26 51 c31 62 31 62 6 62 -14 0 -25 -12 -37 -42 l-17 -42 -17 42 c-13 30 -24
42 -39 42 -11 0 -20 -2 -20 -5z m269 -137 c1 -13 -7 -18 -24 -18 -14 0 -25 2
-25 5 0 2 5 28 12 57 l12 53 12 -40 c7 -22 13 -48 13 -57z"/>
<path d="M510 10450 c0 -101 12 -137 49 -147 79 -21 101 10 101 138 0 92 -1
99 -20 99 -19 0 -20 -7 -20 -93 0 -110 -16 -140 -54 -101 -12 12 -16 37 -16
105 0 82 -1 89 -20 89 -19 0 -20 -7 -20 -90z"/>
<path d="M710 10450 c0 -101 12 -137 49 -147 79 -21 101 10 101 138 0 92 -1
99 -20 99 -19 0 -20 -7 -20 -93 0 -110 -16 -140 -54 -101 -12 12 -16 37 -16
105 0 82 -1 89 -20 89 -19 0 -20 -7 -20 -90z"/>
<path d="M1050 10420 l0 -120 40 0 c23 0 54 7 69 15 48 24 65 103 36 170 -16
39 -46 55 -106 55 l-39 0 0 -120z m108 49 c15 -27 10 -93 -8 -114 -7 -8 -21
-15 -31 -15 -17 0 -19 9 -19 85 0 83 0 84 23 76 12 -4 28 -19 35 -32z"/>
<path d="M1230 10455 c0 -10 10 -15 31 -15 l30 0 -30 -54 c-45 -78 -42 -86 24
-86 42 0 55 3 55 15 0 11 -11 15 -36 15 l-35 0 30 54 c44 76 42 86 -19 86 -38
0 -50 -4 -50 -15z"/>
<path d="M4566 10331 c-7 -11 18 -33 27 -24 4 3 7 12 7 20 0 15 -26 18 -34 4z"/>
<path d="M6486 10331 c-7 -11 18 -33 27 -24 4 3 7 12 7 20 0 15 -26 18 -34 4z"/>
<path d="M1074 10080 c-34 -13 -48 -39 -48 -90 0 -58 23 -90 64 -90 35 0 60
29 67 78 9 69 -32 120 -83 102z m46 -39 c25 -48 1 -131 -34 -118 -27 11 -39
56 -26 100 12 42 42 51 60 18z"/>
<path d="M1584 10080 c-34 -13 -48 -39 -48 -90 0 -58 23 -90 64 -90 35 0 60
29 67 78 9 69 -32 120 -83 102z m46 -39 c25 -48 1 -131 -34 -118 -27 11 -39
56 -26 100 12 42 42 51 60 18z"/>
<path d="M199 10061 c-13 -11 -21 -23 -16 -27 4 -4 13 -2 19 4 23 23 28 11 28
-63 0 -43 4 -75 10 -75 6 0 10 37 10 90 0 98 -7 107 -51 71z"/>
<path d="M320 10060 c-29 -22 -22 -37 9 -20 20 10 21 9 21 -65 0 -60 3 -75 15
-75 12 0 15 17 15 90 0 79 -2 90 -17 90 -10 0 -29 -9 -43 -20z"/>
<path d="M530 10060 c-29 -22 -22 -37 9 -20 20 10 21 9 21 -65 0 -60 3 -75 15
-75 12 0 15 17 15 90 0 79 -2 90 -17 90 -10 0 -29 -9 -43 -20z"/>
<path d="M662 10068 c-18 -18 -15 -55 5 -62 14 -6 14 -8 -5 -22 -12 -8 -22
-23 -22 -33 0 -47 82 -69 120 -31 25 25 25 35 1 59 -17 17 -18 21 -5 32 35 29
8 69 -46 69 -20 0 -41 -5 -48 -12z m73 -33 c0 -23 -43 -34 -55 -14 -14 21 1
40 29 37 18 -2 26 -9 26 -23z m5 -71 c19 -22 -9 -49 -44 -40 -25 6 -35 33 -19
49 12 13 50 7 63 -9z"/>
<path d="M919 10061 c-13 -11 -21 -23 -16 -27 4 -4 13 -2 19 4 23 23 28 11 28
-63 0 -43 4 -75 10 -75 6 0 10 37 10 90 0 98 -7 107 -51 71z"/>
<path d="M4754 10060 c-34 -13 -48 -39 -48 -90 0 -58 23 -90 64 -90 35 0 60
29 67 78 9 69 -32 120 -83 102z m46 -39 c25 -48 1 -131 -34 -118 -27 11 -39
56 -26 100 12 42 42 51 60 18z"/>
<path d="M5314 10060 c-33 -13 -47 -39 -47 -85 0 -61 24 -95 68 -95 65 0 87
86 29 112 -20 9 -30 9 -46 -1 -26 -16 -34 -7 -20 24 13 27 49 34 70 13 16 -16
28 -2 13 16 -15 18 -42 25 -67 16z m37 -90 c23 -13 25 -43 3 -61 -31 -26 -70
25 -44 56 15 18 16 18 41 5z"/>
<path d="M444 10046 c-8 -22 3 -33 18 -18 9 9 9 15 0 24 -9 9 -13 7 -18 -6z"/>
<path d="M825 10050 c-7 -12 2 -30 16 -30 12 0 12 27 0 35 -5 3 -12 1 -16 -5z"/>
<path d="M3950 9970 l0 -90 55 0 c42 0 55 3 55 15 0 11 -11 15 -40 15 l-40 0
0 75 c0 60 -3 75 -15 75 -12 0 -15 -17 -15 -90z"/>
<path d="M4266 10044 c-9 -8 -16 -20 -16 -25 0 -15 27 -10 34 7 9 22 50 14 54
-11 2 -13 -13 -36 -43 -65 -61 -60 -59 -70 15 -70 33 0 60 4 60 10 0 6 -16 10
-35 10 -19 0 -35 3 -35 6 0 4 16 24 35 45 54 60 44 109 -21 109 -18 0 -40 -7
-48 -16z"/>
<path d="M4445 10005 c-47 -72 -46 -85 6 -85 32 0 42 -4 46 -20 6 -23 23 -27
23 -5 0 9 7 18 15 21 8 4 15 10 15 15 0 5 -7 9 -15 9 -12 0 -15 13 -15 60 0
53 -2 60 -20 60 -14 0 -32 -18 -55 -55z m55 -20 c0 -45 0 -45 -35 -45 l-35 0
28 45 c15 25 30 45 34 45 5 0 8 -20 8 -45z"/>
<path d="M4599 10041 c-13 -11 -21 -23 -16 -27 4 -4 13 -2 19 4 23 23 28 11
28 -63 0 -43 4 -75 10 -75 6 0 10 37 10 90 0 98 -7 107 -51 71z"/>
<path d="M4976 10001 c-20 -32 -36 -64 -36 -70 0 -6 19 -11 45 -11 38 0 45 -3
45 -20 0 -11 7 -20 15 -20 8 0 15 9 15 19 0 11 6 22 13 25 10 5 10 7 0 12 -8
4 -13 27 -13 65 0 55 -1 59 -24 59 -18 0 -32 -14 -60 -59z m54 -16 c0 -43 -1
-45 -30 -45 -16 0 -30 2 -30 5 0 8 50 85 55 85 3 0 5 -20 5 -45z"/>
<path d="M5110 10050 c0 -5 20 -10 45 -10 25 0 45 -2 45 -5 0 -3 -16 -37 -35
-75 -39 -78 -40 -80 -22 -80 13 0 87 140 87 165 0 12 -14 15 -60 15 -33 0 -60
-4 -60 -10z"/>
<path d="M5800 9970 c0 -73 3 -90 15 -90 11 0 15 11 15 40 l0 40 45 0 45 0 0
-40 c0 -29 4 -40 15 -40 12 0 15 17 15 90 0 72 -3 90 -14 90 -10 0 -16 -13
-18 -37 -3 -37 -4 -38 -43 -38 -39 0 -40 1 -43 38 -2 24 -8 37 -18 37 -11 0
-14 -18 -14 -90z"/>
<path d="M6162 10048 c-15 -15 -16 -38 -2 -38 6 0 13 7 16 15 8 20 50 19 58
-1 8 -20 -4 -41 -48 -83 -52 -50 -48 -61 24 -61 33 0 60 4 60 10 0 6 -18 10
-40 10 -22 0 -40 3 -40 7 0 4 16 24 36 44 38 39 48 84 23 100 -20 13 -73 11
-87 -3z"/>
<path d="M6336 10001 c-20 -32 -36 -64 -36 -70 0 -6 19 -11 45 -11 38 0 45 -3
45 -20 0 -11 7 -20 15 -20 8 0 15 9 15 19 0 11 6 22 13 25 10 5 10 7 0 12 -8
4 -13 27 -13 65 0 55 -1 59 -24 59 -18 0 -32 -14 -60 -59z m54 -16 c0 -43 -1
-45 -30 -45 -16 0 -30 2 -30 5 0 8 50 85 55 85 3 0 5 -20 5 -45z"/>
<path d="M6515 10005 c-47 -72 -46 -85 6 -85 32 0 42 -4 46 -20 6 -23 23 -27
23 -5 0 9 7 18 15 21 8 4 15 10 15 15 0 5 -7 9 -15 9 -12 0 -15 13 -15 60 0
53 -2 60 -20 60 -14 0 -32 -18 -55 -55z m55 -20 c0 -45 0 -45 -35 -45 l-35 0
28 45 c15 25 30 45 34 45 5 0 8 -20 8 -45z"/>
<path d="M6669 10041 c-13 -11 -21 -23 -16 -27 4 -4 13 -2 19 4 23 23 28 11
28 -63 0 -43 4 -75 10 -75 6 0 10 37 10 90 0 98 -7 107 -51 71z"/>
<path d="M6885 10005 c-47 -72 -46 -85 6 -85 32 0 42 -4 46 -20 6 -23 23 -27
23 -5 0 9 7 18 15 21 8 4 15 10 15 15 0 5 -7 9 -15 9 -12 0 -15 13 -15 60 0
53 -2 60 -20 60 -14 0 -32 -18 -55 -55z m55 -20 c0 -45 0 -45 -35 -45 l-35 0
28 45 c15 25 30 45 34 45 5 0 8 -20 8 -45z"/>
<path d="M7040 10045 c-16 -20 -5 -32 14 -16 20 17 60 10 64 -11 2 -12 -8 -22
-30 -31 -34 -15 -33 -16 17 -32 21 -6 19 -42 -4 -50 -21 -6 -51 3 -51 16 0 5
-7 9 -15 9 -20 0 -19 -13 3 -33 25 -22 75 -21 95 1 23 25 21 48 -3 65 -18 12
-18 15 -5 20 20 8 20 63 -1 71 -28 11 -71 6 -84 -9z"/>
<path d="M7210 10045 c-16 -20 -5 -32 14 -16 20 17 60 10 64 -11 2 -12 -8 -22
-30 -31 -34 -15 -33 -16 17 -32 21 -6 19 -42 -4 -50 -21 -6 -51 3 -51 16 0 5
-7 9 -15 9 -20 0 -19 -13 3 -33 25 -22 75 -21 95 1 23 25 21 48 -3 65 -18 12
-18 15 -5 20 20 8 20 63 -1 71 -28 11 -71 6 -84 -9z"/>
<path d="M4110 9996 c0 -9 7 -16 16 -16 17 0 14 22 -4 28 -7 2 -12 -3 -12 -12z"/>
<path d="M6007 10003 c-12 -11 -8 -23 8 -23 8 0 15 7 15 15 0 16 -12 20 -23 8z"/>
<path d="M440 9945 c0 -8 7 -15 15 -15 8 0 15 7 15 15 0 8 -7 15 -15 15 -8 0
-15 -7 -15 -15z"/>
<path d="M820 9945 c0 -8 7 -15 15 -15 8 0 15 7 15 15 0 8 -7 15 -15 15 -8 0
-15 -7 -15 -15z"/>
<path d="M4110 9894 c0 -9 5 -14 12 -12 18 6 21 28 4 28 -9 0 -16 -7 -16 -16z"/>
<path d="M4872 9898 c6 -18 28 -21 28 -4 0 9 -7 16 -16 16 -9 0 -14 -5 -12
-12z"/>
<path d="M6002 9898 c6 -18 28 -21 28 -4 0 9 -7 16 -16 16 -9 0 -14 -5 -12
-12z"/>
<path d="M6780 9894 c0 -9 5 -14 12 -12 18 6 21 28 4 28 -9 0 -16 -7 -16 -16z"/>
<path d="M0 9623 l0 -107 63 69 c35 39 78 87 96 108 l33 37 -96 0 -96 0 0
-107z"/>
<path d="M383 9559 c-34 -12 -46 -44 -31 -77 15 -30 59 -42 84 -21 11 9 14 8
14 -5 0 -26 -19 -56 -35 -56 -9 0 -24 5 -35 12 -26 16 -40 0 -16 -18 71 -51
145 41 105 130 -14 30 -55 47 -86 35z m56 -38 c13 -24 -8 -55 -34 -50 -28 6
-42 34 -26 53 18 22 48 20 60 -3z"/>
<path d="M532 9548 c-14 -14 -16 -38 -3 -38 5 0 14 7 21 15 17 20 54 15 58 -7
2 -11 -6 -22 -22 -29 -33 -15 -33 -29 -2 -29 28 0 42 -26 25 -46 -15 -18 -43
-18 -59 1 -16 19 -30 19 -30 0 0 -36 78 -47 110 -15 25 25 25 35 1 59 -17 17
-18 21 -5 32 35 29 8 69 -46 69 -20 0 -41 -5 -48 -12z"/>
<path d="M776 9538 c-23 -33 -21 -113 4 -138 26 -26 62 -25 86 1 26 29 26 109
0 138 -25 28 -70 27 -90 -1z m74 -17 c24 -46 5 -121 -31 -121 -33 0 -52 78
-29 121 6 10 19 19 30 19 11 0 24 -9 30 -19z"/>
<path d="M1007 9542 c-19 -21 -23 -42 -5 -24 23 23 28 12 28 -63 0 -60 3 -75
15 -75 12 0 15 17 15 90 0 81 -2 90 -18 90 -11 0 -26 -8 -35 -18z"/>
<path d="M1132 9548 c-14 -14 -16 -38 -3 -38 5 0 12 7 15 16 4 10 15 14 33 12
45 -5 41 -36 -12 -88 -61 -60 -59 -70 15 -70 33 0 60 4 60 10 0 6 -18 10 -40
10 -22 0 -40 3 -40 6 0 4 16 24 35 45 53 59 44 109 -20 109 -17 0 -36 -5 -43
-12z"/>
<path d="M1287 9553 c-14 -14 -7 -74 9 -80 37 -14 70 41 44 73 -13 15 -42 19
-53 7z m43 -39 c0 -28 -3 -35 -17 -32 -31 6 -29 68 2 68 11 0 15 -10 15 -36z"/>
<path d="M1376 9474 c-32 -47 -56 -88 -53 -90 3 -3 25 23 50 58 65 92 80 118
71 118 -5 0 -35 -39 -68 -86z"/>
<path d="M230 9495 c0 -20 -5 -25 -25 -25 -16 0 -25 -6 -25 -15 0 -9 9 -15 25
-15 20 0 25 -5 25 -25 0 -16 6 -25 15 -25 9 0 15 9 15 25 0 20 5 25 25 25 16
0 25 6 25 15 0 9 -9 15 -25 15 -20 0 -25 5 -25 25 0 16 -6 25 -15 25 -9 0 -15
-9 -15 -25z"/>
<path d="M1427 9464 c-13 -13 -7 -61 9 -75 24 -20 49 1 49 42 0 29 -4 34 -25
37 -14 2 -29 0 -33 -4z m48 -23 c6 -21 -3 -51 -16 -51 -13 0 -27 31 -22 51 7
24 30 24 38 0z"/>
<path d="M920 9394 c0 -17 22 -14 28 4 2 7 -3 12 -12 12 -9 0 -16 -7 -16 -16z"/>
<path d="M5303 9370 c-66 -27 -54 -150 15 -150 28 0 27 -5 -3 -57 l-24 -43 23
0 c19 0 29 13 55 68 48 105 40 168 -24 185 -11 3 -30 2 -42 -3z m51 -36 c9 -8
16 -26 16 -39 0 -23 -23 -55 -40 -55 -17 0 -40 32 -40 55 0 23 23 55 40 55 5
0 16 -7 24 -16z"/>
<path d="M7223 9370 c-66 -27 -54 -150 15 -150 28 0 27 -5 -3 -57 l-24 -43 23
0 c19 0 29 13 55 68 48 105 40 168 -24 185 -11 3 -30 2 -42 -3z m51 -36 c9 -8
16 -26 16 -39 0 -23 -23 -55 -40 -55 -17 0 -40 32 -40 55 0 23 23 55 40 55 5
0 16 -7 24 -16z"/>
<path d="M4670 9330 l0 -29 79 -3 79 -3 -64 -174 c-35 -96 -64 -176 -64 -178
0 -2 16 -3 35 -3 19 0 35 1 35 3 0 2 29 86 65 186 36 101 65 194 65 207 0 24
0 24 -115 24 l-115 0 0 -30z"/>
<path d="M5024 9248 c-54 -109 -55 -115 -52 -182 3 -62 7 -71 36 -97 26 -23
42 -29 80 -29 81 0 122 48 122 142 0 71 -26 115 -74 124 -20 3 -43 4 -51 0
-10 -3 -2 20 22 67 21 40 39 75 41 80 2 4 -13 7 -32 7 -37 0 -37 0 -92 -112z
m101 -103 c28 -27 33 -83 12 -125 -10 -19 -20 -25 -47 -25 -41 0 -60 28 -60
88 0 38 34 87 60 87 6 0 22 -11 35 -25z"/>
<path d="M6590 9330 l0 -29 79 -3 79 -3 -64 -174 c-35 -96 -64 -176 -64 -178
0 -2 16 -3 35 -3 19 0 35 1 35 3 0 2 29 86 65 186 36 101 65 194 65 207 0 24
0 24 -115 24 l-115 0 0 -30z"/>
<path d="M6944 9248 c-54 -109 -55 -115 -52 -182 3 -62 7 -71 36 -97 26 -23
42 -29 80 -29 81 0 122 48 122 142 0 71 -26 115 -74 124 -20 3 -43 4 -51 0
-10 -3 -2 20 22 67 21 40 39 75 41 80 2 4 -13 7 -32 7 -37 0 -37 0 -92 -112z
m101 -103 c28 -27 33 -83 12 -125 -10 -19 -20 -25 -47 -25 -41 0 -60 28 -60
88 0 38 34 87 60 87 6 0 22 -11 35 -25z"/>
<path d="M4242 9190 c-29 -12 -44 -52 -32 -85 5 -14 14 -25 20 -25 5 0 1 -9
-10 -20 -42 -42 -12 -120 48 -120 45 0 72 25 72 69 0 22 -6 44 -15 51 -13 11
-13 15 0 33 20 28 19 50 -2 75 -22 25 -51 33 -81 22z m53 -60 c0 -29 -4 -36
-23 -38 -26 -4 -37 17 -28 54 5 19 12 25 29 22 18 -2 22 -9 22 -38z m5 -96
c13 -34 -4 -66 -33 -62 -23 3 -35 43 -23 74 9 24 46 16 56 -12z"/>
<path d="M4428 9193 c-30 -8 -50 -69 -46 -144 4 -77 24 -109 68 -109 40 0 63
32 68 95 9 114 -25 175 -90 158z m52 -75 c21 -78 -8 -169 -45 -138 -37 30 -25
180 15 180 14 0 22 -11 30 -42z"/>
<path d="M6162 9190 c-29 -12 -44 -52 -32 -85 5 -14 14 -25 20 -25 5 0 1 -9
-10 -20 -42 -42 -12 -120 48 -120 45 0 72 25 72 69 0 22 -6 44 -15 51 -13 11
-13 15 0 33 20 28 19 50 -2 75 -22 25 -51 33 -81 22z m53 -60 c0 -29 -4 -36
-23 -38 -26 -4 -37 17 -28 54 5 19 12 25 29 22 18 -2 22 -9 22 -38z m5 -96
c13 -34 -4 -66 -33 -62 -23 3 -35 43 -23 74 9 24 46 16 56 -12z"/>
<path d="M6348 9193 c-30 -8 -50 -69 -46 -144 4 -77 24 -109 68 -109 40 0 63
32 68 95 9 114 -25 175 -90 158z m52 -75 c21 -78 -8 -169 -45 -138 -37 30 -25
180 15 180 14 0 22 -11 30 -42z"/>
<path d="M405 9178 c-28 -16 -35 -28 -35 -65 0 -25 8 -38 40 -63 43 -34 49
-50 24 -71 -13 -10 -19 -10 -36 0 -17 11 -22 10 -29 -1 -12 -19 13 -39 51 -40
39 -1 70 30 70 69 0 24 -51 83 -72 83 -5 0 -8 12 -6 28 3 24 7 27 35 25 32 -3
53 12 37 27 -17 14 -59 19 -79 8z"/>
<path d="M575 9180 c-30 -11 -43 -30 -53 -78 -12 -52 2 -123 29 -148 26 -23
75 -22 100 3 48 47 44 167 -6 211 -28 24 -38 25 -70 12z m47 -47 c27 -24 26
-123 -3 -149 -21 -19 -21 -18 -40 5 -25 30 -26 116 -2 143 20 22 22 22 45 1z"/>
<path d="M180 9090 c0 -101 12 -137 49 -147 79 -21 101 10 101 138 0 92 -1 99
-20 99 -19 0 -20 -7 -20 -93 0 -110 -16 -140 -54 -101 -12 12 -16 37 -16 105
0 82 -1 89 -20 89 -19 0 -20 -7 -20 -90z"/>
<path d="M720 9060 l0 -120 25 0 25 0 0 120 0 120 -25 0 -25 0 0 -120z"/>
<path d="M810 9060 l0 -120 55 0 c48 0 55 2 55 20 0 16 -7 20 -30 20 l-30 0 0
100 0 100 -25 0 -25 0 0 -120z"/>
<path d="M940 9095 c0 -10 10 -15 31 -15 l30 0 -30 -54 c-45 -78 -42 -86 24
-86 42 0 55 3 55 15 0 11 -11 15 -36 15 l-35 0 30 54 c44 76 42 86 -19 86 -38
0 -50 -4 -50 -15z"/>
<path d="M4572 8978 c-13 -13 -4 -38 14 -38 15 0 19 35 6 44 -5 3 -14 0 -20
-6z"/>
<path d="M6492 8978 c-13 -13 -4 -38 14 -38 15 0 19 35 6 44 -5 3 -14 0 -20
-6z"/>
<path d="M943 8719 c-28 -10 -43 -39 -43 -84 0 -62 25 -95 72 -95 36 0 58 34
58 90 0 71 -36 108 -87 89z m53 -42 c18 -72 -19 -146 -52 -103 -16 23 -19 79
-4 107 15 27 48 24 56 -4z"/>
<path d="M1109 8716 c-34 -17 -45 -41 -33 -73 7 -22 17 -29 42 -31 18 -2 40 3
49 10 14 11 15 10 8 -12 -13 -43 -30 -55 -60 -42 -39 18 -50 15 -30 -8 10 -11
31 -20 47 -20 43 0 68 31 68 88 0 75 -40 114 -91 88z m56 -51 c0 -27 -3 -30
-30 -30 -21 0 -31 5 -33 18 -6 33 6 49 35 45 24 -3 28 -8 28 -33z"/>
<path d="M1624 8720 c-34 -13 -48 -39 -48 -90 0 -58 23 -90 64 -90 35 0 60 29
67 78 9 69 -32 120 -83 102z m46 -39 c25 -48 1 -131 -34 -118 -27 11 -39 56
-26 100 12 42 42 51 60 18z"/>
<path d="M199 8701 c-13 -11 -21 -23 -16 -27 4 -4 13 -2 19 4 23 23 28 11 28
-63 0 -43 4 -75 10 -75 6 0 10 37 10 90 0 98 -7 107 -51 71z"/>
<path d="M320 8700 c-29 -22 -22 -37 9 -20 20 10 21 9 21 -65 0 -60 3 -75 15
-75 12 0 15 17 15 90 0 79 -2 90 -17 90 -10 0 -29 -9 -43 -20z"/>
<path d="M530 8700 c-29 -22 -22 -37 9 -20 20 10 21 9 21 -65 0 -60 3 -75 15
-75 12 0 15 17 15 90 0 79 -2 90 -17 90 -10 0 -29 -9 -43 -20z"/>
<path d="M662 8708 c-18 -18 -15 -55 5 -62 14 -6 14 -8 -5 -22 -12 -8 -22 -23
-22 -33 0 -47 82 -69 120 -31 25 25 25 35 1 59 -17 17 -18 21 -5 32 35 29 8
69 -46 69 -20 0 -41 -5 -48 -12z m73 -33 c0 -23 -43 -34 -55 -14 -14 21 1 40
29 37 18 -2 26 -9 26 -23z m5 -71 c19 -22 -9 -49 -44 -40 -25 6 -35 33 -19 49
12 13 50 7 63 -9z"/>
<path d="M4764 8700 c-34 -13 -48 -39 -48 -90 0 -58 23 -90 64 -90 35 0 60 29
67 78 9 69 -32 120 -83 102z m46 -39 c25 -48 1 -131 -34 -118 -27 11 -39 56
-26 100 12 42 42 51 60 18z"/>
<path d="M444 8686 c-8 -22 3 -33 18 -18 9 9 9 15 0 24 -9 9 -13 7 -18 -6z"/>
<path d="M825 8690 c-7 -12 2 -30 16 -30 12 0 12 27 0 35 -5 3 -12 1 -16 -5z"/>
<path d="M4240 8610 l0 -90 61 0 c44 0 60 3 57 13 -3 6 -23 13 -46 15 l-42 3
0 75 c0 59 -3 74 -15 74 -12 0 -15 -17 -15 -90z"/>
<path d="M4562 8688 c-18 -18 -15 -55 5 -62 14 -6 14 -8 -5 -22 -12 -8 -22
-23 -22 -33 0 -47 82 -69 120 -31 25 25 25 35 1 59 -17 17 -18 21 -5 32 35 29
8 69 -46 69 -20 0 -41 -5 -48 -12z m73 -33 c0 -23 -43 -34 -55 -14 -14 21 1
40 29 37 18 -2 26 -9 26 -23z m5 -71 c19 -22 -9 -49 -44 -40 -25 6 -35 33 -19
49 12 13 50 7 63 -9z"/>
<path d="M4970 8685 c-16 -20 -5 -32 14 -16 20 17 60 10 64 -11 2 -12 -8 -22
-30 -31 -34 -15 -33 -16 17 -32 21 -6 19 -42 -4 -50 -21 -6 -51 3 -51 16 0 5
-7 9 -15 9 -20 0 -19 -13 3 -33 25 -22 75 -21 95 1 23 25 21 48 -3 65 -18 12
-18 15 -5 20 20 8 20 63 -1 71 -28 11 -71 6 -84 -9z"/>
<path d="M5130 8650 c0 -52 7 -58 39 -38 25 15 53 -6 49 -35 -5 -33 -33 -44
-57 -23 -28 25 -46 17 -26 -12 11 -15 26 -22 49 -22 59 0 87 59 46 100 -23 23
-33 24 -61 9 -19 -9 -20 -8 -17 18 3 25 7 28 46 31 61 5 52 22 -13 22 l-55 0
0 -50z"/>
<path d="M5280 8690 c0 -5 20 -10 45 -10 25 0 45 -2 45 -5 0 -3 -16 -37 -35
-75 -39 -78 -40 -80 -22 -80 13 0 87 140 87 165 0 12 -14 15 -60 15 -33 0 -60
-4 -60 -10z"/>
<path d="M6170 8610 c0 -73 3 -90 15 -90 11 0 15 11 15 40 l0 40 50 0 50 0 0
-40 c0 -22 5 -40 10 -40 6 0 10 37 10 90 0 88 -16 126 -22 53 -3 -38 -3 -38
-48 -38 -45 0 -45 0 -48 38 -2 24 -8 37 -18 37 -11 0 -14 -18 -14 -90z"/>
<path d="M6542 8688 c-18 -18 -15 -55 5 -62 14 -6 14 -8 -5 -22 -12 -8 -22
-23 -22 -33 0 -47 82 -69 120 -31 25 25 25 35 1 59 -17 17 -18 21 -5 32 35 29
8 69 -46 69 -20 0 -41 -5 -48 -12z m73 -33 c0 -23 -43 -34 -55 -14 -14 21 1
40 29 37 18 -2 26 -9 26 -23z m5 -71 c19 -22 -9 -49 -44 -40 -25 6 -35 33 -19
49 12 13 50 7 63 -9z"/>
<path d="M6710 8680 c-29 -22 -22 -37 9 -20 20 10 21 9 21 -65 0 -60 3 -75 15
-75 12 0 15 17 15 90 0 79 -2 90 -17 90 -10 0 -29 -9 -43 -20z"/>
<path d="M6912 8688 c-15 -15 -16 -38 -2 -38 6 0 13 7 16 15 8 20 50 19 58 -1
8 -20 -4 -41 -48 -83 -52 -50 -48 -61 24 -61 33 0 60 4 60 10 0 6 -18 10 -40
10 -22 0 -40 3 -40 7 0 4 16 24 36 44 38 39 48 84 23 100 -20 13 -73 11 -87
-3z"/>
<path d="M7079 8681 c-13 -11 -21 -23 -16 -27 4 -4 13 -2 19 4 23 23 28 11 28
-63 0 -43 4 -75 10 -75 6 0 10 37 10 90 0 98 -7 107 -51 71z"/>
<path d="M7216 8641 c-20 -32 -36 -64 -36 -70 0 -6 19 -11 45 -11 38 0 45 -3
45 -20 0 -11 7 -20 15 -20 8 0 15 9 15 19 0 11 6 22 13 25 10 5 10 7 0 12 -8
4 -13 27 -13 65 0 55 -1 59 -24 59 -18 0 -32 -14 -60 -59z m54 -16 c0 -43 -1
-45 -30 -45 -16 0 -30 2 -30 5 0 8 50 85 55 85 3 0 5 -20 5 -45z"/>
<path d="M4400 8636 c0 -9 7 -16 16 -16 17 0 14 22 -4 28 -7 2 -12 -3 -12 -12z"/>
<path d="M6380 8636 c0 -9 7 -16 16 -16 9 0 14 5 12 12 -6 18 -28 21 -28 4z"/>
<path d="M440 8585 c0 -8 7 -15 15 -15 8 0 15 7 15 15 0 8 -7 15 -15 15 -8 0
-15 -7 -15 -15z"/>
<path d="M820 8585 c0 -8 7 -15 15 -15 8 0 15 7 15 15 0 8 -7 15 -15 15 -8 0
-15 -7 -15 -15z"/>
<path d="M4400 8534 c0 -9 5 -14 12 -12 18 6 21 28 4 28 -9 0 -16 -7 -16 -16z"/>
<path d="M4882 8538 c6 -18 28 -21 28 -4 0 9 -7 16 -16 16 -9 0 -14 -5 -12
-12z"/>
<path d="M6380 8534 c0 -9 5 -14 12 -12 18 6 21 28 4 28 -9 0 -16 -7 -16 -16z"/>
<path d="M6822 8538 c6 -18 28 -21 28 -4 0 9 -7 16 -16 16 -9 0 -14 -5 -12
-12z"/>
<path d="M3560 790 c-18 -18 -20 -33 -20 -185 0 -219 -14 -205 205 -205 219 0
205 -14 205 205 0 219 14 205 -205 205 -152 0 -167 -2 -185 -20z m350 -185 l0
-165 -165 0 -165 0 0 165 0 165 165 0 165 0 0 -165z"/>
<path d="M3829 644 c-18 -31 -37 -58 -44 -60 -7 -3 -26 9 -43 25 -17 17 -34
31 -39 31 -4 -1 -28 -26 -52 -56 -30 -38 -41 -58 -34 -65 7 -7 22 4 48 36 l38
46 37 -36 c19 -19 40 -35 45 -35 12 0 95 136 95 156 0 29 -21 12 -51 -42z"/>
<path d="M5218 800 c-20 -4 -53 -17 -72 -30 -38 -27 -86 -94 -86 -122 0 -9 -7
-21 -15 -26 -14 -7 -13 -11 5 -27 19 -18 21 -18 40 0 14 13 17 21 9 26 -33 20
37 120 98 140 46 15 118 6 151 -18 52 -39 67 -70 67 -138 0 -69 -15 -99 -69
-139 -40 -31 -143 -30 -185 1 -36 27 -54 12 -23 -19 48 -49 161 -51 228 -6
175 119 62 393 -148 358z"/>
<path d="M6707 803 c-2 -4 -7 -20 -11 -35 -8 -35 -39 -53 -65 -38 -31 16 -39
12 -61 -29 l-19 -39 24 -16 c15 -10 25 -26 25 -41 0 -15 -10 -31 -25 -41 l-24
-16 19 -39 c22 -41 30 -45 61 -29 27 15 57 -4 67 -43 8 -29 12 -32 47 -32 35
0 39 3 47 32 10 39 40 58 67 43 30 -16 37 -13 61 27 l22 37 -26 19 c-15 11
-26 28 -26 42 0 14 11 31 26 42 l26 19 -22 37 c-24 40 -31 43 -61 27 -27 -15
-57 4 -67 43 -7 28 -13 32 -44 35 -20 2 -38 -1 -41 -5z m63 -55 c0 -31 51 -59
90 -51 25 5 30 2 30 -15 0 -11 -7 -25 -15 -32 -8 -7 -15 -27 -15 -45 0 -18 7
-38 15 -45 8 -7 15 -21 15 -32 0 -17 -5 -20 -30 -15 -39 8 -90 -20 -90 -50 0
-18 -6 -23 -25 -23 -19 0 -25 5 -25 23 0 30 -51 58 -90 50 -25 -5 -30 -2 -30
15 0 11 7 25 15 32 8 7 15 27 15 45 0 18 -7 38 -15 45 -8 7 -15 21 -15 32 0
17 5 20 30 15 39 -8 90 20 90 51 0 17 6 22 25 22 19 0 25 -5 25 -22z"/>
<path d="M6695 655 c-14 -13 -25 -36 -25 -50 0 -33 42 -75 75 -75 33 0 75 42
75 75 0 33 -42 75 -75 75 -14 0 -37 -11 -50 -25z m83 -17 c28 -28 7 -78 -33
-78 -27 0 -45 18 -45 45 0 27 18 45 45 45 12 0 26 -5 33 -12z"/>
<path d="M2160 729 c0 -52 -3 -62 -20 -66 -18 -5 -20 -14 -20 -88 0 -74 2 -83
20 -88 15 -4 20 -14 20 -36 0 -21 5 -31 15 -31 10 0 15 10 15 31 0 22 5 32 20
36 18 5 20 14 20 89 0 77 -2 84 -20 84 -18 0 -20 7 -20 65 0 51 -3 65 -15 65
-12 0 -15 -13 -15 -61z"/>
<path d="M2320 759 c0 -22 -5 -32 -20 -36 -18 -5 -20 -14 -20 -99 0 -87 1 -94
20 -94 16 0 20 -7 20 -30 0 -20 5 -30 15 -30 9 0 15 10 15 26 0 17 6 28 20 31
18 5 20 14 20 98 0 84 -2 93 -20 98 -15 4 -20 14 -20 36 0 21 -5 31 -15 31
-10 0 -15 -10 -15 -31z m40 -134 c0 -63 -1 -65 -25 -65 -24 0 -25 2 -25 65 0
63 1 65 25 65 24 0 25 -2 25 -65z"/>
<path d="M806 729 c-48 -53 -54 -90 -7 -45 15 14 30 26 34 26 3 0 8 -39 9 -87
2 -58 7 -88 16 -91 9 -3 12 19 12 87 0 50 4 91 8 91 5 0 19 -11 32 -25 25 -27
40 -32 40 -14 0 11 -76 101 -91 107 -3 2 -27 -20 -53 -49z"/>
<path d="M5240 642 c0 -54 2 -60 40 -97 27 -26 43 -36 50 -29 7 7 -2 21 -25
44 -31 30 -35 39 -35 87 0 40 -4 53 -15 53 -12 0 -15 -13 -15 -58z"/>
<path d="M640 591 c0 -50 -4 -91 -8 -91 -5 0 -19 11 -32 25 -16 17 -27 22 -34
15 -7 -7 6 -26 39 -61 l50 -50 48 51 c49 54 56 92 8 46 -15 -14 -30 -26 -34
-26 -3 0 -8 39 -9 87 -2 58 -7 88 -15 91 -10 3 -13 -19 -13 -87z"/>
<path d="M2130 155 c0 -43 4 -75 10 -75 6 0 10 18 10 40 0 28 5 43 16 47 21 8
34 -13 34 -54 0 -18 5 -33 10 -33 6 0 10 20 10 45 0 49 -21 71 -52 54 -15 -8
-18 -5 -18 21 0 16 -4 30 -10 30 -6 0 -10 -32 -10 -75z"/>
<path d="M3870 200 c0 -27 -2 -30 -20 -20 -15 8 -24 6 -40 -10 -25 -25 -25
-41 -1 -71 17 -21 22 -22 40 -11 13 7 21 8 21 2 0 -5 5 -10 10 -10 6 0 10 32
10 75 0 43 -4 75 -10 75 -5 0 -10 -14 -10 -30z m-10 -45 c17 -20 8 -50 -15
-50 -20 0 -31 25 -21 51 7 18 20 18 36 -1z"/>
<path d="M5040 220 c0 -5 5 -10 10 -10 6 0 10 5 10 10 0 6 -4 10 -10 10 -5 0
-10 -4 -10 -10z"/>
<path d="M6760 220 c0 -5 5 -10 10 -10 6 0 10 5 10 10 0 6 -4 10 -10 10 -5 0
-10 -4 -10 -10z"/>
<path d="M417 202 c-22 -25 -22 -85 1 -104 23 -21 93 -31 86 -13 -3 7 -1 16 5
20 18 11 13 80 -7 98 -24 22 -65 21 -85 -1z m71 -14 c7 -7 12 -25 12 -40 0
-22 -5 -28 -21 -28 -11 0 -17 -4 -14 -10 9 -14 -19 -12 -33 2 -27 27 -8 88 28
88 9 0 21 -5 28 -12z"/>
<path d="M1995 200 c-54 -60 16 -153 81 -106 25 19 12 31 -15 14 -30 -19 -56
0 -56 42 0 42 26 61 56 42 27 -17 40 -5 15 14 -28 20 -60 17 -81 -6z"/>
<path d="M3460 210 c0 -5 9 -10 20 -10 18 0 20 -7 20 -60 0 -47 3 -60 15 -60
12 0 15 13 15 60 0 53 2 60 20 60 11 0 20 5 20 10 0 6 -25 10 -55 10 -30 0
-55 -4 -55 -10z"/>
<path d="M4890 150 c0 -40 4 -70 10 -70 6 0 10 14 10 30 0 28 3 30 35 30 32 0
35 -2 35 -30 0 -20 5 -30 15 -30 12 0 15 14 15 70 0 56 -3 70 -15 70 -10 0
-15 -10 -15 -30 0 -28 -3 -30 -35 -30 -32 0 -35 2 -35 30 0 17 -4 30 -10 30
-6 0 -10 -30 -10 -70z"/>
<path d="M6342 208 c-24 -24 -14 -49 28 -65 22 -9 39 -21 37 -27 -5 -14 -57
-20 -57 -7 0 6 -4 11 -10 11 -16 0 -11 -27 6 -34 44 -17 84 1 84 37 0 12 -13
24 -40 34 -47 19 -47 39 -1 36 20 0 31 3 28 10 -5 17 -60 20 -75 5z"/>
<path d="M812 190 c-7 -12 -8 -20 -2 -20 5 0 10 -18 10 -39 0 -27 5 -41 16
-45 9 -4 20 -3 23 0 3 4 0 9 -6 11 -17 6 -17 70 0 76 10 4 10 6 0 6 -7 1 -13
8 -13 16 0 21 -13 19 -28 -5z"/>
<path d="M2473 190 c-8 -12 -9 -21 -3 -25 6 -3 10 -22 10 -41 0 -34 22 -56 38
-39 4 4 1 10 -5 12 -7 3 -13 20 -13 38 0 18 6 36 13 38 10 4 10 6 0 6 -7 1
-13 8 -13 16 0 21 -13 19 -27 -5z"/>
<path d="M5223 190 c-8 -12 -9 -21 -3 -25 6 -3 10 -22 10 -41 0 -34 22 -56 38
-39 4 4 1 10 -5 12 -7 3 -13 20 -13 38 0 18 6 36 13 38 10 4 10 6 0 6 -7 1
-13 8 -13 16 0 21 -13 19 -27 -5z"/>
<path d="M6590 196 c0 -8 -6 -17 -12 -19 -10 -4 -10 -6 0 -6 7 -1 12 -16 12
-40 0 -27 5 -41 16 -45 22 -8 31 1 16 16 -15 15 -16 68 -2 68 6 0 5 8 -2 20
-15 23 -28 26 -28 6z"/>
<path d="M6680 196 c0 -8 -6 -17 -12 -19 -10 -4 -10 -6 0 -6 7 -1 12 -16 12
-40 0 -27 5 -41 16 -45 22 -8 31 1 16 16 -15 15 -16 68 -2 68 6 0 5 8 -2 20
-15 23 -28 26 -28 6z"/>
<path d="M701 173 c-30 -20 -28 -70 3 -84 44 -20 83 20 65 67 -10 28 -42 36
-68 17z m47 -41 c3 -30 1 -33 -20 -30 -23 3 -34 27 -24 54 11 28 41 11 44 -24z"/>
<path d="M911 174 c-33 -23 -26 -75 12 -88 21 -8 31 -6 43 6 15 15 14 16 -16
15 -19 -1 -35 3 -37 11 -3 8 7 12 32 12 28 0 36 4 33 16 -2 9 -12 23 -23 30
-18 12 -24 11 -44 -2z m47 -21 c2 -8 -6 -13 -22 -13 -25 0 -33 10 -19 24 10
10 36 3 41 -11z"/>
<path d="M1036 178 c-25 -14 -19 -38 14 -49 17 -6 30 -15 30 -19 0 -12 -29
-20 -35 -10 -8 13 -25 13 -25 0 0 -16 49 -23 65 -10 23 19 18 37 -15 49 -41
14 -40 35 1 26 20 -5 29 -3 25 3 -9 15 -41 20 -60 10z"/>
<path d="M2273 179 c-33 -12 -28 -22 7 -14 23 5 30 3 30 -9 0 -9 -11 -16 -27
-18 -22 -2 -28 -8 -28 -28 0 -22 4 -25 43 -27 l42 -1 0 36 c0 56 -24 77 -67
61z m37 -64 c0 -8 -9 -15 -20 -15 -20 0 -26 11 -13 23 12 13 33 7 33 -8z"/>
<path d="M2415 180 c-4 -6 -15 -8 -26 -5 -17 6 -19 1 -19 -44 0 -28 5 -51 10
-51 6 0 10 14 10 30 0 17 9 39 21 51 11 11 18 23 16 25 -3 3 -8 0 -12 -6z"/>
<path d="M3631 181 c-8 -5 -20 -7 -28 -4 -10 4 -13 -7 -13 -46 0 -28 5 -51 10
-51 6 0 10 18 10 39 0 31 4 41 20 46 11 3 20 11 20 16 0 11 -1 11 -19 0z"/>
<path d="M3694 175 c-18 -13 -18 -14 8 -12 31 2 39 -16 9 -21 -58 -9 -45 -61
14 -59 34 1 35 2 35 44 0 32 -5 45 -19 53 -25 13 -23 13 -47 -5z m46 -54 c0
-6 -5 -13 -10 -16 -15 -9 -43 3 -35 15 8 13 45 13 45 1z"/>
<path d="M3940 170 c-25 -25 -25 -41 -2 -70 14 -18 25 -22 45 -16 37 9 34 27
-3 20 -23 -5 -30 -3 -30 10 0 12 9 16 35 16 19 0 35 5 35 10 0 13 -37 50 -50
50 -5 0 -19 -9 -30 -20z m50 -15 c0 -8 -9 -15 -20 -15 -11 0 -20 7 -20 15 0 8
9 15 20 15 11 0 20 -7 20 -15z"/>
<path d="M5118 179 c-27 -15 -21 -39 12 -50 17 -6 30 -16 30 -21 0 -6 -12 -8
-30 -4 -31 6 -42 -7 -14 -18 25 -10 42 -7 59 10 19 19 6 41 -27 46 -12 2 -24
9 -26 17 -4 11 3 13 29 8 32 -6 33 -6 15 8 -23 17 -25 18 -48 4z"/>
<path d="M5321 173 c-30 -20 -28 -70 3 -84 44 -20 83 20 65 67 -10 28 -42 36
-68 17z m44 -38 c0 -23 -4 -30 -20 -30 -21 0 -31 25 -21 51 11 28 41 12 41
-21z"/>
<path d="M5471 181 c-8 -5 -20 -7 -28 -4 -10 4 -13 -7 -13 -46 0 -28 5 -51 10
-51 6 0 10 18 10 39 0 31 4 41 20 46 11 3 20 11 20 16 0 11 -1 11 -19 0z"/>
<path d="M6488 182 c-19 -4 -32 -38 -26 -69 5 -27 54 -41 74 -21 15 15 14 16
-16 15 -19 -1 -35 3 -37 11 -3 8 7 12 32 12 32 0 36 3 33 21 -3 23 -32 38 -60
31z m40 -29 c2 -8 -6 -13 -22 -13 -25 0 -33 10 -19 24 10 10 36 3 41 -11z"/>
<path d="M6860 180 c-7 -4 -19 -6 -27 -3 -10 4 -13 -7 -13 -46 0 -28 5 -51 10
-51 6 0 10 18 10 40 0 28 5 43 16 47 21 8 34 -13 34 -54 0 -18 5 -33 10 -33 6
0 10 20 10 45 0 47 -22 72 -50 55z"/>
<path d="M6957 179 c-21 -12 -23 -62 -2 -79 8 -7 24 -10 36 -7 15 4 19 1 17
-11 -3 -13 -13 -16 -37 -14 -20 1 -30 -2 -26 -8 3 -5 22 -10 40 -10 42 0 55
20 55 86 0 40 -2 46 -19 41 -10 -2 -25 -1 -32 4 -8 4 -22 3 -32 -2z m51 -38
c4 -28 -17 -45 -35 -29 -14 11 -17 40 -6 52 14 14 38 0 41 -23z"/>
<path d="M7088 179 c-27 -15 -21 -39 12 -50 17 -6 30 -16 30 -21 0 -6 -12 -8
-30 -4 -31 6 -42 -7 -14 -18 25 -10 42 -7 59 10 19 19 6 41 -27 46 -12 2 -24
9 -26 17 -4 11 3 13 29 8 32 -6 33 -6 15 8 -23 17 -25 18 -48 4z"/>
<path d="M550 141 c0 -48 22 -71 51 -53 11 7 19 8 19 2 0 -5 5 -10 10 -10 6 0
10 23 10 50 0 28 -4 50 -10 50 -5 0 -10 -16 -10 -35 0 -23 -6 -38 -16 -42 -20
-7 -34 13 -34 50 0 15 -4 27 -10 27 -5 0 -10 -17 -10 -39z"/>
<path d="M5040 130 c0 -27 5 -50 10 -50 6 0 10 23 10 50 0 28 -4 50 -10 50 -5
0 -10 -22 -10 -50z"/>
<path d="M5520 177 c0 -2 7 -25 16 -50 13 -38 14 -51 4 -62 -10 -12 -10 -15 3
-15 20 0 31 16 51 74 19 58 18 56 7 56 -4 0 -15 -17 -23 -37 l-14 -38 -13 38
c-7 20 -17 37 -22 37 -5 0 -9 -1 -9 -3z"/>
<path d="M6760 130 c0 -27 5 -50 10 -50 6 0 10 23 10 50 0 28 -4 50 -10 50 -5
0 -10 -22 -10 -50z"/>
</g>
</svg>
