<?xml version="1.0" standalone="no"?>
<!DOCTYPE svg PUBLIC "-//W3C//DTD SVG 20010904//EN"
 "http://www.w3.org/TR/2001/REC-SVG-20010904/DTD/svg10.dtd">
<svg version="1.0" xmlns="http://www.w3.org/2000/svg"
 width="750.000000pt" height="1334.000000pt" viewBox="0 0 750.000000 1334.000000"
 preserveAspectRatio="xMidYMid meet">

<g transform="translate(0.000000,1334.000000) scale(0.100000,-0.100000)"
fill="#000000" stroke="none">
<path d="M1610 13240 c-39 -7 -95 -34 -105 -50 -4 -6 -2 -17 4 -24 9 -11 20
-9 58 10 25 13 61 24 78 24 17 0 53 -11 78 -24 38 -19 49 -21 58 -10 14 17 5
30 -34 51 -42 22 -94 30 -137 23z"/>
<path d="M6040 13225 c-7 -9 -10 -18 -7 -21 9 -9 48 16 42 27 -9 13 -21 11
-35 -6z"/>
<path d="M6160 13230 c0 -12 35 -31 44 -23 8 9 -14 33 -30 33 -8 0 -14 -4 -14
-10z"/>
<path d="M1080 13214 c0 -9 5 -14 12 -12 18 6 21 28 4 28 -9 0 -16 -7 -16 -16z"/>
<path d="M5468 13192 c-87 -39 -101 -62 -38 -62 l40 0 0 -40 c0 -64 23 -49 63
41 33 74 38 101 19 98 -4 0 -42 -17 -84 -37z"/>
<path d="M5729 13201 c-17 -18 -29 -40 -29 -56 0 -82 92 -134 151 -86 32 26
20 35 -20 15 -41 -20 -84 -5 -101 36 -25 61 41 122 98 89 16 -9 26 -23 25 -34
-2 -23 14 -55 27 -55 5 0 14 9 20 20 9 17 5 26 -29 60 -51 52 -97 55 -142 11z"/>
<path d="M150 13135 c0 -68 3 -85 15 -85 10 0 15 15 17 57 l3 57 39 -57 c55
-80 66 -76 66 28 0 68 -3 85 -15 85 -10 0 -15 -15 -17 -56 l-3 -57 -39 57
c-55 80 -66 75 -66 -29z"/>
<path d="M552 13208 c-16 -16 -15 -53 2 -67 8 -7 27 -16 43 -20 18 -5 28 -14
28 -27 0 -25 -32 -30 -56 -8 -22 20 -38 11 -23 -14 7 -10 27 -18 52 -20 32 -2
43 1 55 19 23 32 7 62 -39 75 -41 11 -57 39 -30 50 9 3 27 -1 41 -10 30 -20
35 -20 35 -1 0 31 -83 48 -108 23z"/>
<path d="M3423 13203 c-13 -8 -23 -22 -23 -29 0 -17 5 -17 31 -4 18 10 19 7
19 -55 0 -58 2 -65 20 -65 18 0 20 7 20 85 0 82 -1 85 -22 84 -13 0 -33 -7
-45 -16z"/>
<path d="M3540 13169 l0 -51 36 7 c39 7 57 -6 47 -32 -6 -16 -27 -17 -53 -1
-24 15 -38 3 -24 -20 7 -10 27 -18 52 -20 34 -3 43 1 57 22 14 22 15 29 3 53
-11 22 -20 28 -46 28 -24 0 -32 4 -32 17 0 14 8 18 40 18 29 0 40 4 40 15 0
12 -13 15 -60 15 l-60 0 0 -51z"/>
<path d="M3806 13204 c-22 -21 -20 -34 4 -34 11 0 20 5 20 10 0 6 9 10 20 10
12 0 20 -7 20 -16 0 -9 -9 -18 -20 -21 -27 -7 -25 -31 3 -35 12 -2 22 -10 22
-18 0 -18 -35 -26 -45 -10 -4 6 -17 10 -29 8 -20 -3 -21 -4 -6 -25 18 -25 71
-31 106 -13 23 13 25 56 3 68 -11 6 -13 11 -5 16 15 9 14 49 -1 64 -17 17 -74
15 -92 -4z"/>
<path d="M3967 13202 c-10 -10 -17 -28 -17 -39 0 -41 60 -69 88 -41 9 9 12 8
12 -4 0 -25 -24 -39 -59 -32 -32 7 -40 -3 -19 -24 13 -13 67 -16 84 -4 18 11
34 49 34 77 0 28 -16 66 -34 77 -21 14 -73 8 -89 -10z m71 -40 c3 -16 -2 -22
-17 -22 -24 0 -35 15 -27 36 9 23 40 13 44 -14z"/>
<path d="M6058 13190 c-26 -27 -29 -35 -24 -68 4 -20 7 -47 7 -60 1 -17 4 -20
14 -12 9 8 20 7 39 -1 19 -9 32 -9 51 -1 15 7 27 8 30 2 11 -18 22 -10 23 18
0 15 4 41 7 59 6 27 3 37 -23 63 -41 41 -83 41 -124 0z m72 -40 c0 -25 -4 -30
-25 -30 -14 0 -25 5 -25 10 0 6 7 10 15 10 8 0 15 9 15 20 0 11 5 20 10 20 6
0 10 -13 10 -30z"/>
<path d="M6348 13209 c-21 -12 -24 -69 -6 -87 15 -15 60 -16 75 -1 9 9 11 7 6
-9 -9 -36 -30 -47 -58 -32 -29 16 -43 7 -25 -15 17 -21 73 -19 93 3 22 24 22
100 1 130 -16 24 -56 29 -86 11z m62 -24 c15 -18 7 -43 -16 -52 -24 -9 -46 24
-33 48 12 23 32 24 49 4z"/>
<path d="M6513 13166 c-44 -73 -43 -86 7 -86 29 0 40 -4 40 -15 0 -8 7 -15 15
-15 8 0 15 7 15 15 0 8 5 15 10 15 6 0 10 7 10 15 0 8 -4 15 -10 15 -5 0 -10
25 -10 55 0 50 -2 55 -22 55 -17 0 -32 -15 -55 -54z m47 -16 c0 -36 -2 -40
-26 -40 l-25 0 22 40 c13 22 24 40 26 40 2 0 3 -18 3 -40z"/>
<path d="M6657 13213 c-14 -14 -7 -74 9 -80 37 -14 70 41 44 73 -13 15 -42 19
-53 7z m43 -38 c0 -16 -6 -25 -15 -25 -9 0 -15 9 -15 25 0 16 6 25 15 25 9 0
15 -9 15 -25z"/>
<path d="M6737 13135 c-32 -47 -52 -85 -45 -85 17 1 133 170 116 170 -7 0 -39
-38 -71 -85z"/>
<path d="M3711 13186 c-9 -10 -8 -16 3 -25 10 -9 16 -8 25 3 9 10 8 16 -3 25
-10 9 -16 8 -25 -3z"/>
<path d="M345 13166 c-22 -16 -26 -76 -6 -100 18 -22 64 -20 84 2 52 57 -17
143 -78 98z m65 -52 c0 -38 -21 -54 -45 -34 -20 17 -19 57 2 68 27 16 43 3 43
-34z"/>
<path d="M715 13166 c-22 -16 -26 -76 -6 -100 22 -26 91 -18 91 10 0 11 -5 11
-25 2 -19 -8 -28 -8 -40 2 -26 21 -17 30 30 30 49 0 56 10 29 48 -17 25 -51
29 -79 8z m55 -21 c11 -13 8 -15 -20 -15 -28 0 -31 2 -20 15 7 8 16 15 20 15
4 0 13 -7 20 -15z"/>
<path d="M840 13114 c0 -50 3 -64 15 -64 11 0 15 12 15 46 0 37 4 47 20 51 34
9 23 31 -15 31 l-35 0 0 -64z"/>
<path d="M930 13174 c0 -4 10 -33 21 -65 29 -80 49 -79 76 6 16 50 18 65 8 65
-7 0 -19 -17 -25 -37 -18 -57 -26 -59 -40 -9 -7 26 -19 46 -26 46 -8 0 -14 -3
-14 -6z"/>
<path d="M1080 13115 c0 -51 3 -65 15 -65 12 0 15 14 15 65 0 51 -3 65 -15 65
-12 0 -15 -14 -15 -65z"/>
<path d="M1157 13162 c-22 -25 -21 -75 1 -95 23 -21 66 -22 82 -2 18 22 4 31
-24 16 -31 -17 -46 -7 -46 28 0 38 16 52 46 39 31 -14 45 -1 20 18 -27 19 -60
18 -79 -4z"/>
<path d="M1295 13166 c-22 -16 -26 -76 -6 -100 22 -26 91 -18 91 10 0 11 -5
11 -25 2 -19 -8 -28 -8 -40 2 -26 21 -17 30 30 30 49 0 56 10 29 48 -17 25
-51 29 -79 8z m55 -21 c11 -13 8 -15 -20 -15 -28 0 -31 2 -20 15 7 8 16 15 20
15 4 0 13 -7 20 -15z"/>
<path d="M5769 13153 c-15 -41 -8 -58 29 -61 35 -4 37 1 26 57 -8 40 -40 42
-55 4z m41 7 c0 -5 -7 -10 -16 -10 -8 0 -12 5 -9 10 3 6 10 10 16 10 5 0 9 -4
9 -10z"/>
<path d="M1595 13161 c-35 -15 -48 -36 -30 -51 12 -10 19 -10 27 -2 16 16 91
15 106 0 9 -9 15 -9 27 3 14 14 14 17 -4 33 -23 21 -96 30 -126 17z"/>
<path d="M7371 13144 c0 -11 3 -14 6 -6 3 7 2 16 -1 19 -3 4 -6 -2 -5 -13z"/>
<path d="M6792 13128 c-14 -14 -15 -47 -3 -66 12 -19 55 -11 59 11 10 52 -25
86 -56 55z m38 -33 c0 -16 -6 -25 -15 -25 -9 0 -15 9 -15 25 0 16 6 25 15 25
9 0 15 -9 15 -25z"/>
<path d="M3710 13106 c-13 -17 -6 -36 15 -36 19 0 26 27 11 39 -10 8 -17 7
-26 -3z"/>
<path d="M1621 13088 l-24 -8 23 -25 24 -25 22 21 c13 12 21 25 19 29 -8 13
-40 17 -64 8z"/>
<path d="M4610 12697 c-39 -14 -80 -67 -80 -104 0 -32 27 -90 46 -97 19 -7 18
23 -1 48 -39 51 3 126 70 126 72 0 107 -74 68 -141 -23 -39 -7 -51 23 -16 32
37 33 103 2 142 -17 22 -76 57 -90 54 -2 0 -19 -5 -38 -12z"/>
<path d="M2902 12638 c2 -35 8 -63 13 -63 6 0 11 28 13 63 2 51 0 62 -13 62
-13 0 -15 -11 -13 -62z"/>
<path d="M3780 12650 c-11 -11 -25 -40 -31 -64 -8 -33 -17 -46 -32 -48 -32 -5
-33 -28 -1 -28 26 0 27 -1 21 -51 -8 -64 -29 -98 -67 -106 -37 -7 -40 -33 -4
-33 39 0 80 47 93 108 6 29 11 60 11 67 0 10 11 15 34 15 21 0 36 6 40 15 4
12 -3 15 -29 15 -39 0 -49 11 -41 45 9 35 33 55 67 55 19 0 29 5 29 15 0 23
-65 20 -90 -5z"/>
<path d="M6101 12650 c-18 -4 -49 -23 -68 -42 -60 -60 -62 -151 -6 -210 35
-37 48 -44 101 -53 37 -6 42 -5 42 12 0 13 -12 23 -35 32 -50 18 -75 54 -75
111 0 57 25 93 75 111 22 8 35 20 35 31 0 19 -14 21 -69 8z"/>
<path d="M6816 12624 c-13 -12 -16 -39 -16 -124 0 -137 2 -140 111 -140 l79 0
0 39 c0 40 0 40 -42 43 l-43 3 0 55 0 55 43 3 c42 3 42 3 42 43 l0 39 -79 0
c-59 0 -84 -4 -95 -16z"/>
<path d="M290 12510 c0 -100 3 -120 15 -120 12 0 15 17 16 93 0 50 2 88 4 82
2 -5 14 -47 26 -92 23 -92 42 -106 58 -45 5 20 16 62 25 92 l14 55 1 -92 c1
-86 3 -93 21 -93 19 0 20 7 20 120 l0 120 -28 0 c-26 0 -29 -4 -46 -72 -28
-110 -31 -110 -56 -14 -21 77 -25 86 -47 86 -23 0 -23 -1 -23 -120z"/>
<path d="M566 12609 c-14 -11 -26 -27 -26 -35 0 -16 16 -19 25 -4 17 28 25 1
25 -85 0 -88 1 -95 20 -95 19 0 20 7 20 120 0 110 -1 120 -19 120 -10 0 -30
-9 -45 -21z"/>
<path d="M710 12571 l0 -60 38 -3 c36 -3 37 -4 37 -43 0 -31 -4 -41 -19 -43
-11 -2 -25 3 -31 11 -7 10 -16 13 -25 7 -21 -13 16 -50 49 -50 32 0 44 8 60
37 27 52 -2 113 -55 113 -22 0 -25 4 -22 28 3 23 8 27 41 30 24 2 37 8 37 18
0 10 -14 14 -55 14 l-55 0 0 -59z"/>
<path d="M4400 12465 l0 -95 59 0 c43 0 60 4 65 15 4 12 -4 15 -39 15 l-45 0
0 65 c0 62 1 65 25 65 18 0 23 4 19 15 -4 10 -20 15 -45 15 l-39 0 0 -95z"/>
<path d="M2720 12505 c0 -13 11 -15 63 -13 34 2 62 8 62 13 0 6 -28 11 -62 13
-52 2 -63 0 -63 -13z"/>
<path d="M2906 12511 c-4 -5 -2 -12 3 -15 5 -4 12 -2 15 3 4 5 2 12 -3 15 -5
4 -12 2 -15 -3z"/>
<path d="M2987 12514 c-15 -15 8 -24 64 -24 46 0 59 3 59 15 0 12 -13 15 -58
15 -32 0 -62 -3 -65 -6z"/>
<path d="M4591 12429 c-28 -51 -51 -96 -51 -101 0 -9 203 -11 212 -2 5 4 -90
175 -105 191 -2 2 -27 -38 -56 -88z m84 -16 c11 -21 21 -41 23 -45 2 -5 -22
-8 -53 -8 -31 0 -55 3 -53 8 27 56 44 82 53 82 6 0 20 -17 30 -37z"/>
<path d="M2906 12433 c-3 -3 -6 -33 -6 -65 0 -45 3 -58 15 -58 12 0 15 13 15
59 0 56 -9 79 -24 64z"/>
<path d="M100 11865 c0 -75 20 -105 68 -105 46 0 62 27 62 103 0 38 -4 67 -10
67 -6 0 -10 -28 -10 -63 0 -68 -10 -87 -47 -87 -30 0 -43 28 -43 94 0 31 -4
56 -10 56 -6 0 -10 -28 -10 -65z"/>
<path d="M286 11917 c-33 -24 -17 -59 34 -77 33 -11 45 -21 45 -35 0 -27 -54
-34 -71 -10 -7 9 -18 15 -25 13 -9 -3 -6 -11 9 -26 40 -40 118 -21 110 28 -3
23 -10 29 -63 52 -38 17 -39 42 -2 46 19 2 33 -3 42 -15 7 -10 17 -15 21 -11
4 5 -1 17 -11 28 -21 23 -63 26 -89 7z"/>
<path d="M445 11905 c-49 -48 -17 -145 48 -145 13 0 36 9 51 21 21 16 26 29
26 63 0 77 -73 113 -125 61z m95 -14 c15 -29 12 -77 -6 -95 -35 -35 -94 -4
-94 49 0 56 76 90 100 46z"/>
<path d="M610 11845 c0 -50 4 -85 10 -85 6 0 10 35 10 85 0 50 -4 85 -10 85
-6 0 -10 -35 -10 -85z"/>
<path d="M680 11845 l0 -85 55 0 c30 0 55 5 55 10 0 6 -20 10 -45 10 l-45 0 0
75 c0 43 -4 75 -10 75 -6 0 -10 -35 -10 -85z"/>
<path d="M1210 11845 c0 -50 4 -85 10 -85 6 0 10 31 11 73 l0 72 28 -70 c15
-38 31 -70 36 -70 5 0 21 32 36 70 l28 70 0 -72 c1 -42 5 -73 11 -73 6 0 10
35 10 86 0 73 -2 85 -16 82 -9 -2 -26 -30 -40 -67 -14 -36 -26 -67 -28 -69 -2
-2 -16 29 -31 67 -38 100 -55 95 -55 -14z"/>
<path d="M1466 11915 c-3 -8 -15 -15 -26 -15 -12 0 -18 -4 -15 -10 3 -5 15
-10 25 -10 16 0 20 -9 23 -62 3 -54 3 -51 5 25 2 86 0 101 -12 72z"/>
<path d="M1558 11883 c-6 -46 -5 -48 20 -34 36 19 70 -10 57 -49 -8 -27 -35
-33 -63 -14 -17 11 -23 12 -20 3 8 -24 35 -34 65 -23 23 8 29 16 31 46 3 29
-1 39 -18 48 -12 7 -31 9 -42 7 -15 -4 -19 -1 -16 16 2 17 12 23 43 28 l40 6
-46 2 -47 1 -4 -37z"/>
<path d="M838 11873 c17 -2 32 -7 32 -9 0 -3 -16 -25 -35 -48 -19 -24 -35 -46
-35 -50 0 -3 25 -6 55 -6 30 0 55 5 55 10 0 6 -18 10 -41 10 l-41 0 36 42 c20
23 36 45 36 50 0 4 -21 7 -47 6 -37 -1 -40 -2 -15 -5z"/>
<path d="M1031 11828 l21 -42 19 35 c25 47 24 49 -21 49 l-40 0 21 -42z"/>
<path d="M128 11620 c-29 -18 -41 -73 -24 -114 22 -54 101 -63 127 -15 16 31
4 33 -24 5 -32 -32 -42 -32 -72 -1 -30 30 -32 64 -4 99 25 31 52 33 80 5 26
-26 34 -20 13 9 -16 24 -65 30 -96 12z"/>
<path d="M570 11601 c0 -24 -3 -28 -20 -24 -11 3 -31 2 -45 -1 -22 -6 -25 -12
-25 -51 0 -51 15 -64 73 -62 l37 1 0 83 c0 49 -4 83 -10 83 -5 0 -10 -13 -10
-29z m-12 -43 c20 -20 15 -66 -9 -78 -36 -20 -71 29 -49 70 12 22 40 26 58 8z"/>
<path d="M840 11610 c-27 -27 -35 -65 -20 -101 23 -54 84 -66 125 -24 51 51
18 145 -51 145 -21 0 -42 -8 -54 -20z m90 -10 c23 -23 27 -78 8 -102 -7 -9
-23 -19 -35 -23 -45 -13 -93 70 -65 111 9 14 43 33 60 34 6 0 21 -9 32 -20z"/>
<path d="M1000 11620 c0 -5 5 -10 10 -10 6 0 10 5 10 10 0 6 -4 10 -10 10 -5
0 -10 -4 -10 -10z"/>
<path d="M1064 11545 c0 -49 1 -71 3 -48 2 23 2 64 0 90 -2 26 -3 8 -3 -42z"/>
<path d="M271 11520 c1 -62 2 -63 9 -21 4 28 15 51 29 63 17 13 19 18 8 18 -9
0 -19 -5 -23 -11 -4 -8 -9 -7 -15 2 -5 9 -8 -11 -8 -51z"/>
<path d="M351 11528 c-1 -54 1 -58 24 -64 15 -4 32 -1 40 6 10 9 15 9 15 1 0
-6 5 -11 10 -11 6 0 10 27 10 60 0 33 -4 60 -10 60 -5 0 -10 -20 -10 -45 0
-35 -4 -47 -21 -56 -29 -15 -41 0 -50 59 l-6 47 -2 -57z"/>
<path d="M632 11568 c-17 -17 -15 -74 4 -92 18 -19 55 -21 72 -4 20 20 13 30
-10 14 -28 -20 -33 -20 -52 0 -23 22 -11 34 35 34 31 0 39 4 39 18 0 25 -20
42 -50 42 -14 0 -31 -5 -38 -12z m66 -10 c20 -20 14 -28 -23 -28 -23 0 -35 5
-35 13 0 28 36 37 58 15z"/>
<path d="M1000 11520 c0 -33 4 -60 10 -60 6 0 10 27 10 60 0 33 -4 60 -10 60
-6 0 -10 -27 -10 -60z"/>
<path d="M7280 11242 c-42 -12 -57 -104 -22 -135 38 -35 77 -17 88 41 12 58
-23 107 -66 94z m38 -46 c9 -18 11 -35 4 -54 -10 -30 -40 -42 -53 -20 -20 32
-2 114 24 105 7 -2 18 -16 25 -31z"/>
<path d="M6610 11225 c-13 -16 -7 -45 9 -45 5 0 11 10 13 23 4 29 43 31 43 2
0 -12 -8 -21 -20 -23 -67 -13 -73 -92 -7 -92 53 0 81 41 47 70 -13 11 -13 14
0 27 11 11 12 19 5 34 -13 23 -72 26 -90 4z m74 -81 c9 -22 -1 -34 -29 -34
-27 0 -39 14 -31 35 7 20 52 19 60 -1z"/>
<path d="M6772 11228 c-19 -19 -14 -30 8 -18 19 10 20 8 20 -55 0 -37 4 -65
10 -65 6 0 10 32 10 75 0 66 -2 75 -18 75 -10 0 -23 -5 -30 -12z"/>
<path d="M6950 11230 c0 -5 18 -10 40 -10 22 0 40 -2 40 -3 0 -2 -13 -28 -30
-58 -32 -59 -35 -69 -20 -69 8 0 80 130 80 145 0 3 -25 5 -55 5 -30 0 -55 -4
-55 -10z"/>
<path d="M7110 11225 c-7 -9 -10 -19 -6 -23 4 -4 12 1 17 11 12 21 32 22 49 2
10 -12 5 -23 -29 -64 -23 -27 -41 -52 -41 -55 0 -3 23 -6 50 -6 28 0 50 5 50
10 0 6 -13 10 -30 10 -16 0 -30 3 -30 6 0 4 14 22 30 41 17 18 30 39 30 46 0
35 -66 51 -90 22z"/>
<path d="M542 11153 c-1 -29 -6 -53 -12 -53 -7 0 -10 -218 -10 -635 0 -407 4
-635 10 -635 6 0 11 -72 13 -182 l2 -183 3 183 c1 113 6 182 12 182 7 0 10
218 10 635 0 393 -4 635 -9 635 -6 0 -12 24 -14 53 l-3 52 -2 -52z"/>
<path d="M6887 11114 c-8 -8 1 -24 14 -24 5 0 9 7 9 15 0 15 -12 20 -23 9z"/>
<path d="M422 11023 c-1 -54 -6 -83 -14 -86 -10 -4 -10 -7 -1 -14 9 -7 13 -77
16 -268 l2 -260 3 262 c1 198 5 263 15 266 9 4 9 7 0 14 -7 5 -13 41 -16 88
l-3 80 -2 -82z"/>
<path d="M301 10863 c0 -13 -5 -23 -11 -23 -6 0 -10 -103 -10 -290 0 -181 4
-290 10 -290 5 0 11 -56 13 -132 l3 -133 2 133 c1 80 6 132 12 132 6 0 10 103
10 290 0 172 -4 290 -9 290 -5 0 -12 10 -14 23 l-4 22 -2 -22z"/>
<path d="M181 10658 c0 -10 -5 -18 -11 -18 -7 0 -10 -242 -10 -705 0 -447 4
-705 10 -705 5 0 11 -47 13 -107 l3 -108 2 108 c1 63 6 107 12 107 7 0 10 242
10 705 0 426 -4 705 -9 705 -5 0 -12 8 -14 18 -4 16 -5 16 -6 0z"/>
<path d="M6610 10400 c-11 -21 -6 -40 10 -40 5 0 10 10 12 23 2 14 10 22 23
22 13 0 21 -8 23 -22 4 -25 18 -31 25 -10 16 43 -71 69 -93 27z"/>
<path d="M6778 10409 c-24 -14 -23 -28 2 -22 18 5 20 0 20 -56 0 -34 4 -61 10
-61 6 0 10 32 10 75 0 78 -5 86 -42 64z"/>
<path d="M6970 10403 c0 -10 -3 -28 -6 -40 -6 -21 -3 -22 32 -20 36 2 39 0 42
-25 3 -24 0 -28 -20 -28 -13 0 -29 5 -36 12 -17 17 -28 2 -12 -17 34 -41 116
7 91 53 -13 24 -33 32 -61 25 -18 -5 -21 -2 -18 13 2 14 13 20 41 22 52 4 46
22 -8 22 -36 0 -45 -3 -45 -17z"/>
<path d="M7130 10400 c-11 -21 -6 -40 10 -40 5 0 10 10 12 23 2 14 10 22 23
22 13 0 21 -8 23 -22 4 -25 18 -31 25 -10 16 43 -71 69 -93 27z"/>
<path d="M7290 10401 c-15 -30 -12 -97 6 -115 20 -21 58 -20 75 1 8 9 14 35
14 58 0 23 -6 49 -14 58 -19 23 -68 22 -81 -2z m74 -36 c9 -34 -10 -75 -33
-75 -33 0 -44 75 -15 105 19 19 39 7 48 -30z"/>
<path d="M6617 10342 c-33 -36 -14 -72 38 -72 53 0 73 41 37 73 -24 22 -55 21
-75 -1z m64 -18 c11 -14 10 -18 -5 -30 -30 -22 -75 14 -49 39 12 12 40 7 54
-9z"/>
<path d="M7137 10342 c-33 -36 -14 -72 38 -72 53 0 73 41 37 73 -24 22 -55 21
-75 -1z m64 -18 c11 -14 10 -18 -5 -30 -30 -22 -75 14 -49 39 12 12 40 7 54
-9z"/>
<path d="M6886 10292 c-3 -6 -1 -14 5 -17 15 -10 25 3 12 16 -7 7 -13 7 -17 1z"/>
<path d="M602 10058 c-1 -131 -6 -208 -12 -208 -7 0 -10 -213 -10 -620 0 -402
3 -620 10 -620 6 0 11 -142 13 -392 l2 -393 3 393 c1 253 6 392 12 392 7 0 10
213 10 620 0 398 -4 620 -10 620 -6 0 -11 81 -13 208 l-2 207 -3 -207z"/>
<path d="M6616 9584 c-19 -18 -20 -26 -5 -41 8 -8 7 -17 -3 -32 -9 -16 -10
-26 -2 -39 13 -21 70 -28 90 -11 31 25 5 74 -40 74 -16 0 -21 6 -21 25 0 33
38 36 43 3 4 -26 17 -30 26 -8 14 36 -57 60 -88 29z m64 -79 c10 -12 10 -18 0
-30 -7 -8 -18 -15 -25 -15 -19 0 -36 25 -29 44 8 20 38 21 54 1z"/>
<path d="M6778 9586 c-24 -18 -23 -25 2 -19 18 5 20 0 20 -56 0 -34 4 -61 10
-61 6 0 10 32 10 75 0 78 -7 88 -42 61z"/>
<path d="M7008 9583 c-9 -10 -25 -36 -37 -58 l-21 -40 40 -3 c27 -2 40 -8 40
-18 0 -8 5 -14 10 -14 6 0 10 7 10 15 0 8 5 15 12 15 9 0 9 3 0 12 -7 7 -12
34 -12 60 0 52 -14 62 -42 31z m18 -79 c-6 -16 -46 -20 -46 -5 0 6 10 27 23
48 l22 38 3 -33 c2 -19 1 -40 -2 -48z"/>
<path d="M7168 9583 c-9 -10 -25 -36 -37 -58 l-21 -40 40 -3 c27 -2 40 -8 40
-18 0 -8 5 -14 10 -14 6 0 10 7 10 15 0 8 5 15 12 15 9 0 9 3 0 12 -7 7 -12
34 -12 60 0 52 -14 62 -42 31z m18 -79 c-6 -16 -46 -20 -46 -5 0 6 10 27 23
48 l22 38 3 -33 c2 -19 1 -40 -2 -48z"/>
<path d="M7297 9582 c-22 -24 -22 -95 -1 -116 42 -43 102 3 91 70 -3 20 -11
42 -18 50 -16 20 -53 17 -72 -4z m67 -57 c0 -20 -7 -43 -18 -53 -16 -16 -18
-16 -32 2 -19 26 -18 81 2 101 15 15 18 15 32 1 9 -9 16 -32 16 -51z"/>
<path d="M6880 9460 c0 -5 7 -10 15 -10 8 0 15 5 15 10 0 6 -7 10 -15 10 -8 0
-15 -4 -15 -10z"/>
<path d="M6619 8761 c-19 -16 -21 -21 -11 -34 11 -13 11 -19 0 -36 -9 -16 -10
-26 -2 -39 13 -21 70 -28 90 -11 19 16 18 46 -3 58 -17 9 -17 11 1 24 19 14
19 14 -2 35 -27 27 -43 28 -73 3z m49 0 c19 -11 11 -45 -11 -49 -19 -4 -32 20
-23 43 6 17 15 19 34 6z m12 -76 c16 -19 -3 -45 -32 -45 -24 0 -34 26 -18 45
16 19 34 19 50 0z"/>
<path d="M6779 8761 l-24 -20 23 6 c21 5 22 3 22 -56 0 -34 4 -61 10 -61 6 0
10 32 10 75 0 41 -4 75 -9 75 -5 0 -19 -9 -32 -19z"/>
<path d="M6979 8760 c-28 -23 -18 -26 15 -5 21 14 25 14 36 0 17 -20 5 -45
-22 -46 -22 -1 -22 -1 2 -8 15 -4 26 -15 28 -29 4 -27 -23 -40 -49 -24 -26 16
-34 15 -19 -3 19 -23 77 -19 90 6 9 17 8 25 -7 41 -13 15 -15 22 -5 25 19 7
14 41 -7 53 -27 14 -35 13 -62 -10z"/>
<path d="M7137 8762 c-19 -21 -22 -83 -7 -113 16 -29 65 -25 86 6 44 67 -28
164 -79 107z m63 -28 c12 -31 2 -84 -18 -91 -36 -14 -58 80 -26 111 18 19 32
13 44 -20z"/>
<path d="M7297 8762 c-19 -21 -22 -83 -7 -113 16 -29 65 -25 86 6 44 67 -28
164 -79 107z m63 -28 c12 -31 2 -84 -18 -91 -36 -14 -58 80 -26 111 18 19 32
13 44 -20z"/>
<path d="M662 8648 c-1 -51 -6 -88 -12 -88 -7 0 -10 -148 -10 -425 0 -266 4
-425 10 -425 5 0 11 -42 13 -92 l3 -93 2 93 c1 53 6 92 12 92 7 0 10 148 10
425 0 265 -4 425 -10 425 -5 0 -11 39 -13 88 l-3 87 -2 -87z"/>
<path d="M6880 8640 c0 -5 7 -10 15 -10 8 0 15 5 15 10 0 6 -7 10 -15 10 -8 0
-15 -4 -15 -10z"/>
<path d="M3842 8128 c-1 -38 -6 -68 -12 -68 -7 0 -10 -190 -10 -550 0 -336 4
-550 9 -550 6 0 12 -17 14 -37 l4 -38 1 38 c1 20 7 37 12 37 7 0 10 190 10
550 0 342 -4 550 -10 550 -5 0 -11 30 -13 68 l-3 67 -2 -67z"/>
<path d="M6619 7941 c-23 -19 -23 -19 -5 -40 17 -19 17 -21 2 -27 -27 -10 -20
-51 12 -62 52 -18 102 22 69 56 -15 14 -15 18 -2 32 12 13 12 19 2 32 -20 27
-52 30 -78 9z m59 -23 c-2 -15 -10 -23 -23 -23 -13 0 -21 8 -23 23 -3 18 1 22
23 22 22 0 26 -4 23 -22z m12 -63 c0 -34 -55 -50 -67 -19 -9 24 24 46 48 33
11 -5 19 -11 19 -14z"/>
<path d="M7102 7944 c-30 -21 -31 -95 -1 -125 33 -33 92 -6 87 40 -4 32 -51
53 -71 31 -10 -10 -9 -12 5 -7 40 14 63 -44 23 -59 -25 -10 -40 11 -40 57 0
50 23 72 55 51 11 -7 20 -8 20 -2 0 9 -32 30 -47 30 -5 0 -19 -7 -31 -16z"/>
<path d="M7262 7944 c-44 -30 -20 -144 31 -144 34 0 52 28 52 80 0 40 -5 55
-19 66 -25 18 -36 18 -64 -2z m58 -29 c12 -32 2 -85 -18 -92 -19 -8 -42 23
-42 55 0 57 42 83 60 37z"/>
<path d="M6769 7934 c-12 -15 -11 -16 9 -10 21 7 22 5 22 -53 0 -34 4 -61 10
-61 6 0 10 30 10 70 0 62 -2 70 -19 70 -10 0 -25 -7 -32 -16z"/>
<path d="M6969 7934 c-12 -15 -11 -16 9 -10 21 7 22 5 22 -53 0 -34 4 -61 10
-61 6 0 10 30 10 70 0 62 -2 70 -19 70 -10 0 -25 -7 -32 -16z"/>
<path d="M6885 7820 c-3 -5 1 -10 9 -10 9 0 16 5 16 10 0 6 -4 10 -9 10 -6 0
-13 -4 -16 -10z"/>
<path d="M722 7763 c-1 -24 -6 -43 -12 -43 -6 0 -10 -93 -10 -260 0 -167 4
-260 10 -260 6 0 11 -19 12 -42 l1 -43 4 43 c2 23 8 42 14 42 5 0 9 104 9 260
0 156 -4 260 -9 260 -6 0 -12 19 -14 43 l-4 42 -1 -42z"/>
<path d="M4082 7253 c-1 -54 -6 -93 -12 -93 -6 0 -10 -87 -10 -240 0 -149 4
-240 10 -240 6 0 11 -67 13 -167 l3 -168 2 168 c1 103 6 167 12 167 6 0 10 87
10 240 0 147 -4 240 -10 240 -5 0 -11 42 -13 93 l-3 92 -2 -92z"/>
<path d="M3962 7143 c-1 -94 -6 -153 -12 -153 -6 0 -10 -28 -10 -65 0 -36 4
-65 10 -65 6 0 11 -66 13 -162 l3 -163 2 163 c1 100 6 162 12 162 6 0 10 28
10 65 0 36 -4 65 -10 65 -6 0 -11 62 -13 153 l-3 152 -2 -152z"/>
<path d="M772 7224 c-15 -16 -18 -1214 -3 -1214 5 0 12 -10 14 -22 l4 -23 2
23 c0 12 6 22 11 22 16 0 14 1198 -3 1214 -10 11 -15 11 -25 0z"/>
<path d="M6632 7129 c-31 -12 -39 -39 -17 -55 16 -12 17 -14 2 -20 -27 -10
-21 -53 8 -66 54 -24 107 21 71 61 -15 16 -15 20 -1 31 32 27 -18 66 -63 49z
m46 -32 c4 -20 -25 -34 -40 -19 -15 15 -1 44 19 40 10 -2 19 -11 21 -21z m7
-72 c0 -13 -8 -21 -24 -23 -28 -4 -46 11 -37 33 9 25 61 16 61 -10z"/>
<path d="M6980 7120 c-27 -27 -28 -100 -1 -124 45 -41 96 5 87 79 -7 61 -48
83 -86 45z m49 -9 c17 -11 20 -86 3 -103 -32 -32 -67 44 -42 92 12 22 18 24
39 11z"/>
<path d="M7143 7130 c-13 -5 -23 -16 -23 -25 0 -19 16 -20 24 0 7 19 30 19 46
1 9 -12 4 -23 -29 -59 -23 -24 -41 -49 -41 -56 0 -7 19 -11 50 -11 28 0 50 5
50 10 0 6 -13 10 -30 10 -16 0 -30 3 -30 6 0 4 14 22 30 41 36 40 37 57 8 77
-25 18 -25 18 -55 6z"/>
<path d="M7280 7120 c-27 -27 -28 -100 -1 -124 45 -41 96 5 87 79 -7 61 -48
83 -86 45z m49 -9 c17 -11 20 -86 3 -103 -32 -32 -67 44 -42 92 12 22 18 24
39 11z"/>
<path d="M6772 7118 c-7 -7 -12 -16 -12 -22 0 -6 5 -5 12 2 22 22 28 12 28
-53 0 -37 4 -65 10 -65 6 0 10 32 10 75 0 66 -2 75 -18 75 -10 0 -23 -5 -30
-12z"/>
<path d="M6885 7001 c-6 -11 9 -23 19 -14 9 9 7 23 -3 23 -6 0 -12 -4 -16 -9z"/>
<path d="M4802 6973 c-1 -18 -6 -33 -12 -33 -7 0 -10 -475 -10 -1405 0 -896 3
-1405 10 -1405 5 0 11 -46 13 -102 l3 -103 2 103 c1 60 6 102 12 102 7 0 10
248 10 724 l0 725 28 4 27 4 -27 2 c-23 1 -28 6 -28 25 0 19 6 26 28 29 l27 4
-27 2 -28 1 0 645 c0 394 -4 645 -9 645 -6 0 -12 15 -14 33 l-4 32 -1 -32z"/>
<path d="M4562 6823 c-1 -101 -6 -163 -12 -163 -6 0 -10 -78 -10 -215 0 -134
4 -215 10 -215 6 0 11 -76 13 -192 l2 -193 3 193 c1 120 6 192 12 192 6 0 10
78 10 215 0 133 -4 215 -10 215 -6 0 -11 66 -13 163 l-3 162 -2 -162z"/>
<path d="M4142 6758 c-1 -44 -6 -78 -12 -78 -6 0 -10 -62 -10 -165 0 -101 4
-165 10 -165 6 0 11 -69 13 -172 l3 -173 2 173 c1 106 6 172 12 172 6 0 10 62
10 165 0 99 -4 165 -10 165 -5 0 -11 35 -13 78 l-3 77 -2 -77z"/>
<path d="M4202 6493 c-1 -67 -6 -113 -12 -113 -6 0 -10 -28 -10 -65 0 -36 4
-65 10 -65 6 0 11 -74 13 -187 l2 -188 3 188 c1 116 6 187 12 187 6 0 10 28
10 65 0 36 -4 65 -10 65 -5 0 -11 49 -13 113 l-3 112 -2 -112z"/>
<path d="M4262 6323 c-1 -29 -6 -53 -12 -53 -6 0 -10 -85 -10 -235 0 -140 4
-235 9 -235 6 0 12 -17 14 -37 l4 -38 1 38 c1 20 7 37 12 37 6 0 10 85 10 235
0 141 -4 235 -9 235 -6 0 -12 24 -14 53 l-3 52 -2 -52z"/>
<path d="M6632 6309 c-30 -11 -40 -39 -19 -54 15 -11 16 -14 2 -25 -31 -26
-11 -70 33 -70 53 0 81 41 47 70 -13 11 -13 14 0 27 31 30 -16 69 -63 52z m46
-32 c4 -22 -24 -33 -43 -17 -12 10 -13 16 -4 27 16 18 43 13 47 -10z m6 -63
c9 -22 -1 -34 -29 -34 -27 0 -39 14 -31 35 7 20 52 19 60 -1z"/>
<path d="M6781 6301 c-28 -28 -29 -101 -3 -124 38 -35 77 -17 88 41 6 32 -11
92 -26 92 -5 0 -15 3 -23 6 -9 3 -25 -4 -36 -15z m57 -34 c14 -30 7 -76 -14
-84 -36 -14 -58 52 -33 98 13 25 30 20 47 -14z"/>
<path d="M7032 6309 c-30 -11 -40 -39 -19 -54 15 -11 16 -14 2 -25 -31 -26
-11 -70 33 -70 53 0 81 41 47 70 -13 11 -13 14 0 27 31 30 -16 69 -63 52z m46
-32 c4 -22 -24 -33 -43 -17 -12 10 -13 16 -4 27 16 18 43 13 47 -10z m6 -63
c9 -22 -1 -34 -29 -34 -27 0 -39 14 -31 35 7 20 52 19 60 -1z"/>
<path d="M7192 6309 c-30 -11 -40 -39 -19 -54 15 -11 16 -14 2 -25 -31 -26
-11 -70 33 -70 53 0 81 41 47 70 -13 11 -13 14 0 27 31 30 -16 69 -63 52z m46
-32 c4 -22 -24 -33 -43 -17 -12 10 -13 16 -4 27 16 18 43 13 47 -10z m6 -63
c9 -22 -1 -34 -29 -34 -27 0 -39 14 -31 35 7 20 52 19 60 -1z"/>
<path d="M7341 6301 c-28 -28 -29 -101 -3 -124 38 -35 77 -17 88 41 6 32 -11
92 -26 92 -5 0 -15 3 -23 6 -9 3 -25 -4 -36 -15z m57 -34 c14 -30 7 -76 -14
-84 -36 -14 -58 52 -33 98 13 25 30 20 47 -14z"/>
<path d="M842 6143 c-1 -81 -6 -133 -12 -133 -6 0 -10 -34 -10 -82 0 -64 -3
-79 -12 -70 -19 19 -66 15 -78 -7 -17 -32 -13 -157 6 -175 18 -19 55 -21 72
-4 9 9 12 8 12 -5 0 -9 -5 -17 -12 -17 -6 0 -1 -8 10 -19 28 -24 28 -38 0 -44
l-23 -4 22 -2 c22 -1 22 -5 26 -123 l3 -123 2 123 c2 101 5 122 17 122 13 0
15 -20 15 -120 0 -70 4 -120 10 -120 5 0 11 -39 13 -87 l3 -88 2 88 c1 50 6
87 12 87 6 0 10 52 10 135 0 83 -4 135 -10 135 -5 0 -11 10 -11 23 -1 19 -2
19 -6 3 -6 -23 -27 -46 -42 -46 -14 0 -14 27 0 32 13 4 13 380 -1 388 -5 3
-11 64 -13 135 l-3 130 -2 -132z m-56 -291 c6 -4 14 -16 18 -27 5 -18 2 -21
-29 -21 -37 0 -41 6 -25 37 11 20 19 23 36 11z m11 -96 c-4 -9 -16 -16 -27
-16 -15 0 -20 7 -20 24 0 13 6 26 13 29 18 7 41 -19 34 -37z m7 -51 c-4 -11
-10 -24 -15 -30 -13 -13 -43 7 -47 31 -2 16 4 19 33 19 30 0 34 -3 29 -20z"/>
<path d="M4322 6013 c-1 -134 -6 -213 -12 -213 -6 0 -10 -62 -10 -165 0 -103
4 -165 10 -165 6 0 11 -59 12 -152 l2 -153 3 150 c2 90 8 152 14 156 14 8 14
320 0 329 -7 3 -12 88 -14 215 l-2 210 -3 -212z"/>
<path d="M6927 6184 c-8 -8 1 -24 14 -24 5 0 9 7 9 15 0 15 -12 20 -23 9z"/>
<path d="M1133 5923 c-16 -6 -19 -413 -3 -413 5 0 11 -33 13 -72 l3 -73 2 73
c1 40 6 72 12 72 6 0 10 15 10 34 0 24 5 36 18 39 16 4 16 5 0 6 -12 1 -18 9
-18 25 0 15 7 26 18 29 13 4 13 5 2 6 -25 2 -14 71 11 71 10 0 19 5 19 10 0 6
-9 10 -20 10 -26 0 -26 23 1 59 17 23 19 32 10 50 -7 11 -18 21 -26 21 -9 0
-15 10 -15 24 0 25 -15 36 -37 29z m61 -106 c-10 -28 -24 -19 -24 15 0 29 2
31 15 17 9 -9 13 -23 9 -32z"/>
<path d="M93 5858 c-14 -17 -14 -110 -1 -125 6 -7 23 -13 39 -13 31 0 42 -11
33 -34 -7 -19 -45 -21 -62 -4 -6 6 -15 8 -19 4 -11 -11 18 -26 53 -26 42 0 52
15 50 80 -1 58 0 56 -73 76 -20 5 -15 32 7 39 12 4 28 1 36 -6 16 -13 30 -6
19 10 -9 15 -70 14 -82 -1z m62 -81 c21 -16 13 -37 -14 -37 -22 0 -45 25 -36
40 9 14 28 13 50 -3z"/>
<path d="M240 5765 l0 -105 53 1 c51 2 51 2 12 8 -32 5 -41 11 -43 29 -3 20 1
22 37 22 23 0 41 5 41 10 0 6 -16 10 -35 10 -31 0 -35 3 -35 25 0 22 4 25 35
25 19 0 35 5 35 10 0 6 -18 10 -40 10 -33 0 -40 3 -40 20 0 16 7 20 34 20 19
0 38 5 41 10 4 6 -13 10 -44 10 l-51 0 0 -105z"/>
<path d="M380 5765 l0 -105 48 1 c44 2 45 2 12 8 -26 4 -36 12 -38 29 -3 19 1
22 32 22 20 0 36 5 36 10 0 6 -13 10 -29 10 -28 0 -29 2 -36 65 -10 100 -25
77 -25 -40z"/>
<path d="M520 5765 l0 -105 48 1 c44 2 45 2 12 8 -26 4 -36 12 -38 29 -3 19 1
22 32 22 20 0 36 5 36 10 0 6 -13 10 -29 10 -28 0 -29 2 -36 65 -10 100 -25
77 -25 -40z"/>
<path d="M970 5851 c-17 -32 -13 -157 6 -175 19 -19 53 -20 77 -2 25 20 25
156 -1 179 -25 23 -69 22 -82 -2z m56 1 c6 -4 14 -16 18 -27 5 -18 2 -21 -29
-21 -37 0 -41 6 -25 37 11 20 19 23 36 11z m11 -96 c-4 -9 -16 -16 -27 -16
-15 0 -20 7 -20 24 0 13 6 26 13 29 18 7 41 -19 34 -37z m7 -51 c-4 -11 -10
-24 -15 -30 -13 -13 -43 7 -47 31 -2 16 4 19 33 19 30 0 34 -3 29 -20z"/>
<path d="M4442 5803 c-1 -41 -6 -73 -12 -73 -5 0 -10 -20 -10 -45 0 -25 4 -45
9 -45 5 0 12 -10 14 -22 l4 -23 2 23 c0 12 6 22 11 22 6 0 10 20 10 45 0 25
-4 45 -10 45 -5 0 -11 33 -13 73 l-3 72 -2 -72z"/>
<path d="M6540 5615 l0 -175 38 -1 c20 -1 70 -1 110 0 l72 1 0 -34 c0 -40 22
-66 54 -66 30 0 45 19 53 64 l6 36 94 0 94 0 -26 -43 c-27 -48 -30 -57 -15
-57 5 0 21 23 35 50 24 47 27 50 65 50 l41 0 -16 -30 c-21 -40 -20 -40 25 -40
29 0 40 -4 40 -15 0 -8 5 -15 10 -15 6 0 10 6 10 14 0 8 6 17 13 20 10 5 10 7
0 12 -7 3 -13 17 -13 30 0 21 5 24 35 24 33 0 35 -2 35 -34 0 -40 22 -66 54
-66 30 0 45 19 53 64 5 30 10 36 29 36 l24 0 0 140 c0 87 -4 140 -10 140 -5 0
-10 16 -10 35 l0 35 -450 0 -450 0 0 -175z m890 137 l0 -28 -440 0 -440 0 0
28 0 28 440 0 440 0 0 -28z m20 -172 l0 -130 -450 0 -450 0 0 130 0 130 450 0
450 0 0 -130z m-604 -153 c9 -23 -14 -67 -35 -67 -21 0 -31 18 -31 56 0 20 5
24 30 24 17 0 33 -6 36 -13z m364 -12 c0 -20 -5 -25 -25 -25 -28 0 -29 3 -15
31 15 28 40 24 40 -6z m176 12 c9 -23 -14 -67 -35 -67 -21 0 -31 18 -31 56 0
20 5 24 30 24 17 0 33 -6 36 -13z"/>
<path d="M6780 5650 c-25 -25 -27 -91 -4 -114 20 -21 58 -20 75 1 22 25 18
102 -5 119 -27 19 -42 18 -66 -6z m65 -60 c0 -78 -57 -81 -63 -3 -4 52 21 84
47 59 9 -10 16 -33 16 -56z"/>
<path d="M7300 5650 c-25 -25 -27 -91 -4 -114 20 -21 58 -20 75 1 22 25 18
102 -5 119 -27 19 -42 18 -66 -6z m65 -60 c0 -78 -57 -81 -63 -3 -4 52 21 84
47 59 9 -10 16 -33 16 -56z"/>
<path d="M6610 5645 c-10 -13 -10 -19 5 -35 16 -18 16 -20 1 -26 -20 -8 -21
-37 -2 -53 20 -17 77 -10 90 11 8 13 6 22 -9 38 -15 17 -16 23 -6 29 15 9 12
42 -4 48 -6 2 -11 -9 -10 -24 0 -21 -5 -28 -20 -28 -15 0 -20 7 -20 28 1 30
-7 34 -25 12z m69 -69 c17 -20 2 -46 -25 -46 -29 0 -41 24 -24 45 16 19 34 19
49 1z"/>
<path d="M7028 5653 c23 -2 42 -6 42 -9 0 -2 -14 -31 -30 -64 -17 -33 -26 -60
-20 -60 5 0 26 32 45 70 l35 70 -57 -2 c-50 -1 -52 -2 -15 -5z"/>
<path d="M7168 5653 c23 -2 42 -6 42 -9 0 -2 -14 -31 -30 -64 -17 -33 -26 -60
-20 -60 5 0 26 32 45 70 l35 70 -57 -2 c-50 -1 -52 -2 -15 -5z"/>
<path d="M6930 5530 c0 -5 5 -10 10 -10 6 0 10 5 10 10 0 6 -4 10 -10 10 -5 0
-10 -4 -10 -10z"/>
<path d="M886 5742 c-3 -6 -1 -14 5 -17 15 -10 25 3 12 16 -7 7 -13 7 -17 1z"/>
<path d="M890 5670 c0 -5 5 -10 10 -10 6 0 10 5 10 10 0 6 -4 10 -10 10 -5 0
-10 -4 -10 -10z"/>
<path d="M28 5643 c12 -2 30 -2 40 0 9 3 -1 5 -23 4 -22 0 -30 -2 -17 -4z"/>
<path d="M178 5643 c12 -2 32 -2 45 0 12 2 2 4 -23 4 -25 0 -35 -2 -22 -4z"/>
<path d="M338 5643 c12 -2 32 -2 45 0 12 2 2 4 -23 4 -25 0 -35 -2 -22 -4z"/>
<path d="M498 5643 c12 -2 32 -2 45 0 12 2 2 4 -23 4 -25 0 -35 -2 -22 -4z"/>
<path d="M658 5643 c12 -2 32 -2 45 0 12 2 2 4 -23 4 -25 0 -35 -2 -22 -4z"/>
<path d="M978 5643 c12 -2 32 -2 45 0 12 2 2 4 -23 4 -25 0 -35 -2 -22 -4z"/>
<path d="M1298 5643 c12 -2 32 -2 45 0 12 2 2 4 -23 4 -25 0 -35 -2 -22 -4z"/>
<path d="M1458 5643 c12 -2 32 -2 45 0 12 2 2 4 -23 4 -25 0 -35 -2 -22 -4z"/>
<path d="M1618 5643 c12 -2 32 -2 45 0 12 2 2 4 -23 4 -25 0 -35 -2 -22 -4z"/>
<path d="M1778 5643 c12 -2 32 -2 45 0 12 2 2 4 -23 4 -25 0 -35 -2 -22 -4z"/>
<path d="M1938 5643 c12 -2 32 -2 45 0 12 2 2 4 -23 4 -25 0 -35 -2 -22 -4z"/>
<path d="M2098 5643 c12 -2 32 -2 45 0 12 2 2 4 -23 4 -25 0 -35 -2 -22 -4z"/>
<path d="M2258 5643 c12 -2 32 -2 45 0 12 2 2 4 -23 4 -25 0 -35 -2 -22 -4z"/>
<path d="M2418 5643 c12 -2 32 -2 45 0 12 2 2 4 -23 4 -25 0 -35 -2 -22 -4z"/>
<path d="M2578 5643 c12 -2 32 -2 45 0 12 2 2 4 -23 4 -25 0 -35 -2 -22 -4z"/>
<path d="M2738 5643 c12 -2 32 -2 45 0 12 2 2 4 -23 4 -25 0 -35 -2 -22 -4z"/>
<path d="M2898 5643 c12 -2 32 -2 45 0 12 2 2 4 -23 4 -25 0 -35 -2 -22 -4z"/>
<path d="M3058 5643 c12 -2 32 -2 45 0 12 2 2 4 -23 4 -25 0 -35 -2 -22 -4z"/>
<path d="M3218 5643 c12 -2 32 -2 45 0 12 2 2 4 -23 4 -25 0 -35 -2 -22 -4z"/>
<path d="M3378 5643 c12 -2 32 -2 45 0 12 2 2 4 -23 4 -25 0 -35 -2 -22 -4z"/>
<path d="M3533 5643 c9 -2 25 -2 35 0 9 3 1 5 -18 5 -19 0 -27 -2 -17 -5z"/>
<path d="M3698 5643 c12 -2 32 -2 45 0 12 2 2 4 -23 4 -25 0 -35 -2 -22 -4z"/>
<path d="M3858 5643 c12 -2 32 -2 45 0 12 2 2 4 -23 4 -25 0 -35 -2 -22 -4z"/>
<path d="M4018 5643 c12 -2 32 -2 45 0 12 2 2 4 -23 4 -25 0 -35 -2 -22 -4z"/>
<path d="M4178 5643 c12 -2 32 -2 45 0 12 2 2 4 -23 4 -25 0 -35 -2 -22 -4z"/>
<path d="M4538 5643 c7 -3 16 -2 19 1 4 3 -2 6 -13 5 -11 0 -14 -3 -6 -6z"/>
<path d="M4658 5643 c12 -2 32 -2 45 0 12 2 2 4 -23 4 -25 0 -35 -2 -22 -4z"/>
<path d="M4978 5643 c12 -2 32 -2 45 0 12 2 2 4 -23 4 -25 0 -35 -2 -22 -4z"/>
<path d="M5138 5643 c12 -2 32 -2 45 0 12 2 2 4 -23 4 -25 0 -35 -2 -22 -4z"/>
<path d="M5298 5643 c12 -2 32 -2 45 0 12 2 2 4 -23 4 -25 0 -35 -2 -22 -4z"/>
<path d="M5458 5643 c12 -2 32 -2 45 0 12 2 2 4 -23 4 -25 0 -35 -2 -22 -4z"/>
<path d="M5618 5643 c12 -2 32 -2 45 0 12 2 2 4 -23 4 -25 0 -35 -2 -22 -4z"/>
<path d="M5778 5643 c12 -2 32 -2 45 0 12 2 2 4 -23 4 -25 0 -35 -2 -22 -4z"/>
<path d="M5938 5643 c12 -2 32 -2 45 0 12 2 2 4 -23 4 -25 0 -35 -2 -22 -4z"/>
<path d="M6098 5643 c12 -2 32 -2 45 0 12 2 2 4 -23 4 -25 0 -35 -2 -22 -4z"/>
<path d="M6258 5643 c12 -2 32 -2 45 0 12 2 2 4 -23 4 -25 0 -35 -2 -22 -4z"/>
<path d="M6418 5643 c12 -2 32 -2 45 0 12 2 2 4 -23 4 -25 0 -35 -2 -22 -4z"/>
<path d="M2522 5423 c-1 -121 -6 -193 -12 -193 -5 0 -10 -16 -10 -35 0 -19 4
-35 9 -35 6 0 12 -21 14 -47 l3 -48 2 48 c1 26 7 47 12 47 6 0 10 16 10 35 0
19 -4 35 -10 35 -6 0 -11 76 -13 193 l-2 192 -3 -192z"/>
<path d="M28 5583 c12 -2 30 -2 40 0 9 3 -1 5 -23 4 -22 0 -30 -2 -17 -4z"/>
<path d="M178 5583 c12 -2 32 -2 45 0 12 2 2 4 -23 4 -25 0 -35 -2 -22 -4z"/>
<path d="M338 5583 c12 -2 32 -2 45 0 12 2 2 4 -23 4 -25 0 -35 -2 -22 -4z"/>
<path d="M498 5583 c12 -2 32 -2 45 0 12 2 2 4 -23 4 -25 0 -35 -2 -22 -4z"/>
<path d="M658 5583 c12 -2 32 -2 45 0 12 2 2 4 -23 4 -25 0 -35 -2 -22 -4z"/>
<path d="M978 5583 c12 -2 32 -2 45 0 12 2 2 4 -23 4 -25 0 -35 -2 -22 -4z"/>
<path d="M1298 5583 c12 -2 32 -2 45 0 12 2 2 4 -23 4 -25 0 -35 -2 -22 -4z"/>
<path d="M1458 5583 c12 -2 32 -2 45 0 12 2 2 4 -23 4 -25 0 -35 -2 -22 -4z"/>
<path d="M1618 5583 c12 -2 32 -2 45 0 12 2 2 4 -23 4 -25 0 -35 -2 -22 -4z"/>
<path d="M1778 5583 c12 -2 32 -2 45 0 12 2 2 4 -23 4 -25 0 -35 -2 -22 -4z"/>
<path d="M1938 5583 c12 -2 32 -2 45 0 12 2 2 4 -23 4 -25 0 -35 -2 -22 -4z"/>
<path d="M2098 5583 c12 -2 32 -2 45 0 12 2 2 4 -23 4 -25 0 -35 -2 -22 -4z"/>
<path d="M2258 5583 c12 -2 32 -2 45 0 12 2 2 4 -23 4 -25 0 -35 -2 -22 -4z"/>
<path d="M2418 5583 c12 -2 32 -2 45 0 12 2 2 4 -23 4 -25 0 -35 -2 -22 -4z"/>
<path d="M2578 5583 c12 -2 32 -2 45 0 12 2 2 4 -23 4 -25 0 -35 -2 -22 -4z"/>
<path d="M2738 5583 c12 -2 32 -2 45 0 12 2 2 4 -23 4 -25 0 -35 -2 -22 -4z"/>
<path d="M2898 5583 c12 -2 32 -2 45 0 12 2 2 4 -23 4 -25 0 -35 -2 -22 -4z"/>
<path d="M3058 5583 c12 -2 32 -2 45 0 12 2 2 4 -23 4 -25 0 -35 -2 -22 -4z"/>
<path d="M3218 5583 c12 -2 32 -2 45 0 12 2 2 4 -23 4 -25 0 -35 -2 -22 -4z"/>
<path d="M3378 5583 c12 -2 32 -2 45 0 12 2 2 4 -23 4 -25 0 -35 -2 -22 -4z"/>
<path d="M3533 5583 c9 -2 25 -2 35 0 9 3 1 5 -18 5 -19 0 -27 -2 -17 -5z"/>
<path d="M3698 5583 c12 -2 32 -2 45 0 12 2 2 4 -23 4 -25 0 -35 -2 -22 -4z"/>
<path d="M3858 5583 c12 -2 32 -2 45 0 12 2 2 4 -23 4 -25 0 -35 -2 -22 -4z"/>
<path d="M4018 5583 c12 -2 32 -2 45 0 12 2 2 4 -23 4 -25 0 -35 -2 -22 -4z"/>
<path d="M4178 5583 c12 -2 32 -2 45 0 12 2 2 4 -23 4 -25 0 -35 -2 -22 -4z"/>
<path d="M4523 5583 c9 -2 23 -2 30 0 6 3 -1 5 -18 5 -16 0 -22 -2 -12 -5z"/>
<path d="M4658 5583 c12 -2 32 -2 45 0 12 2 2 4 -23 4 -25 0 -35 -2 -22 -4z"/>
<path d="M4978 5583 c12 -2 32 -2 45 0 12 2 2 4 -23 4 -25 0 -35 -2 -22 -4z"/>
<path d="M5138 5583 c12 -2 32 -2 45 0 12 2 2 4 -23 4 -25 0 -35 -2 -22 -4z"/>
<path d="M5298 5583 c12 -2 32 -2 45 0 12 2 2 4 -23 4 -25 0 -35 -2 -22 -4z"/>
<path d="M5458 5583 c12 -2 32 -2 45 0 12 2 2 4 -23 4 -25 0 -35 -2 -22 -4z"/>
<path d="M5618 5583 c12 -2 32 -2 45 0 12 2 2 4 -23 4 -25 0 -35 -2 -22 -4z"/>
<path d="M5778 5583 c12 -2 32 -2 45 0 12 2 2 4 -23 4 -25 0 -35 -2 -22 -4z"/>
<path d="M5938 5583 c12 -2 32 -2 45 0 12 2 2 4 -23 4 -25 0 -35 -2 -22 -4z"/>
<path d="M6098 5583 c12 -2 32 -2 45 0 12 2 2 4 -23 4 -25 0 -35 -2 -22 -4z"/>
<path d="M6258 5583 c12 -2 32 -2 45 0 12 2 2 4 -23 4 -25 0 -35 -2 -22 -4z"/>
<path d="M6418 5583 c12 -2 32 -2 45 0 12 2 2 4 -23 4 -25 0 -35 -2 -22 -4z"/>
<path d="M6617 5412 c-33 -36 -14 -72 38 -72 53 0 73 41 37 73 -24 22 -55 21
-75 -1z m64 -18 c11 -14 10 -18 -5 -30 -30 -22 -75 14 -49 39 12 12 40 7 54
-9z"/>
<path d="M962 5373 c-1 -24 -6 -43 -12 -43 -6 0 -10 -92 -10 -255 0 -159 4
-255 10 -255 6 0 11 -64 13 -157 l3 -158 2 158 c1 96 6 157 12 157 6 0 10 92
10 255 0 153 -4 255 -9 255 -6 0 -12 19 -14 43 l-4 42 -1 -42z"/>
<path d="M6926 5362 c-3 -6 -1 -14 5 -17 15 -10 25 3 12 16 -7 7 -13 7 -17 1z"/>
<path d="M1360 5166 c0 -125 5 -140 38 -129 9 3 12 38 12 129 l0 124 -25 0
-25 0 0 -124z"/>
<path d="M2581 5168 c0 -16 -5 -28 -11 -28 -6 0 -10 -37 -10 -90 0 -49 4 -90
9 -90 6 0 12 -15 14 -32 l4 -33 1 33 c1 17 7 32 12 32 6 0 10 37 10 90 0 50
-4 90 -9 90 -5 0 -12 12 -14 28 l-4 27 -2 -27z"/>
<path d="M2740 5105 c0 -48 4 -85 10 -85 5 0 11 -51 13 -117 l3 -118 2 118 c1
70 6 117 12 117 6 0 10 35 10 85 0 84 0 85 -25 85 -25 0 -25 -1 -25 -85z"/>
<path d="M1562 5123 c-1 -18 -6 -33 -12 -33 -15 0 -12 -58 3 -63 23 -8 37 5
37 34 0 16 -4 29 -9 29 -6 0 -12 15 -14 33 l-4 32 -1 -32z"/>
<path d="M3302 5033 c-1 -41 -6 -73 -12 -73 -6 0 -10 -83 -10 -230 0 -139 4
-230 10 -230 5 0 11 -28 13 -62 l3 -63 2 63 c1 34 7 62 12 62 6 0 10 83 10
230 0 140 -4 230 -10 230 -5 0 -11 33 -13 73 l-3 72 -2 -72z"/>
<path d="M1681 5048 c0 -10 -5 -18 -11 -18 -7 0 -10 -232 -10 -675 0 -413 4
-675 9 -675 6 0 12 -15 14 -32 l4 -33 1 33 c1 17 7 32 12 32 7 0 10 232 10
675 0 408 -4 675 -9 675 -5 0 -12 8 -14 18 -4 16 -5 16 -6 0z"/>
<path d="M2642 5013 c-1 -29 -6 -53 -12 -53 -15 0 -13 -127 3 -133 29 -10 37
6 37 69 0 35 -4 64 -9 64 -6 0 -12 24 -14 53 l-3 52 -2 -52z"/>
<path d="M1180 5030 c0 -5 4 -10 9 -10 6 0 12 -21 14 -47 l3 -48 2 48 c1 26 7
47 12 47 6 0 10 5 10 10 0 6 -11 10 -25 10 -14 0 -25 -4 -25 -10z"/>
<path d="M2800 5000 c0 -5 4 -10 10 -10 5 0 11 -51 13 -117 l3 -118 2 118 c1
70 6 117 12 117 6 0 10 5 10 10 0 6 -11 10 -25 10 -14 0 -25 -4 -25 -10z"/>
<path d="M2860 4710 c0 -174 4 -290 9 -290 6 0 12 -17 14 -37 l4 -38 1 38 c1
20 7 37 12 37 6 0 10 103 10 290 l0 290 -25 0 -25 0 0 -290z"/>
<path d="M3002 4588 c-1 -79 -5 -108 -14 -108 -10 0 -10 -2 -1 -8 8 -5 13 -47
16 -127 l3 -120 2 123 c1 90 5 122 15 122 9 0 9 2 0 8 -8 5 -13 44 -16 112
l-3 105 -2 -107z"/>
<path d="M6616 4654 c-19 -18 -20 -26 -5 -41 8 -8 7 -17 -3 -32 -9 -16 -10
-26 -2 -39 13 -21 70 -28 90 -11 31 25 5 74 -40 74 -16 0 -21 6 -21 25 0 33
38 36 43 3 4 -26 17 -30 26 -8 14 36 -57 60 -88 29z m64 -79 c10 -12 10 -18 0
-30 -7 -8 -18 -15 -25 -15 -19 0 -36 25 -29 44 8 20 38 21 54 1z"/>
<path d="M6777 4652 c-22 -24 -22 -95 -1 -116 42 -43 102 3 91 70 -3 20 -11
42 -18 50 -16 20 -53 17 -72 -4z m67 -57 c0 -20 -7 -43 -18 -53 -16 -16 -18
-16 -32 2 -19 26 -18 81 2 101 15 15 18 15 32 1 9 -9 16 -32 16 -51z"/>
<path d="M7017 4652 c-22 -24 -22 -95 -1 -116 25 -26 72 -20 86 10 17 37 0 59
-46 59 -39 0 -46 14 -20 39 19 19 26 20 42 4 6 -6 15 -8 19 -4 10 10 -17 26
-43 26 -11 0 -28 -8 -37 -18z m63 -67 c15 -18 7 -43 -16 -52 -24 -9 -46 24
-33 48 12 23 32 24 49 4z"/>
<path d="M7177 4652 c-22 -24 -22 -95 -1 -116 42 -43 102 3 91 70 -3 20 -11
42 -18 50 -16 20 -53 17 -72 -4z m67 -57 c0 -20 -7 -43 -18 -53 -16 -16 -18
-16 -32 2 -19 26 -18 81 2 101 15 15 18 15 32 1 9 -9 16 -32 16 -51z"/>
<path d="M7337 4652 c-22 -24 -22 -95 -1 -116 42 -43 102 3 91 70 -3 20 -11
42 -18 50 -16 20 -53 17 -72 -4z m67 -57 c0 -20 -7 -43 -18 -53 -16 -16 -18
-16 -32 2 -19 26 -18 81 2 101 15 15 18 15 32 1 9 -9 16 -32 16 -51z"/>
<path d="M1922 4523 c-1 -61 -6 -103 -12 -103 -6 0 -10 -57 -10 -150 0 -92 4
-150 10 -150 6 0 11 -92 13 -242 l2 -243 3 243 c1 153 6 242 12 242 6 0 10 57
10 150 0 90 -4 150 -10 150 -5 0 -11 46 -13 103 l-3 102 -2 -102z"/>
<path d="M3062 4513 c-1 -24 -6 -43 -12 -43 -6 0 -10 -52 -10 -135 0 -80 4
-135 10 -135 5 0 11 -52 13 -122 l3 -123 2 123 c1 73 6 122 12 122 6 0 10 52
10 135 0 78 -4 135 -9 135 -6 0 -12 19 -14 43 l-4 42 -1 -42z"/>
<path d="M3361 4533 c0 -13 -5 -23 -11 -23 -7 0 -10 -178 -10 -515 0 -315 4
-515 9 -515 6 0 12 -17 14 -37 l4 -38 1 38 c1 20 7 37 12 37 7 0 10 178 10
515 0 311 -4 515 -9 515 -5 0 -12 10 -14 23 l-4 22 -2 -22z"/>
<path d="M6920 4530 c0 -5 7 -10 15 -10 8 0 15 5 15 10 0 6 -7 10 -15 10 -8 0
-15 -4 -15 -10z"/>
<path d="M1982 4288 c-1 -111 -6 -178 -12 -178 -6 0 -10 -72 -10 -195 l0 -195
25 0 25 0 0 195 c0 120 -4 195 -10 195 -6 0 -11 71 -13 178 l-2 177 -3 -177z"/>
<path d="M1793 4253 c-16 -6 -18 -133 -3 -133 5 0 11 -47 13 -107 l3 -108 2
108 c1 63 6 107 12 107 6 0 10 28 10 64 0 63 -8 79 -37 69z"/>
<path d="M4862 4173 c-1 -35 -6 -63 -12 -63 -7 0 -10 -342 -10 -1005 0 -653 3
-1005 10 -1005 6 0 11 -109 13 -292 l2 -293 3 293 c1 186 6 292 12 292 7 0 10
342 10 1005 0 630 -4 1005 -10 1005 -5 0 -11 28 -13 63 l-3 62 -2 -62z"/>
<path d="M3482 3983 c-1 -107 -6 -173 -12 -173 -6 0 -10 -62 -10 -165 0 -101
4 -165 10 -165 6 0 11 -66 13 -162 l3 -163 2 163 c1 100 6 162 12 162 6 0 10
62 10 165 0 101 -4 165 -10 165 -6 0 -11 69 -13 173 l-3 172 -2 -172z"/>
<path d="M2212 3964 c-14 -16 -17 -144 -2 -144 5 0 11 -54 13 -127 l3 -128 2
128 c1 76 6 127 12 127 15 0 13 129 -3 144 -10 11 -15 11 -25 0z"/>
<path d="M6619 3831 c-19 -16 -21 -21 -11 -34 11 -13 11 -19 0 -36 -9 -16 -10
-26 -2 -39 13 -21 70 -28 90 -11 19 16 18 46 -3 58 -17 9 -17 11 1 24 19 14
19 14 -2 35 -27 27 -43 28 -73 3z m49 0 c19 -11 11 -45 -11 -49 -19 -4 -32 20
-23 43 6 17 15 19 34 6z m12 -76 c16 -19 -3 -45 -32 -45 -24 0 -34 26 -18 45
16 19 34 19 50 0z"/>
<path d="M6777 3832 c-19 -21 -22 -83 -7 -113 16 -29 65 -25 86 6 44 67 -28
164 -79 107z m63 -28 c12 -31 2 -84 -18 -91 -36 -14 -58 80 -26 111 18 19 32
13 44 -20z"/>
<path d="M7042 3823 c-11 -16 -27 -43 -36 -60 l-17 -33 41 0 c29 0 40 -4 40
-15 0 -8 5 -15 10 -15 6 0 10 7 10 15 0 8 5 15 12 15 9 0 9 3 0 12 -7 7 -12
34 -12 60 0 56 -18 64 -48 21z m28 -38 c0 -41 -2 -45 -25 -45 -14 0 -25 5 -25
10 0 9 42 80 48 80 1 0 2 -20 2 -45z"/>
<path d="M7177 3832 c-22 -24 -22 -95 -1 -116 25 -26 72 -20 86 10 21 45 -30
85 -68 54 -11 -10 -14 -9 -14 8 0 31 27 54 50 42 27 -14 34 -12 20 5 -17 20
-53 19 -73 -3z m63 -67 c25 -30 -18 -72 -45 -44 -9 10 -10 21 -4 37 10 25 31
29 49 7z"/>
<path d="M7337 3832 c-19 -21 -22 -83 -7 -113 16 -29 65 -25 86 6 44 67 -28
164 -79 107z m63 -28 c12 -31 2 -84 -18 -91 -36 -14 -58 80 -26 111 18 19 32
13 44 -20z"/>
<path d="M6920 3710 c0 -5 7 -10 15 -10 8 0 15 5 15 10 0 6 -7 10 -15 10 -8 0
-15 -4 -15 -10z"/>
<path d="M6619 3011 c-23 -19 -23 -19 -5 -40 17 -19 17 -21 2 -27 -27 -10 -20
-51 12 -62 52 -18 102 22 69 56 -15 14 -15 18 -2 32 12 13 12 19 2 32 -20 27
-52 30 -78 9z m59 -23 c-2 -15 -10 -23 -23 -23 -13 0 -21 8 -23 23 -3 18 1 22
23 22 22 0 26 -4 23 -22z m12 -63 c0 -34 -55 -50 -67 -19 -9 24 24 46 48 33
11 -5 19 -11 19 -14z"/>
<path d="M6782 3014 c-44 -30 -20 -144 31 -144 34 0 52 28 52 80 0 40 -5 55
-19 66 -25 18 -36 18 -64 -2z m58 -29 c12 -32 2 -85 -18 -92 -19 -8 -42 23
-42 55 0 57 42 83 60 37z"/>
<path d="M7019 3010 c-26 -21 -20 -27 10 -8 10 6 26 8 35 5 25 -10 15 -40 -14
-48 l-25 -6 28 -8 c17 -5 27 -14 27 -26 0 -25 -27 -36 -51 -21 -22 14 -29 15
-29 4 0 -5 11 -14 25 -20 50 -23 103 22 70 58 -11 12 -13 20 -6 25 21 12 12
45 -15 55 -32 13 -28 13 -55 -10z"/>
<path d="M7183 3020 c-13 -5 -23 -14 -23 -20 0 -13 17 -13 25 0 10 15 42 12
49 -5 3 -10 -9 -32 -34 -59 -22 -24 -40 -46 -40 -50 0 -3 24 -5 53 -4 35 1 42
2 20 5 -18 2 -33 7 -33 10 0 3 14 21 30 40 36 40 37 57 8 77 -25 18 -25 18
-55 6z"/>
<path d="M7322 3014 c-44 -30 -20 -144 31 -144 34 0 52 28 52 80 0 40 -5 55
-19 66 -25 18 -36 18 -64 -2z m58 -29 c12 -32 2 -85 -18 -92 -19 -8 -42 23
-42 55 0 57 42 83 60 37z"/>
<path d="M6925 2890 c-3 -5 1 -10 9 -10 9 0 16 5 16 10 0 6 -4 10 -9 10 -6 0
-13 -4 -16 -10z"/>
<path d="M6629 2196 c-29 -14 -34 -30 -14 -50 15 -15 15 -17 1 -22 -26 -10
-20 -53 9 -66 54 -24 107 21 71 61 -15 16 -15 20 -1 31 34 28 -22 68 -66 46z
m46 -31 c0 -30 -39 -27 -43 3 -3 20 0 23 20 20 15 -2 23 -10 23 -23z m10 -70
c0 -13 -8 -21 -24 -23 -28 -4 -46 11 -37 33 9 25 61 16 61 -10z"/>
<path d="M6780 2190 c-27 -27 -28 -100 0 -125 45 -41 98 11 86 85 -9 57 -50
76 -86 40z m62 -37 c9 -36 -5 -83 -25 -83 -21 0 -37 22 -37 53 0 67 47 90 62
30z"/>
<path d="M7149 2196 c-29 -14 -34 -30 -14 -50 15 -15 15 -17 1 -22 -26 -10
-20 -53 9 -66 54 -24 107 21 71 61 -15 16 -15 20 -1 31 34 28 -22 68 -66 46z
m46 -31 c0 -30 -39 -27 -43 3 -3 20 0 23 20 20 15 -2 23 -10 23 -23z m10 -70
c0 -13 -8 -21 -24 -23 -28 -4 -46 11 -37 33 9 25 61 16 61 -10z"/>
<path d="M7300 2190 c-27 -27 -28 -100 0 -125 45 -41 98 11 86 85 -9 57 -50
76 -86 40z m62 -37 c9 -36 -5 -83 -25 -83 -21 0 -37 22 -37 53 0 67 47 90 62
30z"/>
<path d="M7012 2188 c-7 -7 -12 -16 -12 -22 0 -6 5 -5 12 2 22 22 28 12 28
-53 0 -37 4 -65 10 -65 6 0 10 32 10 75 0 66 -2 75 -18 75 -10 0 -23 -5 -30
-12z"/>
<path d="M6925 2071 c-6 -11 9 -23 19 -14 9 9 7 23 -3 23 -6 0 -12 -4 -16 -9z"/>
<path d="M332 1219 c-30 -11 -40 -39 -19 -54 15 -11 16 -14 2 -25 -31 -26 -11
-70 33 -70 53 0 81 41 47 70 -13 11 -13 14 0 27 31 30 -16 69 -63 52z m46 -32
c4 -22 -24 -33 -43 -17 -12 10 -13 16 -4 27 16 18 43 13 47 -10z m6 -63 c9
-22 -1 -34 -29 -34 -27 0 -39 14 -31 35 7 20 52 19 60 -1z"/>
<path d="M800 1150 c0 -47 4 -80 10 -80 6 0 10 33 10 80 0 47 -4 80 -10 80 -6
0 -10 -33 -10 -80z"/>
<path d="M1100 1222 c-26 -8 -40 -35 -40 -77 0 -67 55 -99 95 -55 37 40 -18
105 -60 70 -21 -18 -21 13 1 34 18 18 30 20 39 6 3 -5 13 -10 22 -10 12 0 13
3 4 14 -14 17 -40 24 -61 18z m44 -87 c9 -24 -4 -45 -29 -45 -27 0 -36 17 -23
43 11 21 44 23 52 2z"/>
<path d="M2242 1214 c-46 -32 -18 -92 38 -80 33 6 35 4 20 -25 -12 -21 -40
-25 -58 -7 -17 17 -28 2 -12 -17 16 -19 64 -19 80 0 7 8 15 35 17 58 5 39 2
46 -22 65 -33 26 -34 26 -63 6z m42 -10 c21 -8 21 -50 0 -58 -32 -12 -57 27
-32 52 14 14 12 14 32 6z"/>
<path d="M2720 1150 c0 -47 4 -80 10 -80 6 0 10 33 10 80 0 47 -4 80 -10 80
-6 0 -10 -33 -10 -80z"/>
<path d="M2881 1211 c-28 -28 -29 -101 -3 -124 38 -35 77 -17 88 41 6 32 -11
92 -26 92 -5 0 -15 3 -23 6 -9 3 -25 -4 -36 -15z m57 -34 c14 -30 7 -76 -14
-84 -36 -14 -58 52 -33 98 13 25 30 20 47 -14z"/>
<path d="M3253 1219 c-23 -8 -38 -27 -29 -36 3 -4 15 2 26 12 11 10 26 15 35
11 23 -9 14 -40 -13 -44 -12 -2 -22 -7 -22 -12 0 -5 10 -10 22 -12 28 -4 36
-36 12 -45 -9 -3 -25 -1 -36 6 -25 15 -35 7 -18 -14 17 -21 63 -19 83 3 21 23
21 36 2 52 -11 9 -12 16 -3 30 22 35 -14 66 -59 49z"/>
<path d="M3401 1211 c-28 -28 -29 -101 -3 -124 38 -35 77 -17 88 41 6 32 -11
92 -26 92 -5 0 -15 3 -23 6 -9 3 -25 -4 -36 -15z m57 -34 c14 -30 7 -76 -14
-84 -36 -14 -58 52 -33 98 13 25 30 20 47 -14z"/>
<path d="M4162 1214 c-46 -32 -18 -92 38 -80 33 6 35 4 20 -25 -12 -21 -40
-25 -58 -7 -17 17 -28 2 -12 -17 16 -19 64 -19 80 0 7 8 15 35 17 58 5 39 2
46 -22 65 -33 26 -34 26 -63 6z m42 -10 c21 -8 21 -50 0 -58 -32 -12 -57 27
-32 52 14 14 12 14 32 6z"/>
<path d="M4640 1150 c0 -47 4 -80 10 -80 6 0 10 33 10 80 0 47 -4 80 -10 80
-6 0 -10 -33 -10 -80z"/>
<path d="M4801 1211 c-28 -28 -29 -101 -3 -124 38 -35 77 -17 88 41 6 32 -11
92 -26 92 -5 0 -15 3 -23 6 -9 3 -25 -4 -36 -15z m57 -34 c14 -30 7 -76 -14
-84 -36 -14 -58 52 -33 98 13 25 30 20 47 -14z"/>
<path d="M4962 1214 c-46 -32 -18 -92 38 -80 33 6 35 4 20 -25 -12 -21 -40
-25 -58 -7 -17 17 -28 2 -12 -17 16 -19 64 -19 80 0 7 8 15 35 17 58 5 39 2
46 -22 65 -33 26 -34 26 -63 6z m42 -10 c21 -8 21 -50 0 -58 -32 -12 -57 27
-32 52 14 14 12 14 32 6z"/>
<path d="M5213 1219 c-23 -8 -38 -27 -29 -36 3 -4 15 2 26 12 11 10 26 15 35
11 23 -9 14 -40 -13 -44 -12 -2 -22 -7 -22 -12 0 -5 10 -10 22 -12 28 -4 36
-36 12 -45 -9 -3 -25 -1 -36 6 -25 15 -35 7 -18 -14 17 -21 63 -19 83 3 21 23
21 36 2 52 -11 9 -12 16 -3 30 22 35 -14 66 -59 49z"/>
<path d="M5361 1211 c-28 -28 -29 -101 -3 -124 38 -35 77 -17 88 41 6 32 -11
92 -26 92 -5 0 -15 3 -23 6 -9 3 -25 -4 -36 -15z m57 -34 c14 -30 7 -76 -14
-84 -36 -14 -58 52 -33 98 13 25 30 20 47 -14z"/>
<path d="M6082 1214 c-46 -32 -18 -92 38 -80 33 6 35 4 20 -25 -12 -21 -40
-25 -58 -7 -17 17 -28 2 -12 -17 16 -19 64 -19 80 0 7 8 15 35 17 58 5 39 2
46 -22 65 -33 26 -34 26 -63 6z m42 -10 c21 -8 21 -50 0 -58 -32 -12 -57 27
-32 52 14 14 12 14 32 6z"/>
<path d="M6560 1150 c0 -47 4 -80 10 -80 6 0 10 33 10 80 0 47 -4 80 -10 80
-6 0 -10 -33 -10 -80z"/>
<path d="M7073 1219 c-23 -8 -38 -27 -29 -36 3 -4 15 2 26 12 11 10 26 15 35
11 23 -9 14 -40 -13 -44 -12 -2 -22 -7 -22 -12 0 -5 10 -10 22 -12 28 -4 36
-36 12 -45 -9 -3 -25 -1 -36 6 -25 15 -35 7 -18 -14 17 -21 63 -19 83 3 21 23
21 36 2 52 -11 9 -12 16 -3 30 22 35 -14 66 -59 49z"/>
<path d="M7221 1211 c-28 -28 -29 -101 -3 -124 38 -35 77 -17 88 41 6 32 -11
92 -26 92 -5 0 -15 3 -23 6 -9 3 -25 -4 -36 -15z m57 -34 c14 -30 7 -76 -14
-84 -36 -14 -58 52 -33 98 13 25 30 20 47 -14z"/>
<path d="M192 1208 c-7 -7 -12 -16 -12 -22 0 -6 5 -5 12 2 22 22 28 12 28 -53
0 -37 4 -65 10 -65 6 0 10 32 10 75 0 66 -2 75 -18 75 -10 0 -23 -5 -30 -12z"/>
<path d="M580 1160 c0 -65 -15 -85 -45 -60 -9 7 -18 10 -22 7 -10 -11 18 -37
41 -37 40 0 50 16 54 84 4 56 2 66 -12 66 -13 0 -16 -11 -16 -60z"/>
<path d="M952 1208 c-7 -7 -12 -16 -12 -22 0 -6 5 -5 12 2 22 22 28 12 28 -53
0 -37 4 -65 10 -65 6 0 10 32 10 75 0 66 -2 75 -18 75 -10 0 -23 -5 -30 -12z"/>
<path d="M1312 1208 c-7 -7 -12 -16 -12 -22 0 -6 5 -5 12 2 22 22 28 12 28
-53 0 -37 4 -65 10 -65 6 0 10 32 10 75 0 66 -2 75 -18 75 -10 0 -23 -5 -30
-12z"/>
<path d="M1430 1203 c0 -10 -3 -28 -6 -40 -6 -21 -3 -22 32 -20 34 2 39 -1 42
-21 4 -27 -23 -40 -49 -24 -27 17 -31 15 -19 -8 16 -30 65 -27 86 5 15 23 15
27 -1 51 -14 22 -22 25 -47 20 -24 -5 -29 -3 -26 12 2 12 15 18 41 20 52 4 46
22 -8 22 -36 0 -45 -3 -45 -17z"/>
<path d="M2112 1208 c-7 -7 -12 -16 -12 -22 0 -6 5 -5 12 2 22 22 28 12 28
-53 0 -37 4 -65 10 -65 6 0 10 32 10 75 0 66 -2 75 -18 75 -10 0 -23 -5 -30
-12z"/>
<path d="M2500 1160 c0 -65 -15 -85 -45 -60 -9 7 -18 10 -22 7 -10 -11 18 -37
41 -37 40 0 50 16 54 84 4 56 2 66 -12 66 -13 0 -16 -11 -16 -60z"/>
<path d="M3032 1208 c-7 -7 -12 -16 -12 -22 0 -6 5 -5 12 2 22 22 28 12 28
-53 0 -37 4 -65 10 -65 6 0 10 32 10 75 0 66 -2 75 -18 75 -10 0 -23 -5 -30
-12z"/>
<path d="M4032 1208 c-7 -7 -12 -16 -12 -22 0 -6 5 -5 12 2 22 22 28 12 28
-53 0 -37 4 -65 10 -65 6 0 10 32 10 75 0 66 -2 75 -18 75 -10 0 -23 -5 -30
-12z"/>
<path d="M4420 1160 c0 -65 -15 -85 -45 -60 -9 7 -18 10 -22 7 -10 -11 18 -37
41 -37 40 0 50 16 54 84 4 56 2 66 -12 66 -13 0 -16 -11 -16 -60z"/>
<path d="M5952 1208 c-7 -7 -12 -16 -12 -22 0 -6 5 -5 12 2 22 22 28 12 28
-53 0 -37 4 -65 10 -65 6 0 10 32 10 75 0 66 -2 75 -18 75 -10 0 -23 -5 -30
-12z"/>
<path d="M6340 1160 c0 -65 -15 -85 -45 -60 -9 7 -18 10 -22 7 -10 -11 18 -37
41 -37 40 0 50 16 54 84 4 56 2 66 -12 66 -13 0 -16 -11 -16 -60z"/>
<path d="M6712 1208 c-7 -7 -12 -16 -12 -22 0 -6 5 -5 12 2 22 22 28 12 28
-53 0 -37 4 -65 10 -65 6 0 10 32 10 75 0 66 -2 75 -18 75 -10 0 -23 -5 -30
-12z"/>
<path d="M6815 1210 c3 -5 22 -10 41 -10 l34 0 -30 -60 c-33 -66 -34 -70 -20
-70 8 0 80 130 80 145 0 3 -25 5 -56 5 -34 0 -53 -4 -49 -10z"/>
<path d="M660 1130 c0 -27 3 -51 8 -51 4 -1 26 -3 50 -4 l42 -3 0 54 c0 40 -4
54 -14 54 -10 0 -16 -14 -18 -42 -2 -35 -7 -43 -23 -43 -16 0 -21 8 -23 43 -4
59 -22 53 -22 -8z"/>
<path d="M1227 1174 c-8 -8 1 -24 14 -24 5 0 9 7 9 15 0 15 -12 20 -23 9z"/>
<path d="M2580 1130 c0 -27 3 -51 8 -51 4 -1 26 -3 50 -4 l42 -3 0 54 c0 40
-4 54 -14 54 -10 0 -16 -14 -18 -42 -2 -35 -7 -43 -23 -43 -16 0 -21 8 -23 43
-4 59 -22 53 -22 -8z"/>
<path d="M3147 1174 c-8 -8 1 -24 14 -24 5 0 9 7 9 15 0 15 -12 20 -23 9z"/>
<path d="M4500 1130 c0 -27 3 -51 8 -51 4 -1 26 -3 50 -4 l42 -3 0 54 c0 40
-4 54 -14 54 -10 0 -16 -14 -18 -42 -2 -35 -7 -43 -23 -43 -16 0 -21 8 -23 43
-4 59 -22 53 -22 -8z"/>
<path d="M5107 1174 c-8 -8 1 -24 14 -24 5 0 9 7 9 15 0 15 -12 20 -23 9z"/>
<path d="M6420 1130 c0 -27 3 -51 8 -51 4 -1 26 -3 50 -4 l42 -3 0 54 c0 40
-4 54 -14 54 -10 0 -16 -14 -18 -42 -2 -35 -7 -43 -23 -43 -16 0 -21 8 -23 43
-4 59 -22 53 -22 -8z"/>
<path d="M6967 1174 c-8 -8 1 -24 14 -24 5 0 9 7 9 15 0 15 -12 20 -23 9z"/>
<path d="M1227 1094 c-8 -8 1 -24 14 -24 5 0 9 7 9 15 0 15 -12 20 -23 9z"/>
<path d="M3147 1094 c-8 -8 1 -24 14 -24 5 0 9 7 9 15 0 15 -12 20 -23 9z"/>
<path d="M5107 1094 c-8 -8 1 -24 14 -24 5 0 9 7 9 15 0 15 -12 20 -23 9z"/>
<path d="M6967 1094 c-8 -8 1 -24 14 -24 5 0 9 7 9 15 0 15 -12 20 -23 9z"/>
<path d="M3560 790 c-18 -18 -20 -33 -20 -185 0 -219 -14 -205 205 -205 219 0
205 -14 205 205 0 219 14 205 -205 205 -152 0 -167 -2 -185 -20z m350 -185 l0
-165 -165 0 -165 0 0 165 0 165 165 0 165 0 0 -165z"/>
<path d="M3829 644 c-18 -31 -37 -58 -44 -60 -7 -3 -26 9 -43 25 -17 17 -34
31 -39 31 -4 -1 -28 -26 -52 -56 -30 -38 -41 -58 -34 -65 7 -7 22 4 48 36 l38
46 37 -36 c19 -19 40 -35 45 -35 12 0 95 136 95 156 0 29 -21 12 -51 -42z"/>
<path d="M5218 800 c-20 -4 -53 -17 -72 -30 -38 -27 -86 -94 -86 -122 0 -9 -7
-21 -15 -26 -14 -7 -13 -11 5 -27 19 -18 21 -18 40 0 14 13 17 21 9 26 -33 20
37 120 98 140 46 15 118 6 151 -18 52 -39 67 -70 67 -138 0 -69 -15 -99 -69
-139 -40 -31 -143 -30 -185 1 -36 27 -54 12 -23 -19 48 -49 161 -51 228 -6
175 119 62 393 -148 358z"/>
<path d="M6707 803 c-2 -4 -7 -20 -11 -35 -8 -35 -39 -53 -65 -38 -31 16 -39
12 -61 -29 l-19 -39 24 -16 c15 -10 25 -26 25 -41 0 -15 -10 -31 -25 -41 l-24
-16 19 -39 c22 -41 30 -45 61 -29 27 15 57 -4 67 -43 8 -29 12 -32 47 -32 35
0 39 3 47 32 10 39 40 58 67 43 30 -16 37 -13 61 27 l22 37 -26 19 c-15 11
-26 28 -26 42 0 14 11 31 26 42 l26 19 -22 37 c-24 40 -31 43 -61 27 -27 -15
-57 4 -67 43 -7 28 -13 32 -44 35 -20 2 -38 -1 -41 -5z m63 -55 c0 -31 51 -59
90 -51 25 5 30 2 30 -15 0 -11 -7 -25 -15 -32 -8 -7 -15 -27 -15 -45 0 -18 7
-38 15 -45 8 -7 15 -21 15 -32 0 -17 -5 -20 -30 -15 -39 8 -90 -20 -90 -50 0
-18 -6 -23 -25 -23 -19 0 -25 5 -25 23 0 30 -51 58 -90 50 -25 -5 -30 -2 -30
15 0 11 7 25 15 32 8 7 15 27 15 45 0 18 -7 38 -15 45 -8 7 -15 21 -15 32 0
17 5 20 30 15 39 -8 90 20 90 51 0 17 6 22 25 22 19 0 25 -5 25 -22z"/>
<path d="M6695 655 c-14 -13 -25 -36 -25 -50 0 -33 42 -75 75 -75 33 0 75 42
75 75 0 33 -42 75 -75 75 -14 0 -37 -11 -50 -25z m83 -17 c28 -28 7 -78 -33
-78 -27 0 -45 18 -45 45 0 27 18 45 45 45 12 0 26 -5 33 -12z"/>
<path d="M806 730 c-49 -53 -55 -92 -7 -46 15 14 30 26 34 26 3 0 8 -39 9 -87
2 -58 7 -88 16 -91 9 -3 12 19 12 87 0 50 4 91 8 91 5 0 19 -11 32 -25 25 -27
40 -32 40 -14 0 12 -80 109 -90 109 -4 0 -28 -23 -54 -50z"/>
<path d="M2160 720 c0 -53 -2 -60 -20 -60 -18 0 -20 -7 -20 -84 0 -75 2 -84
20 -89 14 -3 20 -14 20 -31 0 -16 6 -26 15 -26 10 0 15 10 15 30 0 23 4 30 20
30 18 0 20 7 20 85 0 78 -2 85 -20 85 -18 0 -20 7 -20 60 0 47 -3 60 -15 60
-12 0 -15 -13 -15 -60z"/>
<path d="M2320 750 c0 -23 -4 -30 -20 -30 -19 0 -20 -7 -20 -95 0 -88 1 -95
20 -95 16 0 20 -7 20 -30 0 -20 5 -30 15 -30 9 0 15 10 15 26 0 17 6 28 20 31
18 5 20 14 20 98 0 84 -2 93 -20 98 -14 3 -20 14 -20 31 0 16 -6 26 -15 26
-10 0 -15 -10 -15 -30z m40 -125 c0 -63 -1 -65 -25 -65 -24 0 -25 2 -25 65 0
63 1 65 25 65 24 0 25 -2 25 -65z"/>
<path d="M5240 642 c0 -54 2 -60 40 -97 27 -26 43 -36 50 -29 7 7 -2 21 -25
44 -31 30 -35 39 -35 87 0 40 -4 53 -15 53 -12 0 -15 -13 -15 -58z"/>
<path d="M640 591 c0 -50 -4 -91 -8 -91 -5 0 -19 11 -32 25 -13 14 -27 25 -32
25 -18 0 -5 -28 37 -75 l45 -50 51 52 c27 29 47 58 44 64 -5 7 -17 1 -34 -15
-15 -14 -30 -26 -34 -26 -3 0 -8 39 -9 87 -2 58 -7 88 -15 91 -10 3 -13 -19
-13 -87z"/>
<path d="M3870 200 c0 -27 -2 -30 -20 -20 -15 8 -24 6 -40 -10 -25 -25 -25
-41 -1 -71 17 -21 22 -22 40 -11 13 7 21 8 21 2 0 -5 5 -10 10 -10 6 0 10 32
10 75 0 43 -4 75 -10 75 -5 0 -10 -14 -10 -30z m-10 -45 c17 -20 8 -50 -15
-50 -20 0 -31 25 -21 51 7 18 20 18 36 -1z"/>
<path d="M5040 220 c0 -5 5 -10 10 -10 6 0 10 5 10 10 0 6 -4 10 -10 10 -5 0
-10 -4 -10 -10z"/>
<path d="M6760 220 c0 -5 5 -10 10 -10 6 0 10 5 10 10 0 6 -4 10 -10 10 -5 0
-10 -4 -10 -10z"/>
<path d="M415 200 c-24 -26 -23 -76 1 -99 24 -23 95 -36 88 -16 -3 7 -1 16 5
20 18 11 13 80 -7 98 -25 23 -65 21 -87 -3z m75 -19 c16 -30 12 -52 -10 -58
-11 -3 -17 -9 -14 -14 8 -13 -20 -11 -34 3 -7 7 -12 24 -12 38 0 48 49 69 70
31z"/>
<path d="M1997 202 c-10 -10 -17 -34 -17 -54 0 -58 51 -87 96 -54 25 19 12 31
-15 14 -39 -24 -70 14 -57 68 7 26 43 33 64 12 6 -6 15 -8 19 -4 11 11 -26 36
-52 36 -12 0 -29 -8 -38 -18z"/>
<path d="M2130 150 c0 -76 17 -97 22 -27 2 34 7 42 23 42 16 0 21 -8 23 -42 4
-57 22 -55 22 2 0 49 -21 71 -53 54 -14 -8 -17 -6 -17 16 0 14 -4 25 -10 25
-6 0 -10 -30 -10 -70z"/>
<path d="M3460 210 c0 -5 9 -10 20 -10 18 0 20 -7 20 -60 0 -47 3 -60 15 -60
12 0 15 13 15 60 0 53 2 60 20 60 11 0 20 5 20 10 0 6 -25 10 -55 10 -30 0
-55 -4 -55 -10z"/>
<path d="M4890 150 c0 -40 4 -70 10 -70 6 0 10 14 10 30 0 28 3 30 35 30 32 0
35 -2 35 -30 0 -20 5 -30 15 -30 12 0 15 14 15 70 0 56 -3 70 -15 70 -10 0
-15 -10 -15 -30 0 -28 -3 -30 -35 -30 -32 0 -35 2 -35 30 0 17 -4 30 -10 30
-6 0 -10 -30 -10 -70z"/>
<path d="M6342 208 c-24 -24 -14 -49 28 -65 22 -9 39 -21 37 -27 -5 -14 -57
-20 -57 -7 0 6 -4 11 -10 11 -16 0 -11 -27 6 -34 44 -17 84 1 84 37 0 12 -13
24 -40 34 -47 19 -47 39 -1 36 20 0 31 3 28 10 -5 17 -60 20 -75 5z"/>
<path d="M813 190 c-8 -12 -9 -21 -3 -25 6 -3 10 -22 10 -41 0 -34 22 -56 38
-39 4 4 1 10 -5 12 -17 6 -17 70 0 76 10 4 10 6 0 6 -7 1 -13 8 -13 16 0 21
-13 19 -27 -5z"/>
<path d="M2472 190 c-7 -12 -8 -20 -2 -20 5 0 10 -18 10 -39 0 -27 5 -41 16
-45 9 -4 20 -3 23 0 3 4 0 9 -6 11 -7 3 -13 20 -13 38 0 18 6 36 13 38 10 4
10 6 0 6 -7 1 -13 8 -13 16 0 21 -13 19 -28 -5z"/>
<path d="M5223 190 c-8 -12 -9 -21 -3 -25 6 -3 10 -22 10 -41 0 -34 22 -56 38
-39 4 4 1 10 -5 12 -7 3 -13 20 -13 38 0 18 6 36 13 38 10 4 10 6 0 6 -7 1
-13 8 -13 16 0 21 -13 19 -27 -5z"/>
<path d="M6590 196 c0 -8 -6 -17 -12 -19 -10 -4 -10 -6 0 -6 7 -1 12 -16 12
-40 0 -27 5 -41 16 -45 22 -8 31 1 16 16 -15 15 -16 68 -2 68 6 0 5 8 -2 20
-15 23 -28 26 -28 6z"/>
<path d="M6680 196 c0 -8 -6 -17 -12 -19 -10 -4 -10 -6 0 -6 7 -1 12 -16 12
-40 0 -27 5 -41 16 -45 22 -8 31 1 16 16 -15 15 -16 68 -2 68 6 0 5 8 -2 20
-15 23 -28 26 -28 6z"/>
<path d="M701 173 c-30 -20 -28 -70 3 -84 44 -20 83 20 65 67 -10 28 -42 36
-68 17z m44 -38 c0 -23 -4 -30 -20 -30 -21 0 -31 25 -21 51 11 28 41 12 41
-21z"/>
<path d="M918 182 c-19 -4 -32 -38 -26 -69 5 -27 54 -41 74 -21 15 15 14 16
-16 15 -19 -1 -35 3 -37 11 -3 8 7 12 32 12 32 0 36 3 33 21 -3 23 -32 38 -60
31z m40 -29 c2 -8 -6 -13 -22 -13 -25 0 -33 10 -19 24 10 10 36 3 41 -11z"/>
<path d="M1038 183 c-30 -8 -22 -43 12 -54 43 -16 38 -33 -7 -24 -33 6 -35 5
-24 -9 16 -19 52 -21 69 -4 20 20 14 35 -18 47 -41 14 -39 34 3 26 30 -6 31
-5 13 10 -11 8 -22 14 -25 14 -3 -1 -14 -3 -23 -6z"/>
<path d="M2272 179 c-32 -12 -27 -22 8 -14 23 5 30 3 30 -8 0 -8 -13 -17 -30
-20 -21 -5 -30 -12 -30 -27 0 -11 3 -20 8 -21 4 -1 24 -2 45 -3 34 -3 37 -1
37 23 0 64 -22 87 -68 70z m38 -64 c0 -8 -9 -15 -20 -15 -20 0 -26 11 -13 23
12 13 33 7 33 -8z"/>
<path d="M3631 181 c-8 -5 -20 -7 -28 -4 -10 4 -13 -7 -13 -46 0 -28 5 -51 10
-51 6 0 10 18 10 39 0 31 4 41 20 46 11 3 20 11 20 16 0 11 -1 11 -19 0z"/>
<path d="M3694 175 c-18 -13 -18 -14 8 -12 31 2 39 -16 9 -21 -58 -9 -45 -61
14 -59 34 1 35 2 35 44 0 32 -5 45 -19 53 -25 13 -23 13 -47 -5z m46 -54 c0
-6 -5 -13 -10 -16 -15 -9 -43 3 -35 15 8 13 45 13 45 1z"/>
<path d="M3940 170 c-25 -25 -25 -41 -2 -70 14 -18 25 -22 45 -16 37 9 34 27
-3 20 -23 -5 -30 -3 -30 10 0 12 9 16 35 16 19 0 35 5 35 10 0 13 -37 50 -50
50 -5 0 -19 -9 -30 -20z m50 -15 c0 -8 -9 -15 -20 -15 -11 0 -20 7 -20 15 0 8
9 15 20 15 11 0 20 -7 20 -15z"/>
<path d="M5118 179 c-27 -15 -21 -39 12 -50 17 -6 30 -16 30 -21 0 -6 -12 -8
-30 -4 -31 6 -42 -7 -14 -18 25 -10 42 -7 59 10 19 19 6 41 -27 46 -12 2 -24
9 -26 17 -4 11 3 13 29 8 32 -6 33 -6 15 8 -23 17 -25 18 -48 4z"/>
<path d="M5321 173 c-30 -20 -28 -70 3 -84 44 -20 83 20 65 67 -10 28 -42 36
-68 17z m44 -38 c0 -23 -4 -30 -20 -30 -21 0 -31 25 -21 51 11 28 41 12 41
-21z"/>
<path d="M5471 181 c-8 -5 -20 -7 -28 -4 -10 4 -13 -7 -13 -46 0 -28 5 -51 10
-51 6 0 10 18 10 39 0 31 4 41 20 46 11 3 20 11 20 16 0 11 -1 11 -19 0z"/>
<path d="M6488 182 c-19 -4 -32 -38 -26 -69 5 -27 54 -41 74 -21 15 15 14 16
-16 15 -19 -1 -35 3 -37 11 -3 8 7 12 32 12 32 0 36 3 33 21 -3 23 -32 38 -60
31z m40 -29 c2 -8 -6 -13 -22 -13 -25 0 -33 10 -19 24 10 10 36 3 41 -11z"/>
<path d="M6860 180 c-7 -4 -19 -6 -27 -3 -10 4 -13 -7 -13 -46 0 -28 5 -51 10
-51 6 0 10 18 10 40 0 28 5 43 16 47 21 8 34 -13 34 -54 0 -18 5 -33 10 -33 6
0 10 20 10 45 0 47 -22 72 -50 55z"/>
<path d="M6957 179 c-21 -12 -23 -62 -2 -79 8 -7 24 -10 36 -7 15 4 19 1 17
-11 -3 -13 -13 -16 -37 -14 -20 1 -30 -2 -26 -8 3 -5 22 -10 40 -10 42 0 55
20 55 86 0 40 -2 46 -19 41 -10 -2 -25 -1 -32 4 -8 4 -22 3 -32 -2z m51 -38
c4 -28 -17 -45 -35 -29 -14 11 -17 40 -6 52 14 14 38 0 41 -23z"/>
<path d="M7088 179 c-27 -15 -21 -39 12 -50 17 -6 30 -16 30 -21 0 -6 -12 -8
-30 -4 -31 6 -42 -7 -14 -18 25 -10 42 -7 59 10 19 19 6 41 -27 46 -12 2 -24
9 -26 17 -4 11 3 13 29 8 32 -6 33 -6 15 8 -23 17 -25 18 -48 4z"/>
<path d="M550 141 c0 -48 22 -71 51 -53 11 7 19 8 19 2 0 -5 5 -10 10 -10 6 0
10 23 10 50 0 28 -4 50 -10 50 -5 0 -10 -16 -10 -35 0 -23 -6 -38 -16 -42 -20
-7 -34 13 -34 50 0 15 -4 27 -10 27 -5 0 -10 -17 -10 -39z"/>
<path d="M2370 128 c0 -26 5 -48 10 -48 6 0 10 14 10 30 0 17 8 38 18 48 18
18 18 19 -10 19 -27 0 -28 -2 -28 -49z"/>
<path d="M5040 130 c0 -27 5 -50 10 -50 6 0 10 23 10 50 0 28 -4 50 -10 50 -5
0 -10 -22 -10 -50z"/>
<path d="M5520 177 c0 -2 7 -25 16 -50 13 -38 14 -51 4 -62 -10 -12 -10 -15 3
-15 20 0 31 16 51 74 19 58 18 56 7 56 -4 0 -15 -17 -23 -37 l-14 -38 -13 38
c-7 20 -17 37 -22 37 -5 0 -9 -1 -9 -3z"/>
<path d="M6760 130 c0 -27 5 -50 10 -50 6 0 10 23 10 50 0 28 -4 50 -10 50 -5
0 -10 -22 -10 -50z"/>
</g>
</svg>
