<?xml version="1.0" standalone="no"?>
<!DOCTYPE svg PUBLIC "-//W3C//DTD SVG 20010904//EN"
 "http://www.w3.org/TR/2001/REC-SVG-20010904/DTD/svg10.dtd">
<svg version="1.0" xmlns="http://www.w3.org/2000/svg"
 width="750.000000pt" height="1334.000000pt" viewBox="0 0 750.000000 1334.000000"
 preserveAspectRatio="xMidYMid meet">

<g transform="translate(0.000000,1334.000000) scale(0.100000,-0.100000)"
fill="#000000" stroke="none">
<path d="M0 6670 l0 -6670 3750 0 3750 0 0 6670 0 6670 -3750 0 -3750 0 0
-6670z m7170 6585 c0 -3 -7 -22 -15 -42 -19 -45 -20 -43 13 -43 16 0 32 -3 35
-6 4 -4 -17 -34 -45 -68 -29 -34 -53 -63 -55 -65 -2 -2 -6 -2 -9 2 -4 3 1 24
10 47 9 22 16 42 16 45 0 2 -16 5 -35 7 l-35 3 51 63 c45 54 69 74 69 57z
m-5863 -38 c39 -21 48 -34 34 -51 -9 -11 -20 -9 -58 10 -25 13 -61 24 -78 24
-17 0 -53 -11 -78 -24 -38 -19 -49 -21 -58 -10 -14 17 -5 30 34 51 64 34 139
34 204 0z m4648 14 c6 -11 -33 -36 -42 -27 -7 7 16 36 28 36 4 0 10 -4 14 -9z
m124 -4 c6 -8 8 -17 5 -20 -9 -8 -44 11 -44 23 0 15 26 12 39 -3z m-635 -6 c9
-13 -66 -171 -81 -171 -9 0 -13 13 -13 40 l0 40 -40 0 c-63 0 -49 23 38 62 87
41 89 41 96 29z m307 -31 c34 -34 38 -43 29 -60 -6 -11 -15 -20 -20 -20 -13 0
-29 32 -27 55 1 11 -9 25 -25 34 -57 33 -123 -28 -98 -89 17 -41 60 -56 101
-36 40 20 52 11 20 -15 -59 -48 -151 4 -151 86 0 40 50 85 95 85 29 0 44 -8
76 -40z m-5535 -26 l39 -57 3 57 c2 41 7 56 17 56 12 0 15 -17 15 -85 0 -104
-11 -108 -66 -28 l-39 57 -3 -57 c-2 -42 -7 -57 -17 -57 -12 0 -15 17 -15 85
0 104 11 109 66 29z m425 46 c10 -6 19 -17 19 -25 0 -19 -5 -19 -35 1 -14 9
-32 13 -41 10 -27 -11 -11 -39 30 -50 46 -13 62 -43 39 -75 -12 -18 -23 -21
-55 -19 -25 2 -45 10 -52 20 -15 25 1 34 23 14 24 -22 56 -17 56 8 0 13 -10
22 -28 27 -16 4 -35 13 -43 20 -17 14 -18 51 -2 67 15 15 63 16 89 2z m89 -75
c0 -69 -3 -85 -15 -85 -12 0 -15 16 -15 85 0 69 3 85 15 85 12 0 15 -16 15
-85z m101 18 l26 -66 25 64 c15 36 33 65 42 67 14 3 16 -9 16 -82 0 -51 -4
-86 -10 -86 -5 0 -10 26 -10 57 0 63 -8 61 -34 -10 -10 -26 -23 -46 -29 -44
-6 2 -21 28 -34 58 l-22 54 -1 -57 c0 -45 -3 -58 -15 -58 -12 0 -15 16 -15 85
0 74 2 85 18 85 12 0 25 -19 43 -67z m2659 -18 c0 -78 -2 -85 -20 -85 -18 0
-20 7 -20 65 0 62 -1 65 -19 55 -26 -13 -31 -13 -31 4 0 18 39 45 68 45 21 1
22 -2 22 -84z m146 77 c18 -11 34 -49 34 -77 0 -28 -16 -66 -34 -77 -17 -12
-71 -9 -84 4 -21 21 -13 31 19 24 35 -7 59 7 59 32 0 12 -3 13 -12 4 -28 -28
-88 0 -88 41 0 44 68 75 106 49z m270 -13 c12 -14 19 -36 19 -64 0 -54 -26
-85 -70 -85 -45 0 -67 28 -67 85 0 30 6 53 18 66 23 26 76 25 100 -2z m170 0
c12 -14 19 -36 19 -64 0 -54 -26 -85 -70 -85 -45 0 -67 28 -67 85 0 30 6 53
18 66 23 26 76 25 100 -2z m1986 -9 c26 -26 29 -36 23 -63 -3 -18 -7 -44 -7
-59 -1 -28 -12 -36 -23 -18 -3 6 -15 5 -30 -2 -19 -8 -32 -8 -51 1 -19 8 -30
9 -39 1 -10 -8 -13 -5 -14 12 0 13 -3 40 -7 60 -5 33 -2 41 24 68 41 41 83 41
124 0z m218 -55 c0 -69 -3 -85 -15 -85 -12 0 -15 15 -15 72 0 56 -3 69 -12 60
-15 -15 -28 -15 -28 -1 0 16 31 38 53 39 15 0 17 -11 17 -85z m144 70 c24 -24
30 -77 12 -118 -13 -32 -19 -37 -49 -37 -19 0 -39 6 -45 13 -28 34 -21 129 11
149 20 13 55 9 71 -7z m160 0 c24 -24 30 -77 12 -118 -13 -32 -19 -37 -49 -37
-19 0 -39 6 -45 13 -28 34 -21 129 11 149 20 13 55 9 71 -7z m125 -7 c17 -46
-21 -86 -54 -58 -18 15 -19 52 -3 68 19 19 48 14 57 -10z m95 10 c-35 -60
-107 -158 -115 -158 -12 0 -11 2 53 98 27 39 53 72 59 72 6 0 7 -6 3 -12z
m256 -24 c-38 -44 -38 -78 2 -82 19 -2 25 -8 21 -18 -7 -18 -103 -20 -121 -2
-7 7 -12 35 -12 63 0 28 5 56 12 63 7 7 38 12 71 12 l59 0 -32 -36z m238 24
c7 -7 12 -35 12 -63 0 -28 -5 -56 -12 -63 -7 -7 -38 -12 -71 -12 l-59 0 32 36
c38 44 38 78 -2 82 -19 2 -25 8 -21 18 7 18 103 20 121 2z m-3551 -24 c8 -21
-13 -42 -28 -27 -13 13 -5 43 11 43 6 0 13 -7 17 -16z m-3325 -21 c40 -36 11
-113 -42 -113 -36 0 -54 23 -54 67 0 56 55 83 96 46z m5282 -14 c11 -56 9 -61
-26 -57 -37 3 -44 20 -29 61 15 38 47 36 55 -4z m-4423 -5 c18 -16 18 -19 4
-33 -12 -12 -18 -12 -27 -3 -15 15 -90 16 -106 0 -18 -18 -47 9 -30 29 30 37
122 41 159 7z m5560 -25 c15 -29 -3 -69 -31 -69 -28 0 -46 40 -31 69 7 11 20
21 31 21 11 0 24 -10 31 -21z m-3093 -26 c-2 -10 -10 -18 -18 -18 -8 0 -16 8
-18 18 -2 12 3 17 18 17 15 0 20 -5 18 -17z m-2503 -13 c2 -4 -6 -17 -19 -29
l-22 -21 -24 25 -23 25 24 8 c24 9 56 5 64 -8z m5735 -470 l0 -80 80 0 c64 0
80 -3 80 -15 0 -12 -16 -15 -80 -15 l-80 0 0 -80 c0 -64 -3 -80 -15 -80 -12 0
-15 16 -15 80 l0 80 -80 0 c-64 0 -80 3 -80 15 0 12 16 15 80 15 l80 0 0 80
c0 64 3 80 15 80 12 0 15 -16 15 -80z m-6460 -835 c0 -87 -3 -105 -15 -105
-12 0 -15 18 -15 105 0 87 3 105 15 105 12 0 15 -18 15 -105z m-267 86 c30
-12 39 -43 21 -70 -12 -17 -12 -21 0 -28 26 -15 28 -50 5 -72 -18 -16 -36 -21
-81 -21 l-58 0 0 93 c0 52 3 97 7 100 9 10 78 8 106 -2z m6325 -8 c-2 -13 -16
-19 -48 -23 -39 -4 -45 -8 -48 -30 -3 -20 -1 -23 9 -12 33 31 99 -4 99 -53 0
-34 -33 -65 -71 -65 -38 0 -69 16 -69 35 0 17 26 20 35 5 10 -16 55 -11 62 6
14 38 -20 56 -74 39 -22 -7 -23 -5 -23 47 0 30 3 58 7 61 3 4 33 7 65 7 51 0
59 -2 56 -17z m170 1 c25 -18 29 -46 7 -64 -13 -11 -12 -15 5 -37 25 -32 25
-38 0 -63 -25 -25 -95 -27 -122 -3 -23 21 -23 60 1 74 17 12 17 13 0 30 -49
49 48 106 109 63z m152 -84 c0 -93 -1 -100 -20 -100 -18 0 -20 7 -20 80 l0 80
-25 -16 c-24 -15 -25 -15 -25 3 0 20 44 52 73 53 15 0 17 -11 17 -100z m250
80 c37 -37 39 -122 4 -161 -25 -28 -88 -26 -108 3 -35 49 -27 145 12 168 28
16 71 11 92 -10z m191 1 c21 -16 22 -22 11 -45 -6 -14 -16 -26 -21 -26 -6 0 1
-11 14 -24 40 -41 10 -85 -57 -86 -37 0 -78 26 -78 50 0 16 36 12 50 -5 19
-22 54 -15 58 12 3 17 -3 23 -28 28 -36 8 -35 27 1 35 15 4 24 13 24 25 0 25
-37 32 -55 10 -16 -19 -40 -20 -40 -1 0 21 39 46 71 46 15 0 37 -8 50 -19z
m-6907 -53 c10 -13 16 -44 16 -74 l0 -52 -52 0 c-59 0 -78 10 -78 43 0 23 34
45 70 45 12 0 20 7 20 16 0 14 -7 15 -40 10 -41 -6 -50 0 -28 22 21 21 75 15
92 -10z m227 12 c16 -9 19 -22 19 -75 0 -51 -3 -65 -15 -65 -8 0 -15 5 -15 12
0 9 -3 9 -12 0 -19 -19 -66 -15 -78 8 -17 32 4 59 51 66 52 9 45 30 -10 27
-43 -2 -53 9 -23 26 22 13 58 14 83 1z m89 -2 c0 -9 3 -9 12 0 19 19 55 14 72
-10 10 -14 16 -44 16 -75 0 -46 -3 -53 -20 -53 -16 0 -19 8 -22 58 -3 53 -5
57 -28 57 -23 0 -25 -4 -28 -57 -2 -43 -7 -58 -17 -58 -12 0 -15 16 -15 75 0
60 3 75 15 75 8 0 15 -5 15 -12z m241 2 c10 -6 19 -17 19 -25 0 -17 -26 -20
-35 -5 -11 19 -45 10 -56 -14 -8 -17 -8 -29 0 -45 12 -22 45 -28 56 -11 9 15
35 12 35 -5 0 -19 -31 -35 -69 -35 -37 0 -61 31 -61 77 0 58 58 91 111 63z
m168 -16 c34 -43 28 -54 -28 -54 -52 0 -65 -7 -52 -28 9 -15 35 -17 69 -7 27
9 30 -10 3 -25 -53 -28 -111 5 -111 63 0 71 78 104 119 51z m91 2 c0 -8 -5
-18 -11 -22 -14 -8 -33 11 -25 25 10 16 36 13 36 -3z m-2 -109 c2 -10 -3 -17
-12 -17 -18 0 -29 16 -21 31 9 14 29 6 33 -14z m5750 6 c5 -17 -26 -29 -40
-15 -6 6 -7 15 -3 22 9 14 37 9 43 -7z m-6315 -248 c1 -5 -6 -11 -15 -13 -11
-2 -18 3 -18 13 0 17 30 18 33 0z m-413 -10 c0 -11 -12 -15 -45 -15 -43 0 -45
-1 -45 -30 0 -29 2 -30 45 -30 25 0 45 -4 45 -10 0 -5 -20 -10 -45 -10 -43 0
-45 -1 -45 -30 0 -29 2 -30 45 -30 33 0 45 -4 45 -15 0 -12 -14 -15 -65 -15
l-65 0 0 93 c0 52 3 97 7 100 3 4 33 7 65 7 45 0 58 -3 58 -15z m6320 -5 c0
-11 -18 -56 -40 -100 -30 -60 -45 -80 -60 -80 -19 0 -17 7 20 79 l40 80 -48 3
c-35 2 -48 7 -50 21 -3 15 5 17 67 17 65 0 71 -2 71 -20z m120 -80 c0 -93 -1
-100 -20 -100 -18 0 -20 7 -20 75 0 68 -9 91 -25 65 -9 -15 -25 -12 -25 4 0
18 49 55 73 56 15 0 17 -11 17 -100z m180 80 c37 -37 39 -122 4 -161 -25 -28
-88 -26 -108 3 -35 49 -27 145 12 168 28 16 71 11 92 -10z m262 -2 c21 -21 21
-23 4 -26 -10 -2 -23 1 -29 7 -17 17 -45 13 -57 -8 -17 -33 -12 -40 19 -28 62
23 110 -55 64 -105 -26 -29 -87 -24 -112 8 -31 39 -29 117 4 149 31 32 77 33
107 3z m187 -4 c15 -19 21 -41 21 -74 0 -65 -28 -100 -80 -100 -29 0 -43 6
-55 22 -19 28 -4 36 32 17 30 -16 57 -3 61 32 3 19 1 22 -9 12 -34 -34 -99 -1
-99 49 0 65 88 94 129 42z m-6572 -4 c3 -11 12 -20 19 -20 19 0 18 -19 -1 -26
-10 -4 -15 -20 -15 -49 0 -29 5 -45 15 -49 23 -8 18 -26 -8 -26 -35 0 -47 19
-47 72 0 26 -4 48 -10 48 -5 0 -10 7 -10 15 0 8 5 15 10 15 6 0 10 9 10 20 0
12 7 20 16 20 9 0 18 -9 21 -20z m-369 -32 c9 -9 12 -9 12 0 0 7 7 12 15 12
12 0 15 -18 15 -100 0 -82 -3 -100 -15 -100 -11 0 -15 11 -15 37 0 29 -3 34
-12 25 -20 -20 -65 -14 -82 10 -35 50 -9 128 43 128 15 0 32 -5 39 -12z m112
-32 c0 -59 8 -76 35 -76 27 0 35 17 35 76 0 32 4 44 15 44 12 0 15 -15 15 -75
0 -60 -3 -75 -15 -75 -8 0 -15 5 -15 12 0 9 -3 9 -12 0 -7 -7 -24 -12 -38 -12
-40 0 -50 18 -50 87 0 49 3 63 15 63 11 0 15 -12 15 -44z m178 -34 c3 -67 1
-72 -18 -72 -18 0 -20 6 -20 76 0 66 2 75 18 72 14 -3 18 -16 20 -76z m182 28
c7 -28 16 -52 20 -55 4 -3 13 18 20 46 11 44 32 71 45 57 7 -6 -42 -147 -60
-175 -9 -14 -25 -23 -40 -23 -31 0 -31 7 -3 29 l21 18 -26 72 c-32 86 -32 81
-8 81 15 0 22 -12 31 -50z m165 20 c0 -8 -8 -16 -17 -18 -13 -2 -18 3 -18 18
0 15 5 20 18 18 9 -2 17 -10 17 -18z m0 -100 c0 -8 -8 -16 -17 -18 -13 -2 -18
3 -18 18 0 15 5 20 18 18 9 -2 17 -10 17 -18z m5955 0 c0 -13 -7 -20 -20 -20
-13 0 -20 7 -20 20 0 13 7 20 20 20 13 0 20 -7 20 -20z m-6130 -245 c0 -8 -6
-15 -14 -15 -17 0 -28 14 -19 24 12 12 33 6 33 -9z m-659 -42 c11 -27 26 -61
33 -77 l12 -29 30 74 c23 56 35 74 50 74 17 0 19 -9 22 -97 3 -92 2 -98 -17
-98 -18 0 -20 8 -23 63 l-3 62 -24 -62 c-13 -35 -29 -63 -36 -63 -7 0 -23 28
-36 63 l-24 62 -3 -62 c-3 -55 -6 -63 -22 -63 -18 0 -20 7 -20 93 0 52 3 97 7
100 17 17 36 3 54 -40z m6417 -20 c2 -35 7 -63 12 -63 6 0 10 -7 10 -15 0 -8
-4 -15 -10 -15 -5 0 -10 -9 -10 -20 0 -13 -7 -20 -19 -20 -10 0 -21 9 -24 20
-4 16 -14 20 -51 20 -59 0 -59 13 -6 98 35 55 44 63 68 60 26 -3 27 -6 30 -65z
m142 -33 c0 -93 -1 -100 -20 -100 -18 0 -20 7 -20 75 0 68 -9 91 -25 65 -9
-15 -25 -12 -25 4 0 18 49 55 73 56 15 0 17 -11 17 -100z m180 80 c37 -37 39
-122 4 -161 -25 -28 -88 -26 -108 3 -35 49 -27 145 12 168 28 16 71 11 92 -10z
m220 -80 c0 -93 -1 -100 -20 -100 -18 0 -20 7 -20 80 l0 80 -25 -16 c-24 -15
-25 -15 -25 3 0 20 44 52 73 53 15 0 17 -11 17 -100z m179 74 c15 -19 21 -41
21 -78 0 -65 -24 -96 -75 -96 -47 0 -75 37 -75 100 0 63 28 100 75 100 24 0
39 -7 54 -26z m-6845 -46 c10 -13 16 -44 16 -74 l0 -52 -52 0 c-59 0 -78 10
-78 43 0 23 34 45 70 45 12 0 20 7 20 16 0 14 -7 15 -40 10 -41 -6 -50 0 -28
22 21 21 75 15 92 -10z m86 10 c0 -9 3 -9 12 0 7 7 18 12 25 12 21 0 15 -25
-9 -35 -19 -8 -24 -19 -26 -62 -2 -38 -7 -53 -18 -53 -11 0 -14 16 -14 75 0
60 3 75 15 75 8 0 15 -5 15 -12z m168 0 c9 -9 12 -9 12 0 0 7 7 12 15 12 23 0
21 -156 -2 -182 -20 -22 -85 -24 -103 -3 -18 22 -5 30 26 17 32 -15 64 0 64
30 0 17 -3 19 -12 10 -17 -17 -58 -15 -80 5 -22 20 -24 71 -2 101 17 24 62 30
82 10z m112 -63 c0 -60 -3 -75 -15 -75 -12 0 -15 15 -15 75 0 60 3 75 15 75
12 0 15 -15 15 -75z m70 63 c0 -9 3 -9 12 0 7 7 24 12 38 12 40 0 50 -18 50
-87 0 -48 -3 -63 -15 -63 -10 0 -15 15 -17 57 -2 48 -6 58 -22 61 -28 6 -46
-25 -46 -75 0 -32 -4 -43 -15 -43 -12 0 -15 15 -15 75 0 60 3 75 15 75 8 0 15
-5 15 -12z m185 -18 c0 -8 -8 -16 -17 -18 -13 -2 -18 3 -18 18 0 15 5 20 18
18 9 -2 17 -10 17 -18z m0 -100 c0 -8 -8 -16 -17 -18 -13 -2 -18 3 -18 18 0
15 5 20 18 18 9 -2 17 -10 17 -18z m5925 0 c0 -13 -7 -20 -20 -20 -13 0 -20 7
-20 20 0 13 7 20 20 20 13 0 20 -7 20 -20z m-5510 -245 c0 -8 -6 -15 -14 -15
-17 0 -28 14 -19 24 12 12 33 6 33 -9z m-1260 -10 c0 -11 -12 -15 -45 -15 -43
0 -45 -1 -45 -30 0 -28 2 -30 40 -30 29 0 40 -4 40 -15 0 -11 -11 -15 -40 -15
l-40 0 0 -40 c0 -33 -3 -40 -20 -40 -19 0 -20 7 -20 93 0 52 3 97 7 100 3 4
33 7 65 7 45 0 58 -3 58 -15z m600 -42 c42 -105 39 -105 72 -20 23 59 34 77
49 77 17 0 19 -8 19 -100 0 -81 -3 -100 -15 -100 -11 0 -15 16 -17 68 l-3 67
-25 -65 c-15 -37 -32 -65 -40 -65 -8 0 -25 28 -40 65 l-25 65 -3 -67 c-2 -52
-6 -68 -17 -68 -12 0 -15 19 -15 100 0 91 2 100 19 100 13 0 25 -16 41 -57z
m5651 38 c21 -16 22 -22 11 -45 -6 -14 -16 -26 -21 -26 -6 0 1 -11 14 -24 40
-41 10 -85 -57 -86 -37 0 -78 26 -78 50 0 16 36 12 50 -5 19 -22 54 -15 58 12
3 17 -3 23 -28 28 -36 8 -35 27 1 35 15 4 24 13 24 25 0 25 -37 32 -55 10 -16
-19 -40 -20 -40 -1 0 21 39 46 71 46 15 0 37 -8 50 -19z m188 -7 c15 -19 21
-41 21 -78 0 -65 -24 -96 -75 -96 -47 0 -75 37 -75 100 0 63 28 100 75 100 24
0 39 -7 54 -26z m181 6 c37 -37 39 -122 4 -161 -25 -28 -88 -26 -108 3 -35 49
-27 145 12 168 28 16 71 11 92 -10z m270 0 c0 -17 -7 -20 -45 -20 -42 0 -45
-2 -45 -27 0 -21 3 -24 12 -15 50 50 119 -47 71 -100 -29 -32 -123 -15 -123
24 0 11 38 10 45 -2 10 -16 43 -12 54 7 19 34 -34 76 -54 43 -3 -5 -16 -10
-27 -10 -19 0 -20 4 -14 46 3 26 6 53 6 60 0 10 16 14 60 14 53 0 60 -2 60
-20z m179 -6 c15 -19 21 -41 21 -74 0 -65 -28 -100 -80 -100 -29 0 -43 6 -55
22 -19 28 -4 36 32 17 30 -16 57 -3 61 32 3 19 1 22 -9 12 -34 -34 -99 -1 -99
49 0 65 88 94 129 42z m-7009 -36 c0 -9 3 -9 12 0 17 17 48 15 48 -3 0 -8 -9
-15 -20 -15 -25 0 -40 -29 -40 -79 0 -30 -4 -41 -15 -41 -12 0 -15 15 -15 75
0 60 3 75 15 75 8 0 15 -5 15 -12z m194 -10 c30 -43 21 -58 -34 -58 -37 0 -50
-4 -50 -15 0 -20 32 -36 51 -24 7 5 23 9 33 9 18 0 18 -1 1 -20 -24 -27 -76
-26 -100 0 -24 27 -24 83 0 110 25 28 79 27 99 -2z m160 0 c30 -43 21 -58 -34
-58 -37 0 -50 -4 -50 -15 0 -20 32 -36 51 -24 7 5 23 9 33 9 18 0 18 -1 1 -20
-24 -27 -76 -26 -100 0 -24 27 -24 83 0 110 25 28 79 27 99 -2z m467 12 c16
-9 19 -22 19 -75 0 -51 -3 -65 -15 -65 -8 0 -15 5 -15 12 0 9 -3 9 -12 0 -19
-19 -66 -15 -78 8 -17 32 4 59 51 66 52 9 45 30 -10 27 -43 -2 -53 9 -23 26
22 13 58 14 83 1z m89 -2 c0 -9 3 -9 12 0 17 17 48 15 48 -3 0 -8 -9 -15 -20
-15 -25 0 -40 -29 -40 -79 0 -30 -4 -41 -15 -41 -12 0 -15 15 -15 75 0 60 3
75 15 75 8 0 15 -5 15 -12z m168 0 c9 -9 12 -9 12 0 0 7 9 12 20 12 18 0 20
-7 20 -80 0 -94 -16 -120 -74 -120 -39 0 -83 32 -53 38 9 2 24 -1 33 -6 28
-15 54 -3 54 26 0 20 -3 23 -12 14 -7 -7 -25 -12 -41 -12 -23 0 -31 7 -42 34
-15 37 -12 59 13 89 17 20 53 22 70 5z m122 -63 c0 -60 -3 -75 -15 -75 -12 0
-15 15 -15 75 0 60 3 75 15 75 12 0 15 -15 15 -75z m70 63 c0 -9 3 -9 12 0 19
19 55 14 72 -10 10 -14 16 -44 16 -75 0 -46 -3 -53 -20 -53 -16 0 -19 8 -22
58 -3 53 -5 57 -28 57 -23 0 -25 -4 -28 -57 -2 -43 -7 -58 -17 -58 -12 0 -15
16 -15 75 0 60 3 75 15 75 8 0 15 -5 15 -12z m180 -12 c0 -8 -5 -18 -11 -22
-14 -8 -33 11 -25 25 10 16 36 13 36 -3z m-2 -109 c2 -10 -3 -17 -12 -17 -18
0 -29 16 -21 31 9 14 29 6 33 -14z m5212 3 c0 -13 -7 -20 -20 -20 -13 0 -20 7
-20 20 0 13 7 20 20 20 13 0 20 -7 20 -20z m-6130 -245 c0 -8 -6 -15 -14 -15
-17 0 -28 14 -19 24 12 12 33 6 33 -9z m940 -90 c0 -87 -3 -105 -15 -105 -12
0 -15 18 -15 105 0 87 3 105 15 105 12 0 15 -18 15 -105z m174 68 c-18 -50
-17 -145 0 -188 13 -30 13 -35 1 -35 -26 0 -49 61 -49 130 0 68 23 130 48 130
11 0 11 -6 0 -37z m368 -4 c33 -63 12 -219 -29 -219 -10 0 -13 6 -8 18 29 76
29 149 -1 226 -13 33 20 13 38 -25z m-2141 -16 c11 -27 26 -61 33 -77 l12 -29
30 74 c23 56 35 74 50 74 17 0 19 -9 22 -97 3 -92 2 -98 -17 -98 -18 0 -20 8
-23 63 l-3 62 -24 -62 c-13 -35 -29 -63 -36 -63 -7 0 -23 28 -36 63 l-24 62
-3 -62 c-3 -55 -6 -63 -22 -63 -18 0 -20 7 -20 93 0 52 3 97 7 100 17 17 36 3
54 -40z m979 -38 l0 -85 45 0 c33 0 45 -4 45 -15 0 -12 -14 -15 -65 -15 l-65
0 0 93 c0 95 3 107 27 107 10 0 13 -21 13 -85z m918 73 c17 -17 15 -64 -4 -83
-22 -22 -45 -16 -63 16 -13 24 -13 29 2 53 19 28 45 34 65 14z m120 3 c-12
-31 -125 -191 -135 -191 -19 0 -17 6 19 58 64 96 100 142 110 142 5 0 8 -4 6
-9z m4332 -91 c0 -93 -1 -100 -20 -100 -18 0 -20 7 -20 75 0 68 -9 91 -25 65
-9 -15 -25 -12 -25 4 0 18 49 55 73 56 15 0 17 -11 17 -100z m190 85 c0 -8
-19 -53 -42 -100 -30 -59 -48 -85 -60 -85 -23 0 -24 -1 17 80 19 38 35 72 35
75 0 3 -20 5 -45 5 -38 0 -45 3 -45 20 0 18 7 20 70 20 55 0 70 -3 70 -15z
m151 -4 c21 -16 22 -22 11 -45 -6 -14 -16 -26 -21 -26 -6 0 1 -11 14 -24 40
-41 10 -85 -57 -86 -37 0 -78 26 -78 50 0 16 36 12 50 -5 19 -22 54 -15 58 12
3 17 -3 23 -28 28 -36 8 -35 27 1 35 15 4 24 13 24 25 0 25 -37 32 -55 10 -16
-19 -40 -20 -40 -1 0 21 39 46 71 46 15 0 37 -8 50 -19z m260 0 c21 -16 22
-22 11 -45 -6 -14 -16 -26 -21 -26 -6 0 1 -11 14 -24 40 -41 10 -85 -57 -86
-37 0 -78 26 -78 50 0 16 36 12 50 -5 19 -22 54 -15 58 12 3 17 -3 23 -28 28
-36 8 -35 27 1 35 15 4 24 13 24 25 0 25 -37 32 -55 10 -16 -19 -40 -20 -40
-1 0 21 39 46 71 46 15 0 37 -8 50 -19z m188 -7 c15 -19 21 -41 21 -78 0 -65
-24 -96 -75 -96 -47 0 -75 37 -75 100 0 63 28 100 75 100 24 0 39 -7 54 -26z
m-6845 -46 c10 -13 16 -44 16 -74 l0 -52 -52 0 c-59 0 -78 10 -78 43 0 23 34
45 70 45 12 0 20 7 20 16 0 14 -7 15 -40 10 -41 -6 -50 0 -28 22 21 21 75 15
92 -10z m86 10 c0 -9 3 -9 12 0 7 7 18 12 25 12 21 0 15 -25 -9 -35 -19 -8
-24 -19 -26 -62 -2 -38 -7 -53 -18 -53 -11 0 -14 16 -14 75 0 60 3 75 15 75 8
0 15 -5 15 -12z m168 0 c9 -9 12 -9 12 0 0 7 7 12 15 12 23 0 21 -156 -2 -182
-20 -22 -85 -24 -103 -3 -18 22 -5 30 26 17 32 -15 64 0 64 30 0 17 -3 19 -12
10 -17 -17 -58 -15 -80 5 -22 20 -24 71 -2 101 17 24 62 30 82 10z m112 -63
c0 -60 -3 -75 -15 -75 -12 0 -15 15 -15 75 0 60 3 75 15 75 12 0 15 -15 15
-75z m70 63 c0 -9 3 -9 12 0 7 7 24 12 38 12 40 0 50 -18 50 -87 0 -48 -3 -63
-15 -63 -10 0 -15 15 -17 57 -2 48 -6 58 -22 61 -28 6 -46 -25 -46 -75 0 -32
-4 -43 -15 -43 -12 0 -15 15 -15 75 0 60 3 75 15 75 8 0 15 -5 15 -12z m479
-14 c34 -43 28 -54 -28 -54 -52 0 -65 -7 -52 -28 9 -15 35 -17 69 -7 27 9 30
-10 3 -25 -53 -28 -111 5 -111 63 0 71 78 104 119 51z m80 -24 c7 -27 17 -50
21 -50 4 0 14 23 21 50 10 38 17 50 32 50 11 0 17 -5 14 -12 -2 -7 -14 -41
-27 -75 -29 -81 -51 -84 -78 -10 -35 93 -35 97 -15 97 15 0 22 -12 32 -50z
m225 28 c30 -43 21 -58 -34 -58 -37 0 -50 -4 -50 -15 0 -20 32 -36 51 -24 7 5
23 9 33 9 18 0 18 -1 1 -20 -24 -27 -76 -26 -100 0 -11 12 -19 36 -19 55 0 45
28 75 70 75 23 0 38 -7 48 -22z m741 -8 c0 -8 -8 -16 -17 -18 -13 -2 -18 3
-18 18 0 15 5 20 18 18 9 -2 17 -10 17 -18z m-196 -44 c12 -32 -7 -76 -33 -76
-29 0 -46 18 -46 50 0 29 9 45 30 52 22 7 41 -2 49 -26z m196 -56 c0 -8 -8
-16 -17 -18 -13 -2 -18 3 -18 18 0 15 5 20 18 18 9 -2 17 -10 17 -18z m4535 0
c0 -13 -7 -20 -20 -20 -13 0 -20 7 -20 20 0 13 7 20 20 20 13 0 20 -7 20 -20z
m-6390 -380 c0 -13 -7 -20 -20 -20 -13 0 -20 7 -20 20 0 13 7 20 20 20 13 0
20 -7 20 -20z m160 0 c0 -13 -7 -20 -20 -20 -13 0 -20 7 -20 20 0 13 7 20 20
20 13 0 20 -7 20 -20z m-508 -7 c39 -35 11 -103 -44 -103 -27 0 -28 -2 -28
-45 0 -41 -2 -45 -25 -45 l-25 0 0 105 0 105 52 0 c34 0 58 -6 70 -17z m428
-8 c0 -14 5 -25 10 -25 6 0 10 -7 10 -15 0 -8 -4 -15 -10 -15 -5 0 -10 -22
-10 -50 0 -27 5 -50 10 -50 6 0 10 -7 10 -16 0 -11 -8 -14 -27 -12 -27 3 -28
6 -31 66 -2 34 -7 62 -12 62 -6 0 -10 7 -10 15 0 8 5 15 10 15 6 0 10 11 10
25 0 18 5 25 20 25 15 0 20 -7 20 -25z m-289 -41 c15 -18 15 -94 0 -122 -14
-27 -71 -31 -95 -6 -17 16 -22 99 -8 121 19 30 80 35 103 7z m137 -12 c4 -26
-19 -30 -38 -7 -7 8 -16 12 -21 9 -18 -11 -8 -25 25 -39 41 -17 51 -40 31 -71
-25 -39 -105 -29 -105 13 0 7 9 13 20 13 11 0 20 -4 20 -10 0 -13 27 -13 35 0
3 5 -13 19 -35 30 -35 18 -41 25 -38 48 6 51 99 64 106 14z m373 12 c15 -18
15 -94 0 -122 -14 -27 -71 -31 -95 -6 -17 16 -22 99 -8 121 19 30 80 35 103 7z
m149 -5 c6 -10 10 -45 10 -78 0 -58 -1 -61 -25 -61 -24 0 -25 2 -25 65 0 51
-3 65 -15 65 -12 0 -15 -14 -15 -65 0 -63 -1 -65 -25 -65 -25 0 -25 1 -25 81
l0 82 28 -6 c15 -3 34 -2 42 3 17 11 38 2 50 -21z m138 -7 c4 -26 -19 -30 -38
-7 -7 8 -16 12 -21 9 -18 -11 -8 -25 25 -39 41 -17 51 -40 31 -71 -25 -39
-105 -29 -105 13 0 7 9 13 20 13 11 0 20 -4 20 -10 0 -13 27 -13 35 0 3 5 -13
19 -35 30 -35 18 -41 25 -38 48 6 51 99 64 106 14z m-588 -52 c0 -73 -2 -80
-20 -80 -18 0 -20 7 -20 80 0 73 2 80 20 80 18 0 20 -7 20 -80z m160 0 c0 -73
-2 -80 -20 -80 -18 0 -20 7 -20 80 0 73 2 80 20 80 18 0 20 -7 20 -80z m-196
-450 c35 -13 24 -41 -13 -34 -37 8 -54 -16 -54 -71 0 -48 15 -75 44 -75 14 0
19 7 19 30 0 20 -5 30 -15 30 -8 0 -15 7 -15 15 0 10 10 15 30 15 l31 0 -3
-57 -3 -58 -41 -3 c-56 -4 -76 21 -82 98 -4 55 -2 61 26 90 33 33 39 34 76 20z
m321 -3 c25 -19 12 -35 -25 -29 -25 4 -30 1 -30 -16 0 -11 16 -32 35 -46 37
-28 45 -59 25 -97 -11 -20 -63 -26 -89 -10 -22 14 -3 31 28 25 21 -5 30 -1 35
12 5 13 -3 26 -30 49 -44 37 -49 78 -14 107 27 22 40 22 65 5z m-705 -29 c11
-32 12 -32 26 -14 7 11 14 26 14 33 0 7 9 13 20 13 25 0 25 0 -2 -55 l-22 -45
27 -55 c26 -53 26 -55 6 -55 -14 0 -25 12 -38 42 l-17 42 -17 -42 c-12 -30
-23 -42 -37 -42 -19 0 -19 2 7 55 l27 55 -22 45 c-27 55 -27 55 -3 55 12 0 23
-11 31 -32z m182 -35 l27 -68 0 68 c1 53 4 67 16 67 12 0 15 -18 15 -105 0
-95 -2 -105 -18 -105 -14 0 -27 19 -48 73 l-29 72 -3 -72 c-2 -56 -6 -73 -17
-73 -12 0 -15 20 -15 105 0 102 1 105 23 105 18 0 27 -12 49 -67z m298 3 c0
-74 13 -116 34 -116 25 0 36 34 36 109 0 56 3 71 15 71 12 0 15 -16 15 -83 0
-100 -14 -127 -65 -127 -51 0 -65 27 -65 127 0 67 3 83 15 83 12 0 15 -14 15
-64z m390 37 c18 -24 21 -38 18 -87 -5 -71 -29 -96 -89 -96 l-39 0 0 105 0
105 44 0 c37 0 48 -5 66 -27z m140 -43 c0 -6 -13 -31 -30 -58 l-29 -47 29 -3
c18 -2 30 -9 30 -18 0 -10 -13 -14 -50 -14 -58 0 -61 7 -25 65 30 49 30 55 5
55 -11 0 -20 7 -20 15 0 11 12 15 45 15 25 0 45 -5 45 -10z m-955 -366 c21 -8
35 -45 28 -73 -3 -11 -27 -37 -54 -56 -27 -19 -49 -39 -49 -45 0 -5 23 -10 50
-10 28 0 50 -4 50 -10 0 -6 -28 -10 -65 -10 -46 0 -65 4 -65 13 0 21 28 54 65
77 39 24 54 62 34 86 -17 21 -52 14 -64 -13 -11 -27 -25 -30 -25 -6 0 39 50
64 95 47z m250 0 c21 -8 35 -45 28 -73 -3 -11 -27 -37 -54 -56 -27 -19 -49
-39 -49 -45 0 -5 23 -10 50 -10 28 0 50 -4 50 -10 0 -6 -28 -10 -65 -10 -46 0
-65 4 -65 13 0 21 28 54 65 77 39 24 54 62 34 86 -17 21 -52 14 -64 -13 -11
-27 -25 -30 -25 -6 0 39 50 64 95 47z m175 -64 c0 -56 3 -70 15 -70 8 0 15 -4
15 -10 0 -5 -7 -10 -15 -10 -9 0 -15 -9 -15 -25 0 -14 -4 -25 -10 -25 -5 0
-10 11 -10 25 0 23 -4 25 -45 25 -35 0 -45 4 -45 16 0 20 87 144 101 144 5 0
9 -31 9 -70z m175 48 c11 -16 12 -24 4 -27 -7 -2 -16 4 -21 13 -19 33 -78 8
-78 -34 0 -15 6 -17 38 -13 28 4 43 0 55 -12 22 -21 22 -73 0 -97 -21 -23 -75
-24 -95 0 -35 39 -31 130 8 173 24 26 69 24 89 -3z m155 -48 c0 -56 3 -70 15
-70 8 0 15 -4 15 -10 0 -5 -7 -10 -15 -10 -9 0 -15 -9 -15 -25 0 -14 -4 -25
-10 -25 -5 0 -10 11 -10 25 0 23 -4 25 -45 25 -27 0 -45 5 -45 12 0 15 91 148
102 148 4 0 8 -31 8 -70z m625 64 c21 -8 35 -45 28 -73 -3 -11 -27 -37 -54
-56 -27 -19 -49 -39 -49 -45 0 -5 23 -10 50 -10 28 0 50 -4 50 -10 0 -6 -28
-10 -65 -10 -46 0 -65 4 -65 13 0 21 28 54 65 77 39 24 54 62 34 86 -17 21
-52 14 -64 -13 -11 -27 -25 -30 -25 -6 0 39 50 64 95 47z m250 0 c21 -8 35
-45 28 -73 -3 -11 -27 -37 -54 -56 -27 -19 -49 -39 -49 -45 0 -5 23 -10 50
-10 28 0 50 -4 50 -10 0 -6 -28 -10 -65 -10 -46 0 -65 4 -65 13 0 21 28 54 65
77 39 24 54 62 34 86 -17 21 -52 14 -64 -13 -11 -27 -25 -30 -25 -6 0 39 50
64 95 47z m176 -4 c21 -12 26 -59 9 -76 -8 -8 -6 -15 5 -24 20 -16 19 -59 -2
-82 -20 -22 -76 -24 -97 -2 -25 24 -24 71 1 89 13 10 13 13 -1 24 -50 42 24
103 85 71z m149 -95 c0 -63 -4 -105 -10 -105 -6 0 -10 32 -10 75 0 72 -1 75
-23 75 -37 0 -40 12 -7 26 16 7 30 18 30 24 0 5 5 10 10 10 6 0 10 -42 10
-105z m190 78 c18 -23 21 -38 18 -85 -5 -65 -27 -98 -65 -98 -32 0 -63 17 -63
35 0 19 16 19 24 0 7 -18 50 -20 64 -2 6 6 13 24 17 40 7 26 7 27 -20 13 -32
-17 -61 -11 -80 17 -20 29 -19 50 6 81 28 36 70 35 99 -1z m-976 -84 c-2 -4
-19 -18 -36 -30 l-31 -22 18 26 17 27 -121 0 c-74 0 -121 4 -121 10 0 6 47 10
122 10 117 0 120 1 105 18 -31 34 -17 36 18 2 19 -18 32 -37 29 -41z m-1064
-84 c0 -8 -7 -15 -15 -15 -8 0 -15 7 -15 15 0 8 7 15 15 15 8 0 15 -7 15 -15z
m1390 0 c0 -8 -7 -15 -15 -15 -8 0 -15 7 -15 15 0 8 7 15 15 15 8 0 15 -7 15
-15z m-1166 -435 c35 -13 24 -41 -13 -34 -37 8 -54 -16 -54 -71 0 -48 15 -75
44 -75 14 0 19 7 19 30 0 20 -5 30 -15 30 -8 0 -15 7 -15 15 0 10 10 15 30 15
l31 0 -3 -57 -3 -58 -41 -3 c-56 -4 -76 21 -82 98 -4 55 -2 61 26 90 33 33 39
34 76 20z m321 -3 c25 -19 12 -35 -25 -29 -25 4 -30 1 -30 -16 0 -11 16 -32
35 -46 37 -28 45 -59 25 -97 -11 -20 -63 -26 -89 -10 -22 14 -3 31 28 25 21
-5 30 -1 35 12 5 13 -3 26 -30 49 -44 37 -49 78 -14 107 27 22 40 22 65 5z
m-705 -29 c11 -32 12 -32 26 -14 7 11 14 26 14 33 0 7 9 13 20 13 25 0 25 0
-2 -55 l-22 -45 27 -55 c26 -53 26 -55 6 -55 -14 0 -25 12 -38 42 l-17 42 -17
-42 c-12 -30 -23 -42 -37 -42 -19 0 -19 2 7 55 l27 55 -22 45 c-27 55 -27 55
-3 55 12 0 23 -11 31 -32z m182 -35 l27 -68 0 68 c1 53 4 67 16 67 12 0 15
-18 15 -105 0 -95 -2 -105 -18 -105 -14 0 -27 19 -48 73 l-29 72 -3 -72 c-2
-56 -6 -73 -17 -73 -12 0 -15 20 -15 105 0 102 1 105 23 105 18 0 27 -12 49
-67z m298 3 c0 -74 13 -116 34 -116 25 0 36 34 36 109 0 56 3 71 15 71 12 0
15 -16 15 -83 0 -100 -14 -127 -65 -127 -51 0 -65 27 -65 127 0 67 3 83 15 83
12 0 15 -14 15 -64z m390 37 c18 -24 21 -38 18 -87 -5 -71 -29 -96 -89 -96
l-39 0 0 105 0 105 44 0 c37 0 48 -5 66 -27z m140 -43 c0 -6 -13 -31 -30 -58
l-29 -47 29 -3 c18 -2 30 -9 30 -18 0 -10 -13 -14 -50 -14 -58 0 -61 7 -25 65
30 49 30 55 5 55 -11 0 -20 7 -20 15 0 11 12 15 45 15 25 0 45 -5 45 -10z
m-955 -366 c21 -8 35 -45 28 -73 -3 -11 -27 -37 -54 -56 -27 -19 -49 -39 -49
-45 0 -5 23 -10 50 -10 28 0 50 -4 50 -10 0 -6 -28 -10 -65 -10 -46 0 -65 4
-65 13 0 21 28 54 65 77 39 24 54 62 34 86 -17 21 -52 14 -64 -13 -11 -27 -25
-30 -25 -6 0 39 50 64 95 47z m250 0 c21 -8 35 -45 28 -73 -3 -11 -27 -37 -54
-56 -27 -19 -49 -39 -49 -45 0 -5 23 -10 50 -10 28 0 50 -4 50 -10 0 -6 -28
-10 -65 -10 -46 0 -65 4 -65 13 0 21 28 54 65 77 39 24 54 62 34 86 -17 21
-52 14 -64 -13 -11 -27 -25 -30 -25 -6 0 39 50 64 95 47z m175 -64 c0 -56 3
-70 15 -70 8 0 15 -4 15 -10 0 -5 -7 -10 -15 -10 -9 0 -15 -9 -15 -25 0 -14
-4 -25 -10 -25 -5 0 -10 11 -10 25 0 23 -4 25 -45 25 -35 0 -45 4 -45 16 0 20
87 144 101 144 5 0 9 -31 9 -70z m175 48 c11 -16 12 -24 4 -27 -7 -2 -16 4
-21 13 -19 33 -78 8 -78 -34 0 -15 6 -17 38 -13 28 4 43 0 55 -12 22 -21 22
-73 0 -97 -21 -23 -75 -24 -95 0 -35 39 -31 130 8 173 24 26 69 24 89 -3z
m155 -48 c0 -56 3 -70 15 -70 8 0 15 -4 15 -10 0 -5 -7 -10 -15 -10 -9 0 -15
-9 -15 -25 0 -14 -4 -25 -10 -25 -5 0 -10 11 -10 25 0 23 -4 25 -45 25 -27 0
-45 5 -45 12 0 15 91 148 102 148 4 0 8 -31 8 -70z m625 64 c21 -8 35 -45 28
-73 -3 -11 -27 -37 -54 -56 -27 -19 -49 -39 -49 -45 0 -5 23 -10 50 -10 28 0
50 -4 50 -10 0 -6 -28 -10 -65 -10 -46 0 -65 4 -65 13 0 21 28 54 65 77 39 24
54 62 34 86 -17 21 -52 14 -64 -13 -11 -27 -25 -30 -25 -6 0 39 50 64 95 47z
m250 0 c21 -8 35 -45 28 -73 -3 -11 -27 -37 -54 -56 -27 -19 -49 -39 -49 -45
0 -5 23 -10 50 -10 28 0 50 -4 50 -10 0 -6 -28 -10 -65 -10 -46 0 -65 4 -65
13 0 21 28 54 65 77 39 24 54 62 34 86 -17 21 -52 14 -64 -13 -11 -27 -25 -30
-25 -6 0 39 50 64 95 47z m176 -4 c21 -12 26 -59 9 -76 -8 -8 -6 -15 5 -24 20
-16 19 -59 -2 -82 -20 -22 -76 -24 -97 -2 -25 24 -24 71 1 89 13 10 13 13 -1
24 -50 42 24 103 85 71z m149 -95 c0 -63 -4 -105 -10 -105 -6 0 -10 32 -10 75
0 72 -1 75 -23 75 -37 0 -40 12 -7 26 16 7 30 18 30 24 0 5 5 10 10 10 6 0 10
-42 10 -105z m190 78 c18 -23 21 -38 18 -85 -5 -65 -27 -98 -65 -98 -32 0 -63
17 -63 35 0 19 16 19 24 0 7 -18 50 -20 64 -2 6 6 13 24 17 40 7 26 7 27 -20
13 -32 -17 -61 -11 -80 17 -20 29 -19 50 6 81 28 36 70 35 99 -1z m-976 -84
c-2 -4 -19 -18 -36 -30 l-31 -22 18 26 17 27 -121 0 c-74 0 -121 4 -121 10 0
6 47 10 122 10 117 0 120 1 105 18 -31 34 -17 36 18 2 19 -18 32 -37 29 -41z
m-1064 -84 c0 -8 -7 -15 -15 -15 -8 0 -15 7 -15 15 0 8 7 15 15 15 8 0 15 -7
15 -15z m1390 0 c0 -8 -7 -15 -15 -15 -8 0 -15 7 -15 15 0 8 7 15 15 15 8 0
15 -7 15 -15z m3633 -6605 c146 -100 104 -319 -68 -358 -50 -11 -128 7 -157
36 -31 31 -13 46 23 19 42 -31 145 -32 185 -1 54 40 69 70 69 139 0 68 -15 99
-67 138 -33 24 -105 33 -151 18 -61 -20 -131 -120 -98 -140 8 -5 5 -13 -9 -26
-19 -18 -21 -18 -40 0 -18 16 -19 20 -5 27 8 5 15 17 15 26 0 28 48 95 86 122
64 43 154 43 217 0z m1429 3 c10 -39 40 -58 67 -43 30 16 37 13 61 -27 l22
-37 -26 -19 c-34 -24 -34 -61 -1 -83 l24 -16 -19 -39 c-22 -41 -30 -45 -61
-29 -27 15 -57 -4 -67 -43 -8 -29 -12 -32 -47 -32 -35 0 -39 3 -47 32 -10 39
-40 58 -67 43 -31 -16 -39 -12 -61 29 l-19 39 24 16 c15 10 25 26 25 41 0 15
-10 31 -25 41 l-24 16 19 39 c22 41 30 45 61 29 26 -15 57 3 65 38 10 41 13
43 52 40 31 -3 37 -7 44 -35z m-4602 -48 c0 -58 2 -65 20 -65 18 0 20 -7 20
-84 0 -75 -2 -84 -20 -89 -15 -4 -20 -14 -20 -36 0 -21 -5 -31 -15 -31 -10 0
-15 10 -15 31 0 22 -5 32 -20 36 -18 5 -20 14 -20 88 0 74 2 83 20 88 17 4 20
14 20 66 0 48 3 61 15 61 12 0 15 -14 15 -65z m160 34 c0 -22 5 -32 20 -36 18
-5 20 -14 20 -98 0 -84 -2 -93 -20 -98 -14 -3 -20 -14 -20 -31 0 -16 -6 -26
-15 -26 -10 0 -15 10 -15 30 0 23 -4 30 -20 30 -19 0 -20 7 -20 94 0 85 2 94
20 99 15 4 20 14 20 36 0 21 5 31 15 31 10 0 15 -10 15 -31z m-1442 -28 c40
-48 51 -71 34 -71 -5 0 -19 11 -32 25 -13 14 -27 25 -32 25 -4 0 -8 -41 -8
-91 0 -68 -3 -90 -12 -87 -9 3 -14 33 -16 91 -1 48 -6 87 -9 87 -4 0 -19 -12
-34 -26 -17 -16 -29 -22 -33 -15 -7 10 79 111 94 111 4 0 26 -22 48 -49z
m4362 -84 c0 -48 4 -57 35 -87 23 -23 32 -37 25 -44 -7 -7 -23 3 -50 29 -38
37 -40 43 -40 97 0 45 3 58 15 58 11 0 15 -13 15 -53z m-4602 -60 c1 -48 6
-87 9 -87 4 0 19 12 34 26 17 16 29 22 34 15 3 -6 -17 -35 -44 -64 l-51 -52
-45 50 c-42 47 -55 75 -37 75 5 0 19 -11 32 -25 13 -14 27 -25 32 -25 4 0 8
41 8 91 0 68 3 90 13 87 8 -3 13 -33 15 -91z m1482 -387 c0 -26 3 -29 18 -21
31 17 52 -5 52 -54 0 -25 -4 -45 -10 -45 -5 0 -10 15 -10 33 0 41 -13 62 -34
54 -11 -4 -16 -19 -16 -47 0 -22 -4 -40 -10 -40 -6 0 -10 32 -10 75 0 43 4 75
10 75 6 0 10 -14 10 -30z m2910 20 c0 -5 -4 -10 -10 -10 -5 0 -10 5 -10 10 0
6 5 10 10 10 6 0 10 -4 10 -10z m1720 0 c0 -5 -4 -10 -10 -10 -5 0 -10 5 -10
10 0 6 5 10 10 10 6 0 10 -4 10 -10z m-6278 -17 c20 -18 25 -87 7 -98 -6 -4
-8 -13 -5 -20 4 -10 -4 -12 -32 -8 -48 7 -75 34 -75 72 0 60 63 92 105 54z
m1574 3 c25 -19 12 -31 -15 -14 -30 19 -56 0 -56 -42 0 -42 26 -61 56 -42 27
17 40 5 15 -14 -45 -32 -99 -1 -99 56 0 57 54 88 99 56z m2834 -16 c0 -28 3
-30 35 -30 32 0 35 2 35 30 0 20 5 30 15 30 12 0 15 -14 15 -70 0 -56 -3 -70
-15 -70 -10 0 -15 10 -15 30 0 28 -3 30 -35 30 -32 0 -35 -2 -35 -30 0 -16 -4
-30 -10 -30 -6 0 -10 30 -10 70 0 40 4 70 10 70 6 0 10 -13 10 -30z m1507 13
c3 -7 -8 -10 -28 -10 -46 3 -46 -17 1 -36 27 -10 40 -22 40 -34 0 -36 -40 -54
-84 -37 -17 7 -22 34 -6 34 6 0 10 -5 10 -11 0 -13 52 -7 57 7 2 6 -15 18 -37
27 -42 16 -52 41 -28 65 15 15 70 12 75 -5z m-5577 -8 c0 -8 6 -15 13 -16 10
0 10 -2 0 -6 -17 -6 -17 -70 0 -76 6 -2 9 -8 5 -12 -16 -17 -38 5 -38 39 0 19
-4 38 -10 41 -6 4 -5 13 3 25 14 24 27 26 27 5z m1660 0 c0 -8 6 -15 13 -16
10 0 10 -2 0 -6 -7 -2 -13 -20 -13 -38 0 -18 6 -35 13 -38 6 -2 9 -8 5 -12
-16 -17 -38 5 -38 39 0 19 -4 38 -10 41 -6 4 -5 13 3 25 14 24 27 26 27 5z
m2750 0 c0 -8 6 -15 13 -16 10 0 10 -2 0 -6 -7 -2 -13 -20 -13 -38 0 -18 6
-35 13 -38 6 -2 9 -8 5 -12 -16 -17 -38 5 -38 39 0 19 -4 38 -10 41 -6 4 -5
13 3 25 14 24 27 26 27 5z m1368 -5 c7 -12 8 -20 2 -20 -14 0 -13 -53 2 -68
15 -15 6 -24 -16 -16 -11 4 -16 18 -16 45 0 24 -5 39 -12 40 -10 0 -10 2 0 6
6 2 12 11 12 19 0 20 13 17 28 -6z m90 0 c7 -12 8 -20 2 -20 -14 0 -13 -53 2
-68 15 -15 6 -24 -16 -16 -11 4 -16 18 -16 45 0 24 -5 39 -12 40 -10 0 -10 2
0 6 6 2 12 11 12 19 0 20 13 17 28 -6z m-5939 -34 c18 -47 -21 -87 -65 -67
-17 8 -24 19 -24 40 0 55 71 76 89 27z m209 -5 c3 -18 -1 -21 -33 -21 -25 0
-35 -4 -32 -12 2 -8 18 -12 37 -11 30 1 31 0 16 -15 -12 -12 -22 -14 -43 -6
-30 10 -38 31 -29 69 10 41 78 38 84 -4z m108 24 c18 -15 17 -16 -13 -10 -42
8 -44 -12 -3 -26 32 -12 38 -27 18 -47 -17 -17 -53 -15 -69 4 -11 14 -9 15 24
9 45 -9 50 8 7 24 -47 16 -41 49 11 60 3 0 14 -6 25 -14z m1246 -9 c4 -6 8
-27 8 -48 l0 -36 -42 1 c-39 2 -43 5 -43 27 0 20 6 26 28 28 16 2 27 9 27 18
0 12 -7 14 -30 9 -35 -8 -40 2 -7 14 24 9 48 4 59 -13z m79 -5 c-12 -12 -21
-34 -21 -51 0 -16 -4 -30 -10 -30 -5 0 -10 23 -10 51 0 45 2 50 19 44 11 -3
22 -1 26 5 4 6 9 9 12 6 2 -2 -5 -14 -16 -25z m2755 14 c18 -14 17 -14 -15 -8
-26 5 -33 3 -29 -8 2 -8 14 -15 26 -17 33 -5 46 -27 27 -46 -17 -17 -34 -20
-59 -10 -28 11 -17 24 14 18 18 -4 30 -2 30 4 0 5 -13 15 -30 21 -33 11 -39
35 -12 50 23 14 25 13 48 -4z m223 -19 c18 -47 -21 -87 -65 -67 -17 8 -24 19
-24 40 0 55 71 76 89 27z m101 25 c0 -5 -9 -13 -20 -16 -16 -5 -20 -15 -20
-46 0 -21 -4 -39 -10 -39 -5 0 -10 23 -10 51 0 39 3 50 13 46 8 -3 20 -1 28 4
18 11 19 11 19 0z m1058 -30 c3 -18 -1 -21 -33 -21 -25 0 -35 -4 -32 -12 2 -8
18 -12 37 -11 30 1 31 0 16 -15 -12 -12 -22 -14 -43 -6 -30 10 -38 31 -29 69
10 41 78 38 84 -4z m362 -26 c0 -25 -4 -45 -10 -45 -5 0 -10 15 -10 33 0 41
-13 62 -34 54 -11 -4 -16 -19 -16 -47 0 -22 -4 -40 -10 -40 -5 0 -10 23 -10
51 0 39 3 50 13 46 8 -3 20 -1 27 3 28 17 50 -8 50 -55z m226 50 c18 -14 17
-14 -15 -8 -26 5 -33 3 -29 -8 2 -8 14 -15 26 -17 33 -5 46 -27 27 -46 -17
-17 -34 -20 -59 -10 -28 11 -17 24 14 18 18 -4 30 -2 30 4 0 5 -13 15 -30 21
-33 11 -39 35 -12 50 23 14 25 13 48 -4z m-6566 -22 c0 -37 14 -57 34 -50 10
4 16 19 16 42 0 19 5 35 10 35 6 0 10 -22 10 -50 0 -27 -4 -50 -10 -50 -5 0
-10 5 -10 10 0 6 -8 5 -19 -2 -15 -9 -23 -9 -35 1 -18 15 -23 91 -6 91 6 0 10
-12 10 -27z m4490 -23 c0 -27 -4 -50 -10 -50 -5 0 -10 23 -10 50 0 28 5 50 10
50 6 0 10 -22 10 -50z m491 13 l13 -38 14 38 c8 20 19 37 23 37 11 0 12 2 -7
-56 -20 -58 -31 -74 -51 -74 -13 0 -13 3 -3 15 10 11 9 24 -4 62 -19 55 -19
53 -7 53 5 0 15 -17 22 -37z m1229 -13 c0 -27 -4 -50 -10 -50 -5 0 -10 23 -10
50 0 28 5 50 10 50 6 0 10 -22 10 -50z m260 3 c0 -63 -13 -83 -55 -83 -18 0
-37 5 -40 10 -4 6 6 9 26 8 24 -2 34 1 37 14 2 12 -2 15 -17 11 -28 -7 -51 14
-51 47 0 36 5 39 56 38 l44 -1 0 -44z"/>
<path d="M3574 13176 c-8 -21 3 -36 27 -36 15 0 20 6 17 22 -4 27 -35 37 -44
14z"/>
<path d="M3836 13175 c-17 -46 0 -102 29 -92 23 9 18 100 -6 105 -9 2 -19 -4
-23 -13z"/>
<path d="M4006 13175 c-17 -46 0 -102 29 -92 23 9 18 100 -6 105 -9 2 -19 -4
-23 -13z"/>
<path d="M5990 13160 c0 -11 -7 -20 -15 -20 -8 0 -15 -4 -15 -10 0 -5 11 -10
25 -10 21 0 25 5 25 30 0 17 -4 30 -10 30 -5 0 -10 -9 -10 -20z"/>
<path d="M6366 13184 c-29 -28 -14 -114 19 -114 33 0 48 86 19 114 -8 9 -17
16 -19 16 -2 0 -11 -7 -19 -16z"/>
<path d="M6526 13184 c-29 -28 -14 -114 19 -114 33 0 48 86 19 114 -8 9 -17
16 -19 16 -2 0 -11 -7 -19 -16z"/>
<path d="M6664 13185 c-3 -8 -3 -19 1 -25 11 -18 25 -11 25 15 0 27 -17 34
-26 10z"/>
<path d="M367 13148 c-35 -19 -9 -89 28 -74 19 7 20 72 2 79 -7 3 -21 1 -30
-5z"/>
<path d="M5665 13160 c-3 -5 1 -10 9 -10 9 0 16 5 16 10 0 6 -4 10 -9 10 -6 0
-13 -4 -16 -10z"/>
<path d="M6797 13107 c-3 -8 -1 -20 4 -28 11 -19 34 3 26 25 -8 20 -23 21 -30
3z"/>
<path d="M180 11810 c0 -31 7 -34 48 -24 25 7 30 39 6 48 -37 14 -54 7 -54
-24z"/>
<path d="M180 11730 c0 -28 3 -30 35 -30 23 0 38 6 41 15 9 23 -15 45 -47 45
-26 0 -29 -4 -29 -30z"/>
<path d="M6674 11825 c-4 -9 -2 -21 4 -27 16 -16 47 -5 47 17 0 26 -42 34 -51
10z"/>
<path d="M6675 11746 c-27 -19 -13 -48 22 -44 31 3 44 35 21 49 -18 12 -21 11
-43 -5z"/>
<path d="M7083 11828 c-17 -22 -22 -57 -11 -94 13 -47 48 -45 60 4 16 61 -20
127 -49 90z"/>
<path d="M367 11729 c-14 -8 -16 -14 -7 -25 15 -17 50 -2 50 21 0 17 -17 19
-43 4z"/>
<path d="M608 11733 c-22 -5 -24 -29 -3 -37 17 -6 48 21 40 35 -6 9 -9 10 -37
2z"/>
<path d="M1087 11784 c-15 -15 -6 -24 24 -24 20 0 29 4 27 13 -5 14 -40 21
-51 11z"/>
<path d="M6823 11408 c-17 -22 -22 -57 -11 -94 13 -47 48 -45 60 4 16 61 -20
127 -49 90z"/>
<path d="M7070 11329 c-9 -15 -8 -24 1 -35 18 -22 53 -13 57 15 6 40 -39 56
-58 20z"/>
<path d="M7260 11405 c-18 -22 -8 -50 19 -50 32 0 49 28 32 49 -17 20 -35 20
-51 1z"/>
<path d="M339 11349 c-15 -29 3 -69 31 -69 28 0 46 40 31 69 -7 11 -20 21 -31
21 -11 0 -24 -10 -31 -21z"/>
<path d="M6548 10950 l-28 -45 26 -3 c34 -5 36 -2 32 49 l-3 44 -27 -45z"/>
<path d="M6873 10988 c-17 -22 -22 -57 -11 -94 13 -47 48 -45 60 4 16 61 -20
127 -49 90z"/>
<path d="M7260 10981 c-15 -28 -12 -84 4 -107 23 -30 50 -7 54 44 5 68 -33
109 -58 63z"/>
<path d="M427 10889 c-14 -8 -16 -14 -7 -25 15 -17 50 -2 50 21 0 17 -17 19
-43 4z"/>
<path d="M690 10930 c-23 -42 30 -81 60 -45 10 12 10 21 2 40 -14 30 -47 33
-62 5z"/>
<path d="M6630 10561 c-15 -28 -12 -84 4 -107 23 -30 50 -7 54 44 5 68 -33
109 -58 63z"/>
<path d="M6823 10568 c-17 -22 -22 -57 -11 -94 13 -47 48 -45 60 4 16 61 -20
127 -49 90z"/>
<path d="M7260 10565 c-18 -22 -8 -50 19 -50 32 0 49 28 32 49 -17 20 -35 20
-51 1z"/>
<path d="M447 10523 c-15 -15 -5 -23 28 -23 26 0 33 3 29 15 -6 15 -45 21 -57
8z"/>
<path d="M607 10523 c-15 -15 -5 -23 28 -23 26 0 33 3 29 15 -6 15 -45 21 -57
8z"/>
<path d="M1098 10473 c-22 -5 -24 -29 -3 -37 17 -6 48 21 40 35 -6 9 -9 10
-37 2z"/>
<path d="M1357 10524 c-15 -15 -7 -63 12 -73 28 -15 54 8 49 44 -2 24 -9 31
-28 33 -14 2 -29 0 -33 -4z"/>
<path d="M2054 10156 c-8 -21 -1 -49 13 -53 13 -5 21 23 15 50 -5 21 -21 22
-28 3z"/>
<path d="M7260 10141 c-15 -28 -12 -84 4 -107 23 -30 50 -7 54 44 5 68 -33
109 -58 63z"/>
<path d="M427 10049 c-14 -8 -16 -14 -7 -25 15 -17 50 -2 50 21 0 17 -17 19
-43 4z"/>
<path d="M690 10090 c-23 -42 30 -81 60 -45 10 12 10 21 2 40 -14 30 -47 33
-62 5z"/>
<path d="M1337 10104 c-15 -15 -6 -24 24 -24 20 0 29 4 27 13 -5 14 -40 21
-51 11z"/>
<path d="M1637 10103 c-15 -15 -5 -23 28 -23 26 0 33 3 29 15 -6 15 -45 21
-57 8z"/>
<path d="M2211 10066 c-15 -18 -5 -59 12 -53 15 5 22 46 9 59 -5 5 -14 3 -21
-6z"/>
<path d="M180 9580 c0 -23 5 -30 19 -30 11 0 21 6 24 13 7 22 -5 47 -24 47
-14 0 -19 -7 -19 -30z"/>
<path d="M330 9556 c-17 -22 -9 -90 13 -94 14 -3 17 4 17 47 0 53 -10 70 -30
47z"/>
<path d="M840 9556 c-17 -22 -9 -90 13 -94 14 -3 17 4 17 47 0 53 -10 70 -30
47z"/>
<path d="M970 8955 c0 -79 7 -89 45 -62 12 10 18 28 19 59 1 49 -16 78 -45 78
-17 0 -19 -8 -19 -75z"/>
<path d="M600 8546 c-16 -25 -30 -47 -30 -50 0 -3 16 -6 35 -6 l35 0 0 50 c0
28 -2 50 -5 50 -2 0 -18 -20 -35 -44z"/>
<path d="M762 8524 c-39 -27 -23 -84 24 -84 46 0 59 60 19 86 -18 12 -24 11
-43 -2z"/>
<path d="M933 8545 l-33 -50 31 -3 c17 -2 33 -1 36 1 2 3 3 27 1 53 l-3 48
-32 -49z"/>
<path d="M1977 8604 c-15 -15 -7 -53 13 -59 27 -8 52 12 48 39 -3 21 -46 35
-61 20z"/>
<path d="M1972 8508 c-28 -28 -3 -72 39 -66 30 4 47 33 33 56 -14 21 -55 27
-72 10z"/>
<path d="M2302 8598 c-36 -36 4 -101 48 -78 37 20 21 90 -20 90 -9 0 -21 -5
-28 -12z"/>
<path d="M970 7895 c0 -79 7 -89 45 -62 12 10 18 28 19 59 1 49 -16 78 -45 78
-17 0 -19 -8 -19 -75z"/>
<path d="M600 7486 c-16 -25 -30 -47 -30 -50 0 -3 16 -6 35 -6 l35 0 0 50 c0
28 -2 50 -5 50 -2 0 -18 -20 -35 -44z"/>
<path d="M762 7464 c-39 -27 -23 -84 24 -84 46 0 59 60 19 86 -18 12 -24 11
-43 -2z"/>
<path d="M933 7485 l-33 -50 31 -3 c17 -2 33 -1 36 1 2 3 3 27 1 53 l-3 48
-32 -49z"/>
<path d="M1977 7544 c-15 -15 -7 -53 13 -59 27 -8 52 12 48 39 -3 21 -46 35
-61 20z"/>
<path d="M1972 7448 c-28 -28 -3 -72 39 -66 30 4 47 33 33 56 -14 21 -55 27
-72 10z"/>
<path d="M2302 7538 c-36 -36 4 -101 48 -78 37 20 21 90 -20 90 -9 0 -21 -5
-28 -12z"/>
<path d="M6720 748 c0 -31 -51 -59 -90 -51 -25 5 -30 2 -30 -15 0 -11 7 -25
15 -32 8 -7 15 -27 15 -45 0 -18 -7 -38 -15 -45 -8 -7 -15 -21 -15 -32 0 -17
5 -20 30 -15 39 8 90 -20 90 -50 0 -18 6 -23 25 -23 19 0 25 5 25 23 0 30 51
58 90 50 25 -5 30 -2 30 15 0 11 -7 25 -15 32 -8 7 -15 27 -15 45 0 18 7 38
15 45 8 7 15 21 15 32 0 17 -5 20 -30 15 -39 -8 -90 20 -90 51 0 17 -6 22 -25
22 -19 0 -25 -5 -25 -22z m75 -93 c14 -13 25 -36 25 -50 0 -33 -42 -75 -75
-75 -33 0 -75 42 -75 75 0 33 42 75 75 75 14 0 37 -11 50 -25z"/>
<path d="M6712 638 c-28 -28 -7 -78 33 -78 27 0 45 18 45 45 0 27 -18 45 -45
45 -12 0 -26 -5 -33 -12z"/>
<path d="M2310 625 c0 -63 1 -65 25 -65 24 0 25 2 25 65 0 63 -1 65 -25 65
-24 0 -25 -2 -25 -65z"/>
<path d="M432 188 c-26 -26 -8 -88 26 -88 7 0 11 4 8 9 -3 5 3 11 14 14 37 10
20 77 -20 77 -9 0 -21 -5 -28 -12z"/>
<path d="M704 156 c-10 -26 0 -51 21 -51 16 0 20 7 20 30 0 33 -30 49 -41 21z"/>
<path d="M917 164 c-14 -14 -6 -24 19 -24 16 0 24 5 22 13 -5 14 -31 21 -41
11z"/>
<path d="M2277 123 c-13 -12 -7 -23 13 -23 11 0 20 7 20 15 0 15 -21 21 -33 8z"/>
<path d="M5324 156 c-10 -26 0 -51 21 -51 16 0 20 7 20 30 0 33 -30 49 -41 21z"/>
<path d="M6487 164 c-14 -14 -6 -24 19 -24 16 0 24 5 22 13 -5 14 -31 21 -41
11z"/>
<path d="M6967 164 c-11 -12 -8 -41 6 -52 18 -16 39 1 35 29 -3 23 -27 37 -41
23z"/>
</g>
</svg>
