<?xml version="1.0" standalone="no"?>
<!DOCTYPE svg PUBLIC "-//W3C//DTD SVG 20010904//EN"
 "http://www.w3.org/TR/2001/REC-SVG-20010904/DTD/svg10.dtd">
<svg version="1.0" xmlns="http://www.w3.org/2000/svg"
 width="750.000000pt" height="1334.000000pt" viewBox="0 0 750.000000 1334.000000"
 preserveAspectRatio="xMidYMid meet">

<g transform="translate(0.000000,1334.000000) scale(0.100000,-0.100000)"
fill="#000000" stroke="none">
<path d="M6210 13225 c-7 -9 -10 -18 -7 -21 9 -9 48 16 42 27 -9 13 -21 11
-35 -6z"/>
<path d="M6330 13230 c0 -12 35 -31 44 -23 8 9 -14 33 -30 33 -8 0 -14 -4 -14
-10z"/>
<path d="M837 13223 c-4 -3 -7 -44 -7 -90 0 -67 3 -83 15 -83 12 0 15 17 15
90 0 83 -5 101 -23 83z"/>
<path d="M900 13140 c0 -73 3 -90 15 -90 9 0 15 9 15 25 0 32 5 31 34 -1 34
-40 52 -26 21 16 l-25 34 27 28 c35 37 9 38 -29 1 l-28 -27 0 52 c0 40 -4 52
-15 52 -12 0 -15 -17 -15 -90z"/>
<path d="M5638 13192 c-87 -39 -101 -62 -38 -62 l40 0 0 -40 c0 -64 23 -49 63
41 33 74 38 101 19 98 -4 0 -42 -17 -84 -37z"/>
<path d="M5899 13201 c-17 -18 -29 -40 -29 -56 0 -82 92 -134 151 -86 32 26
20 35 -20 15 -41 -20 -84 -5 -101 36 -25 61 41 122 98 89 16 -9 26 -23 25 -34
-2 -23 14 -55 27 -55 5 0 14 9 20 20 9 17 5 26 -29 60 -51 52 -97 55 -142 11z"/>
<path d="M550 13205 c0 -9 9 -15 25 -15 24 0 25 -2 25 -70 0 -56 3 -70 15 -70
12 0 15 14 15 69 0 67 1 70 25 73 52 6 28 23 -37 26 -56 2 -68 0 -68 -13z"/>
<path d="M1510 13135 c0 -69 3 -85 15 -85 12 0 15 13 15 58 l1 57 22 -54 c13
-30 28 -56 34 -58 6 -2 19 18 29 44 26 71 34 73 34 10 0 -31 5 -57 10 -57 6 0
10 35 10 86 0 73 -2 85 -16 82 -9 -2 -27 -31 -42 -67 l-25 -64 -26 66 c-18 48
-31 67 -43 67 -16 0 -18 -11 -18 -85z"/>
<path d="M2560 13135 l0 -85 45 0 c33 0 45 4 45 15 0 10 -10 15 -30 15 l-30 0
0 70 c0 56 -3 70 -15 70 -12 0 -15 -16 -15 -85z"/>
<path d="M2652 13208 c3 -7 14 -14 26 -16 20 -3 22 -9 22 -73 0 -55 3 -69 15
-69 12 0 15 14 15 70 0 63 2 70 20 70 11 0 20 7 20 15 0 12 -13 15 -61 15 -44
0 -60 -3 -57 -12z"/>
<path d="M2800 13135 l0 -85 51 0 c57 0 66 23 11 28 -24 2 -32 8 -32 23 0 14
7 19 30 19 20 0 30 5 30 15 0 10 -10 15 -30 15 -23 0 -30 5 -30 19 0 15 8 21
32 23 55 5 46 28 -11 28 l-51 0 0 -85z"/>
<path d="M3416 13201 c-12 -13 -18 -36 -18 -66 0 -57 22 -85 67 -85 44 0 70
31 70 85 0 28 -7 50 -19 64 -24 27 -77 28 -100 2z m72 -64 c2 -37 -1 -49 -13
-54 -21 -7 -35 12 -35 49 0 39 10 59 29 56 11 -2 17 -16 19 -51z"/>
<path d="M3588 13206 c-22 -16 -24 -69 -3 -86 8 -7 29 -10 45 -8 24 4 30 1 28
-11 -3 -12 -14 -15 -46 -13 -46 4 -49 1 -26 -22 22 -22 77 -20 98 3 22 24 23
93 2 126 -19 28 -68 34 -98 11z m70 -39 c4 -20 -25 -34 -40 -19 -15 15 -1 44
19 40 10 -2 19 -11 21 -21z"/>
<path d="M3830 13169 l0 -51 36 7 c39 7 57 -6 47 -32 -6 -16 -27 -17 -53 -1
-24 15 -38 3 -24 -20 7 -10 27 -18 52 -20 34 -3 43 1 57 22 14 22 15 29 3 53
-11 22 -20 28 -46 28 -24 0 -32 4 -32 17 0 14 8 18 40 18 29 0 40 4 40 15 0
12 -13 15 -60 15 l-60 0 0 -51z"/>
<path d="M3980 13205 c0 -11 11 -15 40 -15 22 0 40 -2 40 -5 0 -3 -13 -32 -30
-65 -36 -70 -35 -70 -10 -70 14 0 29 19 55 70 49 97 48 100 -30 100 -51 0 -65
-3 -65 -15z"/>
<path d="M6228 13190 c-26 -27 -29 -35 -24 -68 4 -20 7 -47 7 -60 1 -17 4 -20
14 -12 9 8 20 7 39 -1 19 -9 32 -9 51 -1 15 7 27 8 30 2 11 -18 22 -10 23 18
0 15 4 41 7 59 6 27 3 37 -23 63 -41 41 -83 41 -124 0z m72 -40 c0 -25 -4 -30
-25 -30 -14 0 -25 5 -25 10 0 6 7 10 15 10 8 0 15 9 15 20 0 11 5 20 10 20 6
0 10 -13 10 -30z"/>
<path d="M6512 13208 c-15 -15 -16 -38 -1 -38 7 0 17 7 24 17 15 20 45 11 45
-15 0 -10 -18 -36 -40 -57 -56 -55 -53 -65 20 -65 33 0 60 4 60 10 0 6 -16 10
-35 10 -19 0 -35 3 -35 6 0 4 14 22 30 41 48 54 37 103 -25 103 -17 0 -36 -5
-43 -12z"/>
<path d="M6657 13213 c-14 -14 -7 -74 9 -80 37 -14 70 41 44 73 -13 15 -42 19
-53 7z m43 -38 c0 -16 -6 -25 -15 -25 -9 0 -15 9 -15 25 0 16 6 25 15 25 9 0
15 -9 15 -25z"/>
<path d="M6737 13135 c-32 -47 -52 -85 -45 -85 17 1 133 170 116 170 -7 0 -39
-38 -71 -85z"/>
<path d="M314 13197 c-3 -8 -4 -45 -2 -83 3 -66 4 -69 28 -69 25 0 25 1 25 80
0 75 -1 80 -23 83 -12 2 -24 -3 -28 -11z"/>
<path d="M2160 13196 c0 -8 -6 -17 -12 -20 -10 -5 -10 -7 0 -12 7 -3 12 -24
12 -48 0 -45 13 -66 42 -66 22 0 24 16 3 24 -9 3 -15 19 -15 41 0 22 6 38 15
41 8 4 15 10 15 15 0 5 -7 9 -15 9 -8 0 -15 7 -15 15 0 8 -7 15 -15 15 -8 0
-15 -6 -15 -14z"/>
<path d="M3743 13184 c-8 -21 13 -42 28 -27 13 13 5 43 -11 43 -6 0 -13 -7
-17 -16z"/>
<path d="M705 13166 c-22 -16 -26 -76 -6 -100 22 -26 91 -18 91 10 0 11 -5 11
-25 2 -19 -8 -28 -8 -40 2 -26 21 -17 30 30 30 49 0 56 10 29 48 -17 25 -51
29 -79 8z m55 -21 c11 -13 8 -15 -20 -15 -28 0 -31 2 -20 15 7 8 16 15 20 15
4 0 13 -7 20 -15z"/>
<path d="M1045 13166 c-22 -16 -26 -76 -6 -100 18 -22 64 -20 84 2 52 57 -17
143 -78 98z m65 -52 c0 -38 -21 -54 -45 -34 -20 17 -19 57 2 68 27 16 43 3 43
-34z"/>
<path d="M1180 13114 c0 -50 3 -64 15 -64 11 0 15 12 15 49 0 34 5 51 15 55
19 7 35 -23 35 -68 0 -20 5 -36 10 -36 6 0 10 15 10 34 0 47 9 66 31 66 16 0
19 -8 19 -50 0 -38 4 -50 15 -50 13 0 15 11 13 56 -3 66 -23 88 -59 66 -13 -9
-25 -10 -32 -4 -7 6 -29 10 -49 10 l-38 0 0 -64z"/>
<path d="M1737 13162 c-22 -25 -21 -75 1 -95 60 -54 139 36 82 93 -25 25 -62
26 -83 2z m73 -46 c0 -28 -24 -51 -45 -42 -18 6 -20 57 -3 74 17 17 48 -4 48
-32z"/>
<path d="M1870 13114 c0 -50 3 -64 15 -64 11 0 15 12 15 49 0 31 5 51 13 54
27 9 37 -6 37 -54 0 -37 4 -49 15 -49 11 0 15 13 15 54 0 63 -10 74 -67 73
l-43 0 0 -63z"/>
<path d="M2030 13165 c-17 -21 -7 -29 19 -15 22 11 41 6 41 -10 0 -5 -14 -13
-32 -18 -72 -18 -58 -72 18 -70 l44 1 0 51 c0 29 -5 57 -12 64 -17 17 -63 15
-78 -3z m60 -70 c0 -21 -28 -31 -43 -16 -9 9 -8 14 3 21 22 14 40 12 40 -5z"/>
<path d="M2265 13166 c-22 -16 -26 -76 -6 -100 22 -26 91 -18 91 10 0 11 -5
11 -25 2 -19 -8 -28 -8 -40 2 -26 21 -17 30 30 30 49 0 56 10 29 48 -17 25
-51 29 -79 8z m55 -21 c11 -13 8 -15 -20 -15 -28 0 -31 2 -20 15 7 8 16 15 20
15 4 0 13 -7 20 -15z"/>
<path d="M5939 13153 c-15 -41 -8 -58 29 -61 35 -4 37 1 26 57 -8 40 -40 42
-55 4z m41 7 c0 -5 -7 -10 -16 -10 -8 0 -12 5 -9 10 3 6 10 10 16 10 5 0 9 -4
9 -10z"/>
<path d="M224 13147 c-3 -8 -4 -34 -2 -58 3 -39 6 -44 28 -44 24 0 25 3 25 55
0 49 -2 55 -23 58 -12 2 -24 -3 -28 -11z"/>
<path d="M7371 13144 c0 -11 3 -14 6 -6 3 7 2 16 -1 19 -3 4 -6 -2 -5 -13z"/>
<path d="M6792 13128 c-14 -14 -15 -47 -3 -66 12 -19 55 -11 59 11 10 52 -25
86 -56 55z m38 -33 c0 -16 -6 -25 -15 -25 -9 0 -15 9 -15 25 0 16 6 25 15 25
9 0 15 -9 15 -25z"/>
<path d="M1392 13118 c3 -7 21 -14 41 -16 28 -2 37 1 37 12 0 12 -11 16 -41
16 -28 0 -39 -4 -37 -12z"/>
<path d="M134 13106 c-3 -8 -4 -25 -2 -38 2 -17 9 -23 28 -23 22 0 25 4 25 35
0 29 -4 36 -23 38 -13 2 -24 -3 -28 -12z"/>
<path d="M3742 13093 c2 -10 10 -18 18 -18 8 0 16 8 18 18 2 12 -3 17 -18 17
-15 0 -20 -5 -18 -17z"/>
<path d="M6950 12610 l0 -80 -80 0 c-64 0 -80 -3 -80 -15 0 -12 16 -15 80 -15
l80 0 0 -80 c0 -64 3 -80 15 -80 12 0 15 16 15 80 l0 80 80 0 c64 0 80 3 80
15 0 12 -16 15 -80 15 l-80 0 0 80 c0 64 -3 80 -15 80 -12 0 -15 -16 -15 -80z"/>
<path d="M2826 12648 c-3 -13 -6 -48 -6 -79 l0 -56 42 1 c35 1 44 -3 57 -26
12 -20 13 -34 5 -55 -11 -34 -51 -44 -71 -17 -10 13 -17 15 -35 7 l-22 -10 26
-26 c29 -29 81 -36 109 -14 68 52 42 177 -37 177 -33 0 -34 1 -34 40 l0 40 50
0 c43 0 50 3 50 20 0 18 -7 20 -64 20 -58 0 -64 -2 -70 -22z"/>
<path d="M3066 12637 c-32 -28 -36 -35 -24 -45 12 -9 19 -9 34 3 10 8 22 15
27 15 4 0 7 -56 7 -125 0 -118 1 -125 20 -125 19 0 20 7 20 155 0 154 0 155
-22 155 -13 0 -40 -15 -62 -33z"/>
<path d="M3250 12650 c0 -18 7 -20 55 -20 30 0 55 -2 55 -4 0 -3 -20 -60 -45
-127 -25 -67 -45 -126 -45 -131 0 -5 10 -8 22 -6 18 2 30 25 70 138 26 74 48
143 48 152 0 16 -10 18 -80 18 -73 0 -80 -2 -80 -20z"/>
<path d="M3600 12650 c-26 -26 -26 -60 -1 -60 10 0 21 9 24 21 4 16 12 20 34
17 24 -3 28 -8 31 -38 2 -29 -7 -47 -53 -107 -33 -44 -55 -83 -55 -98 0 -25 1
-25 80 -25 73 0 80 2 80 20 0 18 -7 20 -55 20 -56 0 -67 8 -40 30 31 26 95
133 95 160 0 15 -9 39 -21 54 -26 33 -88 37 -119 6z"/>
<path d="M3816 12648 c-3 -13 -6 -48 -6 -79 l0 -56 42 1 c35 1 44 -3 57 -26
12 -20 13 -34 5 -55 -11 -34 -51 -44 -71 -17 -10 13 -17 15 -35 7 l-22 -10 26
-26 c29 -29 81 -36 109 -14 68 52 42 177 -37 177 -33 0 -34 1 -34 40 l0 40 50
0 c43 0 50 3 50 20 0 18 -7 20 -64 20 -58 0 -64 -2 -70 -22z"/>
<path d="M4090 12650 c0 -17 7 -20 50 -20 28 0 50 -2 50 -4 0 -2 -25 -55 -55
-117 -30 -63 -55 -122 -55 -131 0 -16 10 -18 80 -18 73 0 80 2 80 20 0 17 -7
20 -50 20 -27 0 -50 4 -50 9 0 4 23 56 50 115 68 146 68 146 -25 146 -68 0
-75 -2 -75 -20z"/>
<path d="M4306 12526 c-20 -80 -36 -150 -36 -156 0 -5 9 -10 20 -10 14 0 22
10 28 33 8 30 11 32 55 35 41 3 47 1 47 -17 0 -34 11 -51 35 -51 l22 0 -36
153 -37 152 -30 3 -31 3 -37 -145z m83 32 c7 -35 14 -71 17 -80 4 -15 -1 -18
-29 -18 -18 0 -36 2 -39 5 -7 7 24 155 33 155 3 0 12 -28 18 -62z"/>
<path d="M4530 12516 c0 -149 1 -156 20 -156 18 0 20 7 20 71 0 61 2 70 17 67
11 -2 27 -28 43 -71 21 -57 28 -67 48 -67 19 0 23 4 17 18 -4 9 -16 41 -27 70
l-21 53 21 20 c16 14 22 32 22 63 0 59 -24 79 -100 84 l-60 4 0 -156z m108
102 c7 -7 12 -24 12 -38 0 -34 -17 -50 -52 -50 -27 0 -28 2 -28 50 0 48 1 50
28 50 15 0 33 -5 40 -12z"/>
<path d="M3474 12405 c-9 -23 4 -47 23 -43 22 4 30 38 11 49 -19 13 -28 11
-34 -6z"/>
<path d="M6513 11837 c-57 -82 -56 -97 2 -97 41 0 45 -2 45 -25 0 -16 6 -25
15 -25 9 0 15 9 15 25 0 16 6 25 15 25 8 0 15 5 15 10 0 6 -7 13 -15 16 -11 5
-15 22 -15 70 0 85 -20 86 -77 1z m44 -64 c-3 -2 -17 -3 -31 -1 l-26 3 27 40
28 40 3 -39 c2 -21 1 -40 -1 -43z"/>
<path d="M6654 11875 c-15 -22 -15 -27 -1 -48 13 -21 13 -25 -4 -45 -14 -19
-16 -28 -8 -50 13 -34 26 -42 70 -42 42 0 69 24 69 62 0 14 -7 31 -15 38 -11
9 -13 16 -5 24 14 14 13 59 -2 74 -7 7 -29 12 -50 12 -29 0 -41 -6 -54 -25z
m76 -10 c18 -21 5 -45 -25 -45 -40 0 -34 54 6 59 4 1 12 -6 19 -14z m10 -90
c14 -17 5 -51 -16 -59 -22 -8 -54 11 -54 32 0 38 46 56 70 27z"/>
<path d="M6826 11863 c-4 -21 -9 -46 -12 -56 -5 -17 -1 -18 38 -12 51 8 74 -9
64 -49 -8 -32 -42 -40 -67 -15 -22 22 -39 25 -39 6 0 -44 84 -63 120 -27 45
45 9 126 -51 118 -26 -4 -30 -2 -27 16 2 17 11 22 46 24 28 2 42 8 42 18 0 10
-14 14 -54 14 l-54 0 -6 -37z"/>
<path d="M7096 11836 c-59 -83 -59 -96 -1 -96 41 0 45 -2 45 -25 0 -16 6 -25
15 -25 9 0 15 9 15 25 0 16 6 25 15 25 8 0 15 7 15 15 0 8 -7 15 -15 15 -12 0
-15 14 -15 65 0 85 -14 85 -74 1z m44 -26 c0 -38 -2 -40 -31 -40 l-30 0 28 40
c15 22 29 40 31 40 1 0 2 -18 2 -40z"/>
<path d="M7239 11879 c-28 -28 -22 -76 13 -102 23 -17 31 -19 53 -9 24 11 26
10 23 -9 -4 -32 -33 -47 -58 -31 -26 16 -40 15 -40 -3 0 -19 35 -37 67 -33 59
7 90 120 50 182 -22 33 -77 36 -108 5z m87 -34 c12 -49 -48 -78 -65 -32 -12
30 4 57 34 57 18 0 26 -7 31 -25z"/>
<path d="M140 11785 l0 -105 63 0 c75 0 107 18 107 59 0 16 -7 34 -15 41 -11
9 -13 16 -5 24 14 14 13 59 -2 74 -7 7 -40 12 -80 12 l-68 0 0 -105z m128 56
c5 -29 -12 -41 -60 -41 -37 0 -38 1 -38 36 l0 35 48 -3 c41 -3 47 -6 50 -27z
m0 -73 c33 -33 -3 -72 -61 -66 -29 3 -32 6 -35 41 l-3 37 43 0 c24 0 49 -5 56
-12z"/>
<path d="M510 11785 c0 -63 4 -105 10 -105 6 0 10 42 10 105 0 63 -4 105 -10
105 -6 0 -10 -42 -10 -105z"/>
<path d="M358 11818 c-16 -16 -18 -23 -9 -26 7 -2 16 0 20 5 9 16 44 24 60 14
23 -15 7 -34 -40 -45 -42 -10 -44 -13 -44 -46 0 -32 3 -35 33 -38 18 -2 39 2
47 8 9 8 15 8 20 0 3 -5 12 -10 19 -10 17 0 9 107 -10 138 -19 29 -67 29 -96
0z m72 -103 c-14 -17 -56 -20 -65 -5 -10 16 13 38 43 42 30 3 40 -15 22 -37z"/>
<path d="M589 11821 c-31 -25 -20 -36 16 -17 15 8 34 12 42 9 24 -10 9 -37
-24 -44 -40 -8 -63 -26 -63 -48 0 -26 21 -41 55 -41 17 0 36 5 43 12 9 9 12 9
12 0 0 -7 9 -12 20 -12 11 0 20 5 20 10 0 6 -4 10 -10 10 -6 0 -10 27 -10 60
0 48 -4 61 -19 70 -29 15 -56 12 -82 -9z m75 -94 c-8 -21 -52 -33 -66 -19 -17
17 -2 40 29 44 34 4 46 -3 37 -25z"/>
<path d="M730 11760 c0 -47 4 -80 10 -80 6 0 10 18 10 39 0 71 27 109 65 95
11 -5 15 -22 15 -70 0 -50 3 -64 15 -64 24 0 21 111 -4 141 -18 22 -22 23 -53
11 -21 -8 -34 -9 -36 -2 -2 5 -8 10 -13 10 -5 0 -9 -36 -9 -80z"/>
<path d="M930 11827 c-44 -22 -52 -93 -14 -131 32 -33 114 -9 114 32 0 19 -18
14 -30 -8 -12 -22 -49 -27 -68 -8 -20 20 -15 75 10 92 20 14 24 14 46 0 34
-22 50 -12 24 14 -25 25 -46 27 -82 9z"/>
<path d="M1090 11827 c-16 -8 -28 -26 -34 -50 -13 -49 15 -90 63 -95 31 -3 71
19 71 40 0 14 -28 9 -34 -7 -11 -30 -76 -12 -76 22 0 9 17 13 55 13 51 0 55 2
55 23 0 26 -38 67 -61 67 -8 0 -25 -6 -39 -13z m70 -42 c0 -11 -12 -15 -40
-15 -40 0 -46 5 -32 26 18 27 72 19 72 -11z"/>
<path d="M1225 11831 c-8 -15 3 -31 21 -31 9 0 14 7 12 17 -4 20 -24 28 -33
14z"/>
<path d="M6980 11710 c0 -13 7 -20 20 -20 13 0 20 7 20 20 0 13 -7 20 -20 20
-13 0 -20 -7 -20 -20z"/>
<path d="M1220 11695 c0 -8 9 -15 20 -15 11 0 20 7 20 15 0 8 -9 15 -20 15
-11 0 -20 -7 -20 -15z"/>
<path d="M6276 11445 c-3 -8 -15 -15 -26 -15 -11 0 -20 -7 -20 -15 0 -9 9 -15
25 -15 24 0 25 -2 25 -75 0 -60 3 -75 15 -75 12 0 15 15 15 74 0 40 3 88 6
105 6 26 4 31 -14 31 -11 0 -22 -7 -26 -15z"/>
<path d="M6494 11439 c-14 -16 -19 -36 -19 -84 0 -76 20 -105 71 -105 45 0 67
34 67 105 0 71 -22 105 -67 105 -21 0 -40 -8 -52 -21z m74 -21 c7 -7 12 -35
12 -63 0 -53 -12 -75 -41 -75 -21 0 -29 20 -29 75 0 24 3 50 6 59 7 19 35 21
52 4z"/>
<path d="M6655 11430 c-8 -16 -15 -50 -15 -75 0 -68 22 -105 64 -105 51 0 71
29 71 105 0 76 -20 105 -71 105 -27 0 -36 -6 -49 -30z m88 -39 c18 -73 -25
-143 -60 -95 -16 22 -17 88 -2 115 17 32 51 21 62 -20z"/>
<path d="M6844 11452 c-13 -8 -34 -46 -34 -61 0 -21 31 -10 40 14 11 28 54 35
64 10 9 -24 -2 -40 -55 -85 -28 -23 -49 -50 -49 -61 0 -17 7 -19 70 -19 56 0
70 3 70 15 0 11 -13 15 -52 15 l-53 0 53 46 c56 49 64 73 36 112 -15 22 -66
30 -90 14z"/>
<path d="M7060 11445 c0 -11 12 -15 51 -15 l51 0 -18 -27 c-28 -44 -46 -82
-54 -119 -7 -29 -5 -34 10 -34 13 0 21 13 30 50 7 27 25 69 41 92 42 63 40 68
-41 68 -56 0 -70 -3 -70 -15z"/>
<path d="M7263 11397 c-57 -82 -56 -97 2 -97 41 0 45 -2 45 -25 0 -16 6 -25
15 -25 9 0 15 9 15 25 0 16 6 25 15 25 8 0 15 5 15 10 0 6 -7 13 -15 16 -11 5
-15 22 -15 70 0 85 -20 86 -77 1z m44 -64 c-3 -2 -17 -3 -31 -1 l-26 3 27 40
28 40 3 -39 c2 -21 1 -40 -1 -43z"/>
<path d="M140 11345 l0 -105 75 0 c88 0 102 18 18 22 l-58 3 -3 38 -3 37 55 0
c31 0 56 5 56 10 0 6 -25 10 -55 10 l-55 0 0 35 0 35 60 0 c33 0 60 4 60 10 0
6 -32 10 -75 10 l-75 0 0 -105z"/>
<path d="M670 11435 c0 -8 5 -15 10 -15 6 0 10 7 10 15 0 8 -4 15 -10 15 -5 0
-10 -7 -10 -15z"/>
<path d="M740 11421 c0 -10 -7 -21 -15 -25 -19 -7 -20 -26 0 -26 10 0 15 -16
17 -62 3 -60 4 -63 31 -66 31 -4 37 13 7 21 -17 4 -20 14 -20 55 0 42 3 51 21
55 23 6 17 27 -7 27 -8 0 -14 9 -14 20 0 11 -4 20 -10 20 -5 0 -10 -9 -10 -19z"/>
<path d="M335 11375 c-31 -30 -32 -73 -3 -110 18 -23 26 -26 60 -22 38 5 38 5
38 -29 0 -24 5 -34 15 -34 12 0 15 18 15 104 0 96 -9 132 -25 106 -4 -7 -12
-7 -25 0 -29 16 -49 12 -75 -15z m93 -54 c4 -39 -12 -61 -44 -61 -45 0 -61 77
-22 104 30 21 62 1 66 -43z"/>
<path d="M500 11332 c0 -74 10 -92 50 -92 14 0 31 5 38 12 9 9 12 9 12 0 0 -7
7 -12 15 -12 13 0 15 13 13 75 -3 88 -22 105 -26 25 -3 -59 -14 -80 -43 -80
-26 0 -39 30 -39 89 0 28 -4 51 -10 51 -6 0 -10 -29 -10 -68z"/>
<path d="M670 11320 c0 -47 4 -80 10 -80 6 0 10 33 10 80 0 47 -4 80 -10 80
-6 0 -10 -33 -10 -80z"/>
<path d="M810 11395 c0 -2 14 -39 30 -80 23 -59 28 -80 20 -95 -6 -11 -17 -20
-25 -20 -8 0 -15 -4 -15 -10 0 -15 36 -12 48 3 11 13 82 189 82 202 0 4 -5 5
-12 3 -6 -2 -21 -31 -34 -64 -24 -66 -20 -68 -58 29 -8 20 -20 37 -25 37 -6 0
-11 -2 -11 -5z"/>
<path d="M980 11380 c0 -11 7 -20 15 -20 8 0 15 9 15 20 0 11 -7 20 -15 20 -8
0 -15 -9 -15 -20z"/>
<path d="M6980 11270 c0 -13 7 -20 20 -20 13 0 20 7 20 20 0 13 -7 20 -20 20
-13 0 -20 -7 -20 -20z"/>
<path d="M980 11255 c0 -8 7 -15 15 -15 8 0 15 7 15 15 0 8 -7 15 -15 15 -8 0
-15 -7 -15 -15z"/>
<path d="M6526 11005 c-3 -8 -15 -15 -26 -15 -11 0 -20 -7 -20 -15 0 -9 9 -15
25 -15 24 0 25 -2 25 -75 0 -60 3 -75 15 -75 12 0 15 15 15 74 0 40 3 88 6
105 6 26 4 31 -14 31 -11 0 -22 -7 -26 -15z"/>
<path d="M6690 11005 c-7 -8 -21 -15 -31 -15 -11 0 -19 -7 -19 -15 0 -9 9 -15
25 -15 24 0 25 -2 25 -75 0 -68 2 -75 20 -75 19 0 20 7 20 105 0 83 -3 105
-14 105 -7 0 -19 -7 -26 -15z"/>
<path d="M6860 11005 c-7 -8 -21 -15 -31 -15 -11 0 -19 -7 -19 -15 0 -9 9 -15
25 -15 24 0 25 -2 25 -75 0 -68 2 -75 20 -75 19 0 20 7 20 105 0 83 -3 105
-14 105 -7 0 -19 -7 -26 -15z"/>
<path d="M7074 10995 c-15 -22 -15 -27 -1 -48 13 -21 13 -25 -4 -45 -14 -19
-16 -28 -8 -50 13 -34 26 -42 70 -42 42 0 69 24 69 62 0 14 -7 31 -15 38 -11
9 -13 16 -5 24 14 14 13 59 -2 74 -7 7 -29 12 -50 12 -29 0 -41 -6 -54 -25z
m76 -10 c18 -21 5 -45 -25 -45 -40 0 -34 54 6 59 4 1 12 -6 19 -14z m10 -90
c14 -17 5 -51 -16 -59 -22 -8 -54 11 -54 32 0 38 46 56 70 27z"/>
<path d="M7239 10999 c-28 -28 -22 -76 13 -102 23 -17 31 -19 53 -9 24 11 26
10 23 -9 -4 -32 -33 -47 -58 -31 -26 16 -40 15 -40 -3 0 -19 35 -37 67 -33 59
7 90 120 50 182 -22 33 -77 36 -108 5z m87 -34 c12 -49 -48 -78 -65 -32 -12
30 4 57 34 57 18 0 26 -7 31 -25z"/>
<path d="M140 10905 c0 -87 3 -105 15 -105 12 0 15 17 16 88 l0 87 33 -85 c19
-49 39 -85 47 -85 8 0 27 36 46 85 l32 85 0 -87 c1 -71 4 -88 16 -88 12 0 15
18 15 105 0 102 -1 105 -23 105 -19 0 -27 -12 -51 -80 -15 -44 -31 -80 -35
-80 -4 0 -20 36 -36 80 -25 68 -32 80 -52 80 -23 0 -23 -2 -23 -105z"/>
<path d="M830 10995 c0 -8 5 -15 10 -15 6 0 10 7 10 15 0 8 -4 15 -10 15 -5 0
-10 -7 -10 -15z"/>
<path d="M419 10941 c-31 -25 -20 -36 16 -17 15 8 34 12 42 9 24 -10 9 -37
-24 -44 -40 -8 -63 -26 -63 -48 0 -26 21 -41 55 -41 17 0 36 5 43 12 9 9 12 9
12 0 0 -7 9 -12 20 -12 11 0 20 5 20 10 0 6 -4 10 -10 10 -6 0 -10 27 -10 60
0 48 -4 61 -19 70 -29 15 -56 12 -82 -9z m75 -94 c-8 -21 -52 -33 -66 -19 -17
17 -2 40 29 44 34 4 46 -3 37 -25z"/>
<path d="M560 10880 c0 -47 4 -80 10 -80 6 0 10 15 10 34 0 48 17 87 40 93 11
3 20 12 20 19 0 18 -10 18 -38 -2 -20 -14 -22 -14 -22 0 0 9 -4 16 -10 16 -6
0 -10 -33 -10 -80z"/>
<path d="M683 10950 c-45 -18 -56 -80 -22 -124 22 -28 66 -35 87 -14 16 16 17
-5 2 -33 -11 -20 -70 -28 -70 -9 0 6 -7 10 -15 10 -21 0 -19 -17 4 -30 30 -16
76 -12 94 8 13 15 17 39 17 110 0 55 -4 92 -10 92 -5 0 -10 -5 -10 -10 0 -7
-6 -7 -19 0 -23 12 -29 12 -58 0z m73 -55 c8 -31 -19 -75 -46 -75 -41 0 -55
79 -18 104 27 19 55 6 64 -29z"/>
<path d="M830 10880 c0 -47 4 -80 10 -80 6 0 10 33 10 80 0 47 -4 80 -10 80
-6 0 -10 -33 -10 -80z"/>
<path d="M890 10880 c0 -47 4 -80 10 -80 6 0 10 18 10 39 0 71 27 109 65 95
11 -5 15 -22 15 -70 0 -50 3 -64 15 -64 24 0 21 111 -4 141 -18 22 -22 23 -53
11 -21 -8 -34 -9 -36 -2 -2 5 -8 10 -13 10 -5 0 -9 -36 -9 -80z"/>
<path d="M1060 10940 c0 -11 7 -20 15 -20 8 0 15 9 15 20 0 11 -7 20 -15 20
-8 0 -15 -9 -15 -20z"/>
<path d="M6980 10830 c0 -13 7 -20 20 -20 13 0 20 7 20 20 0 13 -7 20 -20 20
-13 0 -20 -7 -20 -20z"/>
<path d="M1060 10815 c0 -8 7 -15 15 -15 8 0 15 7 15 15 0 8 -7 15 -15 15 -8
0 -15 -7 -15 -15z"/>
<path d="M6496 10564 c-18 -18 -21 -55 -6 -70 8 -8 6 -15 -5 -24 -21 -17 -19
-56 5 -80 23 -23 77 -27 103 -7 27 21 32 62 9 85 -18 18 -19 22 -6 33 34 28 0
79 -54 79 -17 0 -38 -7 -46 -16z m72 -21 c13 -26 4 -43 -24 -43 -29 0 -41 24
-24 45 17 20 37 19 48 -2z m6 -95 c13 -21 -2 -51 -26 -56 -16 -3 -48 23 -48
38 0 15 32 41 48 38 8 -2 20 -11 26 -20z"/>
<path d="M6657 10562 c-23 -25 -21 -78 3 -102 21 -21 55 -26 65 -10 13 20 23
9 16 -17 -5 -21 -15 -29 -34 -31 -15 -2 -27 1 -27 7 0 6 -9 11 -20 11 -11 0
-20 -4 -20 -8 0 -18 38 -42 67 -42 44 0 66 30 71 98 3 47 0 62 -18 85 -26 33
-78 37 -103 9z m83 -53 c0 -33 -23 -48 -49 -32 -23 14 -26 54 -6 70 27 19 55
-1 55 -38z"/>
<path d="M6825 10550 c-8 -16 -15 -50 -15 -75 0 -68 22 -105 64 -105 51 0 71
29 71 105 0 76 -20 105 -71 105 -27 0 -36 -6 -49 -30z m88 -39 c18 -73 -25
-143 -60 -95 -16 22 -17 88 -2 115 17 32 51 21 62 -20z"/>
<path d="M7074 10555 c-15 -22 -15 -27 -1 -48 13 -21 13 -25 -4 -45 -14 -19
-16 -28 -8 -50 13 -34 26 -42 70 -42 42 0 69 24 69 62 0 14 -7 31 -15 38 -11
9 -13 16 -5 24 14 14 13 59 -2 74 -7 7 -29 12 -50 12 -29 0 -41 -6 -54 -25z
m76 -10 c18 -21 5 -45 -25 -45 -40 0 -34 54 6 59 4 1 12 -6 19 -14z m10 -90
c14 -17 5 -51 -16 -59 -22 -8 -54 11 -54 32 0 38 46 56 70 27z"/>
<path d="M7247 10573 c-3 -5 -8 -29 -12 -56 l-7 -47 48 2 c48 3 49 3 52 -29 4
-44 -28 -63 -58 -33 -21 21 -50 27 -50 10 0 -22 41 -50 73 -50 42 0 70 29 70
70 0 44 -30 73 -69 67 -28 -5 -30 -3 -26 19 4 21 10 24 48 24 32 0 44 4 44 15
0 11 -13 15 -54 15 -30 0 -57 -3 -59 -7z"/>
<path d="M140 10465 c0 -87 3 -105 15 -105 11 0 15 12 15 50 l0 50 50 0 c28 0
50 5 50 10 0 6 -22 10 -50 10 l-50 0 0 35 0 35 55 0 c30 0 55 5 55 10 0 6 -30
10 -70 10 l-70 0 0 -105z"/>
<path d="M810 10465 c0 -87 3 -105 15 -105 12 0 15 17 16 88 l0 87 33 -85 c19
-49 39 -85 47 -85 8 0 27 36 46 85 l32 85 0 -87 c1 -71 4 -88 16 -88 12 0 15
18 15 105 0 102 -1 105 -23 105 -19 0 -27 -12 -51 -80 -15 -44 -31 -80 -35
-80 -4 0 -20 36 -36 80 -25 68 -32 80 -52 80 -23 0 -23 -2 -23 -105z"/>
<path d="M1500 10555 c0 -8 5 -15 10 -15 6 0 10 7 10 15 0 8 -4 15 -10 15 -5
0 -10 -7 -10 -15z"/>
<path d="M310 10440 c0 -47 4 -80 10 -80 6 0 10 15 10 34 0 48 17 87 40 93 11
3 20 12 20 19 0 18 -10 18 -38 -2 -20 -14 -22 -14 -22 0 0 9 -4 16 -10 16 -6
0 -10 -33 -10 -80z"/>
<path d="M426 10499 c-51 -40 -26 -139 35 -139 38 0 69 16 69 35 0 19 -14 19
-30 0 -16 -19 -44 -19 -64 1 -27 27 -18 34 45 34 l61 0 -6 28 c-8 31 -40 62
-66 62 -9 0 -29 -9 -44 -21z m76 -23 c14 -21 8 -26 -32 -26 -28 0 -40 4 -40
15 0 31 53 39 72 11z"/>
<path d="M586 10499 c-51 -40 -26 -139 35 -139 38 0 69 16 69 35 0 19 -14 19
-30 0 -16 -19 -44 -19 -64 1 -27 27 -18 34 45 34 l61 0 -6 28 c-8 31 -40 62
-66 62 -9 0 -29 -9 -44 -21z m76 -23 c14 -21 8 -26 -32 -26 -28 0 -40 4 -40
15 0 31 53 39 72 11z"/>
<path d="M1089 10501 c-31 -25 -20 -36 16 -17 15 8 34 12 42 9 24 -10 9 -37
-24 -44 -40 -8 -63 -26 -63 -48 0 -26 21 -41 55 -41 17 0 36 5 43 12 9 9 12 9
12 0 0 -7 9 -12 20 -12 11 0 20 5 20 10 0 6 -4 10 -10 10 -6 0 -10 27 -10 60
0 48 -4 61 -19 70 -29 15 -56 12 -82 -9z m75 -94 c-8 -21 -52 -33 -66 -19 -17
17 -2 40 29 44 34 4 46 -3 37 -25z"/>
<path d="M1230 10440 c0 -47 4 -80 10 -80 6 0 10 15 10 34 0 48 17 87 40 93
11 3 20 12 20 19 0 18 -10 18 -38 -2 -20 -14 -22 -14 -22 0 0 9 -4 16 -10 16
-6 0 -10 -33 -10 -80z"/>
<path d="M1346 10499 c-51 -40 -25 -139 37 -139 13 0 28 5 35 12 9 9 12 8 12
-8 0 -11 -5 -25 -12 -32 -15 -15 -54 -16 -63 -2 -3 6 -13 10 -22 10 -14 0 -14
-3 2 -20 21 -24 72 -27 100 -6 16 12 20 29 23 95 5 91 -1 119 -21 103 -8 -7
-18 -7 -27 -2 -22 14 -35 12 -64 -11z m80 -35 c16 -63 -32 -108 -68 -64 -23
29 -23 55 1 79 25 25 59 17 67 -15z"/>
<path d="M1500 10440 c0 -47 4 -80 10 -80 6 0 10 33 10 80 0 47 -4 80 -10 80
-6 0 -10 -33 -10 -80z"/>
<path d="M1567 10514 c-4 -4 -7 -40 -7 -81 0 -58 3 -73 15 -73 11 0 15 13 15
53 0 55 6 71 30 79 35 12 50 -10 50 -72 0 -33 4 -60 10 -60 6 0 10 30 10 70 0
65 -2 71 -25 82 -18 8 -32 8 -49 0 -15 -6 -27 -7 -33 -1 -5 5 -12 6 -16 3z"/>
<path d="M1735 10511 c-8 -15 3 -31 21 -31 9 0 14 7 12 17 -4 20 -24 28 -33
14z"/>
<path d="M6980 10390 c0 -13 7 -20 20 -20 13 0 20 7 20 20 0 13 -7 20 -20 20
-13 0 -20 -7 -20 -20z"/>
<path d="M1730 10375 c0 -8 9 -15 20 -15 11 0 20 7 20 15 0 8 -9 15 -20 15
-11 0 -20 -7 -20 -15z"/>
<path d="M1949 10098 c-14 -27 -21 -60 -21 -98 0 -38 7 -71 21 -98 31 -60 41
-51 18 16 -22 65 -19 140 7 191 9 17 12 31 6 31 -5 0 -19 -19 -31 -42z"/>
<path d="M2132 10039 c-76 -104 -93 -135 -74 -128 11 4 150 193 159 216 15 38
-20 2 -85 -88z"/>
<path d="M2290 10137 c0 -2 7 -24 15 -47 19 -54 19 -126 0 -180 -8 -24 -13
-45 -11 -48 10 -9 46 64 52 107 7 49 -16 140 -41 161 -8 7 -15 10 -15 7z"/>
<path d="M6496 10124 c-18 -18 -21 -55 -6 -70 8 -8 6 -15 -5 -24 -21 -17 -19
-56 5 -80 23 -23 77 -27 103 -7 27 21 32 62 9 85 -18 18 -19 22 -6 33 34 28 0
79 -54 79 -17 0 -38 -7 -46 -16z m72 -21 c13 -26 4 -43 -24 -43 -29 0 -41 24
-24 45 17 20 37 19 48 -2z m6 -95 c13 -21 -2 -51 -26 -56 -16 -3 -48 23 -48
38 0 15 32 41 48 38 8 -2 20 -11 26 -20z"/>
<path d="M6657 10122 c-23 -25 -21 -78 3 -102 21 -21 55 -26 65 -10 13 20 23
9 16 -17 -5 -21 -15 -29 -34 -31 -15 -2 -27 1 -27 7 0 6 -9 11 -20 11 -11 0
-20 -4 -20 -8 0 -18 38 -42 67 -42 44 0 66 30 71 98 3 47 0 62 -18 85 -26 33
-78 37 -103 9z m83 -53 c0 -33 -23 -48 -49 -32 -23 14 -26 54 -6 70 27 19 55
-1 55 -38z"/>
<path d="M6831 10114 c-16 -20 -21 -41 -21 -83 0 -75 18 -101 70 -101 44 0 70
26 70 72 0 46 -51 79 -90 58 -23 -12 -27 -1 -10 31 11 20 56 26 62 8 2 -6 12
-10 21 -8 16 4 16 6 2 27 -23 32 -77 30 -104 -4z m81 -99 c8 -19 8 -28 -2 -40
-30 -36 -82 -3 -62 40 7 15 20 25 32 25 12 0 25 -10 32 -25z"/>
<path d="M7110 10125 c-7 -8 -21 -15 -31 -15 -11 0 -19 -7 -19 -15 0 -9 9 -15
25 -15 24 0 25 -2 25 -75 0 -68 2 -75 20 -75 19 0 20 7 20 105 0 83 -3 105
-14 105 -7 0 -19 -7 -26 -15z"/>
<path d="M7246 10124 c-18 -18 -21 -55 -6 -70 8 -8 6 -15 -5 -24 -21 -17 -19
-56 5 -80 23 -23 77 -27 103 -7 27 21 32 62 9 85 -18 18 -19 22 -6 33 34 28 0
79 -54 79 -17 0 -38 -7 -46 -16z m72 -21 c13 -26 4 -43 -24 -43 -29 0 -41 24
-24 45 17 20 37 19 48 -2z m6 -95 c13 -21 -2 -51 -26 -56 -16 -3 -48 23 -48
38 0 15 32 41 48 38 8 -2 20 -11 26 -20z"/>
<path d="M140 10025 c0 -87 3 -105 15 -105 12 0 15 17 16 88 l0 87 33 -85 c19
-49 39 -85 47 -85 8 0 27 36 46 85 l32 85 0 -87 c1 -71 4 -88 16 -88 12 0 15
18 15 105 0 102 -1 105 -23 105 -19 0 -27 -12 -51 -80 -15 -44 -31 -80 -35
-80 -4 0 -20 36 -36 80 -25 68 -32 80 -52 80 -23 0 -23 -2 -23 -105z"/>
<path d="M830 10115 c0 -8 5 -15 10 -15 6 0 10 7 10 15 0 8 -4 15 -10 15 -5 0
-10 -7 -10 -15z"/>
<path d="M1140 10025 l0 -105 75 0 c88 0 102 18 18 22 l-58 3 -3 93 c-2 73 -6
92 -17 92 -12 0 -15 -20 -15 -105z"/>
<path d="M1780 10025 c0 -87 3 -105 15 -105 12 0 15 18 15 105 0 87 -3 105
-15 105 -12 0 -15 -18 -15 -105z"/>
<path d="M2033 10122 c-7 -4 -15 -22 -19 -39 -5 -24 -1 -36 15 -52 26 -26 36
-26 61 -1 48 48 -1 128 -57 92z m52 -32 c7 -23 -12 -63 -28 -57 -7 2 -13 20
-15 40 -3 31 0 37 17 37 11 0 22 -9 26 -20z"/>
<path d="M419 10061 c-31 -25 -20 -36 16 -17 15 8 34 12 42 9 24 -10 9 -37
-24 -44 -40 -8 -63 -26 -63 -48 0 -26 21 -41 55 -41 17 0 36 5 43 12 9 9 12 9
12 0 0 -7 9 -12 20 -12 11 0 20 5 20 10 0 6 -4 10 -10 10 -6 0 -10 27 -10 60
0 48 -4 61 -19 70 -29 15 -56 12 -82 -9z m75 -94 c-8 -21 -52 -33 -66 -19 -17
17 -2 40 29 44 34 4 46 -3 37 -25z"/>
<path d="M560 10000 c0 -47 4 -80 10 -80 6 0 10 15 10 34 0 48 17 87 40 93 11
3 20 12 20 19 0 18 -10 18 -38 -2 -20 -14 -22 -14 -22 0 0 9 -4 16 -10 16 -6
0 -10 -33 -10 -80z"/>
<path d="M683 10070 c-45 -18 -56 -80 -22 -124 22 -28 66 -35 87 -14 16 16 17
-5 2 -33 -11 -20 -70 -28 -70 -9 0 6 -7 10 -15 10 -21 0 -19 -17 4 -30 30 -16
76 -12 94 8 13 15 17 39 17 110 0 55 -4 92 -10 92 -5 0 -10 -5 -10 -10 0 -7
-6 -7 -19 0 -23 12 -29 12 -58 0z m73 -55 c8 -31 -19 -75 -46 -75 -41 0 -55
79 -18 104 27 19 55 6 64 -29z"/>
<path d="M830 10000 c0 -47 4 -80 10 -80 6 0 10 33 10 80 0 47 -4 80 -10 80
-6 0 -10 -33 -10 -80z"/>
<path d="M890 10000 c0 -47 4 -80 10 -80 6 0 10 18 10 39 0 71 27 109 65 95
11 -5 15 -22 15 -70 0 -50 3 -64 15 -64 24 0 21 111 -4 141 -18 22 -22 23 -53
11 -21 -8 -34 -9 -36 -2 -2 5 -8 10 -13 10 -5 0 -9 -36 -9 -80z"/>
<path d="M1326 10059 c-51 -40 -26 -139 35 -139 38 0 69 16 69 35 0 19 -14 19
-30 0 -16 -19 -44 -19 -64 1 -27 27 -18 34 45 34 l61 0 -6 28 c-8 31 -40 62
-66 62 -9 0 -29 -9 -44 -21z m76 -23 c14 -21 8 -26 -32 -26 -28 0 -40 4 -40
15 0 31 53 39 72 11z"/>
<path d="M1460 10071 c0 -26 54 -151 65 -151 8 0 23 25 34 55 29 76 35 105 23
105 -6 0 -20 -30 -33 -67 l-22 -68 -22 64 c-12 36 -27 67 -33 69 -7 2 -12 -1
-12 -7z"/>
<path d="M1650 10067 c-16 -8 -28 -26 -34 -50 -13 -49 15 -90 63 -95 31 -3 71
19 71 40 0 14 -28 9 -34 -7 -11 -30 -76 -12 -76 22 0 9 17 13 55 13 51 0 55 2
55 23 0 26 -38 67 -61 67 -8 0 -25 -6 -39 -13z m70 -42 c0 -11 -12 -15 -40
-15 -40 0 -46 5 -32 26 18 27 72 19 72 -11z"/>
<path d="M2390 10060 c0 -11 7 -20 15 -20 8 0 15 9 15 20 0 11 -7 20 -15 20
-8 0 -15 -9 -15 -20z"/>
<path d="M2180 10020 c-38 -38 -19 -100 31 -100 22 0 32 6 39 26 6 14 10 32
10 40 0 16 -35 54 -50 54 -5 0 -19 -9 -30 -20z m45 -45 c0 -45 -20 -57 -36
-22 -8 18 -8 30 1 46 17 32 35 20 35 -24z"/>
<path d="M6980 9950 c0 -13 7 -20 20 -20 13 0 20 7 20 20 0 13 -7 20 -20 20
-13 0 -20 -7 -20 -20z"/>
<path d="M2390 9935 c0 -8 7 -15 15 -15 8 0 15 7 15 15 0 8 -7 15 -15 15 -8 0
-15 -7 -15 -15z"/>
<path d="M560 9570 c0 -13 7 -20 20 -20 13 0 20 7 20 20 0 13 -7 20 -20 20
-13 0 -20 -7 -20 -20z"/>
<path d="M720 9570 c0 -13 7 -20 20 -20 13 0 20 7 20 20 0 13 -7 20 -20 20
-13 0 -20 -7 -20 -20z"/>
<path d="M130 9475 l0 -105 25 0 c23 0 25 4 25 45 0 43 1 45 28 45 35 0 62 27
62 62 0 39 -29 58 -88 58 l-52 0 0 -105z m92 58 c7 -27 -2 -43 -23 -43 -14 0
-19 7 -19 30 0 23 5 30 19 30 10 0 21 -8 23 -17z"/>
<path d="M640 9555 c0 -14 -4 -25 -10 -25 -5 0 -10 -7 -10 -15 0 -8 4 -15 10
-15 5 0 10 -28 12 -62 3 -60 4 -63 31 -66 19 -2 27 1 27 12 0 9 -4 16 -10 16
-5 0 -10 23 -10 50 0 28 5 50 10 50 6 0 10 7 10 15 0 8 -4 15 -10 15 -5 0 -10
11 -10 25 0 18 -5 25 -20 25 -15 0 -20 -7 -20 -25z"/>
<path d="M320 9528 c-33 -12 -40 -25 -40 -80 0 -56 18 -78 65 -78 42 0 58 25
57 88 -1 64 -30 89 -82 70z m40 -79 c0 -43 -3 -50 -17 -47 -22 4 -30 72 -13
94 20 23 30 6 30 -47z"/>
<path d="M448 9526 c-14 -7 -24 -22 -26 -38 -3 -23 3 -30 38 -48 22 -11 38
-25 35 -30 -8 -13 -35 -13 -35 0 0 6 -9 10 -20 10 -11 0 -20 -6 -20 -13 0 -42
80 -52 105 -13 20 31 10 54 -31 71 -33 14 -43 28 -25 39 5 3 14 -1 21 -9 19
-23 42 -19 38 7 -4 27 -47 40 -80 24z"/>
<path d="M830 9528 c-33 -12 -40 -25 -40 -80 0 -56 18 -78 65 -78 42 0 58 25
57 88 -1 64 -30 89 -82 70z m40 -79 c0 -43 -3 -50 -17 -47 -22 4 -30 72 -13
94 20 23 30 6 30 -47z"/>
<path d="M1000 9530 c-8 -5 -27 -6 -42 -3 l-28 6 0 -82 c0 -80 0 -81 25 -81
24 0 25 2 25 65 0 51 3 65 15 65 12 0 15 -14 15 -65 0 -63 1 -65 25 -65 24 0
25 3 25 61 0 82 -24 121 -60 99z"/>
<path d="M1108 9526 c-14 -7 -24 -22 -26 -38 -3 -23 3 -30 38 -48 22 -11 38
-25 35 -30 -8 -13 -35 -13 -35 0 0 6 -9 10 -20 10 -11 0 -20 -6 -20 -13 0 -42
80 -52 105 -13 20 31 10 54 -31 71 -33 14 -43 28 -25 39 5 3 14 -1 21 -9 19
-23 42 -19 38 7 -4 27 -47 40 -80 24z"/>
<path d="M560 9450 c0 -73 2 -80 20 -80 18 0 20 7 20 80 0 73 -2 80 -20 80
-18 0 -20 -7 -20 -80z"/>
<path d="M720 9450 c0 -73 2 -80 20 -80 18 0 20 7 20 80 0 73 -2 80 -20 80
-18 0 -20 -7 -20 -80z"/>
<path d="M1330 8920 c0 -100 3 -120 15 -120 8 0 15 5 15 10 0 6 8 5 20 -2 28
-18 53 0 64 46 16 62 -18 119 -60 101 -15 -6 -16 -8 -4 -12 39 -13 53 -72 26
-108 -12 -17 -16 -17 -31 -5 -12 10 -16 27 -14 59 4 105 -1 151 -16 151 -12 0
-15 -20 -15 -120z"/>
<path d="M130 9025 c0 -3 11 -28 25 -55 l25 -50 -30 -60 c-29 -57 -29 -60 -10
-60 15 0 26 12 40 41 l18 42 21 -42 c20 -38 25 -41 61 -41 34 0 41 4 46 25 5
19 13 25 35 25 22 0 30 -6 35 -25 4 -16 13 -25 26 -25 22 0 22 -1 -15 141 -20
76 -24 84 -46 84 -23 0 -27 -7 -48 -95 -34 -135 -31 -132 -64 -67 l-29 57 26
51 c14 28 23 53 20 56 -11 12 -38 -9 -47 -37 -14 -39 -25 -38 -39 5 -8 24 -18
35 -31 35 -10 0 -19 -2 -19 -5z m244 -86 c10 -50 7 -59 -15 -59 -19 0 -21 4
-15 31 3 17 6 38 6 45 0 27 18 14 24 -17z"/>
<path d="M453 9014 c-10 -26 4 -174 18 -190 20 -24 51 -32 81 -22 36 13 50 61
46 153 -2 57 -6 70 -20 73 -16 3 -18 -6 -18 -78 0 -84 -10 -120 -35 -120 -25
0 -35 36 -35 119 0 66 -3 81 -15 81 -9 0 -18 -7 -22 -16z"/>
<path d="M633 9014 c-10 -26 4 -174 18 -190 20 -24 51 -32 81 -22 36 13 50 61
46 153 -2 57 -6 70 -20 73 -16 3 -18 -6 -18 -78 0 -84 -10 -120 -35 -120 -25
0 -35 36 -35 119 0 66 -3 81 -15 81 -9 0 -18 -7 -22 -16z"/>
<path d="M837 9012 c-30 -32 -22 -77 18 -108 48 -36 45 -69 -4 -69 -43 0 -52
-22 -14 -32 53 -14 93 11 93 59 0 27 -9 40 -60 78 -21 15 -23 22 -14 37 7 11
21 17 37 15 29 -3 46 16 26 29 -23 15 -65 10 -82 -9z"/>
<path d="M967 9023 c-4 -3 -7 -55 -7 -115 l0 -108 45 0 c80 0 120 68 95 159
-9 34 -18 45 -45 57 -36 15 -77 18 -88 7z m87 -55 c34 -48 8 -138 -39 -138
-12 0 -15 16 -15 80 0 73 2 80 19 80 11 0 27 -10 35 -22z"/>
<path d="M1871 9011 c-37 -37 -40 -154 -4 -193 37 -42 87 -11 99 59 12 78 -18
153 -61 153 -8 0 -24 -9 -34 -19z m59 -37 c21 -54 5 -144 -25 -144 -9 0 -20
12 -25 26 -21 54 -5 144 25 144 9 0 20 -12 25 -26z"/>
<path d="M2111 9011 c-37 -37 -40 -154 -4 -193 37 -42 87 -11 99 59 12 78 -18
153 -61 153 -8 0 -24 -9 -34 -19z m59 -37 c21 -54 5 -144 -25 -144 -9 0 -20
12 -25 26 -21 54 -5 144 25 144 9 0 20 -12 25 -26z"/>
<path d="M2260 8966 c0 -49 2 -54 20 -49 28 7 50 -14 50 -49 0 -33 -23 -47
-51 -30 -24 16 -29 15 -29 -3 0 -17 30 -35 58 -35 29 0 52 32 52 73 0 42 -21
67 -56 67 -22 0 -25 4 -22 28 3 23 8 27 41 30 55 5 45 22 -13 22 l-50 0 0 -54z"/>
<path d="M1140 8945 c0 -9 10 -15 26 -15 l25 0 -30 -54 c-17 -29 -31 -59 -31
-65 0 -7 20 -11 50 -11 38 0 50 4 50 15 0 10 -10 15 -30 15 l-30 0 30 49 c43
69 40 81 -15 81 -33 0 -45 -4 -45 -15z"/>
<path d="M1490 8891 c0 -72 12 -96 46 -89 23 4 30 26 7 24 -15 -1 -18 9 -21
67 -2 51 -6 67 -17 67 -12 0 -15 -15 -15 -69z"/>
<path d="M1568 8896 c-4 -78 -1 -96 18 -96 11 0 14 17 14 80 0 62 -3 80 -14
80 -11 0 -15 -17 -18 -64z"/>
<path d="M1656 8878 c19 -63 22 -88 15 -105 -6 -13 -15 -23 -21 -23 -5 0 -10
-4 -10 -10 0 -15 36 -12 48 3 10 12 62 189 62 210 0 4 -6 7 -13 7 -8 0 -18
-25 -27 -62 l-13 -63 -14 50 c-21 75 -21 75 -37 75 -11 0 -9 -16 10 -82z"/>
<path d="M6216 8828 c-3 -13 -6 -48 -6 -79 l0 -56 42 1 c35 1 44 -3 57 -26 12
-20 13 -34 5 -55 -11 -34 -51 -44 -71 -17 -10 13 -17 15 -35 7 l-22 -10 26
-26 c29 -29 81 -36 109 -14 68 52 42 177 -37 177 -33 0 -34 1 -34 40 l0 40 50
0 c43 0 50 3 50 20 0 18 -7 20 -64 20 -58 0 -64 -2 -70 -22z"/>
<path d="M6456 8817 c-32 -28 -36 -35 -24 -45 12 -9 19 -9 34 3 10 8 22 15 27
15 4 0 7 -56 7 -125 0 -118 1 -125 20 -125 19 0 20 7 20 155 0 154 0 155 -22
155 -13 0 -40 -15 -62 -33z"/>
<path d="M6640 8830 c0 -18 7 -20 55 -20 30 0 55 -2 55 -4 0 -3 -20 -60 -45
-127 -25 -67 -45 -126 -45 -131 0 -5 10 -8 22 -6 18 2 30 25 70 138 26 74 48
143 48 152 0 16 -10 18 -80 18 -73 0 -80 -2 -80 -20z"/>
<path d="M6990 8830 c-26 -26 -26 -60 -1 -60 10 0 21 9 24 21 4 16 12 20 34
17 24 -3 28 -8 31 -38 2 -29 -7 -47 -53 -107 -33 -44 -55 -83 -55 -98 0 -25 1
-25 80 -25 73 0 80 2 80 20 0 18 -7 20 -55 20 -56 0 -67 8 -40 30 31 26 95
133 95 160 0 15 -9 39 -21 54 -26 33 -88 37 -119 6z"/>
<path d="M7206 8828 c-3 -13 -6 -48 -6 -79 l0 -56 42 1 c35 1 44 -3 57 -26 12
-20 13 -34 5 -55 -11 -34 -51 -44 -71 -17 -10 13 -17 15 -35 7 l-22 -10 26
-26 c29 -29 81 -36 109 -14 68 52 42 177 -37 177 -33 0 -34 1 -34 40 l0 40 50
0 c43 0 50 3 50 20 0 18 -7 20 -64 20 -58 0 -64 -2 -70 -22z"/>
<path d="M2012 8824 c4 -21 22 -23 26 -1 2 10 -3 17 -13 17 -10 0 -15 -6 -13
-16z"/>
<path d="M6864 8585 c-9 -23 4 -47 23 -43 22 4 30 38 11 49 -19 13 -28 11 -34
-6z"/>
<path d="M157 8552 c-17 -19 -23 -52 -9 -52 4 0 12 10 17 23 12 27 56 35 74
13 20 -24 5 -62 -32 -85 -41 -25 -62 -49 -71 -78 -7 -22 -5 -23 63 -23 41 0
71 4 71 10 0 6 -25 10 -55 10 -30 0 -55 4 -55 9 0 5 14 20 30 33 79 60 81 63
82 97 1 22 -5 39 -17 47 -27 20 -79 17 -98 -4z"/>
<path d="M357 8502 c-26 -38 -47 -74 -47 -80 0 -6 21 -12 48 -14 43 -3 47 -5
50 -30 4 -38 22 -36 22 2 0 22 5 30 18 30 16 1 16 1 0 14 -14 10 -18 28 -18
80 0 86 -13 86 -73 -2z m53 -22 l0 -50 -41 0 -41 0 16 25 c9 14 23 36 32 50
24 38 34 30 34 -25z"/>
<path d="M510 8538 c-27 -42 -24 -136 5 -168 27 -30 78 -27 104 6 54 68 -13
145 -90 103 -18 -9 -19 -8 -13 18 4 15 11 34 17 41 14 18 58 15 73 -5 16 -22
32 -8 18 15 -7 10 -27 18 -52 20 -38 3 -44 0 -62 -30z m88 -80 c15 -15 15 -61
0 -76 -7 -7 -21 -12 -33 -12 -28 0 -45 19 -45 50 0 31 17 50 45 50 12 0 26 -5
33 -12z"/>
<path d="M670 8560 c0 -5 25 -10 55 -10 51 0 69 -10 45 -25 -17 -10 -58 -98
-66 -139 -11 -60 16 -41 33 23 7 29 27 73 43 98 17 24 30 48 30 54 0 5 -31 9
-70 9 -40 0 -70 -4 -70 -10z"/>
<path d="M954 8545 c-15 -23 -15 -27 -1 -49 14 -21 14 -26 2 -36 -23 -19 -19
-76 7 -94 51 -36 118 -8 118 49 0 22 -6 38 -17 44 -15 8 -16 12 -5 22 15 16
16 61 0 77 -7 7 -29 12 -50 12 -29 0 -41 -6 -54 -25z m93 -11 c9 -24 -10 -49
-37 -49 -27 0 -46 25 -37 49 4 10 18 16 37 16 19 0 33 -6 37 -16z m-3 -93 c23
-26 13 -59 -21 -67 -49 -13 -82 36 -48 70 22 21 48 20 69 -3z"/>
<path d="M1130 8538 c-27 -42 -24 -136 5 -168 27 -30 78 -27 104 6 54 68 -13
145 -90 103 -18 -9 -19 -8 -13 18 4 15 11 34 17 41 14 18 58 15 73 -5 16 -22
32 -8 18 15 -7 10 -27 18 -52 20 -38 3 -44 0 -62 -30z m88 -80 c15 -15 15 -61
0 -76 -7 -7 -21 -12 -33 -12 -28 0 -45 19 -45 50 0 31 17 50 45 50 12 0 26 -5
33 -12z"/>
<path d="M1306 8548 c-47 -67 27 -155 86 -101 17 15 18 15 18 -8 0 -55 -50
-87 -84 -54 -18 19 -26 19 -26 0 0 -19 35 -37 67 -33 40 5 64 46 66 110 2 76
-20 108 -73 108 -29 0 -43 -6 -54 -22z m98 -30 c8 -22 6 -32 -9 -48 -25 -27
-51 -25 -71 5 -14 21 -15 31 -5 51 9 21 17 25 43 22 25 -2 35 -9 42 -30z"/>
<path d="M1987 8552 c-17 -19 -23 -52 -9 -52 4 0 12 10 17 23 12 27 56 35 74
13 20 -24 5 -62 -32 -85 -41 -25 -62 -49 -71 -78 -7 -22 -5 -23 63 -23 41 0
71 4 71 10 0 6 -25 10 -55 10 -30 0 -55 4 -55 9 0 5 14 20 30 33 79 60 81 63
82 97 1 22 -5 39 -17 47 -27 20 -79 17 -98 -4z"/>
<path d="M2190 8498 c-27 -39 -50 -75 -50 -79 0 -4 21 -9 48 -11 43 -3 47 -5
50 -30 4 -35 22 -37 22 -3 0 14 7 28 15 31 8 4 15 10 15 15 0 5 -7 9 -15 9
-12 0 -15 14 -15 70 0 39 -4 70 -10 70 -5 0 -32 -32 -60 -72z m50 -18 l0 -50
-35 0 c-19 0 -35 3 -35 6 0 8 60 94 65 94 3 0 5 -22 5 -50z"/>
<path d="M2320 8560 c0 -6 27 -10 61 -10 l60 0 -19 -27 c-48 -69 -82 -173 -57
-173 7 0 16 17 20 37 7 39 35 101 66 145 11 14 19 29 19 32 0 3 -34 6 -75 6
-43 0 -75 -4 -75 -10z"/>
<path d="M2523 8558 c-19 -24 -23 -48 -9 -48 8 0 16 9 19 21 4 16 12 20 39 17
28 -2 33 -7 33 -28 0 -16 -8 -28 -22 -35 -30 -13 -29 -18 7 -32 53 -20 36 -83
-22 -83 -21 0 -32 7 -40 25 -13 30 -28 33 -28 6 0 -25 36 -51 71 -51 58 0 94
69 56 107 -13 14 -14 19 -2 37 12 17 12 26 2 46 -10 20 -21 26 -53 28 -25 2
-45 -2 -51 -10z"/>
<path d="M2781 8519 c-6 -29 -9 -54 -7 -57 3 -2 19 1 35 7 53 22 92 -20 67
-71 -16 -31 -61 -36 -78 -9 -19 30 -43 28 -27 -1 16 -31 28 -38 65 -38 19 0
39 9 52 23 46 49 14 122 -52 120 -34 -1 -37 1 -34 25 3 25 7 27 51 30 65 4 60
22 -7 22 l-54 0 -11 -51z"/>
<path d="M2950 8560 c0 -5 25 -10 55 -10 51 0 69 -10 45 -25 -17 -10 -58 -98
-66 -139 -11 -60 16 -41 33 23 7 29 27 73 43 98 17 24 30 48 30 54 0 5 -31 9
-70 9 -40 0 -70 -4 -70 -10z"/>
<path d="M3181 8550 c-13 -11 -30 -20 -38 -20 -8 0 -11 -4 -8 -10 3 -5 17 -10
31 -10 23 0 24 -2 24 -80 0 -64 3 -80 15 -80 12 0 15 19 15 110 0 61 -3 110
-7 110 -5 -1 -19 -10 -32 -20z"/>
<path d="M1788 8507 c12 -13 22 -26 22 -30 0 -3 -60 -8 -132 -10 l-133 -3 133
-2 c72 -1 132 -6 132 -10 0 -5 -9 -17 -20 -27 -11 -10 -18 -21 -15 -23 3 -3
21 10 40 28 l35 34 -32 33 c-18 18 -36 33 -42 33 -5 0 0 -10 12 -23z"/>
<path d="M860 8365 c0 -8 7 -15 15 -15 8 0 15 7 15 15 0 8 -7 15 -15 15 -8 0
-15 -7 -15 -15z"/>
<path d="M2690 8365 c0 -8 7 -15 15 -15 8 0 15 7 15 15 0 8 -7 15 -15 15 -8 0
-15 -7 -15 -15z"/>
<path d="M3567 797 c-16 -11 -17 -32 -15 -197 l3 -185 185 -3 c165 -2 186 -1
197 15 9 12 13 65 13 180 0 216 13 203 -203 203 -115 0 -168 -4 -180 -13z
m343 -192 l0 -165 -165 0 -165 0 0 165 0 165 165 0 165 0 0 -165z"/>
<path d="M3825 635 c-20 -36 -40 -65 -43 -65 -3 0 -23 16 -43 36 l-36 35 -47
-54 c-25 -30 -46 -57 -46 -61 0 -18 29 -1 61 37 l37 42 40 -39 41 -39 34 54
c58 91 69 119 47 119 -5 0 -25 -29 -45 -65z"/>
<path d="M5218 800 c-20 -4 -53 -17 -72 -30 -38 -27 -86 -94 -86 -122 0 -9 -7
-21 -15 -26 -14 -7 -13 -11 5 -27 19 -18 21 -18 40 0 14 13 17 21 9 26 -33 20
37 120 98 140 46 15 118 6 151 -18 52 -39 67 -70 67 -138 0 -69 -15 -99 -69
-139 -40 -31 -143 -30 -185 1 -36 27 -54 12 -23 -19 48 -49 161 -51 228 -6
175 119 62 393 -148 358z"/>
<path d="M6707 803 c-2 -4 -7 -20 -11 -35 -8 -35 -39 -53 -65 -38 -31 16 -39
12 -61 -29 l-19 -39 24 -16 c15 -10 25 -26 25 -41 0 -15 -10 -31 -25 -41 l-24
-16 19 -39 c22 -41 30 -45 61 -29 27 15 57 -4 67 -43 8 -29 12 -32 47 -32 35
0 39 3 47 32 10 39 40 58 67 43 30 -16 37 -13 61 27 l22 37 -26 19 c-15 11
-26 28 -26 42 0 14 11 31 26 42 l26 19 -22 37 c-24 40 -31 43 -61 27 -27 -15
-57 4 -67 43 -7 28 -13 32 -44 35 -20 2 -38 -1 -41 -5z m63 -55 c0 -31 51 -59
90 -51 25 5 30 2 30 -15 0 -11 -7 -25 -15 -32 -8 -7 -15 -27 -15 -45 0 -18 7
-38 15 -45 8 -7 15 -21 15 -32 0 -17 -5 -20 -30 -15 -39 8 -90 -20 -90 -50 0
-18 -6 -23 -25 -23 -19 0 -25 5 -25 23 0 30 -51 58 -90 50 -25 -5 -30 -2 -30
15 0 11 7 25 15 32 8 7 15 27 15 45 0 18 -7 38 -15 45 -8 7 -15 21 -15 32 0
17 5 20 30 15 39 -8 90 20 90 51 0 17 6 22 25 22 19 0 25 -5 25 -22z"/>
<path d="M6695 655 c-14 -13 -25 -36 -25 -50 0 -33 42 -75 75 -75 33 0 75 42
75 75 0 33 -42 75 -75 75 -14 0 -37 -11 -50 -25z m83 -17 c28 -28 7 -78 -33
-78 -27 0 -45 18 -45 45 0 27 18 45 45 45 12 0 26 -5 33 -12z"/>
<path d="M2160 729 c0 -52 -3 -62 -20 -66 -18 -5 -20 -14 -20 -88 0 -74 2 -83
20 -88 15 -4 20 -14 20 -36 0 -21 5 -31 15 -31 10 0 15 10 15 31 0 22 5 32 20
36 18 5 20 14 20 89 0 77 -2 84 -20 84 -18 0 -20 7 -20 65 0 51 -3 65 -15 65
-12 0 -15 -13 -15 -61z"/>
<path d="M2320 759 c0 -22 -5 -32 -20 -36 -18 -5 -20 -14 -20 -99 0 -87 1 -94
20 -94 16 0 20 -7 20 -30 0 -20 5 -30 15 -30 9 0 15 10 15 26 0 17 6 28 20 31
18 5 20 14 20 98 0 84 -2 93 -20 98 -15 4 -20 14 -20 36 0 21 -5 31 -15 31
-10 0 -15 -10 -15 -31z m40 -134 c0 -63 -1 -65 -25 -65 -24 0 -25 2 -25 65 0
63 1 65 25 65 24 0 25 -2 25 -65z"/>
<path d="M806 730 c-49 -53 -55 -92 -7 -46 15 14 30 26 34 26 3 0 8 -39 9 -87
2 -58 7 -88 16 -91 9 -3 12 19 12 87 0 50 4 91 8 91 5 0 19 -11 32 -25 25 -27
40 -32 40 -14 0 12 -80 109 -90 109 -4 0 -28 -23 -54 -50z"/>
<path d="M5240 642 c0 -54 2 -60 40 -97 27 -26 43 -36 50 -29 7 7 -2 21 -25
44 -31 30 -35 39 -35 87 0 40 -4 53 -15 53 -12 0 -15 -13 -15 -58z"/>
<path d="M640 591 c0 -50 -4 -91 -8 -91 -5 0 -19 11 -32 25 -13 14 -27 25 -32
25 -18 0 -5 -28 37 -75 l45 -50 51 52 c27 29 47 58 44 64 -5 7 -17 1 -34 -15
-15 -14 -30 -26 -34 -26 -3 0 -8 39 -9 87 -2 58 -7 88 -15 91 -10 3 -13 -19
-13 -87z"/>
<path d="M2130 155 c0 -43 4 -75 10 -75 6 0 10 18 10 40 0 28 5 43 16 47 21 8
34 -13 34 -54 0 -18 5 -33 10 -33 6 0 10 20 10 45 0 49 -21 71 -52 54 -15 -8
-18 -5 -18 21 0 16 -4 30 -10 30 -6 0 -10 -32 -10 -75z"/>
<path d="M5040 220 c0 -5 5 -10 10 -10 6 0 10 5 10 10 0 6 -4 10 -10 10 -5 0
-10 -4 -10 -10z"/>
<path d="M6760 220 c0 -5 5 -10 10 -10 6 0 10 5 10 10 0 6 -4 10 -10 10 -5 0
-10 -4 -10 -10z"/>
<path d="M415 200 c-24 -26 -23 -76 1 -99 24 -23 95 -36 88 -16 -3 7 -1 16 5
20 18 11 13 80 -7 98 -25 23 -65 21 -87 -3z m75 -19 c16 -30 12 -52 -10 -58
-11 -3 -17 -9 -14 -14 8 -13 -20 -11 -34 3 -7 7 -12 24 -12 38 0 48 49 69 70
31z"/>
<path d="M1995 200 c-54 -60 16 -153 81 -106 25 19 12 31 -15 14 -30 -19 -56
0 -56 42 0 42 26 61 56 42 27 -17 40 -5 15 14 -28 20 -60 17 -81 -6z"/>
<path d="M3460 211 c0 -5 10 -11 23 -13 19 -3 22 -10 25 -60 4 -77 22 -75 22
2 0 53 2 60 20 60 11 0 20 5 20 10 0 6 -25 10 -55 10 -30 0 -55 -4 -55 -9z"/>
<path d="M3870 197 c0 -20 -4 -23 -30 -19 -24 3 -32 0 -41 -21 -10 -22 -9 -31
5 -52 18 -27 35 -32 54 -13 9 9 12 9 12 0 0 -7 5 -12 10 -12 6 0 10 30 10 70
0 40 -4 70 -10 70 -5 0 -10 -10 -10 -23z m-2 -60 c4 -34 -25 -49 -44 -22 -10
13 -10 23 -3 37 15 27 43 18 47 -15z"/>
<path d="M4890 150 c0 -40 4 -70 10 -70 6 0 10 14 10 30 0 28 3 30 35 30 32 0
35 -2 35 -30 0 -20 5 -30 15 -30 12 0 15 14 15 70 0 56 -3 70 -15 70 -10 0
-15 -10 -15 -30 0 -28 -3 -30 -35 -30 -32 0 -35 2 -35 30 0 17 -4 30 -10 30
-6 0 -10 -30 -10 -70z"/>
<path d="M6342 208 c-24 -24 -14 -49 28 -65 22 -9 39 -21 37 -27 -5 -14 -57
-20 -57 -7 0 6 -4 11 -10 11 -16 0 -11 -27 6 -34 44 -17 84 1 84 37 0 12 -13
24 -40 34 -47 19 -47 39 -1 36 20 0 31 3 28 10 -5 17 -60 20 -75 5z"/>
<path d="M813 190 c-8 -12 -9 -21 -3 -25 6 -3 10 -22 10 -41 0 -34 22 -56 38
-39 4 4 1 10 -5 12 -17 6 -17 70 0 76 10 4 10 6 0 6 -7 1 -13 8 -13 16 0 21
-13 19 -27 -5z"/>
<path d="M2473 190 c-8 -12 -9 -21 -3 -25 6 -3 10 -22 10 -41 0 -34 22 -56 38
-39 4 4 1 10 -5 12 -7 3 -13 20 -13 38 0 18 6 36 13 38 10 4 10 6 0 6 -7 1
-13 8 -13 16 0 21 -13 19 -27 -5z"/>
<path d="M5223 190 c-8 -12 -9 -21 -3 -25 6 -3 10 -22 10 -41 0 -34 22 -56 38
-39 4 4 1 10 -5 12 -7 3 -13 20 -13 38 0 18 6 36 13 38 10 4 10 6 0 6 -7 1
-13 8 -13 16 0 21 -13 19 -27 -5z"/>
<path d="M6590 196 c0 -8 -6 -17 -12 -19 -10 -4 -10 -6 0 -6 7 -1 12 -16 12
-40 0 -27 5 -41 16 -45 22 -8 31 1 16 16 -15 15 -16 68 -2 68 6 0 5 8 -2 20
-15 23 -28 26 -28 6z"/>
<path d="M6680 196 c0 -8 -6 -17 -12 -19 -10 -4 -10 -6 0 -6 7 -1 12 -16 12
-40 0 -27 5 -41 16 -45 22 -8 31 1 16 16 -15 15 -16 68 -2 68 6 0 5 8 -2 20
-15 23 -28 26 -28 6z"/>
<path d="M701 173 c-30 -20 -28 -70 3 -84 44 -20 83 20 65 67 -10 28 -42 36
-68 17z m44 -38 c0 -23 -4 -30 -20 -30 -21 0 -31 25 -21 51 11 28 41 12 41
-21z"/>
<path d="M918 182 c-19 -4 -32 -38 -26 -69 5 -27 54 -41 74 -21 15 15 14 16
-16 15 -19 -1 -35 3 -37 11 -3 8 7 12 32 12 32 0 36 3 33 21 -3 23 -32 38 -60
31z m40 -29 c2 -8 -6 -13 -22 -13 -25 0 -33 10 -19 24 10 10 36 3 41 -11z"/>
<path d="M1038 183 c-30 -8 -22 -43 12 -54 43 -16 38 -33 -7 -24 -33 6 -35 5
-24 -9 16 -19 52 -21 69 -4 20 20 14 35 -18 47 -41 14 -39 34 3 26 30 -6 31
-5 13 10 -11 8 -22 14 -25 14 -3 -1 -14 -3 -23 -6z"/>
<path d="M2273 179 c-33 -12 -28 -22 7 -14 23 5 30 3 30 -9 0 -9 -11 -16 -27
-18 -22 -2 -28 -8 -28 -28 0 -22 4 -25 43 -27 l42 -1 0 36 c0 56 -24 77 -67
61z m37 -64 c0 -8 -9 -15 -20 -15 -20 0 -26 11 -13 23 12 13 33 7 33 -8z"/>
<path d="M2415 180 c-4 -6 -15 -8 -26 -5 -17 6 -19 1 -19 -44 0 -28 5 -51 10
-51 6 0 10 14 10 30 0 17 9 39 21 51 11 11 18 23 16 25 -3 3 -8 0 -12 -6z"/>
<path d="M3631 181 c-8 -5 -20 -7 -28 -4 -10 4 -13 -7 -13 -46 0 -28 5 -51 10
-51 6 0 10 18 10 41 0 32 4 42 20 46 11 3 20 9 20 14 0 11 -1 11 -19 0z"/>
<path d="M3693 175 c-17 -13 -16 -14 11 -12 16 1 31 -4 33 -10 3 -8 -5 -13
-20 -13 -13 0 -30 -7 -37 -16 -11 -12 -10 -18 4 -32 13 -14 20 -14 36 -4 12 7
20 8 20 2 0 -5 5 -10 11 -10 6 0 9 19 7 46 -2 37 -7 48 -25 55 -13 5 -28 3
-40 -6z m47 -54 c0 -6 -5 -13 -10 -16 -15 -9 -43 3 -35 15 8 13 45 13 45 1z"/>
<path d="M5118 179 c-27 -15 -21 -39 12 -50 17 -6 30 -16 30 -21 0 -6 -12 -8
-30 -4 -31 6 -42 -7 -14 -18 25 -10 42 -7 59 10 19 19 6 41 -27 46 -12 2 -24
9 -26 17 -4 11 3 13 29 8 32 -6 33 -6 15 8 -23 17 -25 18 -48 4z"/>
<path d="M5321 173 c-30 -20 -28 -70 3 -84 44 -20 83 20 65 67 -10 28 -42 36
-68 17z m44 -38 c0 -23 -4 -30 -20 -30 -21 0 -31 25 -21 51 11 28 41 12 41
-21z"/>
<path d="M5471 181 c-8 -5 -20 -7 -28 -4 -10 4 -13 -7 -13 -46 0 -28 5 -51 10
-51 6 0 10 18 10 39 0 31 4 41 20 46 11 3 20 11 20 16 0 11 -1 11 -19 0z"/>
<path d="M6488 182 c-19 -4 -32 -38 -26 -69 5 -27 54 -41 74 -21 15 15 14 16
-16 15 -19 -1 -35 3 -37 11 -3 8 7 12 32 12 32 0 36 3 33 21 -3 23 -32 38 -60
31z m40 -29 c2 -8 -6 -13 -22 -13 -25 0 -33 10 -19 24 10 10 36 3 41 -11z"/>
<path d="M6860 180 c-7 -4 -19 -6 -27 -3 -10 4 -13 -7 -13 -46 0 -28 5 -51 10
-51 6 0 10 18 10 40 0 28 5 43 16 47 21 8 34 -13 34 -54 0 -18 5 -33 10 -33 6
0 10 20 10 45 0 47 -22 72 -50 55z"/>
<path d="M6957 179 c-21 -12 -23 -62 -2 -79 8 -7 24 -10 36 -7 15 4 19 1 17
-11 -3 -13 -13 -16 -37 -14 -20 1 -30 -2 -26 -8 3 -5 22 -10 40 -10 42 0 55
20 55 86 0 40 -2 46 -19 41 -10 -2 -25 -1 -32 4 -8 4 -22 3 -32 -2z m51 -38
c4 -28 -17 -45 -35 -29 -14 11 -17 40 -6 52 14 14 38 0 41 -23z"/>
<path d="M7088 179 c-27 -15 -21 -39 12 -50 17 -6 30 -16 30 -21 0 -6 -12 -8
-30 -4 -31 6 -42 -7 -14 -18 25 -10 42 -7 59 10 19 19 6 41 -27 46 -12 2 -24
9 -26 17 -4 11 3 13 29 8 32 -6 33 -6 15 8 -23 17 -25 18 -48 4z"/>
<path d="M550 141 c0 -48 22 -71 51 -53 11 7 19 8 19 2 0 -5 5 -10 10 -10 6 0
10 23 10 50 0 28 -4 50 -10 50 -5 0 -10 -16 -10 -35 0 -23 -6 -38 -16 -42 -20
-7 -34 13 -34 50 0 15 -4 27 -10 27 -5 0 -10 -17 -10 -39z"/>
<path d="M3930 155 c-5 -14 -7 -32 -4 -40 9 -22 41 -37 64 -30 32 10 23 25
-10 19 -23 -5 -30 -3 -30 10 0 12 9 16 35 16 38 0 40 2 25 31 -16 29 -68 26
-80 -6z m60 0 c0 -8 -9 -15 -20 -15 -11 0 -20 7 -20 15 0 8 9 15 20 15 11 0
20 -7 20 -15z"/>
<path d="M5040 130 c0 -27 5 -50 10 -50 6 0 10 23 10 50 0 28 -4 50 -10 50 -5
0 -10 -22 -10 -50z"/>
<path d="M5520 177 c0 -2 7 -25 16 -50 13 -38 14 -51 4 -62 -10 -12 -10 -15 3
-15 20 0 31 16 51 74 19 58 18 56 7 56 -4 0 -15 -17 -23 -37 l-14 -38 -13 38
c-7 20 -17 37 -22 37 -5 0 -9 -1 -9 -3z"/>
<path d="M6760 130 c0 -27 5 -50 10 -50 6 0 10 23 10 50 0 28 -4 50 -10 50 -5
0 -10 -22 -10 -50z"/>
</g>
</svg>
