<?xml version="1.0" encoding="UTF-8"?>
<svg id="Layer_2" data-name="Layer 2" xmlns="http://www.w3.org/2000/svg" xmlns:xlink="http://www.w3.org/1999/xlink" viewBox="0 0 104.12 108.04">
  <defs>
    <style>
      .cls-1 {
        fill: url(#linear-gradient-38);
      }

      .cls-1, .cls-2, .cls-3, .cls-4, .cls-5, .cls-6, .cls-7, .cls-8, .cls-9, .cls-10, .cls-11, .cls-12, .cls-13, .cls-14, .cls-15, .cls-16, .cls-17, .cls-18, .cls-19, .cls-20, .cls-21, .cls-22, .cls-23, .cls-24, .cls-25, .cls-26, .cls-27, .cls-28, .cls-29, .cls-30, .cls-31, .cls-32, .cls-33, .cls-34, .cls-35, .cls-36, .cls-37, .cls-38, .cls-39, .cls-40, .cls-41, .cls-42, .cls-43, .cls-44, .cls-45, .cls-46, .cls-47, .cls-48, .cls-49, .cls-50, .cls-51, .cls-52, .cls-53, .cls-54, .cls-55, .cls-56, .cls-57, .cls-58, .cls-59, .cls-60, .cls-61, .cls-62, .cls-63, .cls-64, .cls-65, .cls-66, .cls-67, .cls-68, .cls-69, .cls-70, .cls-71, .cls-72, .cls-73, .cls-74, .cls-75, .cls-76, .cls-77, .cls-78, .cls-79, .cls-80, .cls-81, .cls-82, .cls-83, .cls-84, .cls-85, .cls-86, .cls-87, .cls-88, .cls-89, .cls-90, .cls-91, .cls-92, .cls-93, .cls-94, .cls-95, .cls-96, .cls-97, .cls-98, .cls-99, .cls-100, .cls-101, .cls-102, .cls-103, .cls-104, .cls-105, .cls-106, .cls-107, .cls-108, .cls-109, .cls-110, .cls-111, .cls-112, .cls-113, .cls-114, .cls-115, .cls-116, .cls-117, .cls-118, .cls-119, .cls-120, .cls-121, .cls-122, .cls-123, .cls-124, .cls-125, .cls-126, .cls-127, .cls-128, .cls-129, .cls-130, .cls-131, .cls-132, .cls-133, .cls-134, .cls-135, .cls-136, .cls-137, .cls-138, .cls-139, .cls-140, .cls-141, .cls-142, .cls-143, .cls-144, .cls-145, .cls-146, .cls-147, .cls-148, .cls-149, .cls-150, .cls-151, .cls-152, .cls-153, .cls-154, .cls-155, .cls-156, .cls-157, .cls-158, .cls-159, .cls-160, .cls-161, .cls-162, .cls-163, .cls-164, .cls-165, .cls-166, .cls-167, .cls-168, .cls-169, .cls-170, .cls-171, .cls-172, .cls-173, .cls-174, .cls-175, .cls-176, .cls-177, .cls-178, .cls-179, .cls-180, .cls-181, .cls-182, .cls-183, .cls-184, .cls-185, .cls-186, .cls-187, .cls-188, .cls-189, .cls-190, .cls-191, .cls-192, .cls-193, .cls-194, .cls-195, .cls-196, .cls-197, .cls-198, .cls-199, .cls-200, .cls-201, .cls-202 {
        stroke-width: 0px;
      }

      .cls-2 {
        fill: url(#linear-gradient-12);
      }

      .cls-3 {
        fill: url(#linear-gradient-127);
      }

      .cls-4 {
        fill: url(#linear-gradient-159);
      }

      .cls-5 {
        fill: url(#linear-gradient-17);
      }

      .cls-6 {
        fill: url(#linear-gradient-132);
      }

      .cls-7 {
        fill: url(#linear-gradient-88);
      }

      .cls-8 {
        fill: url(#linear-gradient-19);
      }

      .cls-9 {
        fill: url(#linear-gradient-33);
      }

      .cls-10 {
        fill: url(#linear-gradient);
      }

      .cls-11 {
        fill: url(#linear-gradient-175);
      }

      .cls-12 {
        fill: url(#linear-gradient-62);
      }

      .cls-13 {
        fill: url(#linear-gradient-137);
      }

      .cls-14 {
        fill: url(#linear-gradient-92);
      }

      .cls-15 {
        fill: url(#linear-gradient-98);
      }

      .cls-16 {
        fill: url(#linear-gradient-139);
      }

      .cls-17 {
        fill: url(#linear-gradient-67);
      }

      .cls-18 {
        fill: url(#linear-gradient-167);
      }

      .cls-19 {
        fill: url(#linear-gradient-153);
      }

      .cls-20 {
        fill: url(#linear-gradient-57);
      }

      .cls-21 {
        fill: url(#linear-gradient-138);
      }

      .cls-22 {
        fill: url(#linear-gradient-191);
      }

      .cls-23 {
        fill: url(#linear-gradient-149);
      }

      .cls-24 {
        fill: url(#linear-gradient-21);
      }

      .cls-25 {
        fill: url(#linear-gradient-6);
      }

      .cls-26 {
        fill: url(#linear-gradient-157);
      }

      .cls-27 {
        fill: url(#linear-gradient-190);
      }

      .cls-28 {
        fill: url(#linear-gradient-196);
      }

      .cls-29 {
        fill: url(#linear-gradient-76);
      }

      .cls-30 {
        fill: url(#linear-gradient-181);
      }

      .cls-31 {
        fill: url(#linear-gradient-197);
      }

      .cls-32 {
        fill: url(#linear-gradient-124);
      }

      .cls-33 {
        fill: url(#linear-gradient-160);
      }

      .cls-34 {
        fill: url(#linear-gradient-184);
      }

      .cls-35 {
        fill: url(#linear-gradient-136);
      }

      .cls-36 {
        fill: url(#linear-gradient-42);
      }

      .cls-37 {
        fill: url(#linear-gradient-104);
      }

      .cls-38 {
        fill: url(#linear-gradient-95);
      }

      .cls-39 {
        fill: url(#linear-gradient-15);
      }

      .cls-40 {
        fill: url(#linear-gradient-11);
      }

      .cls-41 {
        fill: url(#linear-gradient-106);
      }

      .cls-42 {
        fill: url(#linear-gradient-101);
      }

      .cls-43 {
        fill: url(#linear-gradient-81);
      }

      .cls-44 {
        fill: url(#linear-gradient-73);
      }

      .cls-45 {
        fill: url(#linear-gradient-91);
      }

      .cls-46 {
        fill: url(#linear-gradient-188);
      }

      .cls-47 {
        fill: url(#linear-gradient-151);
      }

      .cls-48 {
        fill: url(#linear-gradient-5);
      }

      .cls-49 {
        fill: url(#linear-gradient-187);
      }

      .cls-50 {
        fill: url(#linear-gradient-164);
      }

      .cls-51 {
        fill: url(#linear-gradient-133);
      }

      .cls-52 {
        fill: url(#linear-gradient-179);
      }

      .cls-53 {
        fill: url(#linear-gradient-31);
      }

      .cls-54 {
        fill: url(#linear-gradient-103);
      }

      .cls-55 {
        fill: url(#linear-gradient-71);
      }

      .cls-56 {
        fill: url(#linear-gradient-58);
      }

      .cls-57 {
        fill: url(#linear-gradient-63);
      }

      .cls-58 {
        fill: url(#linear-gradient-154);
      }

      .cls-59 {
        fill: url(#linear-gradient-34);
      }

      .cls-60 {
        fill: url(#linear-gradient-122);
      }

      .cls-61 {
        fill: url(#linear-gradient-96);
      }

      .cls-62 {
        fill: url(#linear-gradient-170);
      }

      .cls-63 {
        fill: url(#linear-gradient-165);
      }

      .cls-64 {
        fill: url(#linear-gradient-130);
      }

      .cls-65 {
        fill: url(#linear-gradient-120);
      }

      .cls-66 {
        fill: url(#linear-gradient-41);
      }

      .cls-67 {
        fill: url(#linear-gradient-89);
      }

      .cls-68 {
        fill: url(#linear-gradient-199);
      }

      .cls-69 {
        fill: url(#linear-gradient-40);
      }

      .cls-70 {
        fill: url(#linear-gradient-147);
      }

      .cls-71 {
        fill: url(#linear-gradient-66);
      }

      .cls-72 {
        fill: url(#linear-gradient-126);
      }

      .cls-73 {
        fill: url(#linear-gradient-13);
      }

      .cls-74 {
        fill: url(#linear-gradient-23);
      }

      .cls-75 {
        fill: url(#linear-gradient-202);
      }

      .cls-76 {
        fill: url(#linear-gradient-25);
      }

      .cls-77 {
        fill: url(#linear-gradient-43);
      }

      .cls-78 {
        fill: url(#linear-gradient-16);
      }

      .cls-79 {
        fill: url(#linear-gradient-22);
      }

      .cls-80 {
        fill: url(#linear-gradient-54);
      }

      .cls-81 {
        fill: url(#linear-gradient-55);
      }

      .cls-82 {
        fill: url(#linear-gradient-110);
      }

      .cls-83 {
        fill: url(#linear-gradient-141);
      }

      .cls-84 {
        fill: url(#linear-gradient-35);
      }

      .cls-85 {
        fill: url(#linear-gradient-50);
      }

      .cls-86 {
        fill: url(#linear-gradient-32);
      }

      .cls-87 {
        fill: url(#linear-gradient-60);
      }

      .cls-88 {
        fill: url(#linear-gradient-59);
      }

      .cls-89 {
        fill: url(#linear-gradient-20);
      }

      .cls-90 {
        fill: url(#linear-gradient-14);
      }

      .cls-91 {
        fill: url(#linear-gradient-185);
      }

      .cls-92 {
        fill: url(#linear-gradient-2);
      }

      .cls-93 {
        fill: url(#linear-gradient-156);
      }

      .cls-94 {
        fill: url(#linear-gradient-146);
      }

      .cls-95 {
        fill: url(#linear-gradient-52);
      }

      .cls-96 {
        fill: url(#linear-gradient-45);
      }

      .cls-97 {
        fill: url(#linear-gradient-194);
      }

      .cls-98 {
        fill: url(#linear-gradient-93);
      }

      .cls-99 {
        fill: url(#linear-gradient-172);
      }

      .cls-100 {
        fill: url(#linear-gradient-163);
      }

      .cls-101 {
        fill: url(#linear-gradient-7);
      }

      .cls-102 {
        fill: url(#linear-gradient-39);
      }

      .cls-103 {
        fill: url(#linear-gradient-3);
      }

      .cls-104 {
        fill: url(#linear-gradient-148);
      }

      .cls-105 {
        fill: url(#linear-gradient-77);
      }

      .cls-106 {
        fill: url(#linear-gradient-119);
      }

      .cls-107 {
        fill: url(#linear-gradient-69);
      }

      .cls-108 {
        fill: url(#linear-gradient-143);
      }

      .cls-109 {
        fill: url(#linear-gradient-125);
      }

      .cls-110 {
        fill: url(#linear-gradient-94);
      }

      .cls-111 {
        fill: url(#linear-gradient-9);
      }

      .cls-112 {
        fill: url(#linear-gradient-27);
      }

      .cls-113 {
        fill: url(#linear-gradient-134);
      }

      .cls-114 {
        fill: url(#linear-gradient-152);
      }

      .cls-115 {
        fill: url(#linear-gradient-100);
      }

      .cls-116 {
        fill: url(#linear-gradient-162);
      }

      .cls-117 {
        fill: url(#linear-gradient-131);
      }

      .cls-118 {
        fill: url(#linear-gradient-183);
      }

      .cls-119 {
        fill: url(#linear-gradient-82);
      }

      .cls-120 {
        fill: url(#linear-gradient-105);
      }

      .cls-121 {
        fill: url(#linear-gradient-83);
      }

      .cls-122 {
        fill: url(#linear-gradient-142);
      }

      .cls-123 {
        fill: url(#linear-gradient-155);
      }

      .cls-124 {
        fill: url(#linear-gradient-53);
      }

      .cls-125 {
        fill: url(#linear-gradient-90);
      }

      .cls-126 {
        fill: url(#linear-gradient-200);
      }

      .cls-127 {
        fill: url(#linear-gradient-178);
      }

      .cls-128 {
        fill: url(#linear-gradient-117);
      }

      .cls-129 {
        fill: url(#linear-gradient-85);
      }

      .cls-130 {
        fill: url(#linear-gradient-65);
      }

      .cls-131 {
        fill: url(#linear-gradient-36);
      }

      .cls-132 {
        fill: url(#linear-gradient-180);
      }

      .cls-133 {
        fill: url(#linear-gradient-48);
      }

      .cls-134 {
        fill: url(#linear-gradient-195);
      }

      .cls-135 {
        fill: url(#linear-gradient-49);
      }

      .cls-136 {
        fill: url(#linear-gradient-161);
      }

      .cls-137 {
        fill: url(#linear-gradient-8);
      }

      .cls-138 {
        fill: url(#linear-gradient-47);
      }

      .cls-139 {
        fill: url(#linear-gradient-173);
      }

      .cls-140 {
        fill: url(#linear-gradient-24);
      }

      .cls-141 {
        fill: url(#linear-gradient-26);
      }

      .cls-142 {
        fill: url(#linear-gradient-61);
      }

      .cls-143 {
        fill: url(#linear-gradient-114);
      }

      .cls-144 {
        fill: url(#linear-gradient-18);
      }

      .cls-145 {
        fill: url(#linear-gradient-51);
      }

      .cls-146 {
        fill: url(#linear-gradient-30);
      }

      .cls-147 {
        fill: url(#linear-gradient-121);
      }

      .cls-148 {
        fill: url(#linear-gradient-44);
      }

      .cls-149 {
        fill: url(#linear-gradient-193);
      }

      .cls-150 {
        fill: url(#linear-gradient-84);
      }

      .cls-151 {
        fill: url(#linear-gradient-97);
      }

      .cls-152 {
        fill: url(#linear-gradient-68);
      }

      .cls-153 {
        fill: url(#linear-gradient-129);
      }

      .cls-154 {
        fill: url(#linear-gradient-72);
      }

      .cls-155 {
        fill: url(#linear-gradient-29);
      }

      .cls-156 {
        fill: url(#linear-gradient-46);
      }

      .cls-157 {
        fill: url(#linear-gradient-140);
      }

      .cls-158 {
        fill: url(#linear-gradient-168);
      }

      .cls-159 {
        fill: url(#linear-gradient-171);
      }

      .cls-160 {
        fill: url(#linear-gradient-64);
      }

      .cls-161 {
        fill: url(#linear-gradient-107);
      }

      .cls-162 {
        fill: url(#linear-gradient-192);
      }

      .cls-163 {
        fill: url(#linear-gradient-109);
      }

      .cls-164 {
        fill: url(#linear-gradient-145);
      }

      .cls-165 {
        fill: url(#linear-gradient-113);
      }

      .cls-166 {
        fill: url(#linear-gradient-182);
      }

      .cls-167 {
        fill: url(#linear-gradient-28);
      }

      .cls-168 {
        fill: url(#linear-gradient-56);
      }

      .cls-169 {
        fill: url(#linear-gradient-99);
      }

      .cls-170 {
        fill: url(#linear-gradient-10);
      }

      .cls-171 {
        fill: url(#linear-gradient-150);
      }

      .cls-172 {
        fill: url(#linear-gradient-198);
      }

      .cls-173 {
        fill: url(#linear-gradient-174);
      }

      .cls-174 {
        fill: url(#linear-gradient-87);
      }

      .cls-175 {
        fill: url(#linear-gradient-70);
      }

      .cls-176 {
        fill: url(#linear-gradient-78);
      }

      .cls-177 {
        fill: url(#linear-gradient-86);
      }

      .cls-178 {
        fill: url(#linear-gradient-74);
      }

      .cls-179 {
        fill: url(#linear-gradient-177);
      }

      .cls-180 {
        fill: url(#linear-gradient-169);
      }

      .cls-181 {
        fill: url(#linear-gradient-102);
      }

      .cls-182 {
        fill: url(#linear-gradient-4);
      }

      .cls-183 {
        fill: url(#linear-gradient-118);
      }

      .cls-184 {
        fill: url(#linear-gradient-112);
      }

      .cls-185 {
        fill: url(#linear-gradient-123);
      }

      .cls-186 {
        fill: url(#linear-gradient-176);
      }

      .cls-187 {
        fill: url(#linear-gradient-128);
      }

      .cls-188 {
        fill: url(#linear-gradient-37);
      }

      .cls-189 {
        fill: url(#linear-gradient-166);
      }

      .cls-190 {
        fill: url(#linear-gradient-186);
      }

      .cls-191 {
        fill: url(#linear-gradient-80);
      }

      .cls-192 {
        fill: url(#linear-gradient-115);
      }

      .cls-193 {
        fill: url(#linear-gradient-135);
      }

      .cls-194 {
        fill: url(#linear-gradient-189);
      }

      .cls-195 {
        fill: url(#linear-gradient-158);
      }

      .cls-196 {
        fill: url(#linear-gradient-116);
      }

      .cls-197 {
        fill: url(#linear-gradient-79);
      }

      .cls-198 {
        fill: url(#linear-gradient-111);
      }

      .cls-199 {
        fill: url(#linear-gradient-108);
      }

      .cls-200 {
        fill: url(#linear-gradient-201);
      }

      .cls-201 {
        fill: url(#linear-gradient-144);
      }

      .cls-202 {
        fill: url(#linear-gradient-75);
      }
    </style>
    <linearGradient id="linear-gradient" x1="86.38" y1="-.97" x2="103.09" y2="-17.93" gradientTransform="translate(101.8 67.62) rotate(-155.09)" gradientUnits="userSpaceOnUse">
      <stop offset="0" stop-color="#78fffb"/>
      <stop offset=".1" stop-color="#79effb"/>
      <stop offset=".29" stop-color="#7cc5fb"/>
      <stop offset=".55" stop-color="#8182fc"/>
      <stop offset=".87" stop-color="#8826fd"/>
      <stop offset="1" stop-color="#8c00fe"/>
    </linearGradient>
    <linearGradient id="linear-gradient-2" x1="86.36" y1=".07" x2="103.08" y2="-16.89" xlink:href="#linear-gradient"/>
    <linearGradient id="linear-gradient-3" x1="86.33" y1="1.1" x2="103.04" y2="-15.86" xlink:href="#linear-gradient"/>
    <linearGradient id="linear-gradient-4" x1="86.26" y1="2.13" x2="102.98" y2="-14.83" xlink:href="#linear-gradient"/>
    <linearGradient id="linear-gradient-5" x1="86.18" y1="3.15" x2="102.89" y2="-13.81" xlink:href="#linear-gradient"/>
    <linearGradient id="linear-gradient-6" x1="86.07" y1="4.16" x2="102.78" y2="-12.8" xlink:href="#linear-gradient"/>
    <linearGradient id="linear-gradient-7" x1="85.93" y1="5.16" x2="102.65" y2="-11.8" xlink:href="#linear-gradient"/>
    <linearGradient id="linear-gradient-8" x1="85.78" y1="6.16" x2="102.49" y2="-10.8" xlink:href="#linear-gradient"/>
    <linearGradient id="linear-gradient-9" x1="85.6" y1="7.15" x2="102.31" y2="-9.81" xlink:href="#linear-gradient"/>
    <linearGradient id="linear-gradient-10" x1="85.39" y1="8.13" x2="102.11" y2="-8.83" xlink:href="#linear-gradient"/>
    <linearGradient id="linear-gradient-11" x1="85.17" y1="9.1" x2="101.88" y2="-7.86" xlink:href="#linear-gradient"/>
    <linearGradient id="linear-gradient-12" x1="84.92" y1="10.06" x2="101.63" y2="-6.89" xlink:href="#linear-gradient"/>
    <linearGradient id="linear-gradient-13" x1="84.65" y1="11.02" x2="101.36" y2="-5.94" xlink:href="#linear-gradient"/>
    <linearGradient id="linear-gradient-14" x1="84.35" y1="11.96" x2="101.07" y2="-5" xlink:href="#linear-gradient"/>
    <linearGradient id="linear-gradient-15" x1="84.04" y1="12.9" x2="100.75" y2="-4.06" xlink:href="#linear-gradient"/>
    <linearGradient id="linear-gradient-16" x1="83.7" y1="13.82" x2="100.42" y2="-3.13" xlink:href="#linear-gradient"/>
    <linearGradient id="linear-gradient-17" x1="83.35" y1="14.74" x2="100.06" y2="-2.22" xlink:href="#linear-gradient"/>
    <linearGradient id="linear-gradient-18" x1="82.97" y1="15.65" x2="99.69" y2="-1.31" xlink:href="#linear-gradient"/>
    <linearGradient id="linear-gradient-19" x1="82.58" y1="16.54" x2="99.29" y2="-.42" xlink:href="#linear-gradient"/>
    <linearGradient id="linear-gradient-20" x1="82.16" y1="17.42" x2="98.87" y2=".46" xlink:href="#linear-gradient"/>
    <linearGradient id="linear-gradient-21" x1="81.72" y1="18.29" x2="98.44" y2="1.34" xlink:href="#linear-gradient"/>
    <linearGradient id="linear-gradient-22" x1="81.27" y1="19.15" x2="97.98" y2="2.2" xlink:href="#linear-gradient"/>
    <linearGradient id="linear-gradient-23" x1="80.79" y1="20" x2="97.51" y2="3.04" xlink:href="#linear-gradient"/>
    <linearGradient id="linear-gradient-24" x1="80.3" y1="20.84" x2="97.01" y2="3.88" xlink:href="#linear-gradient"/>
    <linearGradient id="linear-gradient-25" x1="79.78" y1="21.66" x2="96.5" y2="4.7" xlink:href="#linear-gradient"/>
    <linearGradient id="linear-gradient-26" x1="79.25" y1="22.47" x2="95.97" y2="5.51" xlink:href="#linear-gradient"/>
    <linearGradient id="linear-gradient-27" x1="78.71" y1="23.27" x2="95.42" y2="6.31" xlink:href="#linear-gradient"/>
    <linearGradient id="linear-gradient-28" x1="78.14" y1="24.05" x2="94.85" y2="7.09" xlink:href="#linear-gradient"/>
    <linearGradient id="linear-gradient-29" x1="77.55" y1="24.82" x2="94.27" y2="7.87" xlink:href="#linear-gradient"/>
    <linearGradient id="linear-gradient-30" x1="76.95" y1="25.58" x2="93.67" y2="8.62" xlink:href="#linear-gradient"/>
    <linearGradient id="linear-gradient-31" x1="76.34" y1="26.32" x2="93.05" y2="9.36" xlink:href="#linear-gradient"/>
    <linearGradient id="linear-gradient-32" x1="75.7" y1="27.05" x2="92.42" y2="10.09" xlink:href="#linear-gradient"/>
    <linearGradient id="linear-gradient-33" x1="75.05" y1="27.76" x2="91.77" y2="10.8" xlink:href="#linear-gradient"/>
    <linearGradient id="linear-gradient-34" x1="74.38" y1="28.46" x2="91.1" y2="11.5" xlink:href="#linear-gradient"/>
    <linearGradient id="linear-gradient-35" x1="73.7" y1="29.14" x2="90.42" y2="12.18" xlink:href="#linear-gradient"/>
    <linearGradient id="linear-gradient-36" x1="73" y1="29.81" x2="89.72" y2="12.85" xlink:href="#linear-gradient"/>
    <linearGradient id="linear-gradient-37" x1="72.29" y1="30.46" x2="89.01" y2="13.5" xlink:href="#linear-gradient"/>
    <linearGradient id="linear-gradient-38" x1="71.56" y1="31.1" x2="88.28" y2="14.14" xlink:href="#linear-gradient"/>
    <linearGradient id="linear-gradient-39" x1="70.82" y1="31.71" x2="87.54" y2="14.75" xlink:href="#linear-gradient"/>
    <linearGradient id="linear-gradient-40" x1="70.07" y1="32.31" x2="86.78" y2="15.36" xlink:href="#linear-gradient"/>
    <linearGradient id="linear-gradient-41" x1="69.29" y1="32.9" x2="86.01" y2="15.94" xlink:href="#linear-gradient"/>
    <linearGradient id="linear-gradient-42" x1="68.51" y1="33.46" x2="85.23" y2="16.51" xlink:href="#linear-gradient"/>
    <linearGradient id="linear-gradient-43" x1="67.71" y1="34.01" x2="84.43" y2="17.05" xlink:href="#linear-gradient"/>
    <linearGradient id="linear-gradient-44" x1="66.9" y1="34.54" x2="83.62" y2="17.59" xlink:href="#linear-gradient"/>
    <linearGradient id="linear-gradient-45" x1="66.08" y1="35.06" x2="82.79" y2="18.1" xlink:href="#linear-gradient"/>
    <linearGradient id="linear-gradient-46" x1="65.24" y1="35.55" x2="81.96" y2="18.59" xlink:href="#linear-gradient"/>
    <linearGradient id="linear-gradient-47" x1="64.4" y1="36.03" x2="81.11" y2="19.07" xlink:href="#linear-gradient"/>
    <linearGradient id="linear-gradient-48" x1="63.54" y1="36.48" x2="80.25" y2="19.52" xlink:href="#linear-gradient"/>
    <linearGradient id="linear-gradient-49" x1="62.66" y1="36.92" x2="79.38" y2="19.96" xlink:href="#linear-gradient"/>
    <linearGradient id="linear-gradient-50" x1="61.78" y1="37.34" x2="78.5" y2="20.38" xlink:href="#linear-gradient"/>
    <linearGradient id="linear-gradient-51" x1="60.89" y1="37.73" x2="77.6" y2="20.77" xlink:href="#linear-gradient"/>
    <linearGradient id="linear-gradient-52" x1="59.98" y1="38.11" x2="76.7" y2="21.15" xlink:href="#linear-gradient"/>
    <linearGradient id="linear-gradient-53" x1="59.07" y1="38.46" x2="75.78" y2="21.51" xlink:href="#linear-gradient"/>
    <linearGradient id="linear-gradient-54" x1="58.14" y1="38.8" x2="74.86" y2="21.84" xlink:href="#linear-gradient"/>
    <linearGradient id="linear-gradient-55" x1="57.21" y1="39.11" x2="73.92" y2="22.16" xlink:href="#linear-gradient"/>
    <linearGradient id="linear-gradient-56" x1="56.26" y1="39.41" x2="72.97" y2="22.45" xlink:href="#linear-gradient"/>
    <linearGradient id="linear-gradient-57" x1="55.31" y1="39.68" x2="72.02" y2="22.72" xlink:href="#linear-gradient"/>
    <linearGradient id="linear-gradient-58" x1="54.34" y1="39.93" x2="71.06" y2="22.97" xlink:href="#linear-gradient"/>
    <linearGradient id="linear-gradient-59" x1="53.37" y1="40.15" x2="70.08" y2="23.19" xlink:href="#linear-gradient"/>
    <linearGradient id="linear-gradient-60" x1="52.39" y1="40.36" x2="69.1" y2="23.4" xlink:href="#linear-gradient"/>
    <linearGradient id="linear-gradient-61" x1="51.4" y1="40.54" x2="68.11" y2="23.58" xlink:href="#linear-gradient"/>
    <linearGradient id="linear-gradient-62" x1="50.4" y1="40.69" x2="67.12" y2="23.74" xlink:href="#linear-gradient"/>
    <linearGradient id="linear-gradient-63" x1="49.4" y1="40.83" x2="66.11" y2="23.87" xlink:href="#linear-gradient"/>
    <linearGradient id="linear-gradient-64" x1="48.39" y1="40.94" x2="65.1" y2="23.98" xlink:href="#linear-gradient"/>
    <linearGradient id="linear-gradient-65" x1="47.37" y1="41.03" x2="64.08" y2="24.07" xlink:href="#linear-gradient"/>
    <linearGradient id="linear-gradient-66" x1="46.34" y1="41.09" x2="63.06" y2="24.13" xlink:href="#linear-gradient"/>
    <linearGradient id="linear-gradient-67" x1="45.31" y1="41.13" x2="62.02" y2="24.17" xlink:href="#linear-gradient"/>
    <linearGradient id="linear-gradient-68" x1="44.27" y1="41.14" x2="60.99" y2="24.18" xlink:href="#linear-gradient"/>
    <linearGradient id="linear-gradient-69" x1="43.23" y1="41.13" x2="59.95" y2="24.17" xlink:href="#linear-gradient"/>
    <linearGradient id="linear-gradient-70" x1="42.2" y1="41.09" x2="58.92" y2="24.13" xlink:href="#linear-gradient"/>
    <linearGradient id="linear-gradient-71" x1="41.18" y1="41.03" x2="57.89" y2="24.07" xlink:href="#linear-gradient"/>
    <linearGradient id="linear-gradient-72" x1="40.16" y1="40.94" x2="56.87" y2="23.98" xlink:href="#linear-gradient"/>
    <linearGradient id="linear-gradient-73" x1="39.14" y1="40.83" x2="55.86" y2="23.87" xlink:href="#linear-gradient"/>
    <linearGradient id="linear-gradient-74" x1="38.14" y1="40.7" x2="54.85" y2="23.74" xlink:href="#linear-gradient"/>
    <linearGradient id="linear-gradient-75" x1="37.14" y1="40.54" x2="53.86" y2="23.58" xlink:href="#linear-gradient"/>
    <linearGradient id="linear-gradient-76" x1="36.15" y1="40.36" x2="52.87" y2="23.4" xlink:href="#linear-gradient"/>
    <linearGradient id="linear-gradient-77" x1="35.17" y1="40.15" x2="51.89" y2="23.19" xlink:href="#linear-gradient"/>
    <linearGradient id="linear-gradient-78" x1="34.2" y1="39.93" x2="50.92" y2="22.97" xlink:href="#linear-gradient"/>
    <linearGradient id="linear-gradient-79" x1="33.24" y1="39.68" x2="49.95" y2="22.72" xlink:href="#linear-gradient"/>
    <linearGradient id="linear-gradient-80" x1="32.28" y1="39.41" x2="49" y2="22.45" xlink:href="#linear-gradient"/>
    <linearGradient id="linear-gradient-81" x1="31.34" y1="39.12" x2="48.05" y2="22.16" xlink:href="#linear-gradient"/>
    <linearGradient id="linear-gradient-82" x1="30.4" y1="38.8" x2="47.12" y2="21.84" xlink:href="#linear-gradient"/>
    <linearGradient id="linear-gradient-83" x1="29.48" y1="38.47" x2="46.19" y2="21.51" xlink:href="#linear-gradient"/>
    <linearGradient id="linear-gradient-84" x1="28.56" y1="38.11" x2="45.28" y2="21.15" xlink:href="#linear-gradient"/>
    <linearGradient id="linear-gradient-85" x1="27.66" y1="37.73" x2="44.37" y2="20.78" xlink:href="#linear-gradient"/>
    <linearGradient id="linear-gradient-86" x1="26.76" y1="37.34" x2="43.48" y2="20.38" xlink:href="#linear-gradient"/>
    <linearGradient id="linear-gradient-87" x1="25.88" y1="36.92" x2="42.59" y2="19.96" xlink:href="#linear-gradient"/>
    <linearGradient id="linear-gradient-88" x1="25.01" y1="36.48" x2="41.72" y2="19.53" xlink:href="#linear-gradient"/>
    <linearGradient id="linear-gradient-89" x1="24.15" y1="36.03" x2="40.86" y2="19.07" xlink:href="#linear-gradient"/>
    <linearGradient id="linear-gradient-90" x1="23.3" y1="35.55" x2="40.01" y2="18.59" xlink:href="#linear-gradient"/>
    <linearGradient id="linear-gradient-91" x1="22.46" y1="35.06" x2="39.18" y2="18.1" xlink:href="#linear-gradient"/>
    <linearGradient id="linear-gradient-92" x1="21.64" y1="34.55" x2="38.35" y2="17.59" xlink:href="#linear-gradient"/>
    <linearGradient id="linear-gradient-93" x1="20.83" y1="34.02" x2="37.54" y2="17.06" xlink:href="#linear-gradient"/>
    <linearGradient id="linear-gradient-94" x1="20.03" y1="33.47" x2="36.75" y2="16.51" xlink:href="#linear-gradient"/>
    <linearGradient id="linear-gradient-95" x1="19.25" y1="32.9" x2="35.96" y2="15.94" xlink:href="#linear-gradient"/>
    <linearGradient id="linear-gradient-96" x1="18.48" y1="32.32" x2="35.19" y2="15.36" xlink:href="#linear-gradient"/>
    <linearGradient id="linear-gradient-97" x1="17.72" y1="31.72" x2="34.44" y2="14.76" xlink:href="#linear-gradient"/>
    <linearGradient id="linear-gradient-98" x1="16.98" y1="31.1" x2="33.69" y2="14.14" xlink:href="#linear-gradient"/>
    <linearGradient id="linear-gradient-99" x1="16.25" y1="30.46" x2="32.97" y2="13.5" xlink:href="#linear-gradient"/>
    <linearGradient id="linear-gradient-100" x1="15.54" y1="29.81" x2="32.25" y2="12.85" xlink:href="#linear-gradient"/>
    <linearGradient id="linear-gradient-101" x1="14.84" y1="29.15" x2="31.56" y2="12.19" xlink:href="#linear-gradient"/>
    <linearGradient id="linear-gradient-102" x1="14.16" y1="28.46" x2="30.87" y2="11.5" xlink:href="#linear-gradient"/>
    <linearGradient id="linear-gradient-103" x1="13.49" y1="27.77" x2="30.21" y2="10.81" xlink:href="#linear-gradient"/>
    <linearGradient id="linear-gradient-104" x1="12.84" y1="27.05" x2="29.56" y2="10.09" xlink:href="#linear-gradient"/>
    <linearGradient id="linear-gradient-105" x1="12.21" y1="26.33" x2="28.92" y2="9.37" xlink:href="#linear-gradient"/>
    <linearGradient id="linear-gradient-106" x1="11.59" y1="25.58" x2="28.3" y2="8.62" xlink:href="#linear-gradient"/>
    <linearGradient id="linear-gradient-107" x1="10.99" y1="24.83" x2="27.7" y2="7.87" xlink:href="#linear-gradient"/>
    <linearGradient id="linear-gradient-108" x1="10.4" y1="24.06" x2="27.12" y2="7.1" xlink:href="#linear-gradient"/>
    <linearGradient id="linear-gradient-109" x1="9.84" y1="23.27" x2="26.55" y2="6.31" xlink:href="#linear-gradient"/>
    <linearGradient id="linear-gradient-110" x1="9.29" y1="22.47" x2="26" y2="5.52" xlink:href="#linear-gradient"/>
    <linearGradient id="linear-gradient-111" x1="8.76" y1="21.66" x2="25.47" y2="4.71" xlink:href="#linear-gradient"/>
    <linearGradient id="linear-gradient-112" x1="8.24" y1="20.84" x2="24.96" y2="3.88" xlink:href="#linear-gradient"/>
    <linearGradient id="linear-gradient-113" x1="7.75" y1="20.01" x2="24.47" y2="3.05" xlink:href="#linear-gradient"/>
    <linearGradient id="linear-gradient-114" x1="7.28" y1="19.16" x2="23.99" y2="2.2" xlink:href="#linear-gradient"/>
    <linearGradient id="linear-gradient-115" x1="6.82" y1="18.3" x2="23.53" y2="1.34" xlink:href="#linear-gradient"/>
    <linearGradient id="linear-gradient-116" x1="6.38" y1="17.43" x2="23.1" y2=".47" xlink:href="#linear-gradient"/>
    <linearGradient id="linear-gradient-117" x1="5.97" y1="16.54" x2="22.68" y2="-.42" xlink:href="#linear-gradient"/>
    <linearGradient id="linear-gradient-118" x1="5.57" y1="15.65" x2="22.28" y2="-1.31" xlink:href="#linear-gradient"/>
    <linearGradient id="linear-gradient-119" x1="5.19" y1="14.74" x2="21.91" y2="-2.22" xlink:href="#linear-gradient"/>
    <linearGradient id="linear-gradient-120" x1="4.84" y1="13.83" x2="21.55" y2="-3.13" xlink:href="#linear-gradient"/>
    <linearGradient id="linear-gradient-121" x1="4.5" y1="12.9" x2="21.22" y2="-4.06" xlink:href="#linear-gradient"/>
    <linearGradient id="linear-gradient-122" x1="4.19" y1="11.97" x2="20.9" y2="-4.99" xlink:href="#linear-gradient"/>
    <linearGradient id="linear-gradient-123" x1="3.89" y1="11.02" x2="20.61" y2="-5.94" xlink:href="#linear-gradient"/>
    <linearGradient id="linear-gradient-124" x1="3.62" y1="10.07" x2="20.34" y2="-6.89" xlink:href="#linear-gradient"/>
    <linearGradient id="linear-gradient-125" x1="3.38" y1="9.1" x2="20.09" y2="-7.86" xlink:href="#linear-gradient"/>
    <linearGradient id="linear-gradient-126" x1="3.15" y1="8.13" x2="19.86" y2="-8.83" xlink:href="#linear-gradient"/>
    <linearGradient id="linear-gradient-127" x1="2.94" y1="7.15" x2="19.66" y2="-9.81" xlink:href="#linear-gradient"/>
    <linearGradient id="linear-gradient-128" x1="2.76" y1="6.16" x2="19.48" y2="-10.8" xlink:href="#linear-gradient"/>
    <linearGradient id="linear-gradient-129" x1="2.61" y1="5.16" x2="19.32" y2="-11.79" xlink:href="#linear-gradient"/>
    <linearGradient id="linear-gradient-130" x1="2.47" y1="4.16" x2="19.19" y2="-12.8" xlink:href="#linear-gradient"/>
    <linearGradient id="linear-gradient-131" x1="2.36" y1="3.15" x2="19.08" y2="-13.81" xlink:href="#linear-gradient"/>
    <linearGradient id="linear-gradient-132" x1="2.27" y1="2.13" x2="18.99" y2="-14.83" xlink:href="#linear-gradient"/>
    <linearGradient id="linear-gradient-133" x1="2.21" y1="1.1" x2="18.93" y2="-15.86" xlink:href="#linear-gradient"/>
    <linearGradient id="linear-gradient-134" x1="2.18" y1=".07" x2="18.89" y2="-16.89" xlink:href="#linear-gradient"/>
    <linearGradient id="linear-gradient-135" x1="2.16" y1="-.97" x2="18.88" y2="-17.93" xlink:href="#linear-gradient"/>
    <linearGradient id="linear-gradient-136" x1="2.18" y1="-2.01" x2="18.89" y2="-18.96" xlink:href="#linear-gradient"/>
    <linearGradient id="linear-gradient-137" x1="2.21" y1="-3.04" x2="18.93" y2="-20" xlink:href="#linear-gradient"/>
    <linearGradient id="linear-gradient-138" x1="2.27" y1="-4.06" x2="18.99" y2="-21.02" xlink:href="#linear-gradient"/>
    <linearGradient id="linear-gradient-139" x1="2.36" y1="-5.08" x2="19.08" y2="-22.04" xlink:href="#linear-gradient"/>
    <linearGradient id="linear-gradient-140" x1="2.47" y1="-6.09" x2="19.19" y2="-23.05" xlink:href="#linear-gradient"/>
    <linearGradient id="linear-gradient-141" x1="2.61" y1="-7.1" x2="19.32" y2="-24.06" xlink:href="#linear-gradient"/>
    <linearGradient id="linear-gradient-142" x1="2.76" y1="-8.1" x2="19.48" y2="-25.05" xlink:href="#linear-gradient"/>
    <linearGradient id="linear-gradient-143" x1="2.94" y1="-9.08" x2="19.66" y2="-26.04" xlink:href="#linear-gradient"/>
    <linearGradient id="linear-gradient-144" x1="3.15" y1="-10.06" x2="19.86" y2="-27.02" xlink:href="#linear-gradient"/>
    <linearGradient id="linear-gradient-145" x1="3.37" y1="-11.04" x2="20.09" y2="-28" xlink:href="#linear-gradient"/>
    <linearGradient id="linear-gradient-146" x1="3.62" y1="-12" x2="20.34" y2="-28.96" xlink:href="#linear-gradient"/>
    <linearGradient id="linear-gradient-147" x1="3.89" y1="-12.96" x2="20.61" y2="-29.91" xlink:href="#linear-gradient"/>
    <linearGradient id="linear-gradient-148" x1="4.19" y1="-13.9" x2="20.9" y2="-30.86" xlink:href="#linear-gradient"/>
    <linearGradient id="linear-gradient-149" x1="4.5" y1="-14.84" x2="21.21" y2="-31.8" xlink:href="#linear-gradient"/>
    <linearGradient id="linear-gradient-150" x1="4.83" y1="-15.76" x2="21.55" y2="-32.72" xlink:href="#linear-gradient"/>
    <linearGradient id="linear-gradient-151" x1="5.19" y1="-16.68" x2="21.91" y2="-33.64" xlink:href="#linear-gradient"/>
    <linearGradient id="linear-gradient-152" x1="5.57" y1="-17.58" x2="22.28" y2="-34.54" xlink:href="#linear-gradient"/>
    <linearGradient id="linear-gradient-153" x1="5.96" y1="-18.48" x2="22.68" y2="-35.44" xlink:href="#linear-gradient"/>
    <linearGradient id="linear-gradient-154" x1="6.38" y1="-19.36" x2="23.1" y2="-36.32" xlink:href="#linear-gradient"/>
    <linearGradient id="linear-gradient-155" x1="6.82" y1="-20.23" x2="23.53" y2="-37.19" xlink:href="#linear-gradient"/>
    <linearGradient id="linear-gradient-156" x1="7.27" y1="-21.09" x2="23.99" y2="-38.05" xlink:href="#linear-gradient"/>
    <linearGradient id="linear-gradient-157" x1="7.75" y1="-21.94" x2="24.46" y2="-38.9" xlink:href="#linear-gradient"/>
    <linearGradient id="linear-gradient-158" x1="8.24" y1="-22.78" x2="24.96" y2="-39.73" xlink:href="#linear-gradient"/>
    <linearGradient id="linear-gradient-159" x1="8.75" y1="-23.6" x2="25.47" y2="-40.56" xlink:href="#linear-gradient"/>
    <linearGradient id="linear-gradient-160" x1="9.29" y1="-24.41" x2="26" y2="-41.37" xlink:href="#linear-gradient"/>
    <linearGradient id="linear-gradient-161" x1="9.83" y1="-25.21" x2="26.55" y2="-42.17" xlink:href="#linear-gradient"/>
    <linearGradient id="linear-gradient-162" x1="10.4" y1="-25.99" x2="27.12" y2="-42.95" xlink:href="#linear-gradient"/>
    <linearGradient id="linear-gradient-163" x1="10.98" y1="-26.76" x2="27.7" y2="-43.72" xlink:href="#linear-gradient"/>
    <linearGradient id="linear-gradient-164" x1="11.59" y1="-27.52" x2="28.3" y2="-44.48" xlink:href="#linear-gradient"/>
    <linearGradient id="linear-gradient-165" x1="12.2" y1="-28.26" x2="28.92" y2="-45.22" xlink:href="#linear-gradient"/>
    <linearGradient id="linear-gradient-166" x1="12.84" y1="-28.99" x2="29.55" y2="-45.95" xlink:href="#linear-gradient"/>
    <linearGradient id="linear-gradient-167" x1="13.49" y1="-29.7" x2="30.2" y2="-46.66" xlink:href="#linear-gradient"/>
    <linearGradient id="linear-gradient-168" x1="14.16" y1="-30.4" x2="30.87" y2="-47.36" xlink:href="#linear-gradient"/>
    <linearGradient id="linear-gradient-169" x1="14.84" y1="-31.08" x2="31.55" y2="-48.04" xlink:href="#linear-gradient"/>
    <linearGradient id="linear-gradient-170" x1="15.54" y1="-31.75" x2="32.25" y2="-48.71" xlink:href="#linear-gradient"/>
    <linearGradient id="linear-gradient-171" x1="16.25" y1="-32.4" x2="32.96" y2="-49.36" xlink:href="#linear-gradient"/>
    <linearGradient id="linear-gradient-172" x1="16.98" y1="-33.03" x2="33.69" y2="-49.99" xlink:href="#linear-gradient"/>
    <linearGradient id="linear-gradient-173" x1="17.72" y1="-33.65" x2="34.43" y2="-50.61" xlink:href="#linear-gradient"/>
    <linearGradient id="linear-gradient-174" x1="18.47" y1="-34.25" x2="35.19" y2="-51.21" xlink:href="#linear-gradient"/>
    <linearGradient id="linear-gradient-175" x1="19.24" y1="-34.84" x2="35.96" y2="-51.79" xlink:href="#linear-gradient"/>
    <linearGradient id="linear-gradient-176" x1="20.03" y1="-35.4" x2="36.74" y2="-52.36" xlink:href="#linear-gradient"/>
    <linearGradient id="linear-gradient-177" x1="20.83" y1="-35.95" x2="37.54" y2="-52.91" xlink:href="#linear-gradient"/>
    <linearGradient id="linear-gradient-178" x1="21.64" y1="-36.48" x2="38.35" y2="-53.44" xlink:href="#linear-gradient"/>
    <linearGradient id="linear-gradient-179" x1="22.46" y1="-36.99" x2="39.18" y2="-53.95" xlink:href="#linear-gradient"/>
    <linearGradient id="linear-gradient-180" x1="23.3" y1="-37.49" x2="40.01" y2="-54.45" xlink:href="#linear-gradient"/>
    <linearGradient id="linear-gradient-181" x1="24.14" y1="-37.96" x2="40.86" y2="-54.92" xlink:href="#linear-gradient"/>
    <linearGradient id="linear-gradient-182" x1="25" y1="-38.42" x2="41.72" y2="-55.38" xlink:href="#linear-gradient"/>
    <linearGradient id="linear-gradient-183" x1="25.88" y1="-38.86" x2="42.59" y2="-55.81" xlink:href="#linear-gradient"/>
    <linearGradient id="linear-gradient-184" x1="26.76" y1="-39.27" x2="43.47" y2="-56.23" xlink:href="#linear-gradient"/>
    <linearGradient id="linear-gradient-185" x1="27.65" y1="-39.67" x2="44.37" y2="-56.63" xlink:href="#linear-gradient"/>
    <linearGradient id="linear-gradient-186" x1="28.56" y1="-40.05" x2="45.27" y2="-57.01" xlink:href="#linear-gradient"/>
    <linearGradient id="linear-gradient-187" x1="29.47" y1="-40.4" x2="46.19" y2="-57.36" xlink:href="#linear-gradient"/>
    <linearGradient id="linear-gradient-188" x1="30.4" y1="-40.74" x2="47.11" y2="-57.7" xlink:href="#linear-gradient"/>
    <linearGradient id="linear-gradient-189" x1="31.33" y1="-41.05" x2="48.05" y2="-58.01" xlink:href="#linear-gradient"/>
    <linearGradient id="linear-gradient-190" x1="32.28" y1="-41.34" x2="48.99" y2="-58.3" xlink:href="#linear-gradient"/>
    <linearGradient id="linear-gradient-191" x1="33.23" y1="-41.61" x2="49.95" y2="-58.57" xlink:href="#linear-gradient"/>
    <linearGradient id="linear-gradient-192" x1="34.2" y1="-41.86" x2="50.91" y2="-58.82" xlink:href="#linear-gradient"/>
    <linearGradient id="linear-gradient-193" x1="35.17" y1="-42.09" x2="51.88" y2="-59.05" xlink:href="#linear-gradient"/>
    <linearGradient id="linear-gradient-194" x1="36.15" y1="-42.29" x2="52.87" y2="-59.25" xlink:href="#linear-gradient"/>
    <linearGradient id="linear-gradient-195" x1="37.14" y1="-42.47" x2="53.85" y2="-59.43" xlink:href="#linear-gradient"/>
    <linearGradient id="linear-gradient-196" x1="38.14" y1="-42.63" x2="54.85" y2="-59.59" xlink:href="#linear-gradient"/>
    <linearGradient id="linear-gradient-197" x1="39.14" y1="-42.77" x2="55.86" y2="-59.73" xlink:href="#linear-gradient"/>
    <linearGradient id="linear-gradient-198" x1="40.15" y1="-42.88" x2="56.87" y2="-59.84" xlink:href="#linear-gradient"/>
    <linearGradient id="linear-gradient-199" x1="41.17" y1="-42.96" x2="57.89" y2="-59.92" xlink:href="#linear-gradient"/>
    <linearGradient id="linear-gradient-200" x1="42.2" y1="-43.03" x2="58.91" y2="-59.98" xlink:href="#linear-gradient"/>
    <linearGradient id="linear-gradient-201" x1="43.23" y1="-43.06" x2="59.94" y2="-60.02" xlink:href="#linear-gradient"/>
    <linearGradient id="linear-gradient-202" x1="44.27" y1="-43.07" x2="60.98" y2="-60.03" xlink:href="#linear-gradient"/>
  </defs>
  <g id="OBJECTS">
    <g>
      <path class="cls-10" d="m1.11,31.27c2.77-5.96,9.85-8.55,15.81-5.78,5.96,2.77,8.55,9.85,5.78,15.81-2.77,5.96-9.85,8.55-15.81,5.78C.93,44.31-1.66,37.24,1.11,31.27Z"/>
      <path class="cls-92" d="m1.56,30.34c2.77-5.96,9.85-8.55,15.81-5.78,5.96,2.77,8.55,9.85,5.78,15.81-2.77,5.96-9.85,8.55-15.81,5.78-5.96-2.77-8.55-9.85-5.78-15.81Z"/>
      <path class="cls-103" d="m2.03,29.42c2.77-5.96,9.85-8.55,15.81-5.78,5.96,2.77,8.55,9.85,5.78,15.81-2.77,5.96-9.85,8.55-15.81,5.78-5.96-2.77-8.55-9.85-5.78-15.81Z"/>
      <path class="cls-182" d="m2.52,28.51c2.77-5.96,9.85-8.55,15.81-5.78,5.96,2.77,8.55,9.85,5.78,15.81-2.77,5.96-9.85,8.55-15.81,5.78-5.96-2.77-8.55-9.85-5.78-15.81Z"/>
      <path class="cls-48" d="m3.02,27.62c2.77-5.96,9.85-8.55,15.81-5.78,5.96,2.77,8.55,9.85,5.78,15.81-2.77,5.96-9.85,8.55-15.81,5.78-5.96-2.77-8.55-9.85-5.78-15.81Z"/>
      <path class="cls-25" d="m3.55,26.75c2.77-5.96,9.85-8.55,15.81-5.78,5.96,2.77,8.55,9.85,5.78,15.81-2.77,5.96-9.85,8.55-15.81,5.78-5.96-2.77-8.55-9.85-5.78-15.81Z"/>
      <path class="cls-101" d="m4.09,25.9c2.77-5.96,9.85-8.55,15.81-5.78,5.96,2.77,8.55,9.85,5.78,15.81-2.77,5.96-9.85,8.55-15.81,5.78-5.96-2.77-8.55-9.85-5.78-15.81Z"/>
      <path class="cls-137" d="m4.66,25.06c2.77-5.96,9.85-8.55,15.81-5.78,5.96,2.77,8.55,9.85,5.78,15.81-2.77,5.96-9.85,8.55-15.81,5.78-5.96-2.77-8.55-9.85-5.78-15.81Z"/>
      <path class="cls-111" d="m5.24,24.24c2.77-5.96,9.85-8.55,15.81-5.78,5.96,2.77,8.55,9.85,5.78,15.81-2.77,5.96-9.85,8.55-15.81,5.78-5.96-2.77-8.55-9.85-5.78-15.81Z"/>
      <path class="cls-170" d="m5.84,23.44c2.77-5.96,9.85-8.55,15.81-5.78,5.96,2.77,8.55,9.85,5.78,15.81-2.77,5.96-9.85,8.55-15.81,5.78-5.96-2.77-8.55-9.85-5.78-15.81Z"/>
      <path class="cls-40" d="m6.45,22.65c2.77-5.96,9.85-8.55,15.81-5.78,5.96,2.77,8.55,9.85,5.78,15.81-2.77,5.96-9.85,8.55-15.81,5.78-5.96-2.77-8.55-9.85-5.78-15.81Z"/>
      <path class="cls-2" d="m7.08,21.88c2.77-5.96,9.85-8.55,15.81-5.78,5.96,2.77,8.55,9.85,5.78,15.81-2.77,5.96-9.85,8.55-15.81,5.78-5.96-2.77-8.55-9.85-5.78-15.81Z"/>
      <path class="cls-73" d="m7.73,21.13c2.77-5.96,9.85-8.55,15.81-5.78,5.96,2.77,8.55,9.85,5.78,15.81-2.77,5.96-9.85,8.55-15.81,5.78-5.96-2.77-8.55-9.85-5.78-15.81Z"/>
      <path class="cls-90" d="m8.39,20.4c2.77-5.96,9.85-8.55,15.81-5.78,5.96,2.77,8.55,9.85,5.78,15.81-2.77,5.96-9.85,8.55-15.81,5.78-5.96-2.77-8.55-9.85-5.78-15.81Z"/>
      <path class="cls-39" d="m9.07,19.68c2.77-5.96,9.85-8.55,15.81-5.78,5.96,2.77,8.55,9.85,5.78,15.81-2.77,5.96-9.85,8.55-15.81,5.78-5.96-2.77-8.55-9.85-5.78-15.81Z"/>
      <path class="cls-78" d="m9.77,18.98c2.77-5.96,9.85-8.55,15.81-5.78,5.96,2.77,8.55,9.85,5.78,15.81-2.77,5.96-9.85,8.55-15.81,5.78-5.96-2.77-8.55-9.85-5.78-15.81Z"/>
      <path class="cls-5" d="m10.47,18.3c2.77-5.96,9.85-8.55,15.81-5.78,5.96,2.77,8.55,9.85,5.78,15.81-2.77,5.96-9.85,8.55-15.81,5.78-5.96-2.77-8.55-9.85-5.78-15.81Z"/>
      <path class="cls-144" d="m11.2,17.64c2.77-5.96,9.85-8.55,15.81-5.78,5.96,2.77,8.55,9.85,5.78,15.81-2.77,5.96-9.85,8.55-15.81,5.78-5.96-2.77-8.55-9.85-5.78-15.81Z"/>
      <path class="cls-8" d="m11.93,16.99c2.77-5.96,9.85-8.55,15.81-5.78,5.96,2.77,8.55,9.85,5.78,15.81-2.77,5.96-9.85,8.55-15.81,5.78-5.96-2.77-8.55-9.85-5.78-15.81Z"/>
      <path class="cls-89" d="m12.68,16.37c2.77-5.96,9.85-8.55,15.81-5.78,5.96,2.77,8.55,9.85,5.78,15.81-2.77,5.96-9.85,8.55-15.81,5.78-5.96-2.77-8.55-9.85-5.78-15.81Z"/>
      <path class="cls-24" d="m13.45,15.76c2.77-5.96,9.85-8.55,15.81-5.78,5.96,2.77,8.55,9.85,5.78,15.81-2.77,5.96-9.85,8.55-15.81,5.78-5.96-2.77-8.55-9.85-5.78-15.81Z"/>
      <path class="cls-79" d="m14.22,15.17c2.77-5.96,9.85-8.55,15.81-5.78,5.96,2.77,8.55,9.85,5.78,15.81-2.77,5.96-9.85,8.55-15.81,5.78-5.96-2.77-8.55-9.85-5.78-15.81Z"/>
      <path class="cls-74" d="m15.01,14.61c2.77-5.96,9.85-8.55,15.81-5.78,5.96,2.77,8.55,9.85,5.78,15.81-2.77,5.96-9.85,8.55-15.81,5.78-5.96-2.77-8.55-9.85-5.78-15.81Z"/>
      <path class="cls-140" d="m15.81,14.06c2.77-5.96,9.85-8.55,15.81-5.78,5.96,2.77,8.55,9.85,5.78,15.81-2.77,5.96-9.85,8.55-15.81,5.78-5.96-2.77-8.55-9.85-5.78-15.81Z"/>
      <path class="cls-76" d="m16.62,13.52c2.77-5.96,9.85-8.55,15.81-5.78,5.96,2.77,8.55,9.85,5.78,15.81-2.77,5.96-9.85,8.55-15.81,5.78-5.96-2.77-8.55-9.85-5.78-15.81Z"/>
      <path class="cls-141" d="m17.44,13.01c2.77-5.96,9.85-8.55,15.81-5.78,5.96,2.77,8.55,9.85,5.78,15.81-2.77,5.96-9.85,8.55-15.81,5.78-5.96-2.77-8.55-9.85-5.78-15.81Z"/>
      <path class="cls-112" d="m18.28,12.52c2.77-5.96,9.85-8.55,15.81-5.78,5.96,2.77,8.55,9.85,5.78,15.81-2.77,5.96-9.85,8.55-15.81,5.78-5.96-2.77-8.55-9.85-5.78-15.81Z"/>
      <path class="cls-167" d="m19.12,12.05c2.77-5.96,9.85-8.55,15.81-5.78,5.96,2.77,8.55,9.85,5.78,15.81-2.77,5.96-9.85,8.55-15.81,5.78-5.96-2.77-8.55-9.85-5.78-15.81Z"/>
      <path class="cls-155" d="m19.98,11.6c2.77-5.96,9.85-8.55,15.81-5.78,5.96,2.77,8.55,9.85,5.78,15.81-2.77,5.96-9.85,8.55-15.81,5.78-5.96-2.77-8.55-9.85-5.78-15.81Z"/>
      <path class="cls-146" d="m20.84,11.16c2.77-5.96,9.85-8.55,15.81-5.78,5.96,2.77,8.55,9.85,5.78,15.81-2.77,5.96-9.85,8.55-15.81,5.78-5.96-2.77-8.55-9.85-5.78-15.81Z"/>
      <path class="cls-53" d="m21.71,10.75c2.77-5.96,9.85-8.55,15.81-5.78,5.96,2.77,8.55,9.85,5.78,15.81-2.77,5.96-9.85,8.55-15.81,5.78-5.96-2.77-8.55-9.85-5.78-15.81Z"/>
      <path class="cls-86" d="m22.59,10.36c2.77-5.96,9.85-8.55,15.81-5.78,5.96,2.77,8.55,9.85,5.78,15.81-2.77,5.96-9.85,8.55-15.81,5.78-5.96-2.77-8.55-9.85-5.78-15.81Z"/>
      <path class="cls-9" d="m23.48,9.98c2.77-5.96,9.85-8.55,15.81-5.78,5.96,2.77,8.55,9.85,5.78,15.81-2.77,5.96-9.85,8.55-15.81,5.78-5.96-2.77-8.55-9.85-5.78-15.81Z"/>
      <path class="cls-59" d="m24.38,9.63c2.77-5.96,9.85-8.55,15.81-5.78,5.96,2.77,8.55,9.85,5.78,15.81-2.77,5.96-9.85,8.55-15.81,5.78-5.96-2.77-8.55-9.85-5.78-15.81Z"/>
      <path class="cls-84" d="m25.29,9.3c2.77-5.96,9.85-8.55,15.81-5.78,5.96,2.77,8.55,9.85,5.78,15.81-2.77,5.96-9.85,8.55-15.81,5.78-5.96-2.77-8.55-9.85-5.78-15.81Z"/>
      <path class="cls-131" d="m26.2,8.99c2.77-5.96,9.85-8.55,15.81-5.78,5.96,2.77,8.55,9.85,5.78,15.81-2.77,5.96-9.85,8.55-15.81,5.78-5.96-2.77-8.55-9.85-5.78-15.81Z"/>
      <path class="cls-188" d="m27.12,8.7C29.89,2.74,36.97.15,42.93,2.92c5.96,2.77,8.55,9.85,5.78,15.81-2.77,5.96-9.85,8.55-15.81,5.78-5.96-2.77-8.55-9.85-5.78-15.81Z"/>
      <path class="cls-1" d="m28.05,8.43C30.82,2.47,37.9-.12,43.86,2.65c5.96,2.77,8.55,9.85,5.78,15.81-2.77,5.96-9.85,8.55-15.81,5.78-5.96-2.77-8.55-9.85-5.78-15.81Z"/>
      <path class="cls-102" d="m28.98,8.18c2.77-5.96,9.85-8.55,15.81-5.78,5.96,2.77,8.55,9.85,5.78,15.81-2.77,5.96-9.85,8.55-15.81,5.78-5.96-2.77-8.55-9.85-5.78-15.81Z"/>
      <path class="cls-69" d="m29.92,7.96c2.77-5.96,9.85-8.55,15.81-5.78,5.96,2.77,8.55,9.85,5.78,15.81-2.77,5.96-9.85,8.55-15.81,5.78-5.96-2.77-8.55-9.85-5.78-15.81Z"/>
      <path class="cls-66" d="m30.87,7.75c2.77-5.96,9.85-8.55,15.81-5.78,5.96,2.77,8.55,9.85,5.78,15.81-2.77,5.96-9.85,8.55-15.81,5.78-5.96-2.77-8.55-9.85-5.78-15.81Z"/>
      <path class="cls-36" d="m31.82,7.57c2.77-5.96,9.85-8.55,15.81-5.78,5.96,2.77,8.55,9.85,5.78,15.81-2.77,5.96-9.85,8.55-15.81,5.78-5.96-2.77-8.55-9.85-5.78-15.81Z"/>
      <path class="cls-77" d="m32.77,7.41c2.77-5.96,9.85-8.55,15.81-5.78,5.96,2.77,8.55,9.85,5.78,15.81-2.77,5.96-9.85,8.55-15.81,5.78-5.96-2.77-8.55-9.85-5.78-15.81Z"/>
      <path class="cls-148" d="m33.73,7.27c2.77-5.96,9.85-8.55,15.81-5.78,5.96,2.77,8.55,9.85,5.78,15.81-2.77,5.96-9.85,8.55-15.81,5.78-5.96-2.77-8.55-9.85-5.78-15.81Z"/>
      <path class="cls-96" d="m34.69,7.15c2.77-5.96,9.85-8.55,15.81-5.78,5.96,2.77,8.55,9.85,5.78,15.81-2.77,5.96-9.85,8.55-15.81,5.78-5.96-2.77-8.55-9.85-5.78-15.81Z"/>
      <path class="cls-156" d="m35.66,7.05c2.77-5.96,9.85-8.55,15.81-5.78,5.96,2.77,8.55,9.85,5.78,15.81-2.77,5.96-9.85,8.55-15.81,5.78-5.96-2.77-8.55-9.85-5.78-15.81Z"/>
      <path class="cls-138" d="m36.63,6.98c2.77-5.96,9.85-8.55,15.81-5.78,5.96,2.77,8.55,9.85,5.78,15.81-2.77,5.96-9.85,8.55-15.81,5.78-5.96-2.77-8.55-9.85-5.78-15.81Z"/>
      <path class="cls-133" d="m37.6,6.93c2.77-5.96,9.85-8.55,15.81-5.78,5.96,2.77,8.55,9.85,5.78,15.81-2.77,5.96-9.85,8.55-15.81,5.78-5.96-2.77-8.55-9.85-5.78-15.81Z"/>
      <path class="cls-135" d="m38.57,6.9c2.77-5.96,9.85-8.55,15.81-5.78,5.96,2.77,8.55,9.85,5.78,15.81-2.77,5.96-9.85,8.55-15.81,5.78-5.96-2.77-8.55-9.85-5.78-15.81Z"/>
      <path class="cls-85" d="m39.55,6.89c2.77-5.96,9.85-8.55,15.81-5.78,5.96,2.77,8.55,9.85,5.78,15.81-2.77,5.96-9.85,8.55-15.81,5.78-5.96-2.77-8.55-9.85-5.78-15.81Z"/>
      <path class="cls-145" d="m40.53,6.91c2.77-5.96,9.85-8.55,15.81-5.78,5.96,2.77,8.55,9.85,5.78,15.81-2.77,5.96-9.85,8.55-15.81,5.78-5.96-2.77-8.55-9.85-5.78-15.81Z"/>
      <path class="cls-95" d="m41.51,6.95c2.77-5.96,9.85-8.55,15.81-5.78,5.96,2.77,8.55,9.85,5.78,15.81-2.77,5.96-9.85,8.55-15.81,5.78-5.96-2.77-8.55-9.85-5.78-15.81Z"/>
      <path class="cls-124" d="m42.49,7.01c2.77-5.96,9.85-8.55,15.81-5.78,5.96,2.77,8.55,9.85,5.78,15.81-2.77,5.96-9.85,8.55-15.81,5.78-5.96-2.77-8.55-9.85-5.78-15.81Z"/>
      <path class="cls-80" d="m43.47,7.1c2.77-5.96,9.85-8.55,15.81-5.78,5.96,2.77,8.55,9.85,5.78,15.81-2.77,5.96-9.85,8.55-15.81,5.78-5.96-2.77-8.55-9.85-5.78-15.81Z"/>
      <path class="cls-81" d="m44.45,7.21c2.77-5.96,9.85-8.55,15.81-5.78,5.96,2.77,8.55,9.85,5.78,15.81-2.77,5.96-9.85,8.55-15.81,5.78-5.96-2.77-8.55-9.85-5.78-15.81Z"/>
      <path class="cls-168" d="m45.43,7.34c2.77-5.96,9.85-8.55,15.81-5.78,5.96,2.77,8.55,9.85,5.78,15.81-2.77,5.96-9.85,8.55-15.81,5.78-5.96-2.77-8.55-9.85-5.78-15.81Z"/>
      <path class="cls-20" d="m46.41,7.5c2.77-5.96,9.85-8.55,15.81-5.78,5.96,2.77,8.55,9.85,5.78,15.81-2.77,5.96-9.85,8.55-15.81,5.78-5.96-2.77-8.55-9.85-5.78-15.81Z"/>
      <path class="cls-56" d="m47.39,7.68c2.77-5.96,9.85-8.55,15.81-5.78,5.96,2.77,8.55,9.85,5.78,15.81-2.77,5.96-9.85,8.55-15.81,5.78-5.96-2.77-8.55-9.85-5.78-15.81Z"/>
      <path class="cls-88" d="m48.37,7.88c2.77-5.96,9.85-8.55,15.81-5.78,5.96,2.77,8.55,9.85,5.78,15.81-2.77,5.96-9.85,8.55-15.81,5.78-5.96-2.77-8.55-9.85-5.78-15.81Z"/>
      <path class="cls-87" d="m49.34,8.11c2.77-5.96,9.85-8.55,15.81-5.78,5.96,2.77,8.55,9.85,5.78,15.81-2.77,5.96-9.85,8.55-15.81,5.78-5.96-2.77-8.55-9.85-5.78-15.81Z"/>
      <path class="cls-142" d="m50.31,8.36c2.77-5.96,9.85-8.55,15.81-5.78,5.96,2.77,8.55,9.85,5.78,15.81-2.77,5.96-9.85,8.55-15.81,5.78-5.96-2.77-8.55-9.85-5.78-15.81Z"/>
      <path class="cls-12" d="m51.28,8.64c2.77-5.96,9.85-8.55,15.81-5.78,5.96,2.77,8.55,9.85,5.78,15.81-2.77,5.96-9.85,8.55-15.81,5.78-5.96-2.77-8.55-9.85-5.78-15.81Z"/>
      <path class="cls-57" d="m52.25,8.94c2.77-5.96,9.85-8.55,15.81-5.78,5.96,2.77,8.55,9.85,5.78,15.81-2.77,5.96-9.85,8.55-15.81,5.78-5.96-2.77-8.55-9.85-5.78-15.81Z"/>
      <path class="cls-160" d="m53.22,9.27c2.77-5.96,9.85-8.55,15.81-5.78,5.96,2.77,8.55,9.85,5.78,15.81-2.77,5.96-9.85,8.55-15.81,5.78-5.96-2.77-8.55-9.85-5.78-15.81Z"/>
      <path class="cls-130" d="m54.18,9.62c2.77-5.96,9.85-8.55,15.81-5.78,5.96,2.77,8.55,9.85,5.78,15.81-2.77,5.96-9.85,8.55-15.81,5.78-5.96-2.77-8.55-9.85-5.78-15.81Z"/>
      <path class="cls-71" d="m55.13,9.99c2.77-5.96,9.85-8.55,15.81-5.78,5.96,2.77,8.55,9.85,5.78,15.81-2.77,5.96-9.85,8.55-15.81,5.78-5.96-2.77-8.55-9.85-5.78-15.81Z"/>
      <path class="cls-17" d="m56.08,10.39c2.77-5.96,9.85-8.55,15.81-5.78,5.96,2.77,8.55,9.85,5.78,15.81-2.77,5.96-9.85,8.55-15.81,5.78-5.96-2.77-8.55-9.85-5.78-15.81Z"/>
      <path class="cls-152" d="m57.03,10.82c2.77-5.96,9.85-8.55,15.81-5.78,5.96,2.77,8.55,9.85,5.78,15.81-2.77,5.96-9.85,8.55-15.81,5.78-5.96-2.77-8.55-9.85-5.78-15.81Z"/>
      <path class="cls-107" d="m57.97,11.27c2.77-5.96,9.85-8.55,15.81-5.78,5.96,2.77,8.55,9.85,5.78,15.81-2.77,5.96-9.85,8.55-15.81,5.78-5.96-2.77-8.55-9.85-5.78-15.81Z"/>
      <path class="cls-175" d="m58.89,11.74c2.77-5.96,9.85-8.55,15.81-5.78,5.96,2.77,8.55,9.85,5.78,15.81-2.77,5.96-9.85,8.55-15.81,5.78-5.96-2.77-8.55-9.85-5.78-15.81Z"/>
      <path class="cls-55" d="m59.79,12.22c2.77-5.96,9.85-8.55,15.81-5.78,5.96,2.77,8.55,9.85,5.78,15.81-2.77,5.96-9.85,8.55-15.81,5.78-5.96-2.77-8.55-9.85-5.78-15.81Z"/>
      <path class="cls-154" d="m60.68,12.73c2.77-5.96,9.85-8.55,15.81-5.78,5.96,2.77,8.55,9.85,5.78,15.81-2.77,5.96-9.85,8.55-15.81,5.78-5.96-2.77-8.55-9.85-5.78-15.81Z"/>
      <path class="cls-44" d="m61.55,13.26c2.77-5.96,9.85-8.55,15.81-5.78,5.96,2.77,8.55,9.85,5.78,15.81-2.77,5.96-9.85,8.55-15.81,5.78-5.96-2.77-8.55-9.85-5.78-15.81Z"/>
      <path class="cls-178" d="m62.41,13.8c2.77-5.96,9.85-8.55,15.81-5.78,5.96,2.77,8.55,9.85,5.78,15.81-2.77,5.96-9.85,8.55-15.81,5.78-5.96-2.77-8.55-9.85-5.78-15.81Z"/>
      <path class="cls-202" d="m63.24,14.37c2.77-5.96,9.85-8.55,15.81-5.78,5.96,2.77,8.55,9.85,5.78,15.81-2.77,5.96-9.85,8.55-15.81,5.78-5.96-2.77-8.55-9.85-5.78-15.81Z"/>
      <path class="cls-29" d="m64.06,14.95c2.77-5.96,9.85-8.55,15.81-5.78,5.96,2.77,8.55,9.85,5.78,15.81-2.77,5.96-9.85,8.55-15.81,5.78-5.96-2.77-8.55-9.85-5.78-15.81Z"/>
      <path class="cls-105" d="m64.87,15.54c2.77-5.96,9.85-8.55,15.81-5.78,5.96,2.77,8.55,9.85,5.78,15.81-2.77,5.96-9.85,8.55-15.81,5.78-5.96-2.77-8.55-9.85-5.78-15.81Z"/>
      <path class="cls-176" d="m65.65,16.16c2.77-5.96,9.85-8.55,15.81-5.78,5.96,2.77,8.55,9.85,5.78,15.81-2.77,5.96-9.85,8.55-15.81,5.78-5.96-2.77-8.55-9.85-5.78-15.81Z"/>
      <path class="cls-197" d="m66.42,16.79c2.77-5.96,9.85-8.55,15.81-5.78,5.96,2.77,8.55,9.85,5.78,15.81-2.77,5.96-9.85,8.55-15.81,5.78-5.96-2.77-8.55-9.85-5.78-15.81Z"/>
      <path class="cls-191" d="m67.17,17.44c2.77-5.96,9.85-8.55,15.81-5.78,5.96,2.77,8.55,9.85,5.78,15.81-2.77,5.96-9.85,8.55-15.81,5.78-5.96-2.77-8.55-9.85-5.78-15.81Z"/>
      <path class="cls-43" d="m67.91,18.1c2.77-5.96,9.85-8.55,15.81-5.78,5.96,2.77,8.55,9.85,5.78,15.81-2.77,5.96-9.85,8.55-15.81,5.78-5.96-2.77-8.55-9.85-5.78-15.81Z"/>
      <path class="cls-119" d="m68.63,18.78c2.77-5.96,9.85-8.55,15.81-5.78,5.96,2.77,8.55,9.85,5.78,15.81-2.77,5.96-9.85,8.55-15.81,5.78-5.96-2.77-8.55-9.85-5.78-15.81Z"/>
      <path class="cls-121" d="m69.32,19.47c2.77-5.96,9.85-8.55,15.81-5.78,5.96,2.77,8.55,9.85,5.78,15.81-2.77,5.96-9.85,8.55-15.81,5.78-5.96-2.77-8.55-9.85-5.78-15.81Z"/>
      <path class="cls-150" d="m70,20.18c2.77-5.96,9.85-8.55,15.81-5.78,5.96,2.77,8.55,9.85,5.78,15.81-2.77,5.96-9.85,8.55-15.81,5.78-5.96-2.77-8.55-9.85-5.78-15.81Z"/>
      <path class="cls-129" d="m70.67,20.9c2.77-5.96,9.85-8.55,15.81-5.78,5.96,2.77,8.55,9.85,5.78,15.81-2.77,5.96-9.85,8.55-15.81,5.78-5.96-2.77-8.55-9.85-5.78-15.81Z"/>
      <path class="cls-177" d="m71.31,21.64c2.77-5.96,9.85-8.55,15.81-5.78,5.96,2.77,8.55,9.85,5.78,15.81-2.77,5.96-9.85,8.55-15.81,5.78-5.96-2.77-8.55-9.85-5.78-15.81Z"/>
      <path class="cls-174" d="m71.93,22.39c2.77-5.96,9.85-8.55,15.81-5.78,5.96,2.77,8.55,9.85,5.78,15.81-2.77,5.96-9.85,8.55-15.81,5.78-5.96-2.77-8.55-9.85-5.78-15.81Z"/>
      <path class="cls-7" d="m72.54,23.15c2.77-5.96,9.85-8.55,15.81-5.78,5.96,2.77,8.55,9.85,5.78,15.81-2.77,5.96-9.85,8.55-15.81,5.78-5.96-2.77-8.55-9.85-5.78-15.81Z"/>
      <path class="cls-67" d="m73.13,23.93c2.77-5.96,9.85-8.55,15.81-5.78,5.96,2.77,8.55,9.85,5.78,15.81-2.77,5.96-9.85,8.55-15.81,5.78-5.96-2.77-8.55-9.85-5.78-15.81Z"/>
      <path class="cls-125" d="m73.7,24.72c2.77-5.96,9.85-8.55,15.81-5.78,5.96,2.77,8.55,9.85,5.78,15.81-2.77,5.96-9.85,8.55-15.81,5.78-5.96-2.77-8.55-9.85-5.78-15.81Z"/>
      <path class="cls-45" d="m74.25,25.52c2.77-5.96,9.85-8.55,15.81-5.78,5.96,2.77,8.55,9.85,5.78,15.81-2.77,5.96-9.85,8.55-15.81,5.78-5.96-2.77-8.55-9.85-5.78-15.81Z"/>
      <path class="cls-14" d="m74.78,26.33c2.77-5.96,9.85-8.55,15.81-5.78,5.96,2.77,8.55,9.85,5.78,15.81-2.77,5.96-9.85,8.55-15.81,5.78-5.96-2.77-8.55-9.85-5.78-15.81Z"/>
      <path class="cls-98" d="m75.29,27.15c2.77-5.96,9.85-8.55,15.81-5.78,5.96,2.77,8.55,9.85,5.78,15.81-2.77,5.96-9.85,8.55-15.81,5.78-5.96-2.77-8.55-9.85-5.78-15.81Z"/>
      <path class="cls-110" d="m75.78,27.99c2.77-5.96,9.85-8.55,15.81-5.78,5.96,2.77,8.55,9.85,5.78,15.81-2.77,5.96-9.85,8.55-15.81,5.78-5.96-2.77-8.55-9.85-5.78-15.81Z"/>
      <path class="cls-38" d="m76.26,28.83c2.77-5.96,9.85-8.55,15.81-5.78,5.96,2.77,8.55,9.85,5.78,15.81-2.77,5.96-9.85,8.55-15.81,5.78-5.96-2.77-8.55-9.85-5.78-15.81Z"/>
      <path class="cls-61" d="m76.71,29.68c2.77-5.96,9.85-8.55,15.81-5.78,5.96,2.77,8.55,9.85,5.78,15.81-2.77,5.96-9.85,8.55-15.81,5.78-5.96-2.77-8.55-9.85-5.78-15.81Z"/>
      <path class="cls-151" d="m77.14,30.55c2.77-5.96,9.85-8.55,15.81-5.78,5.96,2.77,8.55,9.85,5.78,15.81-2.77,5.96-9.85,8.55-15.81,5.78-5.96-2.77-8.55-9.85-5.78-15.81Z"/>
      <path class="cls-15" d="m77.55,31.42c2.77-5.96,9.85-8.55,15.81-5.78,5.96,2.77,8.55,9.85,5.78,15.81-2.77,5.96-9.85,8.55-15.81,5.78-5.96-2.77-8.55-9.85-5.78-15.81Z"/>
      <path class="cls-169" d="m77.95,32.3c2.77-5.96,9.85-8.55,15.81-5.78,5.96,2.77,8.55,9.85,5.78,15.81-2.77,5.96-9.85,8.55-15.81,5.78-5.96-2.77-8.55-9.85-5.78-15.81Z"/>
      <path class="cls-115" d="m78.32,33.19c2.77-5.96,9.85-8.55,15.81-5.78,5.96,2.77,8.55,9.85,5.78,15.81-2.77,5.96-9.85,8.55-15.81,5.78-5.96-2.77-8.55-9.85-5.78-15.81Z"/>
      <path class="cls-42" d="m78.67,34.09c2.77-5.96,9.85-8.55,15.81-5.78,5.96,2.77,8.55,9.85,5.78,15.81-2.77,5.96-9.85,8.55-15.81,5.78-5.96-2.77-8.55-9.85-5.78-15.81Z"/>
      <path class="cls-181" d="m79,35c2.77-5.96,9.85-8.55,15.81-5.78,5.96,2.77,8.55,9.85,5.78,15.81-2.77,5.96-9.85,8.55-15.81,5.78-5.96-2.77-8.55-9.85-5.78-15.81Z"/>
      <path class="cls-54" d="m79.31,35.91c2.77-5.96,9.85-8.55,15.81-5.78,5.96,2.77,8.55,9.85,5.78,15.81-2.77,5.96-9.85,8.55-15.81,5.78-5.96-2.77-8.55-9.85-5.78-15.81Z"/>
      <path class="cls-37" d="m79.6,36.83c2.77-5.96,9.85-8.55,15.81-5.78,5.96,2.77,8.55,9.85,5.78,15.81-2.77,5.96-9.85,8.55-15.81,5.78-5.96-2.77-8.55-9.85-5.78-15.81Z"/>
      <path class="cls-120" d="m79.87,37.76c2.77-5.96,9.85-8.55,15.81-5.78,5.96,2.77,8.55,9.85,5.78,15.81-2.77,5.96-9.85,8.55-15.81,5.78-5.96-2.77-8.55-9.85-5.78-15.81Z"/>
      <path class="cls-41" d="m80.12,38.69c2.77-5.96,9.85-8.55,15.81-5.78,5.96,2.77,8.55,9.85,5.78,15.81-2.77,5.96-9.85,8.55-15.81,5.78-5.96-2.77-8.55-9.85-5.78-15.81Z"/>
      <path class="cls-161" d="m80.35,39.63c2.77-5.96,9.85-8.55,15.81-5.78,5.96,2.77,8.55,9.85,5.78,15.81-2.77,5.96-9.85,8.55-15.81,5.78-5.96-2.77-8.55-9.85-5.78-15.81Z"/>
      <path class="cls-199" d="m80.55,40.58c2.77-5.96,9.85-8.55,15.81-5.78,5.96,2.77,8.55,9.85,5.78,15.81-2.77,5.96-9.85,8.55-15.81,5.78-5.96-2.77-8.55-9.85-5.78-15.81Z"/>
      <path class="cls-163" d="m80.74,41.53c2.77-5.96,9.85-8.55,15.81-5.78,5.96,2.77,8.55,9.85,5.78,15.81-2.77,5.96-9.85,8.55-15.81,5.78-5.96-2.77-8.55-9.85-5.78-15.81Z"/>
      <path class="cls-82" d="m80.9,42.48c2.77-5.96,9.85-8.55,15.81-5.78,5.96,2.77,8.55,9.85,5.78,15.81-2.77,5.96-9.85,8.55-15.81,5.78-5.96-2.77-8.55-9.85-5.78-15.81Z"/>
      <path class="cls-198" d="m81.04,43.44c2.77-5.96,9.85-8.55,15.81-5.78,5.96,2.77,8.55,9.85,5.78,15.81-2.77,5.96-9.85,8.55-15.81,5.78-5.96-2.77-8.55-9.85-5.78-15.81Z"/>
      <path class="cls-184" d="m81.16,44.4c2.77-5.96,9.85-8.55,15.81-5.78,5.96,2.77,8.55,9.85,5.78,15.81-2.77,5.96-9.85,8.55-15.81,5.78-5.96-2.77-8.55-9.85-5.78-15.81Z"/>
      <path class="cls-165" d="m81.25,45.37c2.77-5.96,9.85-8.55,15.81-5.78,5.96,2.77,8.55,9.85,5.78,15.81-2.77,5.96-9.85,8.55-15.81,5.78-5.96-2.77-8.55-9.85-5.78-15.81Z"/>
      <path class="cls-143" d="m81.32,46.34c2.77-5.96,9.85-8.55,15.81-5.78,5.96,2.77,8.55,9.85,5.78,15.81-2.77,5.96-9.85,8.55-15.81,5.78-5.96-2.77-8.55-9.85-5.78-15.81Z"/>
      <path class="cls-192" d="m81.38,47.31c2.77-5.96,9.85-8.55,15.81-5.78,5.96,2.77,8.55,9.85,5.78,15.81-2.77,5.96-9.85,8.55-15.81,5.78-5.96-2.77-8.55-9.85-5.78-15.81Z"/>
      <path class="cls-196" d="m81.4,48.28c2.77-5.96,9.85-8.55,15.81-5.78,5.96,2.77,8.55,9.85,5.78,15.81-2.77,5.96-9.85,8.55-15.81,5.78-5.96-2.77-8.55-9.85-5.78-15.81Z"/>
      <path class="cls-128" d="m81.41,49.26c2.77-5.96,9.85-8.55,15.81-5.78,5.96,2.77,8.55,9.85,5.78,15.81-2.77,5.96-9.85,8.55-15.81,5.78-5.96-2.77-8.55-9.85-5.78-15.81Z"/>
      <path class="cls-183" d="m81.39,50.24c2.77-5.96,9.85-8.55,15.81-5.78,5.96,2.77,8.55,9.85,5.78,15.81-2.77,5.96-9.85,8.55-15.81,5.78-5.96-2.77-8.55-9.85-5.78-15.81Z"/>
      <path class="cls-106" d="m81.35,51.22c2.77-5.96,9.85-8.55,15.81-5.78,5.96,2.77,8.55,9.85,5.78,15.81-2.77,5.96-9.85,8.55-15.81,5.78-5.96-2.77-8.55-9.85-5.78-15.81Z"/>
      <path class="cls-65" d="m81.29,52.2c2.77-5.96,9.85-8.55,15.81-5.78,5.96,2.77,8.55,9.85,5.78,15.81-2.77,5.96-9.85,8.55-15.81,5.78-5.96-2.77-8.55-9.85-5.78-15.81Z"/>
      <path class="cls-147" d="m81.21,53.18c2.77-5.96,9.85-8.55,15.81-5.78,5.96,2.77,8.55,9.85,5.78,15.81-2.77,5.96-9.85,8.55-15.81,5.78-5.96-2.77-8.55-9.85-5.78-15.81Z"/>
      <path class="cls-60" d="m81.1,54.16c2.77-5.96,9.85-8.55,15.81-5.78,5.96,2.77,8.55,9.85,5.78,15.81-2.77,5.96-9.85,8.55-15.81,5.78-5.96-2.77-8.55-9.85-5.78-15.81Z"/>
      <path class="cls-185" d="m80.96,55.14c2.77-5.96,9.85-8.55,15.81-5.78,5.96,2.77,8.55,9.85,5.78,15.81-2.77,5.96-9.85,8.55-15.81,5.78-5.96-2.77-8.55-9.85-5.78-15.81Z"/>
      <path class="cls-32" d="m80.81,56.12c2.77-5.96,9.85-8.55,15.81-5.78,5.96,2.77,8.55,9.85,5.78,15.81-2.77,5.96-9.85,8.55-15.81,5.78-5.96-2.77-8.55-9.85-5.78-15.81Z"/>
      <path class="cls-109" d="m80.63,57.1c2.77-5.96,9.85-8.55,15.81-5.78,5.96,2.77,8.55,9.85,5.78,15.81-2.77,5.96-9.85,8.55-15.81,5.78-5.96-2.77-8.55-9.85-5.78-15.81Z"/>
      <path class="cls-72" d="m80.42,58.07c2.77-5.96,9.85-8.55,15.81-5.78,5.96,2.77,8.55,9.85,5.78,15.81-2.77,5.96-9.85,8.55-15.81,5.78-5.96-2.77-8.55-9.85-5.78-15.81Z"/>
      <path class="cls-3" d="m80.19,59.05c2.77-5.96,9.85-8.55,15.81-5.78,5.96,2.77,8.55,9.85,5.78,15.81-2.77,5.96-9.85,8.55-15.81,5.78-5.96-2.77-8.55-9.85-5.78-15.81Z"/>
      <path class="cls-187" d="m79.94,60.02c2.77-5.96,9.85-8.55,15.81-5.78,5.96,2.77,8.55,9.85,5.78,15.81-2.77,5.96-9.85,8.55-15.81,5.78-5.96-2.77-8.55-9.85-5.78-15.81Z"/>
      <path class="cls-153" d="m79.67,60.99c2.77-5.96,9.85-8.55,15.81-5.78,5.96,2.77,8.55,9.85,5.78,15.81-2.77,5.96-9.85,8.55-15.81,5.78-5.96-2.77-8.55-9.85-5.78-15.81Z"/>
      <path class="cls-64" d="m79.36,61.96c2.77-5.96,9.85-8.55,15.81-5.78,5.96,2.77,8.55,9.85,5.78,15.81-2.77,5.96-9.85,8.55-15.81,5.78-5.96-2.77-8.55-9.85-5.78-15.81Z"/>
      <path class="cls-117" d="m79.04,62.93c2.77-5.96,9.85-8.55,15.81-5.78,5.96,2.77,8.55,9.85,5.78,15.81-2.77,5.96-9.85,8.55-15.81,5.78-5.96-2.77-8.55-9.85-5.78-15.81Z"/>
      <path class="cls-6" d="m78.69,63.89c2.77-5.96,9.85-8.55,15.81-5.78,5.96,2.77,8.55,9.85,5.78,15.81-2.77,5.96-9.85,8.55-15.81,5.78-5.96-2.77-8.55-9.85-5.78-15.81Z"/>
      <path class="cls-51" d="m78.31,64.84c2.77-5.96,9.85-8.55,15.81-5.78,5.96,2.77,8.55,9.85,5.78,15.81-2.77,5.96-9.85,8.55-15.81,5.78-5.96-2.77-8.55-9.85-5.78-15.81Z"/>
      <path class="cls-113" d="m77.91,65.79c2.77-5.96,9.85-8.55,15.81-5.78,5.96,2.77,8.55,9.85,5.78,15.81-2.77,5.96-9.85,8.55-15.81,5.78-5.96-2.77-8.55-9.85-5.78-15.81Z"/>
      <path class="cls-193" d="m77.49,66.74c2.77-5.96,9.85-8.55,15.81-5.78,5.96,2.77,8.55,9.85,5.78,15.81-2.77,5.96-9.85,8.55-15.81,5.78-5.96-2.77-8.55-9.85-5.78-15.81Z"/>
      <path class="cls-35" d="m77.04,67.68c2.77-5.96,9.85-8.55,15.81-5.78,5.96,2.77,8.55,9.85,5.78,15.81-2.77,5.96-9.85,8.55-15.81,5.78-5.96-2.77-8.55-9.85-5.78-15.81Z"/>
      <path class="cls-13" d="m76.57,68.6c2.77-5.96,9.85-8.55,15.81-5.78,5.96,2.77,8.55,9.85,5.78,15.81-2.77,5.96-9.85,8.55-15.81,5.78-5.96-2.77-8.55-9.85-5.78-15.81Z"/>
      <path class="cls-21" d="m76.08,69.5c2.77-5.96,9.85-8.55,15.81-5.78,5.96,2.77,8.55,9.85,5.78,15.81-2.77,5.96-9.85,8.55-15.81,5.78-5.96-2.77-8.55-9.85-5.78-15.81Z"/>
      <path class="cls-16" d="m75.57,70.39c2.77-5.96,9.85-8.55,15.81-5.78,5.96,2.77,8.55,9.85,5.78,15.81-2.77,5.96-9.85,8.55-15.81,5.78-5.96-2.77-8.55-9.85-5.78-15.81Z"/>
      <path class="cls-157" d="m75.05,71.26c2.77-5.96,9.85-8.55,15.81-5.78,5.96,2.77,8.55,9.85,5.78,15.81-2.77,5.96-9.85,8.55-15.81,5.78-5.96-2.77-8.55-9.85-5.78-15.81Z"/>
      <path class="cls-83" d="m74.5,72.11c2.77-5.96,9.85-8.55,15.81-5.78,5.96,2.77,8.55,9.85,5.78,15.81-2.77,5.96-9.85,8.55-15.81,5.78-5.96-2.77-8.55-9.85-5.78-15.81Z"/>
      <path class="cls-122" d="m73.94,72.95c2.77-5.96,9.85-8.55,15.81-5.78,5.96,2.77,8.55,9.85,5.78,15.81-2.77,5.96-9.85,8.55-15.81,5.78-5.96-2.77-8.55-9.85-5.78-15.81Z"/>
      <path class="cls-108" d="m73.36,73.77c2.77-5.96,9.85-8.55,15.81-5.78,5.96,2.77,8.55,9.85,5.78,15.81-2.77,5.96-9.85,8.55-15.81,5.78-5.96-2.77-8.55-9.85-5.78-15.81Z"/>
      <path class="cls-201" d="m72.76,74.58c2.77-5.96,9.85-8.55,15.81-5.78,5.96,2.77,8.55,9.85,5.78,15.81-2.77,5.96-9.85,8.55-15.81,5.78-5.96-2.77-8.55-9.85-5.78-15.81Z"/>
      <path class="cls-164" d="m72.14,75.36c2.77-5.96,9.85-8.55,15.81-5.78,5.96,2.77,8.55,9.85,5.78,15.81-2.77,5.96-9.85,8.55-15.81,5.78-5.96-2.77-8.55-9.85-5.78-15.81Z"/>
      <path class="cls-94" d="m71.51,76.13c2.77-5.96,9.85-8.55,15.81-5.78,5.96,2.77,8.55,9.85,5.78,15.81-2.77,5.96-9.85,8.55-15.81,5.78-5.96-2.77-8.55-9.85-5.78-15.81Z"/>
      <path class="cls-70" d="m70.87,76.88c2.77-5.96,9.85-8.55,15.81-5.78,5.96,2.77,8.55,9.85,5.78,15.81-2.77,5.96-9.85,8.55-15.81,5.78-5.96-2.77-8.55-9.85-5.78-15.81Z"/>
      <path class="cls-104" d="m70.2,77.62c2.77-5.96,9.85-8.55,15.81-5.78,5.96,2.77,8.55,9.85,5.78,15.81-2.77,5.96-9.85,8.55-15.81,5.78-5.96-2.77-8.55-9.85-5.78-15.81Z"/>
      <path class="cls-23" d="m69.52,78.33c2.77-5.96,9.85-8.55,15.81-5.78,5.96,2.77,8.55,9.85,5.78,15.81-2.77,5.96-9.85,8.55-15.81,5.78-5.96-2.77-8.55-9.85-5.78-15.81Z"/>
      <path class="cls-171" d="m68.83,79.03c2.77-5.96,9.85-8.55,15.81-5.78,5.96,2.77,8.55,9.85,5.78,15.81-2.77,5.96-9.85,8.55-15.81,5.78-5.96-2.77-8.55-9.85-5.78-15.81Z"/>
      <path class="cls-47" d="m68.12,79.71c2.77-5.96,9.85-8.55,15.81-5.78,5.96,2.77,8.55,9.85,5.78,15.81-2.77,5.96-9.85,8.55-15.81,5.78-5.96-2.77-8.55-9.85-5.78-15.81Z"/>
      <path class="cls-114" d="m67.4,80.37c2.77-5.96,9.85-8.55,15.81-5.78,5.96,2.77,8.55,9.85,5.78,15.81-2.77,5.96-9.85,8.55-15.81,5.78-5.96-2.77-8.55-9.85-5.78-15.81Z"/>
      <path class="cls-19" d="m66.66,81.02c2.77-5.96,9.85-8.55,15.81-5.78,5.96,2.77,8.55,9.85,5.78,15.81-2.77,5.96-9.85,8.55-15.81,5.78-5.96-2.77-8.55-9.85-5.78-15.81Z"/>
      <path class="cls-58" d="m65.91,81.64c2.77-5.96,9.85-8.55,15.81-5.78,5.96,2.77,8.55,9.85,5.78,15.81-2.77,5.96-9.85,8.55-15.81,5.78-5.96-2.77-8.55-9.85-5.78-15.81Z"/>
      <path class="cls-123" d="m65.15,82.25c2.77-5.96,9.85-8.55,15.81-5.78,5.96,2.77,8.55,9.85,5.78,15.81-2.77,5.96-9.85,8.55-15.81,5.78-5.96-2.77-8.55-9.85-5.78-15.81Z"/>
      <path class="cls-93" d="m64.37,82.84c2.77-5.96,9.85-8.55,15.81-5.78,5.96,2.77,8.55,9.85,5.78,15.81-2.77,5.96-9.85,8.55-15.81,5.78-5.96-2.77-8.55-9.85-5.78-15.81Z"/>
      <path class="cls-26" d="m63.59,83.41c2.77-5.96,9.85-8.55,15.81-5.78,5.96,2.77,8.55,9.85,5.78,15.81-2.77,5.96-9.85,8.55-15.81,5.78-5.96-2.77-8.55-9.85-5.78-15.81Z"/>
      <path class="cls-195" d="m62.79,83.96c2.77-5.96,9.85-8.55,15.81-5.78,5.96,2.77,8.55,9.85,5.78,15.81-2.77,5.96-9.85,8.55-15.81,5.78-5.96-2.77-8.55-9.85-5.78-15.81Z"/>
      <path class="cls-4" d="m61.97,84.49c2.77-5.96,9.85-8.55,15.81-5.78,5.96,2.77,8.55,9.85,5.78,15.81-2.77,5.96-9.85,8.55-15.81,5.78-5.96-2.77-8.55-9.85-5.78-15.81Z"/>
      <path class="cls-33" d="m61.15,85c2.77-5.96,9.85-8.55,15.81-5.78,5.96,2.77,8.55,9.85,5.78,15.81-2.77,5.96-9.85,8.55-15.81,5.78-5.96-2.77-8.55-9.85-5.78-15.81Z"/>
      <path class="cls-136" d="m60.32,85.49c2.77-5.96,9.85-8.55,15.81-5.78,5.96,2.77,8.55,9.85,5.78,15.81-2.77,5.96-9.85,8.55-15.81,5.78-5.96-2.77-8.55-9.85-5.78-15.81Z"/>
      <path class="cls-116" d="m59.47,85.96c2.77-5.96,9.85-8.55,15.81-5.78,5.96,2.77,8.55,9.85,5.78,15.81-2.77,5.96-9.85,8.55-15.81,5.78-5.96-2.77-8.55-9.85-5.78-15.81Z"/>
      <path class="cls-100" d="m58.62,86.42c2.77-5.96,9.85-8.55,15.81-5.78,5.96,2.77,8.55,9.85,5.78,15.81-2.77,5.96-9.85,8.55-15.81,5.78-5.96-2.77-8.55-9.85-5.78-15.81Z"/>
      <path class="cls-50" d="m57.76,86.85c2.77-5.96,9.85-8.55,15.81-5.78,5.96,2.77,8.55,9.85,5.78,15.81-2.77,5.96-9.85,8.55-15.81,5.78-5.96-2.77-8.55-9.85-5.78-15.81Z"/>
      <path class="cls-63" d="m56.88,87.26c2.77-5.96,9.85-8.55,15.81-5.78,5.96,2.77,8.55,9.85,5.78,15.81-2.77,5.96-9.85,8.55-15.81,5.78-5.96-2.77-8.55-9.85-5.78-15.81Z"/>
      <path class="cls-189" d="m56,87.66c2.77-5.96,9.85-8.55,15.81-5.78,5.96,2.77,8.55,9.85,5.78,15.81-2.77,5.96-9.85,8.55-15.81,5.78-5.96-2.77-8.55-9.85-5.78-15.81Z"/>
      <path class="cls-18" d="m55.11,88.03c2.77-5.96,9.85-8.55,15.81-5.78,5.96,2.77,8.55,9.85,5.78,15.81-2.77,5.96-9.85,8.55-15.81,5.78-5.96-2.77-8.55-9.85-5.78-15.81Z"/>
      <path class="cls-158" d="m54.21,88.38c2.77-5.96,9.85-8.55,15.81-5.78,5.96,2.77,8.55,9.85,5.78,15.81-2.77,5.96-9.85,8.55-15.81,5.78-5.96-2.77-8.55-9.85-5.78-15.81Z"/>
      <path class="cls-180" d="m53.31,88.71c2.77-5.96,9.85-8.55,15.81-5.78,5.96,2.77,8.55,9.85,5.78,15.81-2.77,5.96-9.85,8.55-15.81,5.78-5.96-2.77-8.55-9.85-5.78-15.81Z"/>
      <path class="cls-62" d="m52.39,89.02c2.77-5.96,9.85-8.55,15.81-5.78,5.96,2.77,8.55,9.85,5.78,15.81-2.77,5.96-9.85,8.55-15.81,5.78-5.96-2.77-8.55-9.85-5.78-15.81Z"/>
      <path class="cls-159" d="m51.47,89.31c2.77-5.96,9.85-8.55,15.81-5.78,5.96,2.77,8.55,9.85,5.78,15.81-2.77,5.96-9.85,8.55-15.81,5.78-5.96-2.77-8.55-9.85-5.78-15.81Z"/>
      <path class="cls-99" d="m50.54,89.58c2.77-5.96,9.85-8.55,15.81-5.78,5.96,2.77,8.55,9.85,5.78,15.81-2.77,5.96-9.85,8.55-15.81,5.78-5.96-2.77-8.55-9.85-5.78-15.81Z"/>
      <path class="cls-139" d="m49.61,89.83c2.77-5.96,9.85-8.55,15.81-5.78,5.96,2.77,8.55,9.85,5.78,15.81-2.77,5.96-9.85,8.55-15.81,5.78-5.96-2.77-8.55-9.85-5.78-15.81Z"/>
      <path class="cls-173" d="m48.67,90.06c2.77-5.96,9.85-8.55,15.81-5.78,5.96,2.77,8.55,9.85,5.78,15.81-2.77,5.96-9.85,8.55-15.81,5.78-5.96-2.77-8.55-9.85-5.78-15.81Z"/>
      <path class="cls-11" d="m47.73,90.26c2.77-5.96,9.85-8.55,15.81-5.78,5.96,2.77,8.55,9.85,5.78,15.81-2.77,5.96-9.85,8.55-15.81,5.78-5.96-2.77-8.55-9.85-5.78-15.81Z"/>
      <path class="cls-186" d="m46.78,90.44c2.77-5.96,9.85-8.55,15.81-5.78,5.96,2.77,8.55,9.85,5.78,15.81-2.77,5.96-9.85,8.55-15.81,5.78-5.96-2.77-8.55-9.85-5.78-15.81Z"/>
      <path class="cls-179" d="m45.82,90.61c2.77-5.96,9.85-8.55,15.81-5.78,5.96,2.77,8.55,9.85,5.78,15.81-2.77,5.96-9.85,8.55-15.81,5.78-5.96-2.77-8.55-9.85-5.78-15.81Z"/>
      <path class="cls-127" d="m44.86,90.75c2.77-5.96,9.85-8.55,15.81-5.78,5.96,2.77,8.55,9.85,5.78,15.81-2.77,5.96-9.85,8.55-15.81,5.78-5.96-2.77-8.55-9.85-5.78-15.81Z"/>
      <path class="cls-52" d="m43.9,90.86c2.77-5.96,9.85-8.55,15.81-5.78,5.96,2.77,8.55,9.85,5.78,15.81-2.77,5.96-9.85,8.55-15.81,5.78-5.96-2.77-8.55-9.85-5.78-15.81Z"/>
      <path class="cls-132" d="m42.94,90.96c2.77-5.96,9.85-8.55,15.81-5.78,5.96,2.77,8.55,9.85,5.78,15.81-2.77,5.96-9.85,8.55-15.81,5.78-5.96-2.77-8.55-9.85-5.78-15.81Z"/>
      <path class="cls-30" d="m41.97,91.03c2.77-5.96,9.85-8.55,15.81-5.78,5.96,2.77,8.55,9.85,5.78,15.81-2.77,5.96-9.85,8.55-15.81,5.78-5.96-2.77-8.55-9.85-5.78-15.81Z"/>
      <path class="cls-166" d="m40.99,91.09c2.77-5.96,9.85-8.55,15.81-5.78,5.96,2.77,8.55,9.85,5.78,15.81-2.77,5.96-9.85,8.55-15.81,5.78-5.96-2.77-8.55-9.85-5.78-15.81Z"/>
      <path class="cls-118" d="m40.02,91.11c2.77-5.96,9.85-8.55,15.81-5.78,5.96,2.77,8.55,9.85,5.78,15.81-2.77,5.96-9.85,8.55-15.81,5.78-5.96-2.77-8.55-9.85-5.78-15.81Z"/>
      <path class="cls-34" d="m39.04,91.12c2.77-5.96,9.85-8.55,15.81-5.78,5.96,2.77,8.55,9.85,5.78,15.81-2.77,5.96-9.85,8.55-15.81,5.78-5.96-2.77-8.55-9.85-5.78-15.81Z"/>
      <path class="cls-91" d="m38.07,91.1c2.77-5.96,9.85-8.55,15.81-5.78,5.96,2.77,8.55,9.85,5.78,15.81-2.77,5.96-9.85,8.55-15.81,5.78-5.96-2.77-8.55-9.85-5.78-15.81Z"/>
      <path class="cls-190" d="m37.09,91.06c2.77-5.96,9.85-8.55,15.81-5.78,5.96,2.77,8.55,9.85,5.78,15.81-2.77,5.96-9.85,8.55-15.81,5.78-5.96-2.77-8.55-9.85-5.78-15.81Z"/>
      <path class="cls-49" d="m36.11,91c2.77-5.96,9.85-8.55,15.81-5.78,5.96,2.77,8.55,9.85,5.78,15.81-2.77,5.96-9.85,8.55-15.81,5.78-5.96-2.77-8.55-9.85-5.78-15.81Z"/>
      <path class="cls-46" d="m35.13,90.92c2.77-5.96,9.85-8.55,15.81-5.78,5.96,2.77,8.55,9.85,5.78,15.81-2.77,5.96-9.85,8.55-15.81,5.78-5.96-2.77-8.55-9.85-5.78-15.81Z"/>
      <path class="cls-194" d="m34.15,90.81c2.77-5.96,9.85-8.55,15.81-5.78,5.96,2.77,8.55,9.85,5.78,15.81-2.77,5.96-9.85,8.55-15.81,5.78-5.96-2.77-8.55-9.85-5.78-15.81Z"/>
      <path class="cls-27" d="m33.17,90.67c2.77-5.96,9.85-8.55,15.81-5.78,5.96,2.77,8.55,9.85,5.78,15.81-2.77,5.96-9.85,8.55-15.81,5.78-5.96-2.77-8.55-9.85-5.78-15.81Z"/>
      <path class="cls-22" d="m32.19,90.52c2.77-5.96,9.85-8.55,15.81-5.78,5.96,2.77,8.55,9.85,5.78,15.81-2.77,5.96-9.85,8.55-15.81,5.78-5.96-2.77-8.55-9.85-5.78-15.81Z"/>
      <path class="cls-162" d="m31.21,90.34c2.77-5.96,9.85-8.55,15.81-5.78,5.96,2.77,8.55,9.85,5.78,15.81-2.77,5.96-9.85,8.55-15.81,5.78-5.96-2.77-8.55-9.85-5.78-15.81Z"/>
      <path class="cls-149" d="m30.23,90.13c2.77-5.96,9.85-8.55,15.81-5.78,5.96,2.77,8.55,9.85,5.78,15.81-2.77,5.96-9.85,8.55-15.81,5.78-5.96-2.77-8.55-9.85-5.78-15.81Z"/>
      <path class="cls-97" d="m29.25,89.9c2.77-5.96,9.85-8.55,15.81-5.78,5.96,2.77,8.55,9.85,5.78,15.81-2.77,5.96-9.85,8.55-15.81,5.78-5.96-2.77-8.55-9.85-5.78-15.81Z"/>
      <path class="cls-134" d="m28.28,89.65c2.77-5.96,9.85-8.55,15.81-5.78,5.96,2.77,8.55,9.85,5.78,15.81-2.77,5.96-9.85,8.55-15.81,5.78-5.96-2.77-8.55-9.85-5.78-15.81Z"/>
      <path class="cls-28" d="m27.31,89.37c2.77-5.96,9.85-8.55,15.81-5.78,5.96,2.77,8.55,9.85,5.78,15.81-2.77,5.96-9.85,8.55-15.81,5.78-5.96-2.77-8.55-9.85-5.78-15.81Z"/>
      <path class="cls-31" d="m26.34,89.07c2.77-5.96,9.85-8.55,15.81-5.78,5.96,2.77,8.55,9.85,5.78,15.81-2.77,5.96-9.85,8.55-15.81,5.78-5.96-2.77-8.55-9.85-5.78-15.81Z"/>
      <path class="cls-172" d="m25.38,88.75c2.77-5.96,9.85-8.55,15.81-5.78,5.96,2.77,8.55,9.85,5.78,15.81-2.77,5.96-9.85,8.55-15.81,5.78-5.96-2.77-8.55-9.85-5.78-15.81Z"/>
      <path class="cls-68" d="m24.42,88.4c2.77-5.96,9.85-8.55,15.81-5.78,5.96,2.77,8.55,9.85,5.78,15.81-2.77,5.96-9.85,8.55-15.81,5.78-5.96-2.77-8.55-9.85-5.78-15.81Z"/>
      <path class="cls-126" d="m23.46,88.02c2.77-5.96,9.85-8.55,15.81-5.78,5.96,2.77,8.55,9.85,5.78,15.81-2.77,5.96-9.85,8.55-15.81,5.78-5.96-2.77-8.55-9.85-5.78-15.81Z"/>
      <path class="cls-200" d="m22.51,87.62c2.77-5.96,9.85-8.55,15.81-5.78,5.96,2.77,8.55,9.85,5.78,15.81-2.77,5.96-9.85,8.55-15.81,5.78-5.96-2.77-8.55-9.85-5.78-15.81Z"/>
      <path class="cls-75" d="m21.56,87.19c2.77-5.96,9.85-8.55,15.81-5.78,5.96,2.77,8.55,9.85,5.78,15.81-2.77,5.96-9.85,8.55-15.81,5.78-5.96-2.77-8.55-9.85-5.78-15.81Z"/>
    </g>
  </g>
</svg>