<?xml version="1.0" encoding="UTF-8"?>
<svg id="Layer_2" data-name="Layer 2" xmlns="http://www.w3.org/2000/svg" xmlns:xlink="http://www.w3.org/1999/xlink" viewBox="0 0 291.59 294.39">
  <defs>
    <style>
      .cls-1 {
        fill: url(#linear-gradient-38);
      }

      .cls-1, .cls-2, .cls-3, .cls-4, .cls-5, .cls-6, .cls-7, .cls-8, .cls-9, .cls-10, .cls-11, .cls-12, .cls-13, .cls-14, .cls-15, .cls-16, .cls-17, .cls-18, .cls-19, .cls-20, .cls-21, .cls-22, .cls-23, .cls-24, .cls-25, .cls-26, .cls-27, .cls-28, .cls-29, .cls-30, .cls-31, .cls-32, .cls-33, .cls-34, .cls-35, .cls-36, .cls-37, .cls-38, .cls-39, .cls-40, .cls-41, .cls-42, .cls-43, .cls-44, .cls-45, .cls-46, .cls-47, .cls-48, .cls-49, .cls-50, .cls-51, .cls-52, .cls-53, .cls-54, .cls-55, .cls-56, .cls-57, .cls-58, .cls-59, .cls-60, .cls-61, .cls-62, .cls-63, .cls-64, .cls-65, .cls-66, .cls-67, .cls-68, .cls-69, .cls-70, .cls-71, .cls-72, .cls-73, .cls-74, .cls-75, .cls-76, .cls-77, .cls-78, .cls-79, .cls-80, .cls-81, .cls-82, .cls-83, .cls-84, .cls-85, .cls-86, .cls-87, .cls-88, .cls-89, .cls-90, .cls-91, .cls-92, .cls-93, .cls-94, .cls-95, .cls-96, .cls-97, .cls-98, .cls-99, .cls-100, .cls-101, .cls-102, .cls-103, .cls-104, .cls-105, .cls-106, .cls-107, .cls-108, .cls-109, .cls-110, .cls-111, .cls-112, .cls-113, .cls-114, .cls-115, .cls-116, .cls-117, .cls-118, .cls-119, .cls-120, .cls-121, .cls-122, .cls-123, .cls-124, .cls-125, .cls-126, .cls-127, .cls-128, .cls-129, .cls-130, .cls-131, .cls-132, .cls-133, .cls-134, .cls-135, .cls-136, .cls-137, .cls-138, .cls-139, .cls-140, .cls-141, .cls-142, .cls-143, .cls-144, .cls-145, .cls-146, .cls-147, .cls-148, .cls-149, .cls-150, .cls-151, .cls-152, .cls-153, .cls-154, .cls-155, .cls-156, .cls-157, .cls-158, .cls-159, .cls-160, .cls-161, .cls-162, .cls-163, .cls-164, .cls-165, .cls-166, .cls-167, .cls-168, .cls-169, .cls-170, .cls-171, .cls-172, .cls-173, .cls-174, .cls-175, .cls-176, .cls-177, .cls-178, .cls-179, .cls-180, .cls-181, .cls-182, .cls-183, .cls-184, .cls-185, .cls-186, .cls-187, .cls-188, .cls-189, .cls-190, .cls-191, .cls-192, .cls-193, .cls-194, .cls-195, .cls-196, .cls-197, .cls-198, .cls-199, .cls-200, .cls-201, .cls-202 {
        stroke-width: 0px;
      }

      .cls-2 {
        fill: url(#linear-gradient-12);
      }

      .cls-3 {
        fill: url(#linear-gradient-127);
      }

      .cls-4 {
        fill: url(#linear-gradient-159);
      }

      .cls-5 {
        fill: url(#linear-gradient-17);
      }

      .cls-6 {
        fill: url(#linear-gradient-132);
      }

      .cls-7 {
        fill: url(#linear-gradient-88);
      }

      .cls-8 {
        fill: url(#linear-gradient-19);
      }

      .cls-9 {
        fill: url(#linear-gradient-33);
      }

      .cls-10 {
        fill: url(#linear-gradient);
      }

      .cls-11 {
        fill: url(#linear-gradient-175);
      }

      .cls-12 {
        fill: url(#linear-gradient-62);
      }

      .cls-13 {
        fill: url(#linear-gradient-137);
      }

      .cls-14 {
        fill: url(#linear-gradient-92);
      }

      .cls-15 {
        fill: url(#linear-gradient-98);
      }

      .cls-16 {
        fill: url(#linear-gradient-139);
      }

      .cls-17 {
        fill: url(#linear-gradient-67);
      }

      .cls-18 {
        fill: url(#linear-gradient-167);
      }

      .cls-19 {
        fill: url(#linear-gradient-153);
      }

      .cls-20 {
        fill: url(#linear-gradient-57);
      }

      .cls-21 {
        fill: url(#linear-gradient-138);
      }

      .cls-22 {
        fill: url(#linear-gradient-191);
      }

      .cls-23 {
        fill: url(#linear-gradient-149);
      }

      .cls-24 {
        fill: url(#linear-gradient-21);
      }

      .cls-25 {
        fill: url(#linear-gradient-6);
      }

      .cls-26 {
        fill: url(#linear-gradient-157);
      }

      .cls-27 {
        fill: url(#linear-gradient-190);
      }

      .cls-28 {
        fill: url(#linear-gradient-196);
      }

      .cls-29 {
        fill: url(#linear-gradient-76);
      }

      .cls-30 {
        fill: url(#linear-gradient-181);
      }

      .cls-31 {
        fill: url(#linear-gradient-197);
      }

      .cls-32 {
        fill: url(#linear-gradient-124);
      }

      .cls-33 {
        fill: url(#linear-gradient-160);
      }

      .cls-34 {
        fill: url(#linear-gradient-184);
      }

      .cls-35 {
        fill: url(#linear-gradient-136);
      }

      .cls-36 {
        fill: url(#linear-gradient-42);
      }

      .cls-37 {
        fill: url(#linear-gradient-104);
      }

      .cls-38 {
        fill: url(#linear-gradient-95);
      }

      .cls-39 {
        fill: url(#linear-gradient-15);
      }

      .cls-40 {
        fill: url(#linear-gradient-11);
      }

      .cls-41 {
        fill: url(#linear-gradient-106);
      }

      .cls-42 {
        fill: url(#linear-gradient-101);
      }

      .cls-43 {
        fill: url(#linear-gradient-81);
      }

      .cls-44 {
        fill: url(#linear-gradient-73);
      }

      .cls-45 {
        fill: url(#linear-gradient-91);
      }

      .cls-46 {
        fill: url(#linear-gradient-188);
      }

      .cls-47 {
        fill: url(#linear-gradient-151);
      }

      .cls-48 {
        fill: url(#linear-gradient-5);
      }

      .cls-49 {
        fill: url(#linear-gradient-187);
      }

      .cls-50 {
        fill: url(#linear-gradient-164);
      }

      .cls-51 {
        fill: url(#linear-gradient-133);
      }

      .cls-52 {
        fill: url(#linear-gradient-179);
      }

      .cls-53 {
        fill: url(#linear-gradient-31);
      }

      .cls-54 {
        fill: url(#linear-gradient-103);
      }

      .cls-55 {
        fill: url(#linear-gradient-71);
      }

      .cls-56 {
        fill: url(#linear-gradient-58);
      }

      .cls-57 {
        fill: url(#linear-gradient-63);
      }

      .cls-58 {
        fill: url(#linear-gradient-154);
      }

      .cls-59 {
        fill: url(#linear-gradient-34);
      }

      .cls-60 {
        fill: url(#linear-gradient-122);
      }

      .cls-61 {
        fill: url(#linear-gradient-96);
      }

      .cls-62 {
        fill: url(#linear-gradient-170);
      }

      .cls-63 {
        fill: url(#linear-gradient-165);
      }

      .cls-64 {
        fill: url(#linear-gradient-130);
      }

      .cls-65 {
        fill: url(#linear-gradient-120);
      }

      .cls-66 {
        fill: url(#linear-gradient-41);
      }

      .cls-67 {
        fill: url(#linear-gradient-89);
      }

      .cls-68 {
        fill: url(#linear-gradient-199);
      }

      .cls-69 {
        fill: url(#linear-gradient-40);
      }

      .cls-70 {
        fill: url(#linear-gradient-147);
      }

      .cls-71 {
        fill: url(#linear-gradient-66);
      }

      .cls-72 {
        fill: url(#linear-gradient-126);
      }

      .cls-73 {
        fill: url(#linear-gradient-13);
      }

      .cls-74 {
        fill: url(#linear-gradient-23);
      }

      .cls-75 {
        fill: url(#linear-gradient-202);
      }

      .cls-76 {
        fill: url(#linear-gradient-25);
      }

      .cls-77 {
        fill: url(#linear-gradient-43);
      }

      .cls-78 {
        fill: url(#linear-gradient-16);
      }

      .cls-79 {
        fill: url(#linear-gradient-22);
      }

      .cls-80 {
        fill: url(#linear-gradient-54);
      }

      .cls-81 {
        fill: url(#linear-gradient-55);
      }

      .cls-82 {
        fill: url(#linear-gradient-110);
      }

      .cls-83 {
        fill: url(#linear-gradient-141);
      }

      .cls-84 {
        fill: url(#linear-gradient-35);
      }

      .cls-85 {
        fill: url(#linear-gradient-50);
      }

      .cls-86 {
        fill: url(#linear-gradient-32);
      }

      .cls-87 {
        fill: url(#linear-gradient-60);
      }

      .cls-88 {
        fill: url(#linear-gradient-59);
      }

      .cls-89 {
        fill: url(#linear-gradient-20);
      }

      .cls-90 {
        fill: url(#linear-gradient-14);
      }

      .cls-91 {
        fill: url(#linear-gradient-185);
      }

      .cls-92 {
        fill: url(#linear-gradient-2);
      }

      .cls-93 {
        fill: url(#linear-gradient-156);
      }

      .cls-94 {
        fill: url(#linear-gradient-146);
      }

      .cls-95 {
        fill: url(#linear-gradient-52);
      }

      .cls-96 {
        fill: url(#linear-gradient-45);
      }

      .cls-97 {
        fill: url(#linear-gradient-194);
      }

      .cls-98 {
        fill: url(#linear-gradient-93);
      }

      .cls-99 {
        fill: url(#linear-gradient-172);
      }

      .cls-100 {
        fill: url(#linear-gradient-163);
      }

      .cls-101 {
        fill: url(#linear-gradient-7);
      }

      .cls-102 {
        fill: url(#linear-gradient-39);
      }

      .cls-103 {
        fill: url(#linear-gradient-3);
      }

      .cls-104 {
        fill: url(#linear-gradient-148);
      }

      .cls-105 {
        fill: url(#linear-gradient-77);
      }

      .cls-106 {
        fill: url(#linear-gradient-119);
      }

      .cls-107 {
        fill: url(#linear-gradient-69);
      }

      .cls-108 {
        fill: url(#linear-gradient-143);
      }

      .cls-109 {
        fill: url(#linear-gradient-125);
      }

      .cls-110 {
        fill: url(#linear-gradient-94);
      }

      .cls-111 {
        fill: url(#linear-gradient-9);
      }

      .cls-112 {
        fill: url(#linear-gradient-27);
      }

      .cls-113 {
        fill: url(#linear-gradient-134);
      }

      .cls-114 {
        fill: url(#linear-gradient-152);
      }

      .cls-115 {
        fill: url(#linear-gradient-100);
      }

      .cls-116 {
        fill: url(#linear-gradient-162);
      }

      .cls-117 {
        fill: url(#linear-gradient-131);
      }

      .cls-118 {
        fill: url(#linear-gradient-183);
      }

      .cls-119 {
        fill: url(#linear-gradient-82);
      }

      .cls-120 {
        fill: url(#linear-gradient-105);
      }

      .cls-121 {
        fill: url(#linear-gradient-83);
      }

      .cls-122 {
        fill: url(#linear-gradient-142);
      }

      .cls-123 {
        fill: url(#linear-gradient-155);
      }

      .cls-124 {
        fill: url(#linear-gradient-53);
      }

      .cls-125 {
        fill: url(#linear-gradient-90);
      }

      .cls-126 {
        fill: url(#linear-gradient-200);
      }

      .cls-127 {
        fill: url(#linear-gradient-178);
      }

      .cls-128 {
        fill: url(#linear-gradient-117);
      }

      .cls-129 {
        fill: url(#linear-gradient-85);
      }

      .cls-130 {
        fill: url(#linear-gradient-65);
      }

      .cls-131 {
        fill: url(#linear-gradient-36);
      }

      .cls-132 {
        fill: url(#linear-gradient-180);
      }

      .cls-133 {
        fill: url(#linear-gradient-48);
      }

      .cls-134 {
        fill: url(#linear-gradient-195);
      }

      .cls-135 {
        fill: url(#linear-gradient-49);
      }

      .cls-136 {
        fill: url(#linear-gradient-161);
      }

      .cls-137 {
        fill: url(#linear-gradient-8);
      }

      .cls-138 {
        fill: url(#linear-gradient-47);
      }

      .cls-139 {
        fill: url(#linear-gradient-173);
      }

      .cls-140 {
        fill: url(#linear-gradient-24);
      }

      .cls-141 {
        fill: url(#linear-gradient-26);
      }

      .cls-142 {
        fill: url(#linear-gradient-61);
      }

      .cls-143 {
        fill: url(#linear-gradient-114);
      }

      .cls-144 {
        fill: url(#linear-gradient-18);
      }

      .cls-145 {
        fill: url(#linear-gradient-51);
      }

      .cls-146 {
        fill: url(#linear-gradient-30);
      }

      .cls-147 {
        fill: url(#linear-gradient-121);
      }

      .cls-148 {
        fill: url(#linear-gradient-44);
      }

      .cls-149 {
        fill: url(#linear-gradient-193);
      }

      .cls-150 {
        fill: url(#linear-gradient-84);
      }

      .cls-151 {
        fill: url(#linear-gradient-97);
      }

      .cls-152 {
        fill: url(#linear-gradient-68);
      }

      .cls-153 {
        fill: url(#linear-gradient-129);
      }

      .cls-154 {
        fill: url(#linear-gradient-72);
      }

      .cls-155 {
        fill: url(#linear-gradient-29);
      }

      .cls-156 {
        fill: url(#linear-gradient-46);
      }

      .cls-157 {
        fill: url(#linear-gradient-140);
      }

      .cls-158 {
        fill: url(#linear-gradient-168);
      }

      .cls-159 {
        fill: url(#linear-gradient-171);
      }

      .cls-160 {
        fill: url(#linear-gradient-64);
      }

      .cls-161 {
        fill: url(#linear-gradient-107);
      }

      .cls-162 {
        fill: url(#linear-gradient-192);
      }

      .cls-163 {
        fill: url(#linear-gradient-109);
      }

      .cls-164 {
        fill: url(#linear-gradient-145);
      }

      .cls-165 {
        fill: url(#linear-gradient-113);
      }

      .cls-166 {
        fill: url(#linear-gradient-182);
      }

      .cls-167 {
        fill: url(#linear-gradient-28);
      }

      .cls-168 {
        fill: url(#linear-gradient-56);
      }

      .cls-169 {
        fill: url(#linear-gradient-99);
      }

      .cls-170 {
        fill: url(#linear-gradient-10);
      }

      .cls-171 {
        fill: url(#linear-gradient-150);
      }

      .cls-172 {
        fill: url(#linear-gradient-198);
      }

      .cls-173 {
        fill: url(#linear-gradient-174);
      }

      .cls-174 {
        fill: url(#linear-gradient-87);
      }

      .cls-175 {
        fill: url(#linear-gradient-70);
      }

      .cls-176 {
        fill: url(#linear-gradient-78);
      }

      .cls-177 {
        fill: url(#linear-gradient-86);
      }

      .cls-178 {
        fill: url(#linear-gradient-74);
      }

      .cls-179 {
        fill: url(#linear-gradient-177);
      }

      .cls-180 {
        fill: url(#linear-gradient-169);
      }

      .cls-181 {
        fill: url(#linear-gradient-102);
      }

      .cls-182 {
        fill: url(#linear-gradient-4);
      }

      .cls-183 {
        fill: url(#linear-gradient-118);
      }

      .cls-184 {
        fill: url(#linear-gradient-112);
      }

      .cls-185 {
        fill: url(#linear-gradient-123);
      }

      .cls-186 {
        fill: url(#linear-gradient-176);
      }

      .cls-187 {
        fill: url(#linear-gradient-128);
      }

      .cls-188 {
        fill: url(#linear-gradient-37);
      }

      .cls-189 {
        fill: url(#linear-gradient-166);
      }

      .cls-190 {
        fill: url(#linear-gradient-186);
      }

      .cls-191 {
        fill: url(#linear-gradient-80);
      }

      .cls-192 {
        fill: url(#linear-gradient-115);
      }

      .cls-193 {
        fill: url(#linear-gradient-135);
      }

      .cls-194 {
        fill: url(#linear-gradient-189);
      }

      .cls-195 {
        fill: url(#linear-gradient-158);
      }

      .cls-196 {
        fill: url(#linear-gradient-116);
      }

      .cls-197 {
        fill: url(#linear-gradient-79);
      }

      .cls-198 {
        fill: url(#linear-gradient-111);
      }

      .cls-199 {
        fill: url(#linear-gradient-108);
      }

      .cls-200 {
        fill: url(#linear-gradient-201);
      }

      .cls-201 {
        fill: url(#linear-gradient-144);
      }

      .cls-202 {
        fill: url(#linear-gradient-75);
      }
    </style>
    <linearGradient id="linear-gradient" x1="290.89" y1="-24.95" x2="336.44" y2="-71.16" gradientTransform="translate(56.76 -36.38) rotate(77.35)" gradientUnits="userSpaceOnUse">
      <stop offset="0" stop-color="#78fffb"/>
      <stop offset=".1" stop-color="#79effb"/>
      <stop offset=".29" stop-color="#7cc5fb"/>
      <stop offset=".55" stop-color="#8182fc"/>
      <stop offset=".87" stop-color="#8826fd"/>
      <stop offset="1" stop-color="#8c00fe"/>
    </linearGradient>
    <linearGradient id="linear-gradient-2" x1="290.86" y1="-22.12" x2="336.4" y2="-68.33" xlink:href="#linear-gradient"/>
    <linearGradient id="linear-gradient-3" x1="290.76" y1="-19.31" x2="336.3" y2="-65.51" xlink:href="#linear-gradient"/>
    <linearGradient id="linear-gradient-4" x1="290.59" y1="-16.51" x2="336.13" y2="-62.72" xlink:href="#linear-gradient"/>
    <linearGradient id="linear-gradient-5" x1="290.35" y1="-13.73" x2="335.9" y2="-59.94" xlink:href="#linear-gradient"/>
    <linearGradient id="linear-gradient-6" x1="290.05" y1="-10.98" x2="335.59" y2="-57.19" xlink:href="#linear-gradient"/>
    <linearGradient id="linear-gradient-7" x1="289.68" y1="-8.24" x2="335.23" y2="-54.45" xlink:href="#linear-gradient"/>
    <linearGradient id="linear-gradient-8" x1="289.26" y1="-5.52" x2="334.8" y2="-51.73" xlink:href="#linear-gradient"/>
    <linearGradient id="linear-gradient-9" x1="288.76" y1="-2.83" x2="334.31" y2="-49.04" xlink:href="#linear-gradient"/>
    <linearGradient id="linear-gradient-10" x1="288.21" y1="-.16" x2="333.75" y2="-46.37" xlink:href="#linear-gradient"/>
    <linearGradient id="linear-gradient-11" x1="287.59" y1="2.49" x2="333.13" y2="-43.72" xlink:href="#linear-gradient"/>
    <linearGradient id="linear-gradient-12" x1="286.91" y1="5.12" x2="332.46" y2="-41.09" xlink:href="#linear-gradient"/>
    <linearGradient id="linear-gradient-13" x1="286.17" y1="7.72" x2="331.72" y2="-38.49" xlink:href="#linear-gradient"/>
    <linearGradient id="linear-gradient-14" x1="285.38" y1="10.29" x2="330.92" y2="-35.91" xlink:href="#linear-gradient"/>
    <linearGradient id="linear-gradient-15" x1="284.52" y1="12.84" x2="330.07" y2="-33.37" xlink:href="#linear-gradient"/>
    <linearGradient id="linear-gradient-16" x1="283.61" y1="15.37" x2="329.15" y2="-30.84" xlink:href="#linear-gradient"/>
    <linearGradient id="linear-gradient-17" x1="282.64" y1="17.86" x2="328.18" y2="-28.35" xlink:href="#linear-gradient"/>
    <linearGradient id="linear-gradient-18" x1="281.61" y1="20.33" x2="327.16" y2="-25.88" xlink:href="#linear-gradient"/>
    <linearGradient id="linear-gradient-19" x1="280.53" y1="22.76" x2="326.08" y2="-23.45" xlink:href="#linear-gradient"/>
    <linearGradient id="linear-gradient-20" x1="279.4" y1="25.17" x2="324.94" y2="-21.04" xlink:href="#linear-gradient"/>
    <linearGradient id="linear-gradient-21" x1="278.21" y1="27.54" x2="323.75" y2="-18.67" xlink:href="#linear-gradient"/>
    <linearGradient id="linear-gradient-22" x1="276.96" y1="29.89" x2="322.51" y2="-16.32" xlink:href="#linear-gradient"/>
    <linearGradient id="linear-gradient-23" x1="275.67" y1="32.2" x2="321.21" y2="-14.01" xlink:href="#linear-gradient"/>
    <linearGradient id="linear-gradient-24" x1="274.32" y1="34.47" x2="319.87" y2="-11.73" xlink:href="#linear-gradient"/>
    <linearGradient id="linear-gradient-25" x1="272.93" y1="36.72" x2="318.47" y2="-9.49" xlink:href="#linear-gradient"/>
    <linearGradient id="linear-gradient-26" x1="271.48" y1="38.93" x2="317.02" y2="-7.28" xlink:href="#linear-gradient"/>
    <linearGradient id="linear-gradient-27" x1="269.99" y1="41.1" x2="315.53" y2="-5.11" xlink:href="#linear-gradient"/>
    <linearGradient id="linear-gradient-28" x1="268.44" y1="43.24" x2="313.99" y2="-2.97" xlink:href="#linear-gradient"/>
    <linearGradient id="linear-gradient-29" x1="266.85" y1="45.34" x2="312.39" y2="-.87" xlink:href="#linear-gradient"/>
    <linearGradient id="linear-gradient-30" x1="265.21" y1="47.4" x2="310.76" y2="1.19" xlink:href="#linear-gradient"/>
    <linearGradient id="linear-gradient-31" x1="263.53" y1="49.42" x2="309.07" y2="3.21" xlink:href="#linear-gradient"/>
    <linearGradient id="linear-gradient-32" x1="261.8" y1="51.4" x2="307.34" y2="5.19" xlink:href="#linear-gradient"/>
    <linearGradient id="linear-gradient-33" x1="260.03" y1="53.34" x2="305.57" y2="7.14" xlink:href="#linear-gradient"/>
    <linearGradient id="linear-gradient-34" x1="258.21" y1="55.25" x2="303.75" y2="9.04" xlink:href="#linear-gradient"/>
    <linearGradient id="linear-gradient-35" x1="256.35" y1="57.1" x2="301.9" y2="10.9" xlink:href="#linear-gradient"/>
    <linearGradient id="linear-gradient-36" x1="254.45" y1="58.92" x2="299.99" y2="12.71" xlink:href="#linear-gradient"/>
    <linearGradient id="linear-gradient-37" x1="252.51" y1="60.69" x2="298.05" y2="14.49" xlink:href="#linear-gradient"/>
    <linearGradient id="linear-gradient-38" x1="250.53" y1="62.42" x2="296.07" y2="16.21" xlink:href="#linear-gradient"/>
    <linearGradient id="linear-gradient-39" x1="248.5" y1="64.11" x2="294.05" y2="17.9" xlink:href="#linear-gradient"/>
    <linearGradient id="linear-gradient-40" x1="246.44" y1="65.74" x2="291.99" y2="19.54" xlink:href="#linear-gradient"/>
    <linearGradient id="linear-gradient-41" x1="244.34" y1="67.33" x2="289.89" y2="21.13" xlink:href="#linear-gradient"/>
    <linearGradient id="linear-gradient-42" x1="242.21" y1="68.88" x2="287.75" y2="22.67" xlink:href="#linear-gradient"/>
    <linearGradient id="linear-gradient-43" x1="240.03" y1="70.37" x2="285.58" y2="24.17" xlink:href="#linear-gradient"/>
    <linearGradient id="linear-gradient-44" x1="237.82" y1="71.82" x2="283.37" y2="25.61" xlink:href="#linear-gradient"/>
    <linearGradient id="linear-gradient-45" x1="235.58" y1="73.22" x2="281.12" y2="27.01" xlink:href="#linear-gradient"/>
    <linearGradient id="linear-gradient-46" x1="233.3" y1="74.56" x2="278.85" y2="28.35" xlink:href="#linear-gradient"/>
    <linearGradient id="linear-gradient-47" x1="230.99" y1="75.86" x2="276.54" y2="29.65" xlink:href="#linear-gradient"/>
    <linearGradient id="linear-gradient-48" x1="228.65" y1="77.1" x2="274.19" y2="30.89" xlink:href="#linear-gradient"/>
    <linearGradient id="linear-gradient-49" x1="226.27" y1="78.29" x2="271.82" y2="32.08" xlink:href="#linear-gradient"/>
    <linearGradient id="linear-gradient-50" x1="223.87" y1="79.42" x2="269.41" y2="33.22" xlink:href="#linear-gradient"/>
    <linearGradient id="linear-gradient-51" x1="221.43" y1="80.51" x2="266.97" y2="34.3" xlink:href="#linear-gradient"/>
    <linearGradient id="linear-gradient-52" x1="218.97" y1="81.53" x2="264.51" y2="35.32" xlink:href="#linear-gradient"/>
    <linearGradient id="linear-gradient-53" x1="216.47" y1="82.5" x2="262.01" y2="36.29" xlink:href="#linear-gradient"/>
    <linearGradient id="linear-gradient-54" x1="213.95" y1="83.41" x2="259.49" y2="37.21" xlink:href="#linear-gradient"/>
    <linearGradient id="linear-gradient-55" x1="211.4" y1="84.27" x2="256.94" y2="38.06" xlink:href="#linear-gradient"/>
    <linearGradient id="linear-gradient-56" x1="208.82" y1="85.07" x2="254.37" y2="38.86" xlink:href="#linear-gradient"/>
    <linearGradient id="linear-gradient-57" x1="206.22" y1="85.8" x2="251.77" y2="39.6" xlink:href="#linear-gradient"/>
    <linearGradient id="linear-gradient-58" x1="203.6" y1="86.48" x2="249.14" y2="40.27" xlink:href="#linear-gradient"/>
    <linearGradient id="linear-gradient-59" x1="200.95" y1="87.1" x2="246.49" y2="40.89" xlink:href="#linear-gradient"/>
    <linearGradient id="linear-gradient-60" x1="198.28" y1="87.65" x2="243.82" y2="41.44" xlink:href="#linear-gradient"/>
    <linearGradient id="linear-gradient-61" x1="195.58" y1="88.15" x2="241.12" y2="41.94" xlink:href="#linear-gradient"/>
    <linearGradient id="linear-gradient-62" x1="192.86" y1="88.58" x2="238.41" y2="42.37" xlink:href="#linear-gradient"/>
    <linearGradient id="linear-gradient-63" x1="190.13" y1="88.94" x2="235.67" y2="42.73" xlink:href="#linear-gradient"/>
    <linearGradient id="linear-gradient-64" x1="187.37" y1="89.24" x2="232.91" y2="43.03" xlink:href="#linear-gradient"/>
    <linearGradient id="linear-gradient-65" x1="184.59" y1="89.48" x2="230.14" y2="43.27" xlink:href="#linear-gradient"/>
    <linearGradient id="linear-gradient-66" x1="181.8" y1="89.65" x2="227.34" y2="43.44" xlink:href="#linear-gradient"/>
    <linearGradient id="linear-gradient-67" x1="178.99" y1="89.75" x2="224.53" y2="43.54" xlink:href="#linear-gradient"/>
    <linearGradient id="linear-gradient-68" x1="176.16" y1="89.78" x2="221.7" y2="43.57" xlink:href="#linear-gradient"/>
    <linearGradient id="linear-gradient-69" x1="173.33" y1="89.75" x2="218.87" y2="43.54" xlink:href="#linear-gradient"/>
    <linearGradient id="linear-gradient-70" x1="170.52" y1="89.65" x2="216.06" y2="43.44" xlink:href="#linear-gradient"/>
    <linearGradient id="linear-gradient-71" x1="167.72" y1="89.48" x2="213.27" y2="43.27" xlink:href="#linear-gradient"/>
    <linearGradient id="linear-gradient-72" x1="164.95" y1="89.24" x2="210.49" y2="43.03" xlink:href="#linear-gradient"/>
    <linearGradient id="linear-gradient-73" x1="162.19" y1="88.94" x2="207.73" y2="42.73" xlink:href="#linear-gradient"/>
    <linearGradient id="linear-gradient-74" x1="159.45" y1="88.58" x2="205" y2="42.37" xlink:href="#linear-gradient"/>
    <linearGradient id="linear-gradient-75" x1="156.74" y1="88.15" x2="202.28" y2="41.94" xlink:href="#linear-gradient"/>
    <linearGradient id="linear-gradient-76" x1="154.04" y1="87.65" x2="199.58" y2="41.44" xlink:href="#linear-gradient"/>
    <linearGradient id="linear-gradient-77" x1="151.37" y1="87.1" x2="196.91" y2="40.89" xlink:href="#linear-gradient"/>
    <linearGradient id="linear-gradient-78" x1="148.72" y1="86.48" x2="194.26" y2="40.27" xlink:href="#linear-gradient"/>
    <linearGradient id="linear-gradient-79" x1="146.09" y1="85.8" x2="191.64" y2="39.59" xlink:href="#linear-gradient"/>
    <linearGradient id="linear-gradient-80" x1="143.49" y1="85.07" x2="189.04" y2="38.86" xlink:href="#linear-gradient"/>
    <linearGradient id="linear-gradient-81" x1="140.92" y1="84.27" x2="186.46" y2="38.06" xlink:href="#linear-gradient"/>
    <linearGradient id="linear-gradient-82" x1="138.37" y1="83.41" x2="183.91" y2="37.2" xlink:href="#linear-gradient"/>
    <linearGradient id="linear-gradient-83" x1="135.85" y1="82.5" x2="181.39" y2="36.29" xlink:href="#linear-gradient"/>
    <linearGradient id="linear-gradient-84" x1="133.35" y1="81.53" x2="178.9" y2="35.32" xlink:href="#linear-gradient"/>
    <linearGradient id="linear-gradient-85" x1="130.89" y1="80.5" x2="176.43" y2="34.3" xlink:href="#linear-gradient"/>
    <linearGradient id="linear-gradient-86" x1="128.45" y1="79.42" x2="173.99" y2="33.21" xlink:href="#linear-gradient"/>
    <linearGradient id="linear-gradient-87" x1="126.04" y1="78.29" x2="171.59" y2="32.08" xlink:href="#linear-gradient"/>
    <linearGradient id="linear-gradient-88" x1="123.67" y1="77.1" x2="169.21" y2="30.89" xlink:href="#linear-gradient"/>
    <linearGradient id="linear-gradient-89" x1="121.32" y1="75.86" x2="166.87" y2="29.65" xlink:href="#linear-gradient"/>
    <linearGradient id="linear-gradient-90" x1="119.01" y1="74.56" x2="164.56" y2="28.35" xlink:href="#linear-gradient"/>
    <linearGradient id="linear-gradient-91" x1="116.74" y1="73.21" x2="162.28" y2="27.01" xlink:href="#linear-gradient"/>
    <linearGradient id="linear-gradient-92" x1="114.49" y1="71.82" x2="160.04" y2="25.61" xlink:href="#linear-gradient"/>
    <linearGradient id="linear-gradient-93" x1="112.28" y1="70.37" x2="157.83" y2="24.16" xlink:href="#linear-gradient"/>
    <linearGradient id="linear-gradient-94" x1="110.11" y1="68.88" x2="155.66" y2="22.67" xlink:href="#linear-gradient"/>
    <linearGradient id="linear-gradient-95" x1="107.98" y1="67.33" x2="153.52" y2="21.12" xlink:href="#linear-gradient"/>
    <linearGradient id="linear-gradient-96" x1="105.88" y1="65.74" x2="151.42" y2="19.53" xlink:href="#linear-gradient"/>
    <linearGradient id="linear-gradient-97" x1="103.81" y1="64.1" x2="149.36" y2="17.9" xlink:href="#linear-gradient"/>
    <linearGradient id="linear-gradient-98" x1="101.79" y1="62.42" x2="147.34" y2="16.21" xlink:href="#linear-gradient"/>
    <linearGradient id="linear-gradient-99" x1="99.81" y1="60.69" x2="145.35" y2="14.48" xlink:href="#linear-gradient"/>
    <linearGradient id="linear-gradient-100" x1="97.87" y1="58.92" x2="143.41" y2="12.71" xlink:href="#linear-gradient"/>
    <linearGradient id="linear-gradient-101" x1="95.97" y1="57.1" x2="141.51" y2="10.89" xlink:href="#linear-gradient"/>
    <linearGradient id="linear-gradient-102" x1="94.11" y1="55.24" x2="139.65" y2="9.03" xlink:href="#linear-gradient"/>
    <linearGradient id="linear-gradient-103" x1="92.29" y1="53.34" x2="137.83" y2="7.13" xlink:href="#linear-gradient"/>
    <linearGradient id="linear-gradient-104" x1="90.52" y1="51.4" x2="136.06" y2="5.19" xlink:href="#linear-gradient"/>
    <linearGradient id="linear-gradient-105" x1="88.79" y1="49.42" x2="134.33" y2="3.21" xlink:href="#linear-gradient"/>
    <linearGradient id="linear-gradient-106" x1="87.1" y1="47.39" x2="132.65" y2="1.18" xlink:href="#linear-gradient"/>
    <linearGradient id="linear-gradient-107" x1="85.47" y1="45.33" x2="131.01" y2="-.88" xlink:href="#linear-gradient"/>
    <linearGradient id="linear-gradient-108" x1="83.88" y1="43.23" x2="129.42" y2="-2.98" xlink:href="#linear-gradient"/>
    <linearGradient id="linear-gradient-109" x1="82.33" y1="41.1" x2="127.88" y2="-5.11" xlink:href="#linear-gradient"/>
    <linearGradient id="linear-gradient-110" x1="80.84" y1="38.92" x2="126.38" y2="-7.29" xlink:href="#linear-gradient"/>
    <linearGradient id="linear-gradient-111" x1="79.39" y1="36.71" x2="124.93" y2="-9.49" xlink:href="#linear-gradient"/>
    <linearGradient id="linear-gradient-112" x1="77.99" y1="34.47" x2="123.54" y2="-11.74" xlink:href="#linear-gradient"/>
    <linearGradient id="linear-gradient-113" x1="76.65" y1="32.19" x2="122.19" y2="-14.01" xlink:href="#linear-gradient"/>
    <linearGradient id="linear-gradient-114" x1="75.35" y1="29.88" x2="120.9" y2="-16.33" xlink:href="#linear-gradient"/>
    <linearGradient id="linear-gradient-115" x1="74.11" y1="27.54" x2="119.66" y2="-18.67" xlink:href="#linear-gradient"/>
    <linearGradient id="linear-gradient-116" x1="72.92" y1="25.16" x2="118.47" y2="-21.04" xlink:href="#linear-gradient"/>
    <linearGradient id="linear-gradient-117" x1="71.79" y1="22.76" x2="117.33" y2="-23.45" xlink:href="#linear-gradient"/>
    <linearGradient id="linear-gradient-118" x1="70.71" y1="20.32" x2="116.25" y2="-25.89" xlink:href="#linear-gradient"/>
    <linearGradient id="linear-gradient-119" x1="69.68" y1="17.86" x2="115.22" y2="-28.35" xlink:href="#linear-gradient"/>
    <linearGradient id="linear-gradient-120" x1="68.71" y1="15.36" x2="114.25" y2="-30.85" xlink:href="#linear-gradient"/>
    <linearGradient id="linear-gradient-121" x1="67.8" y1="12.84" x2="113.34" y2="-33.37" xlink:href="#linear-gradient"/>
    <linearGradient id="linear-gradient-122" x1="66.94" y1="10.29" x2="112.49" y2="-35.92" xlink:href="#linear-gradient"/>
    <linearGradient id="linear-gradient-123" x1="66.14" y1="7.71" x2="111.69" y2="-38.49" xlink:href="#linear-gradient"/>
    <linearGradient id="linear-gradient-124" x1="65.41" y1="5.11" x2="110.95" y2="-41.09" xlink:href="#linear-gradient"/>
    <linearGradient id="linear-gradient-125" x1="64.73" y1="2.49" x2="110.27" y2="-43.72" xlink:href="#linear-gradient"/>
    <linearGradient id="linear-gradient-126" x1="64.11" y1="-.16" x2="109.66" y2="-46.37" xlink:href="#linear-gradient"/>
    <linearGradient id="linear-gradient-127" x1="63.56" y1="-2.83" x2="109.1" y2="-49.04" xlink:href="#linear-gradient"/>
    <linearGradient id="linear-gradient-128" x1="63.06" y1="-5.53" x2="108.61" y2="-51.74" xlink:href="#linear-gradient"/>
    <linearGradient id="linear-gradient-129" x1="62.64" y1="-8.24" x2="108.18" y2="-54.45" xlink:href="#linear-gradient"/>
    <linearGradient id="linear-gradient-130" x1="62.27" y1="-10.98" x2="107.81" y2="-57.19" xlink:href="#linear-gradient"/>
    <linearGradient id="linear-gradient-131" x1="61.97" y1="-13.74" x2="107.51" y2="-59.95" xlink:href="#linear-gradient"/>
    <linearGradient id="linear-gradient-132" x1="61.73" y1="-16.52" x2="107.28" y2="-62.72" xlink:href="#linear-gradient"/>
    <linearGradient id="linear-gradient-133" x1="61.56" y1="-19.31" x2="107.11" y2="-65.52" xlink:href="#linear-gradient"/>
    <linearGradient id="linear-gradient-134" x1="61.46" y1="-22.12" x2="107.01" y2="-68.33" xlink:href="#linear-gradient"/>
    <linearGradient id="linear-gradient-135" x1="61.43" y1="-24.95" x2="106.97" y2="-71.16" xlink:href="#linear-gradient"/>
    <linearGradient id="linear-gradient-136" x1="61.46" y1="-27.78" x2="107.01" y2="-73.99" xlink:href="#linear-gradient"/>
    <linearGradient id="linear-gradient-137" x1="61.56" y1="-30.59" x2="107.11" y2="-76.8" xlink:href="#linear-gradient"/>
    <linearGradient id="linear-gradient-138" x1="61.73" y1="-33.39" x2="107.28" y2="-79.6" xlink:href="#linear-gradient"/>
    <linearGradient id="linear-gradient-139" x1="61.97" y1="-36.16" x2="107.51" y2="-82.37" xlink:href="#linear-gradient"/>
    <linearGradient id="linear-gradient-140" x1="62.27" y1="-38.92" x2="107.81" y2="-85.13" xlink:href="#linear-gradient"/>
    <linearGradient id="linear-gradient-141" x1="62.64" y1="-41.66" x2="108.18" y2="-87.87" xlink:href="#linear-gradient"/>
    <linearGradient id="linear-gradient-142" x1="63.07" y1="-44.37" x2="108.61" y2="-90.58" xlink:href="#linear-gradient"/>
    <linearGradient id="linear-gradient-143" x1="63.56" y1="-47.07" x2="109.1" y2="-93.28" xlink:href="#linear-gradient"/>
    <linearGradient id="linear-gradient-144" x1="64.11" y1="-49.74" x2="109.66" y2="-95.95" xlink:href="#linear-gradient"/>
    <linearGradient id="linear-gradient-145" x1="64.73" y1="-52.39" x2="110.27" y2="-98.6" xlink:href="#linear-gradient"/>
    <linearGradient id="linear-gradient-146" x1="65.41" y1="-55.02" x2="110.95" y2="-101.23" xlink:href="#linear-gradient"/>
    <linearGradient id="linear-gradient-147" x1="66.15" y1="-57.62" x2="111.69" y2="-103.83" xlink:href="#linear-gradient"/>
    <linearGradient id="linear-gradient-148" x1="66.94" y1="-60.19" x2="112.49" y2="-106.4" xlink:href="#linear-gradient"/>
    <linearGradient id="linear-gradient-149" x1="67.8" y1="-62.74" x2="113.34" y2="-108.95" xlink:href="#linear-gradient"/>
    <linearGradient id="linear-gradient-150" x1="68.71" y1="-65.26" x2="114.25" y2="-111.47" xlink:href="#linear-gradient"/>
    <linearGradient id="linear-gradient-151" x1="69.68" y1="-67.76" x2="115.22" y2="-113.97" xlink:href="#linear-gradient"/>
    <linearGradient id="linear-gradient-152" x1="70.71" y1="-70.22" x2="116.25" y2="-116.43" xlink:href="#linear-gradient"/>
    <linearGradient id="linear-gradient-153" x1="71.79" y1="-72.66" x2="117.33" y2="-118.87" xlink:href="#linear-gradient"/>
    <linearGradient id="linear-gradient-154" x1="72.92" y1="-75.07" x2="118.47" y2="-121.27" xlink:href="#linear-gradient"/>
    <linearGradient id="linear-gradient-155" x1="74.11" y1="-77.44" x2="119.66" y2="-123.65" xlink:href="#linear-gradient"/>
    <linearGradient id="linear-gradient-156" x1="75.36" y1="-79.78" x2="120.9" y2="-125.99" xlink:href="#linear-gradient"/>
    <linearGradient id="linear-gradient-157" x1="76.65" y1="-82.1" x2="122.19" y2="-128.3" xlink:href="#linear-gradient"/>
    <linearGradient id="linear-gradient-158" x1="78" y1="-84.37" x2="123.54" y2="-130.58" xlink:href="#linear-gradient"/>
    <linearGradient id="linear-gradient-159" x1="79.39" y1="-86.62" x2="124.94" y2="-132.83" xlink:href="#linear-gradient"/>
    <linearGradient id="linear-gradient-160" x1="80.84" y1="-88.83" x2="126.38" y2="-135.03" xlink:href="#linear-gradient"/>
    <linearGradient id="linear-gradient-161" x1="82.33" y1="-91" x2="127.88" y2="-137.21" xlink:href="#linear-gradient"/>
    <linearGradient id="linear-gradient-162" x1="83.88" y1="-93.13" x2="129.42" y2="-139.34" xlink:href="#linear-gradient"/>
    <linearGradient id="linear-gradient-163" x1="85.47" y1="-95.23" x2="131.01" y2="-141.44" xlink:href="#linear-gradient"/>
    <linearGradient id="linear-gradient-164" x1="87.11" y1="-97.3" x2="132.65" y2="-143.5" xlink:href="#linear-gradient"/>
    <linearGradient id="linear-gradient-165" x1="88.79" y1="-99.32" x2="134.33" y2="-145.53" xlink:href="#linear-gradient"/>
    <linearGradient id="linear-gradient-166" x1="90.52" y1="-101.3" x2="136.06" y2="-147.51" xlink:href="#linear-gradient"/>
    <linearGradient id="linear-gradient-167" x1="92.29" y1="-103.24" x2="137.84" y2="-149.45" xlink:href="#linear-gradient"/>
    <linearGradient id="linear-gradient-168" x1="94.11" y1="-105.14" x2="139.65" y2="-151.35" xlink:href="#linear-gradient"/>
    <linearGradient id="linear-gradient-169" x1="95.97" y1="-107" x2="141.51" y2="-153.21" xlink:href="#linear-gradient"/>
    <linearGradient id="linear-gradient-170" x1="97.87" y1="-108.82" x2="143.41" y2="-155.03" xlink:href="#linear-gradient"/>
    <linearGradient id="linear-gradient-171" x1="99.81" y1="-110.59" x2="145.36" y2="-156.8" xlink:href="#linear-gradient"/>
    <linearGradient id="linear-gradient-172" x1="101.8" y1="-112.32" x2="147.34" y2="-158.53" xlink:href="#linear-gradient"/>
    <linearGradient id="linear-gradient-173" x1="103.82" y1="-114" x2="149.36" y2="-160.21" xlink:href="#linear-gradient"/>
    <linearGradient id="linear-gradient-174" x1="105.88" y1="-115.64" x2="151.42" y2="-161.85" xlink:href="#linear-gradient"/>
    <linearGradient id="linear-gradient-175" x1="107.98" y1="-117.23" x2="153.52" y2="-163.44" xlink:href="#linear-gradient"/>
    <linearGradient id="linear-gradient-176" x1="110.11" y1="-118.78" x2="155.66" y2="-164.99" xlink:href="#linear-gradient"/>
    <linearGradient id="linear-gradient-177" x1="112.29" y1="-120.27" x2="157.83" y2="-166.48" xlink:href="#linear-gradient"/>
    <linearGradient id="linear-gradient-178" x1="114.5" y1="-121.72" x2="160.04" y2="-167.93" xlink:href="#linear-gradient"/>
    <linearGradient id="linear-gradient-179" x1="116.74" y1="-123.12" x2="162.28" y2="-169.32" xlink:href="#linear-gradient"/>
    <linearGradient id="linear-gradient-180" x1="119.02" y1="-124.46" x2="164.56" y2="-170.67" xlink:href="#linear-gradient"/>
    <linearGradient id="linear-gradient-181" x1="121.33" y1="-125.76" x2="166.87" y2="-171.96" xlink:href="#linear-gradient"/>
    <linearGradient id="linear-gradient-182" x1="123.67" y1="-127" x2="169.22" y2="-173.21" xlink:href="#linear-gradient"/>
    <linearGradient id="linear-gradient-183" x1="126.05" y1="-128.19" x2="171.59" y2="-174.4" xlink:href="#linear-gradient"/>
    <linearGradient id="linear-gradient-184" x1="128.45" y1="-129.32" x2="174" y2="-175.53" xlink:href="#linear-gradient"/>
    <linearGradient id="linear-gradient-185" x1="130.89" y1="-130.4" x2="176.43" y2="-176.61" xlink:href="#linear-gradient"/>
    <linearGradient id="linear-gradient-186" x1="133.36" y1="-131.43" x2="178.9" y2="-177.64" xlink:href="#linear-gradient"/>
    <linearGradient id="linear-gradient-187" x1="135.85" y1="-132.4" x2="181.39" y2="-178.61" xlink:href="#linear-gradient"/>
    <linearGradient id="linear-gradient-188" x1="138.37" y1="-133.31" x2="183.92" y2="-179.52" xlink:href="#linear-gradient"/>
    <linearGradient id="linear-gradient-189" x1="140.92" y1="-134.17" x2="186.46" y2="-180.38" xlink:href="#linear-gradient"/>
    <linearGradient id="linear-gradient-190" x1="143.5" y1="-134.97" x2="189.04" y2="-181.17" xlink:href="#linear-gradient"/>
    <linearGradient id="linear-gradient-191" x1="146.1" y1="-135.7" x2="191.64" y2="-181.91" xlink:href="#linear-gradient"/>
    <linearGradient id="linear-gradient-192" x1="148.72" y1="-136.38" x2="194.27" y2="-182.59" xlink:href="#linear-gradient"/>
    <linearGradient id="linear-gradient-193" x1="151.37" y1="-137" x2="196.92" y2="-183.21" xlink:href="#linear-gradient"/>
    <linearGradient id="linear-gradient-194" x1="154.04" y1="-137.55" x2="199.59" y2="-183.76" xlink:href="#linear-gradient"/>
    <linearGradient id="linear-gradient-195" x1="156.74" y1="-138.04" x2="202.28" y2="-184.25" xlink:href="#linear-gradient"/>
    <linearGradient id="linear-gradient-196" x1="159.46" y1="-138.47" x2="205" y2="-184.68" xlink:href="#linear-gradient"/>
    <linearGradient id="linear-gradient-197" x1="162.19" y1="-138.84" x2="207.74" y2="-185.05" xlink:href="#linear-gradient"/>
    <linearGradient id="linear-gradient-198" x1="164.95" y1="-139.14" x2="210.49" y2="-185.35" xlink:href="#linear-gradient"/>
    <linearGradient id="linear-gradient-199" x1="167.73" y1="-139.38" x2="213.27" y2="-185.59" xlink:href="#linear-gradient"/>
    <linearGradient id="linear-gradient-200" x1="170.52" y1="-139.55" x2="216.06" y2="-185.75" xlink:href="#linear-gradient"/>
    <linearGradient id="linear-gradient-201" x1="173.33" y1="-139.65" x2="218.88" y2="-185.86" xlink:href="#linear-gradient"/>
    <linearGradient id="linear-gradient-202" x1="176.16" y1="-139.68" x2="221.71" y2="-185.89" xlink:href="#linear-gradient"/>
  </defs>
  <g id="OBJECTS">
    <g>
      <path class="cls-10" d="m179.41,290.79c-17.48,3.92-34.83-7.07-38.75-24.55-3.92-17.48,7.07-34.83,24.55-38.75,17.48-3.92,34.83,7.07,38.75,24.55,3.92,17.48-7.07,34.83-24.55,38.75Z"/>
      <path class="cls-92" d="m176.64,291.38c-17.48,3.92-34.83-7.07-38.75-24.55-3.92-17.48,7.07-34.83,24.55-38.75,17.48-3.92,34.83,7.07,38.75,24.55,3.92,17.48-7.07,34.83-24.55,38.75Z"/>
      <path class="cls-103" d="m173.88,291.89c-17.48,3.92-34.83-7.07-38.75-24.55-3.92-17.48,7.07-34.83,24.55-38.75,17.48-3.92,34.83,7.07,38.75,24.55,3.92,17.48-7.07,34.83-24.55,38.75Z"/>
      <path class="cls-182" d="m171.11,292.34c-17.48,3.92-34.83-7.07-38.75-24.55-3.92-17.48,7.07-34.83,24.55-38.75,17.48-3.92,34.83,7.07,38.75,24.55,3.92,17.48-7.07,34.83-24.55,38.75Z"/>
      <path class="cls-48" d="m168.35,292.72c-17.48,3.92-34.83-7.07-38.75-24.55-3.92-17.48,7.07-34.83,24.55-38.75,17.48-3.92,34.83,7.07,38.75,24.55,3.92,17.48-7.07,34.83-24.55,38.75Z"/>
      <path class="cls-25" d="m165.6,293.03c-17.48,3.92-34.83-7.07-38.75-24.55-3.92-17.48,7.07-34.83,24.55-38.75,17.48-3.92,34.83,7.07,38.75,24.55,3.92,17.48-7.07,34.83-24.55,38.75Z"/>
      <path class="cls-101" d="m162.84,293.27c-17.48,3.92-34.83-7.07-38.75-24.55-3.92-17.48,7.07-34.83,24.55-38.75,17.48-3.92,34.83,7.07,38.75,24.55,3.92,17.48-7.07,34.83-24.55,38.75Z"/>
      <path class="cls-137" d="m160.1,293.45c-17.48,3.92-34.83-7.07-38.75-24.55-3.92-17.48,7.07-34.83,24.55-38.75,17.48-3.92,34.83,7.07,38.75,24.55,3.92,17.48-7.07,34.83-24.55,38.75Z"/>
      <path class="cls-111" d="m157.36,293.56c-17.48,3.92-34.83-7.07-38.75-24.55-3.92-17.48,7.07-34.83,24.55-38.75,17.48-3.92,34.83,7.07,38.75,24.55,3.92,17.48-7.07,34.83-24.55,38.75Z"/>
      <path class="cls-170" d="m154.63,293.6c-17.48,3.92-34.83-7.07-38.75-24.55-3.92-17.48,7.07-34.83,24.55-38.75,17.48-3.92,34.83,7.07,38.75,24.55,3.92,17.48-7.07,34.83-24.55,38.75Z"/>
      <path class="cls-40" d="m151.91,293.58c-17.48,3.92-34.83-7.07-38.75-24.55-3.92-17.48,7.07-34.83,24.55-38.75,17.48-3.92,34.83,7.07,38.75,24.55,3.92,17.48-7.07,34.83-24.55,38.75Z"/>
      <path class="cls-2" d="m149.2,293.49c-17.48,3.92-34.83-7.07-38.75-24.55-3.92-17.48,7.07-34.83,24.55-38.75,17.48-3.92,34.83,7.07,38.75,24.55,3.92,17.48-7.07,34.83-24.55,38.75Z"/>
      <path class="cls-73" d="m146.5,293.34c-17.48,3.92-34.83-7.07-38.75-24.55-3.92-17.48,7.07-34.83,24.55-38.75,17.48-3.92,34.83,7.07,38.75,24.55,3.92,17.48-7.07,34.83-24.55,38.75Z"/>
      <path class="cls-90" d="m143.82,293.13c-17.48,3.92-34.83-7.07-38.75-24.55-3.92-17.48,7.07-34.83,24.55-38.75,17.48-3.92,34.83,7.07,38.75,24.55,3.92,17.48-7.07,34.83-24.55,38.75Z"/>
      <path class="cls-39" d="m141.14,292.85c-17.48,3.92-34.83-7.07-38.75-24.55-3.92-17.48,7.07-34.83,24.55-38.75,17.48-3.92,34.83,7.07,38.75,24.55,3.92,17.48-7.07,34.83-24.55,38.75Z"/>
      <path class="cls-78" d="m138.48,292.51c-17.48,3.92-34.83-7.07-38.75-24.55-3.92-17.48,7.07-34.83,24.55-38.75,17.48-3.92,34.83,7.07,38.75,24.55,3.92,17.48-7.07,34.83-24.55,38.75Z"/>
      <path class="cls-5" d="m135.84,292.11c-17.48,3.92-34.83-7.07-38.75-24.55-3.92-17.48,7.07-34.83,24.55-38.75,17.48-3.92,34.83,7.07,38.75,24.55,3.92,17.48-7.07,34.83-24.55,38.75Z"/>
      <path class="cls-144" d="m133.21,291.65c-17.48,3.92-34.83-7.07-38.75-24.55-3.92-17.48,7.07-34.83,24.55-38.75,17.48-3.92,34.83,7.07,38.75,24.55,3.92,17.48-7.07,34.83-24.55,38.75Z"/>
      <path class="cls-8" d="m130.59,291.13c-17.48,3.92-34.83-7.07-38.75-24.55-3.92-17.48,7.07-34.83,24.55-38.75,17.48-3.92,34.83,7.07,38.75,24.55,3.92,17.48-7.07,34.83-24.55,38.75Z"/>
      <path class="cls-89" d="m128,290.55c-17.48,3.92-34.83-7.07-38.75-24.55-3.92-17.48,7.07-34.83,24.55-38.75,17.48-3.92,34.83,7.07,38.75,24.55,3.92,17.48-7.07,34.83-24.55,38.75Z"/>
      <path class="cls-24" d="m125.42,289.91c-17.48,3.92-34.83-7.07-38.75-24.55-3.92-17.48,7.07-34.83,24.55-38.75,17.48-3.92,34.83,7.07,38.75,24.55,3.92,17.48-7.07,34.83-24.55,38.75Z"/>
      <path class="cls-79" d="m122.86,289.21c-17.48,3.92-34.83-7.07-38.75-24.55-3.92-17.48,7.07-34.83,24.55-38.75,17.48-3.92,34.83,7.07,38.75,24.55,3.92,17.48-7.07,34.83-24.55,38.75Z"/>
      <path class="cls-74" d="m120.32,288.45c-17.48,3.92-34.83-7.07-38.75-24.55-3.92-17.48,7.07-34.83,24.55-38.75,17.48-3.92,34.83,7.07,38.75,24.55,3.92,17.48-7.07,34.83-24.55,38.75Z"/>
      <path class="cls-140" d="m117.81,287.63c-17.48,3.92-34.83-7.07-38.75-24.55-3.92-17.48,7.07-34.83,24.55-38.75,17.48-3.92,34.83,7.07,38.75,24.55,3.92,17.48-7.07,34.83-24.55,38.75Z"/>
      <path class="cls-76" d="m115.31,286.76c-17.48,3.92-34.83-7.07-38.75-24.55-3.92-17.48,7.07-34.83,24.55-38.75,17.48-3.92,34.83,7.07,38.75,24.55,3.92,17.48-7.07,34.83-24.55,38.75Z"/>
      <path class="cls-141" d="m112.84,285.84c-17.48,3.92-34.83-7.07-38.75-24.55-3.92-17.48,7.07-34.83,24.55-38.75,17.48-3.92,34.83,7.07,38.75,24.55,3.92,17.48-7.07,34.83-24.55,38.75Z"/>
      <path class="cls-112" d="m110.39,284.85c-17.48,3.92-34.83-7.07-38.75-24.55-3.92-17.48,7.07-34.83,24.55-38.75,17.48-3.92,34.83,7.07,38.75,24.55,3.92,17.48-7.07,34.83-24.55,38.75Z"/>
      <path class="cls-167" d="m107.97,283.81c-17.48,3.92-34.83-7.07-38.75-24.55-3.92-17.48,7.07-34.83,24.55-38.75,17.48-3.92,34.83,7.07,38.75,24.55,3.92,17.48-7.07,34.83-24.55,38.75Z"/>
      <path class="cls-155" d="m105.57,282.72c-17.48,3.92-34.83-7.07-38.75-24.55-3.92-17.48,7.07-34.83,24.55-38.75,17.48-3.92,34.83,7.07,38.75,24.55,3.92,17.48-7.07,34.83-24.55,38.75Z"/>
      <path class="cls-146" d="m103.2,281.57c-17.48,3.92-34.83-7.07-38.75-24.55-3.92-17.48,7.07-34.83,24.55-38.75,17.48-3.92,34.83,7.07,38.75,24.55,3.92,17.48-7.07,34.83-24.55,38.75Z"/>
      <path class="cls-53" d="m100.86,280.37c-17.48,3.92-34.83-7.07-38.75-24.55-3.92-17.48,7.07-34.83,24.55-38.75,17.48-3.92,34.83,7.07,38.75,24.55,3.92,17.48-7.07,34.83-24.55,38.75Z"/>
      <path class="cls-86" d="m98.55,279.12c-17.48,3.92-34.83-7.07-38.75-24.55-3.92-17.48,7.07-34.83,24.55-38.75,17.48-3.92,34.83,7.07,38.75,24.55,3.92,17.48-7.07,34.83-24.55,38.75Z"/>
      <path class="cls-9" d="m96.26,277.82c-17.48,3.92-34.83-7.07-38.75-24.55-3.92-17.48,7.07-34.83,24.55-38.75,17.48-3.92,34.83,7.07,38.75,24.55,3.92,17.48-7.07,34.83-24.55,38.75Z"/>
      <path class="cls-59" d="m94.01,276.46c-17.48,3.92-34.83-7.07-38.75-24.55-3.92-17.48,7.07-34.83,24.55-38.75,17.48-3.92,34.83,7.07,38.75,24.55,3.92,17.48-7.07,34.83-24.55,38.75Z"/>
      <path class="cls-84" d="m91.79,275.05c-17.48,3.92-34.83-7.07-38.75-24.55-3.92-17.48,7.07-34.83,24.55-38.75,17.48-3.92,34.83,7.07,38.75,24.55,3.92,17.48-7.07,34.83-24.55,38.75Z"/>
      <path class="cls-131" d="m89.6,273.6c-17.48,3.92-34.83-7.07-38.75-24.55-3.92-17.48,7.07-34.83,24.55-38.75,17.48-3.92,34.83,7.07,38.75,24.55,3.92,17.48-7.07,34.83-24.55,38.75Z"/>
      <path class="cls-188" d="m87.45,272.09c-17.48,3.92-34.83-7.07-38.75-24.55-3.92-17.48,7.07-34.83,24.55-38.75,17.48-3.92,34.83,7.07,38.75,24.55,3.92,17.48-7.07,34.83-24.55,38.75Z"/>
      <path class="cls-1" d="m85.33,270.53c-17.48,3.92-34.83-7.07-38.75-24.55-3.92-17.48,7.07-34.83,24.55-38.75,17.48-3.92,34.83,7.07,38.75,24.55,3.92,17.48-7.07,34.83-24.55,38.75Z"/>
      <path class="cls-102" d="m83.24,268.93c-17.48,3.92-34.83-7.07-38.75-24.55-3.92-17.48,7.07-34.83,24.55-38.75,17.48-3.92,34.83,7.07,38.75,24.55,3.92,17.48-7.07,34.83-24.55,38.75Z"/>
      <path class="cls-69" d="m81.19,267.27c-17.48,3.92-34.83-7.07-38.75-24.55-3.92-17.48,7.07-34.83,24.55-38.75,17.48-3.92,34.83,7.07,38.75,24.55,3.92,17.48-7.07,34.83-24.55,38.75Z"/>
      <path class="cls-66" d="m79.18,265.57c-17.48,3.92-34.83-7.07-38.75-24.55-3.92-17.48,7.07-34.83,24.55-38.75,17.48-3.92,34.83,7.07,38.75,24.55,3.92,17.48-7.07,34.83-24.55,38.75Z"/>
      <path class="cls-36" d="m77.21,263.83c-17.48,3.92-34.83-7.07-38.75-24.55-3.92-17.48,7.07-34.83,24.55-38.75,17.48-3.92,34.83,7.07,38.75,24.55,3.92,17.48-7.07,34.83-24.55,38.75Z"/>
      <path class="cls-77" d="m75.27,262.04c-17.48,3.92-34.83-7.07-38.75-24.55-3.92-17.48,7.07-34.83,24.55-38.75,17.48-3.92,34.83,7.07,38.75,24.55,3.92,17.48-7.07,34.83-24.55,38.75Z"/>
      <path class="cls-148" d="m73.38,260.2c-17.48,3.92-34.83-7.07-38.75-24.55-3.92-17.48,7.07-34.83,24.55-38.75,17.48-3.92,34.83,7.07,38.75,24.55,3.92,17.48-7.07,34.83-24.55,38.75Z"/>
      <path class="cls-96" d="m71.52,258.31c-17.48,3.92-34.83-7.07-38.75-24.55-3.92-17.48,7.07-34.83,24.55-38.75,17.48-3.92,34.83,7.07,38.75,24.55,3.92,17.48-7.07,34.83-24.55,38.75Z"/>
      <path class="cls-156" d="m69.71,256.39c-17.48,3.92-34.83-7.07-38.75-24.55-3.92-17.48,7.07-34.83,24.55-38.75,17.48-3.92,34.83,7.07,38.75,24.55,3.92,17.48-7.07,34.83-24.55,38.75Z"/>
      <path class="cls-138" d="m67.94,254.41c-17.48,3.92-34.83-7.07-38.75-24.55-3.92-17.48,7.07-34.83,24.55-38.75,17.48-3.92,34.83,7.07,38.75,24.55,3.92,17.48-7.07,34.83-24.55,38.75Z"/>
      <path class="cls-133" d="m66.22,252.4c-17.48,3.92-34.83-7.07-38.75-24.55-3.92-17.48,7.07-34.83,24.55-38.75,17.48-3.92,34.83,7.07,38.75,24.55,3.92,17.48-7.07,34.83-24.55,38.75Z"/>
      <path class="cls-135" d="m64.54,250.34c-17.48,3.92-34.83-7.07-38.75-24.55-3.92-17.48,7.07-34.83,24.55-38.75,17.48-3.92,34.83,7.07,38.75,24.55,3.92,17.48-7.07,34.83-24.55,38.75Z"/>
      <path class="cls-85" d="m62.9,248.24c-17.48,3.92-34.83-7.07-38.75-24.55-3.92-17.48,7.07-34.83,24.55-38.75,17.48-3.92,34.83,7.07,38.75,24.55,3.92,17.48-7.07,34.83-24.55,38.75Z"/>
      <path class="cls-145" d="m61.31,246.1c-17.48,3.92-34.83-7.07-38.75-24.55-3.92-17.48,7.07-34.83,24.55-38.75,17.48-3.92,34.83,7.07,38.75,24.55,3.92,17.48-7.07,34.83-24.55,38.75Z"/>
      <path class="cls-95" d="m59.77,243.92c-17.48,3.92-34.83-7.07-38.75-24.55-3.92-17.48,7.07-34.83,24.55-38.75,17.48-3.92,34.83,7.07,38.75,24.55,3.92,17.48-7.07,34.83-24.55,38.75Z"/>
      <path class="cls-124" d="m58.28,241.7c-17.48,3.92-34.83-7.07-38.75-24.55-3.92-17.48,7.07-34.83,24.55-38.75,17.48-3.92,34.83,7.07,38.75,24.55,3.92,17.48-7.07,34.83-24.55,38.75Z"/>
      <path class="cls-80" d="m56.84,239.44c-17.48,3.92-34.83-7.07-38.75-24.55-3.92-17.48,7.07-34.83,24.55-38.75,17.48-3.92,34.83,7.07,38.75,24.55,3.92,17.48-7.07,34.83-24.55,38.75Z"/>
      <path class="cls-81" d="m55.45,237.14c-17.48,3.92-34.83-7.07-38.75-24.55-3.92-17.48,7.07-34.83,24.55-38.75,17.48-3.92,34.83,7.07,38.75,24.55,3.92,17.48-7.07,34.83-24.55,38.75Z"/>
      <path class="cls-168" d="m54.11,234.8c-17.48,3.92-34.83-7.07-38.75-24.55-3.92-17.48,7.07-34.83,24.55-38.75,17.48-3.92,34.83,7.07,38.75,24.55,3.92,17.48-7.07,34.83-24.55,38.75Z"/>
      <path class="cls-20" d="m52.82,232.42c-17.48,3.92-34.83-7.07-38.75-24.55-3.92-17.48,7.07-34.83,24.55-38.75,17.48-3.92,34.83,7.07,38.75,24.55,3.92,17.48-7.07,34.83-24.55,38.75Z"/>
      <path class="cls-56" d="m51.58,230.01c-17.48,3.92-34.83-7.07-38.75-24.55-3.92-17.48,7.07-34.83,24.55-38.75,17.48-3.92,34.83,7.07,38.75,24.55,3.92,17.48-7.07,34.83-24.55,38.75Z"/>
      <path class="cls-88" d="m50.4,227.56c-17.48,3.92-34.83-7.07-38.75-24.55-3.92-17.48,7.07-34.83,24.55-38.75,17.48-3.92,34.83,7.07,38.75,24.55,3.92,17.48-7.07,34.83-24.55,38.75Z"/>
      <path class="cls-87" d="m49.27,225.08c-17.48,3.92-34.83-7.07-38.75-24.55-3.92-17.48,7.07-34.83,24.55-38.75,17.48-3.92,34.83,7.07,38.75,24.55,3.92,17.48-7.07,34.83-24.55,38.75Z"/>
      <path class="cls-142" d="m48.2,222.55c-17.48,3.92-34.83-7.07-38.75-24.55-3.92-17.48,7.07-34.83,24.55-38.75,17.48-3.92,34.83,7.07,38.75,24.55,3.92,17.48-7.07,34.83-24.55,38.75Z"/>
      <path class="cls-12" d="m47.19,220c-17.48,3.92-34.83-7.07-38.75-24.55-3.92-17.48,7.07-34.83,24.55-38.75,17.48-3.92,34.83,7.07,38.75,24.55,3.92,17.48-7.07,34.83-24.55,38.75Z"/>
      <path class="cls-57" d="m46.23,217.41c-17.48,3.92-34.83-7.07-38.75-24.55-3.92-17.48,7.07-34.83,24.55-38.75,17.48-3.92,34.83,7.07,38.75,24.55,3.92,17.48-7.07,34.83-24.55,38.75Z"/>
      <path class="cls-160" d="m45.33,214.78c-17.48,3.92-34.83-7.07-38.75-24.55-3.92-17.48,7.07-34.83,24.55-38.75,17.48-3.92,34.83,7.07,38.75,24.55,3.92,17.48-7.07,34.83-24.55,38.75Z"/>
      <path class="cls-130" d="m44.5,212.13c-17.48,3.92-34.83-7.07-38.75-24.55-3.92-17.48,7.07-34.83,24.55-38.75,17.48-3.92,34.83,7.07,38.75,24.55,3.92,17.48-7.07,34.83-24.55,38.75Z"/>
      <path class="cls-71" d="m43.72,209.44c-17.48,3.92-34.83-7.07-38.75-24.55-3.92-17.48,7.07-34.83,24.55-38.75,17.48-3.92,34.83,7.07,38.75,24.55,3.92,17.48-7.07,34.83-24.55,38.75Z"/>
      <path class="cls-17" d="m43,206.71c-17.48,3.92-34.83-7.07-38.75-24.55-3.92-17.48,7.07-34.83,24.55-38.75,17.48-3.92,34.83,7.07,38.75,24.55,3.92,17.48-7.07,34.83-24.55,38.75Z"/>
      <path class="cls-152" d="m42.35,203.96c-17.48,3.92-34.83-7.07-38.75-24.55-3.92-17.48,7.07-34.83,24.55-38.75,17.48-3.92,34.83,7.07,38.75,24.55,3.92,17.48-7.07,34.83-24.55,38.75Z"/>
      <path class="cls-107" d="m41.77,201.19c-17.48,3.92-34.83-7.07-38.75-24.55-3.92-17.48,7.07-34.83,24.55-38.75,17.48-3.92,34.83,7.07,38.75,24.55,3.92,17.48-7.07,34.83-24.55,38.75Z"/>
      <path class="cls-175" d="m41.25,198.43c-17.48,3.92-34.83-7.07-38.75-24.55-3.92-17.48,7.07-34.83,24.55-38.75,17.48-3.92,34.83,7.07,38.75,24.55,3.92,17.48-7.07,34.83-24.55,38.75Z"/>
      <path class="cls-55" d="m40.8,195.66c-17.48,3.92-34.83-7.07-38.75-24.55-3.92-17.48,7.07-34.83,24.55-38.75,17.48-3.92,34.83,7.07,38.75,24.55,3.92,17.48-7.07,34.83-24.55,38.75Z"/>
      <path class="cls-154" d="m40.43,192.9c-17.48,3.92-34.83-7.07-38.75-24.55-3.92-17.48,7.07-34.83,24.55-38.75,17.48-3.92,34.83,7.07,38.75,24.55,3.92,17.48-7.07,34.83-24.55,38.75Z"/>
      <path class="cls-44" d="m40.12,190.15c-17.48,3.92-34.83-7.07-38.75-24.55-3.92-17.48,7.07-34.83,24.55-38.75,17.48-3.92,34.83,7.07,38.75,24.55,3.92,17.48-7.07,34.83-24.55,38.75Z"/>
      <path class="cls-178" d="m39.87,187.4c-17.48,3.92-34.83-7.07-38.75-24.55-3.92-17.48,7.07-34.83,24.55-38.75,17.48-3.92,34.83,7.07,38.75,24.55,3.92,17.48-7.07,34.83-24.55,38.75Z"/>
      <path class="cls-202" d="m39.7,184.65c-17.48,3.92-34.83-7.07-38.75-24.55-3.92-17.48,7.07-34.83,24.55-38.75,17.48-3.92,34.83,7.07,38.75,24.55,3.92,17.48-7.07,34.83-24.55,38.75Z"/>
      <path class="cls-29" d="m39.59,181.91c-17.48,3.92-34.83-7.07-38.75-24.55-3.92-17.48,7.07-34.83,24.55-38.75,17.48-3.92,34.83,7.07,38.75,24.55,3.92,17.48-7.07,34.83-24.55,38.75Z"/>
      <path class="cls-105" d="m39.55,179.19c-17.48,3.92-34.83-7.07-38.75-24.55-3.92-17.48,7.07-34.83,24.55-38.75,17.48-3.92,34.83,7.07,38.75,24.55,3.92,17.48-7.07,34.83-24.55,38.75Z"/>
      <path class="cls-176" d="m39.57,176.47c-17.48,3.92-34.83-7.07-38.75-24.55-3.92-17.48,7.07-34.83,24.55-38.75,17.48-3.92,34.83,7.07,38.75,24.55,3.92,17.48-7.07,34.83-24.55,38.75Z"/>
      <path class="cls-197" d="m39.65,173.76c-17.48,3.92-34.83-7.07-38.75-24.55-3.92-17.48,7.07-34.83,24.55-38.75,17.48-3.92,34.83,7.07,38.75,24.55,3.92,17.48-7.07,34.83-24.55,38.75Z"/>
      <path class="cls-191" d="m39.8,171.06c-17.48,3.92-34.83-7.07-38.75-24.55-3.92-17.48,7.07-34.83,24.55-38.75,17.48-3.92,34.83,7.07,38.75,24.55,3.92,17.48-7.07,34.83-24.55,38.75Z"/>
      <path class="cls-43" d="m40.02,168.37c-17.48,3.92-34.83-7.07-38.75-24.55-3.92-17.48,7.07-34.83,24.55-38.75,17.48-3.92,34.83,7.07,38.75,24.55,3.92,17.48-7.07,34.83-24.55,38.75Z"/>
      <path class="cls-119" d="m40.3,165.69c-17.48,3.92-34.83-7.07-38.75-24.55-3.92-17.48,7.07-34.83,24.55-38.75,17.48-3.92,34.83,7.07,38.75,24.55,3.92,17.48-7.07,34.83-24.55,38.75Z"/>
      <path class="cls-121" d="m40.63,163.03c-17.48,3.92-34.83-7.07-38.75-24.55-3.92-17.48,7.07-34.83,24.55-38.75,17.48-3.92,34.83,7.07,38.75,24.55,3.92,17.48-7.07,34.83-24.55,38.75Z"/>
      <path class="cls-150" d="m41.03,160.39c-17.48,3.92-34.83-7.07-38.75-24.55-3.92-17.48,7.07-34.83,24.55-38.75,17.48-3.92,34.83,7.07,38.75,24.55,3.92,17.48-7.07,34.83-24.55,38.75Z"/>
      <path class="cls-129" d="m41.5,157.76c-17.48,3.92-34.83-7.07-38.75-24.55-3.92-17.48,7.07-34.83,24.55-38.75,17.48-3.92,34.83,7.07,38.75,24.55,3.92,17.48-7.07,34.83-24.55,38.75Z"/>
      <path class="cls-177" d="m42.02,155.14c-17.48,3.92-34.83-7.07-38.75-24.55-3.92-17.48,7.07-34.83,24.55-38.75,17.48-3.92,34.83,7.07,38.75,24.55,3.92,17.48-7.07,34.83-24.55,38.75Z"/>
      <path class="cls-174" d="m42.6,152.55c-17.48,3.92-34.83-7.07-38.75-24.55-3.92-17.48,7.07-34.83,24.55-38.75,17.48-3.92,34.83,7.07,38.75,24.55,3.92,17.48-7.07,34.83-24.55,38.75Z"/>
      <path class="cls-7" d="m43.24,149.97c-17.48,3.92-34.83-7.07-38.75-24.55-3.92-17.48,7.07-34.83,24.55-38.75,17.48-3.92,34.83,7.07,38.75,24.55,3.92,17.48-7.07,34.83-24.55,38.75Z"/>
      <path class="cls-67" d="m43.94,147.41c-17.48,3.92-34.83-7.07-38.75-24.55-3.92-17.48,7.07-34.83,24.55-38.75,17.48-3.92,34.83,7.07,38.75,24.55,3.92,17.48-7.07,34.83-24.55,38.75Z"/>
      <path class="cls-125" d="m44.7,144.87c-17.48,3.92-34.83-7.07-38.75-24.55-3.92-17.48,7.07-34.83,24.55-38.75,17.48-3.92,34.83,7.07,38.75,24.55,3.92,17.48-7.07,34.83-24.55,38.75Z"/>
      <path class="cls-45" d="m45.51,142.36c-17.48,3.92-34.83-7.07-38.75-24.55-3.92-17.48,7.07-34.83,24.55-38.75,17.48-3.92,34.83,7.07,38.75,24.55,3.92,17.48-7.07,34.83-24.55,38.75Z"/>
      <path class="cls-14" d="m46.38,139.86c-17.48,3.92-34.83-7.07-38.75-24.55-3.92-17.48,7.07-34.83,24.55-38.75,17.48-3.92,34.83,7.07,38.75,24.55,3.92,17.48-7.07,34.83-24.55,38.75Z"/>
      <path class="cls-98" d="m47.31,137.39c-17.48,3.92-34.83-7.07-38.75-24.55-3.92-17.48,7.07-34.83,24.55-38.75,17.48-3.92,34.83,7.07,38.75,24.55,3.92,17.48-7.07,34.83-24.55,38.75Z"/>
      <path class="cls-110" d="m48.29,134.94c-17.48,3.92-34.83-7.07-38.75-24.55-3.92-17.48,7.07-34.83,24.55-38.75,17.48-3.92,34.83,7.07,38.75,24.55,3.92,17.48-7.07,34.83-24.55,38.75Z"/>
      <path class="cls-38" d="m49.33,132.52c-17.48,3.92-34.83-7.07-38.75-24.55-3.92-17.48,7.07-34.83,24.55-38.75,17.48-3.92,34.83,7.07,38.75,24.55,3.92,17.48-7.07,34.83-24.55,38.75Z"/>
      <path class="cls-61" d="m50.42,130.12c-17.48,3.92-34.83-7.07-38.75-24.55-3.92-17.48,7.07-34.83,24.55-38.75,17.48-3.92,34.83,7.07,38.75,24.55,3.92,17.48-7.07,34.83-24.55,38.75Z"/>
      <path class="cls-151" d="m51.57,127.75c-17.48,3.92-34.83-7.07-38.75-24.55-3.92-17.48,7.07-34.83,24.55-38.75,17.48-3.92,34.83,7.07,38.75,24.55,3.92,17.48-7.07,34.83-24.55,38.75Z"/>
      <path class="cls-15" d="m52.77,125.41c-17.48,3.92-34.83-7.07-38.75-24.55-3.92-17.48,7.07-34.83,24.55-38.75,17.48-3.92,34.83,7.07,38.75,24.55,3.92,17.48-7.07,34.83-24.55,38.75Z"/>
      <path class="cls-169" d="m54.02,123.1c-17.48,3.92-34.83-7.07-38.75-24.55-3.92-17.48,7.07-34.83,24.55-38.75,17.48-3.92,34.83,7.07,38.75,24.55,3.92,17.48-7.07,34.83-24.55,38.75Z"/>
      <path class="cls-115" d="m55.33,120.82c-17.48,3.92-34.83-7.07-38.75-24.55-3.92-17.48,7.07-34.83,24.55-38.75,17.48-3.92,34.83,7.07,38.75,24.55,3.92,17.48-7.07,34.83-24.55,38.75Z"/>
      <path class="cls-42" d="m56.69,118.56c-17.48,3.92-34.83-7.07-38.75-24.55-3.92-17.48,7.07-34.83,24.55-38.75,17.48-3.92,34.83,7.07,38.75,24.55,3.92,17.48-7.07,34.83-24.55,38.75Z"/>
      <path class="cls-181" d="m58.09,116.34c-17.48,3.92-34.83-7.07-38.75-24.55-3.92-17.48,7.07-34.83,24.55-38.75,17.48-3.92,34.83,7.07,38.75,24.55,3.92,17.48-7.07,34.83-24.55,38.75Z"/>
      <path class="cls-54" d="m59.55,114.15c-17.48,3.92-34.83-7.07-38.75-24.55-3.92-17.48,7.07-34.83,24.55-38.75,17.48-3.92,34.83,7.07,38.75,24.55,3.92,17.48-7.07,34.83-24.55,38.75Z"/>
      <path class="cls-37" d="m61.06,112c-17.48,3.92-34.83-7.07-38.75-24.55-3.92-17.48,7.07-34.83,24.55-38.75,17.48-3.92,34.83,7.07,38.75,24.55,3.92,17.48-7.07,34.83-24.55,38.75Z"/>
      <path class="cls-120" d="m62.61,109.88c-17.48,3.92-34.83-7.07-38.75-24.55-3.92-17.48,7.07-34.83,24.55-38.75,17.48-3.92,34.83,7.07,38.75,24.55,3.92,17.48-7.07,34.83-24.55,38.75Z"/>
      <path class="cls-41" d="m64.22,107.79c-17.48,3.92-34.83-7.07-38.75-24.55-3.92-17.48,7.07-34.83,24.55-38.75,17.48-3.92,34.83,7.07,38.75,24.55,3.92,17.48-7.07,34.83-24.55,38.75Z"/>
      <path class="cls-161" d="m65.87,105.74c-17.48,3.92-34.83-7.07-38.75-24.55-3.92-17.48,7.07-34.83,24.55-38.75,17.48-3.92,34.83,7.07,38.75,24.55,3.92,17.48-7.07,34.83-24.55,38.75Z"/>
      <path class="cls-199" d="m67.57,103.73c-17.48,3.92-34.83-7.07-38.75-24.55-3.92-17.48,7.07-34.83,24.55-38.75,17.48-3.92,34.83,7.07,38.75,24.55,3.92,17.48-7.07,34.83-24.55,38.75Z"/>
      <path class="cls-163" d="m69.32,101.76c-17.48,3.92-34.83-7.07-38.75-24.55-3.92-17.48,7.07-34.83,24.55-38.75,17.48-3.92,34.83,7.07,38.75,24.55,3.92,17.48-7.07,34.83-24.55,38.75Z"/>
      <path class="cls-82" d="m71.11,99.82c-17.48,3.92-34.83-7.07-38.75-24.55-3.92-17.48,7.07-34.83,24.55-38.75,17.48-3.92,34.83,7.07,38.75,24.55,3.92,17.48-7.07,34.83-24.55,38.75Z"/>
      <path class="cls-198" d="m72.95,97.93c-17.48,3.92-34.83-7.07-38.75-24.55-3.92-17.48,7.07-34.83,24.55-38.75,17.48-3.92,34.83,7.07,38.75,24.55,3.92,17.48-7.07,34.83-24.55,38.75Z"/>
      <path class="cls-184" d="m74.83,96.07c-17.48,3.92-34.83-7.07-38.75-24.55-3.92-17.48,7.07-34.83,24.55-38.75,17.48-3.92,34.83,7.07,38.75,24.55,3.92,17.48-7.07,34.83-24.55,38.75Z"/>
      <path class="cls-165" d="m76.76,94.26c-17.48,3.92-34.83-7.07-38.75-24.55-3.92-17.48,7.07-34.83,24.55-38.75,17.48-3.92,34.83,7.07,38.75,24.55,3.92,17.48-7.07,34.83-24.55,38.75Z"/>
      <path class="cls-143" d="m78.73,92.49c-17.48,3.92-34.83-7.07-38.75-24.55-3.92-17.48,7.07-34.83,24.55-38.75,17.48-3.92,34.83,7.07,38.75,24.55,3.92,17.48-7.07,34.83-24.55,38.75Z"/>
      <path class="cls-192" d="m80.75,90.77c-17.48,3.92-34.83-7.07-38.75-24.55-3.92-17.48,7.07-34.83,24.55-38.75,17.48-3.92,34.83,7.07,38.75,24.55,3.92,17.48-7.07,34.83-24.55,38.75Z"/>
      <path class="cls-196" d="m82.8,89.09c-17.48,3.92-34.83-7.07-38.75-24.55-3.92-17.48,7.07-34.83,24.55-38.75,17.48-3.92,34.83,7.07,38.75,24.55,3.92,17.48-7.07,34.83-24.55,38.75Z"/>
      <path class="cls-128" d="m84.9,87.45c-17.48,3.92-34.83-7.07-38.75-24.55-3.92-17.48,7.07-34.83,24.55-38.75,17.48-3.92,34.83,7.07,38.75,24.55,3.92,17.48-7.07,34.83-24.55,38.75Z"/>
      <path class="cls-183" d="m87.04,85.87c-17.48,3.92-34.83-7.07-38.75-24.55-3.92-17.48,7.07-34.83,24.55-38.75,17.48-3.92,34.83,7.07,38.75,24.55,3.92,17.48-7.07,34.83-24.55,38.75Z"/>
      <path class="cls-106" d="m89.22,84.32c-17.48,3.92-34.83-7.07-38.75-24.55-3.92-17.48,7.07-34.83,24.55-38.75,17.48-3.92,34.83,7.07,38.75,24.55,3.92,17.48-7.07,34.83-24.55,38.75Z"/>
      <path class="cls-65" d="m91.44,82.83c-17.48,3.92-34.83-7.07-38.75-24.55-3.92-17.48,7.07-34.83,24.55-38.75,17.48-3.92,34.83,7.07,38.75,24.55,3.92,17.48-7.07,34.83-24.55,38.75Z"/>
      <path class="cls-147" d="m93.71,81.39c-17.48,3.92-34.83-7.07-38.75-24.55-3.92-17.48,7.07-34.83,24.55-38.75,17.48-3.92,34.83,7.07,38.75,24.55,3.92,17.48-7.07,34.83-24.55,38.75Z"/>
      <path class="cls-60" d="m96.01,80c-17.48,3.92-34.83-7.07-38.75-24.55-3.92-17.48,7.07-34.83,24.55-38.75,17.48-3.92,34.83,7.07,38.75,24.55,3.92,17.48-7.07,34.83-24.55,38.75Z"/>
      <path class="cls-185" d="m98.34,78.66c-17.48,3.92-34.83-7.07-38.75-24.55-3.92-17.48,7.07-34.83,24.55-38.75,17.48-3.92,34.83,7.07,38.75,24.55,3.92,17.48-7.07,34.83-24.55,38.75Z"/>
      <path class="cls-32" d="m100.72,77.37c-17.48,3.92-34.83-7.07-38.75-24.55-3.92-17.48,7.07-34.83,24.55-38.75,17.48-3.92,34.83,7.07,38.75,24.55,3.92,17.48-7.07,34.83-24.55,38.75Z"/>
      <path class="cls-109" d="m103.13,76.13c-17.48,3.92-34.83-7.07-38.75-24.55-3.92-17.48,7.07-34.83,24.55-38.75,17.48-3.92,34.83,7.07,38.75,24.55,3.92,17.48-7.07,34.83-24.55,38.75Z"/>
      <path class="cls-72" d="m105.58,74.95c-17.48,3.92-34.83-7.07-38.75-24.55-3.92-17.48,7.07-34.83,24.55-38.75,17.48-3.92,34.83,7.07,38.75,24.55,3.92,17.48-7.07,34.83-24.55,38.75Z"/>
      <path class="cls-3" d="m108.07,73.82c-17.48,3.92-34.83-7.07-38.75-24.55-3.92-17.48,7.07-34.83,24.55-38.75,17.48-3.92,34.83,7.07,38.75,24.55,3.92,17.48-7.07,34.83-24.55,38.75Z"/>
      <path class="cls-187" d="m110.59,72.75c-17.48,3.92-34.83-7.07-38.75-24.55-3.92-17.48,7.07-34.83,24.55-38.75,17.48-3.92,34.83,7.07,38.75,24.55,3.92,17.48-7.07,34.83-24.55,38.75Z"/>
      <path class="cls-153" d="m113.15,71.74c-17.48,3.92-34.83-7.07-38.75-24.55-3.92-17.48,7.07-34.83,24.55-38.75,17.48-3.92,34.83,7.07,38.75,24.55,3.92,17.48-7.07,34.83-24.55,38.75Z"/>
      <path class="cls-64" d="m115.74,70.78c-17.48,3.92-34.83-7.07-38.75-24.55-3.92-17.48,7.07-34.83,24.55-38.75,17.48-3.92,34.83,7.07,38.75,24.55,3.92,17.48-7.07,34.83-24.55,38.75Z"/>
      <path class="cls-117" d="m118.36,69.89c-17.48,3.92-34.83-7.07-38.75-24.55-3.92-17.48,7.07-34.83,24.55-38.75,17.48-3.92,34.83,7.07,38.75,24.55,3.92,17.48-7.07,34.83-24.55,38.75Z"/>
      <path class="cls-6" d="m121.02,69.05c-17.48,3.92-34.83-7.07-38.75-24.55-3.92-17.48,7.07-34.83,24.55-38.75,17.48-3.92,34.83,7.07,38.75,24.55,3.92,17.48-7.07,34.83-24.55,38.75Z"/>
      <path class="cls-51" d="m123.71,68.27c-17.48,3.92-34.83-7.07-38.75-24.55-3.92-17.48,7.07-34.83,24.55-38.75,17.48-3.92,34.83,7.07,38.75,24.55,3.92,17.48-7.07,34.83-24.55,38.75Z"/>
      <path class="cls-113" d="m126.43,67.56c-17.48,3.92-34.83-7.07-38.75-24.55-3.92-17.48,7.07-34.83,24.55-38.75,17.48-3.92,34.83,7.07,38.75,24.55,3.92,17.48-7.07,34.83-24.55,38.75Z"/>
      <path class="cls-193" d="m129.18,66.9c-17.48,3.92-34.83-7.07-38.75-24.55-3.92-17.48,7.07-34.83,24.55-38.75,17.48-3.92,34.83,7.07,38.75,24.55,3.92,17.48-7.07,34.83-24.55,38.75Z"/>
      <path class="cls-35" d="m131.95,66.32c-17.48,3.92-34.83-7.07-38.75-24.55-3.92-17.48,7.07-34.83,24.55-38.75,17.48-3.92,34.83,7.07,38.75,24.55,3.92,17.48-7.07,34.83-24.55,38.75Z"/>
      <path class="cls-13" d="m134.72,65.8c-17.48,3.92-34.83-7.07-38.75-24.55-3.92-17.48,7.07-34.83,24.55-38.75,17.48-3.92,34.83,7.07,38.75,24.55,3.92,17.48-7.07,34.83-24.55,38.75Z"/>
      <path class="cls-21" d="m137.48,65.35c-17.48,3.92-34.83-7.07-38.75-24.55-3.92-17.48,7.07-34.83,24.55-38.75,17.48-3.92,34.83,7.07,38.75,24.55,3.92,17.48-7.07,34.83-24.55,38.75Z"/>
      <path class="cls-16" d="m140.24,64.98c-17.48,3.92-34.83-7.07-38.75-24.55-3.92-17.48,7.07-34.83,24.55-38.75,17.48-3.92,34.83,7.07,38.75,24.55,3.92,17.48-7.07,34.83-24.55,38.75Z"/>
      <path class="cls-157" d="m143,64.67c-17.48,3.92-34.83-7.07-38.75-24.55-3.92-17.48,7.07-34.83,24.55-38.75,17.48-3.92,34.83,7.07,38.75,24.55,3.92,17.48-7.07,34.83-24.55,38.75Z"/>
      <path class="cls-83" d="m145.75,64.42c-17.48,3.92-34.83-7.07-38.75-24.55-3.92-17.48,7.07-34.83,24.55-38.75,17.48-3.92,34.83,7.07,38.75,24.55,3.92,17.48-7.07,34.83-24.55,38.75Z"/>
      <path class="cls-122" d="m148.49,64.25c-17.48,3.92-34.83-7.07-38.75-24.55-3.92-17.48,7.07-34.83,24.55-38.75,17.48-3.92,34.83,7.07,38.75,24.55,3.92,17.48-7.07,34.83-24.55,38.75Z"/>
      <path class="cls-108" d="m151.23,64.14c-17.48,3.92-34.83-7.07-38.75-24.55-3.92-17.48,7.07-34.83,24.55-38.75,17.48-3.92,34.83,7.07,38.75,24.55,3.92,17.48-7.07,34.83-24.55,38.75Z"/>
      <path class="cls-201" d="m153.96,64.1c-17.48,3.92-34.83-7.07-38.75-24.55-3.92-17.48,7.07-34.83,24.55-38.75,17.48-3.92,34.83,7.07,38.75,24.55,3.92,17.48-7.07,34.83-24.55,38.75Z"/>
      <path class="cls-164" d="m156.68,64.12c-17.48,3.92-34.83-7.07-38.75-24.55-3.92-17.48,7.07-34.83,24.55-38.75,17.48-3.92,34.83,7.07,38.75,24.55,3.92,17.48-7.07,34.83-24.55,38.75Z"/>
      <path class="cls-94" d="m159.39,64.21c-17.48,3.92-34.83-7.07-38.75-24.55-3.92-17.48,7.07-34.83,24.55-38.75,17.48-3.92,34.83,7.07,38.75,24.55,3.92,17.48-7.07,34.83-24.55,38.75Z"/>
      <path class="cls-70" d="m162.09,64.36c-17.48,3.92-34.83-7.07-38.75-24.55-3.92-17.48,7.07-34.83,24.55-38.75,17.48-3.92,34.83,7.07,38.75,24.55,3.92,17.48-7.07,34.83-24.55,38.75Z"/>
      <path class="cls-104" d="m164.78,64.57c-17.48,3.92-34.83-7.07-38.75-24.55-3.92-17.48,7.07-34.83,24.55-38.75,17.48-3.92,34.83,7.07,38.75,24.55,3.92,17.48-7.07,34.83-24.55,38.75Z"/>
      <path class="cls-23" d="m167.45,64.85c-17.48,3.92-34.83-7.07-38.75-24.55-3.92-17.48,7.07-34.83,24.55-38.75,17.48-3.92,34.83,7.07,38.75,24.55,3.92,17.48-7.07,34.83-24.55,38.75Z"/>
      <path class="cls-171" d="m170.11,65.18c-17.48,3.92-34.83-7.07-38.75-24.55-3.92-17.48,7.07-34.83,24.55-38.75,17.48-3.92,34.83,7.07,38.75,24.55,3.92,17.48-7.07,34.83-24.55,38.75Z"/>
      <path class="cls-47" d="m172.76,65.59c-17.48,3.92-34.83-7.07-38.75-24.55-3.92-17.48,7.07-34.83,24.55-38.75,17.48-3.92,34.83,7.07,38.75,24.55,3.92,17.48-7.07,34.83-24.55,38.75Z"/>
      <path class="cls-114" d="m175.39,66.05c-17.48,3.92-34.83-7.07-38.75-24.55-3.92-17.48,7.07-34.83,24.55-38.75,17.48-3.92,34.83,7.07,38.75,24.55,3.92,17.48-7.07,34.83-24.55,38.75Z"/>
      <path class="cls-19" d="m178,66.57c-17.48,3.92-34.83-7.07-38.75-24.55-3.92-17.48,7.07-34.83,24.55-38.75,17.48-3.92,34.83,7.07,38.75,24.55,3.92,17.48-7.07,34.83-24.55,38.75Z"/>
      <path class="cls-58" d="m180.6,67.15c-17.48,3.92-34.83-7.07-38.75-24.55-3.92-17.48,7.07-34.83,24.55-38.75,17.48-3.92,34.83,7.07,38.75,24.55,3.92,17.48-7.07,34.83-24.55,38.75Z"/>
      <path class="cls-123" d="m183.18,67.79c-17.48,3.92-34.83-7.07-38.75-24.55-3.92-17.48,7.07-34.83,24.55-38.75,17.48-3.92,34.83,7.07,38.75,24.55,3.92,17.48-7.07,34.83-24.55,38.75Z"/>
      <path class="cls-93" d="m185.73,68.49c-17.48,3.92-34.83-7.07-38.75-24.55-3.92-17.48,7.07-34.83,24.55-38.75,17.48-3.92,34.83,7.07,38.75,24.55,3.92,17.48-7.07,34.83-24.55,38.75Z"/>
      <path class="cls-26" d="m188.27,69.25c-17.48,3.92-34.83-7.07-38.75-24.55-3.92-17.48,7.07-34.83,24.55-38.75,17.48-3.92,34.83,7.07,38.75,24.55,3.92,17.48-7.07,34.83-24.55,38.75Z"/>
      <path class="cls-195" d="m190.79,70.06c-17.48,3.92-34.83-7.07-38.75-24.55-3.92-17.48,7.07-34.83,24.55-38.75,17.48-3.92,34.83,7.07,38.75,24.55,3.92,17.48-7.07,34.83-24.55,38.75Z"/>
      <path class="cls-4" d="m193.28,70.93c-17.48,3.92-34.83-7.07-38.75-24.55-3.92-17.48,7.07-34.83,24.55-38.75,17.48-3.92,34.83,7.07,38.75,24.55,3.92,17.48-7.07,34.83-24.55,38.75Z"/>
      <path class="cls-33" d="m195.76,71.86c-17.48,3.92-34.83-7.07-38.75-24.55-3.92-17.48,7.07-34.83,24.55-38.75,17.48-3.92,34.83,7.07,38.75,24.55,3.92,17.48-7.07,34.83-24.55,38.75Z"/>
      <path class="cls-136" d="m198.2,72.84c-17.48,3.92-34.83-7.07-38.75-24.55-3.92-17.48,7.07-34.83,24.55-38.75,17.48-3.92,34.83,7.07,38.75,24.55,3.92,17.48-7.07,34.83-24.55,38.75Z"/>
      <path class="cls-116" d="m200.63,73.88c-17.48,3.92-34.83-7.07-38.75-24.55-3.92-17.48,7.07-34.83,24.55-38.75,17.48-3.92,34.83,7.07,38.75,24.55,3.92,17.48-7.07,34.83-24.55,38.75Z"/>
      <path class="cls-100" d="m203.02,74.98c-17.48,3.92-34.83-7.07-38.75-24.55-3.92-17.48,7.07-34.83,24.55-38.75,17.48-3.92,34.83,7.07,38.75,24.55,3.92,17.48-7.07,34.83-24.55,38.75Z"/>
      <path class="cls-50" d="m205.39,76.12c-17.48,3.92-34.83-7.07-38.75-24.55-3.92-17.48,7.07-34.83,24.55-38.75,17.48-3.92,34.83,7.07,38.75,24.55,3.92,17.48-7.07,34.83-24.55,38.75Z"/>
      <path class="cls-63" d="m207.73,77.32c-17.48,3.92-34.83-7.07-38.75-24.55-3.92-17.48,7.07-34.83,24.55-38.75,17.48-3.92,34.83,7.07,38.75,24.55,3.92,17.48-7.07,34.83-24.55,38.75Z"/>
      <path class="cls-189" d="m210.05,78.58c-17.48,3.92-34.83-7.07-38.75-24.55-3.92-17.48,7.07-34.83,24.55-38.75,17.48-3.92,34.83,7.07,38.75,24.55,3.92,17.48-7.07,34.83-24.55,38.75Z"/>
      <path class="cls-18" d="m212.33,79.88c-17.48,3.92-34.83-7.07-38.75-24.55-3.92-17.48,7.07-34.83,24.55-38.75,17.48-3.92,34.83,7.07,38.75,24.55,3.92,17.48-7.07,34.83-24.55,38.75Z"/>
      <path class="cls-158" d="m214.58,81.24c-17.48,3.92-34.83-7.07-38.75-24.55-3.92-17.48,7.07-34.83,24.55-38.75,17.48-3.92,34.83,7.07,38.75,24.55,3.92,17.48-7.07,34.83-24.55,38.75Z"/>
      <path class="cls-180" d="m216.8,82.64c-17.48,3.92-34.83-7.07-38.75-24.55-3.92-17.48,7.07-34.83,24.55-38.75,17.48-3.92,34.83,7.07,38.75,24.55,3.92,17.48-7.07,34.83-24.55,38.75Z"/>
      <path class="cls-62" d="m218.99,84.1c-17.48,3.92-34.83-7.07-38.75-24.55-3.92-17.48,7.07-34.83,24.55-38.75,17.48-3.92,34.83,7.07,38.75,24.55,3.92,17.48-7.07,34.83-24.55,38.75Z"/>
      <path class="cls-159" d="m221.15,85.61c-17.48,3.92-34.83-7.07-38.75-24.55-3.92-17.48,7.07-34.83,24.55-38.75,17.48-3.92,34.83,7.07,38.75,24.55,3.92,17.48-7.07,34.83-24.55,38.75Z"/>
      <path class="cls-99" d="m223.27,87.16c-17.48,3.92-34.83-7.07-38.75-24.55-3.92-17.48,7.07-34.83,24.55-38.75,17.48-3.92,34.83,7.07,38.75,24.55,3.92,17.48-7.07,34.83-24.55,38.75Z"/>
      <path class="cls-139" d="m225.35,88.77c-17.48,3.92-34.83-7.07-38.75-24.55-3.92-17.48,7.07-34.83,24.55-38.75,17.48-3.92,34.83,7.07,38.75,24.55,3.92,17.48-7.07,34.83-24.55,38.75Z"/>
      <path class="cls-173" d="m227.4,90.42c-17.48,3.92-34.83-7.07-38.75-24.55-3.92-17.48,7.07-34.83,24.55-38.75,17.48-3.92,34.83,7.07,38.75,24.55,3.92,17.48-7.07,34.83-24.55,38.75Z"/>
      <path class="cls-11" d="m229.41,92.12c-17.48,3.92-34.83-7.07-38.75-24.55-3.92-17.48,7.07-34.83,24.55-38.75,17.48-3.92,34.83,7.07,38.75,24.55,3.92,17.48-7.07,34.83-24.55,38.75Z"/>
      <path class="cls-186" d="m231.39,93.87c-17.48,3.92-34.83-7.07-38.75-24.55-3.92-17.48,7.07-34.83,24.55-38.75,17.48-3.92,34.83,7.07,38.75,24.55,3.92,17.48-7.07,34.83-24.55,38.75Z"/>
      <path class="cls-179" d="m233.32,95.66c-17.48,3.92-34.83-7.07-38.75-24.55-3.92-17.48,7.07-34.83,24.55-38.75,17.48-3.92,34.83,7.07,38.75,24.55,3.92,17.48-7.07,34.83-24.55,38.75Z"/>
      <path class="cls-127" d="m235.22,97.5c-17.48,3.92-34.83-7.07-38.75-24.55-3.92-17.48,7.07-34.83,24.55-38.75,17.48-3.92,34.83,7.07,38.75,24.55,3.92,17.48-7.07,34.83-24.55,38.75Z"/>
      <path class="cls-52" d="m237.07,99.38c-17.48,3.92-34.83-7.07-38.75-24.55-3.92-17.48,7.07-34.83,24.55-38.75,17.48-3.92,34.83,7.07,38.75,24.55,3.92,17.48-7.07,34.83-24.55,38.75Z"/>
      <path class="cls-132" d="m238.88,101.31c-17.48,3.92-34.83-7.07-38.75-24.55-3.92-17.48,7.07-34.83,24.55-38.75,17.48-3.92,34.83,7.07,38.75,24.55,3.92,17.48-7.07,34.83-24.55,38.75Z"/>
      <path class="cls-30" d="m240.65,103.28c-17.48,3.92-34.83-7.07-38.75-24.55-3.92-17.48,7.07-34.83,24.55-38.75,17.48-3.92,34.83,7.07,38.75,24.55,3.92,17.48-7.07,34.83-24.55,38.75Z"/>
      <path class="cls-166" d="m242.38,105.3c-17.48,3.92-34.83-7.07-38.75-24.55-3.92-17.48,7.07-34.83,24.55-38.75,17.48-3.92,34.83,7.07,38.75,24.55,3.92,17.48-7.07,34.83-24.55,38.75Z"/>
      <path class="cls-118" d="m244.06,107.35c-17.48,3.92-34.83-7.07-38.75-24.55-3.92-17.48,7.07-34.83,24.55-38.75,17.48-3.92,34.83,7.07,38.75,24.55,3.92,17.48-7.07,34.83-24.55,38.75Z"/>
      <path class="cls-34" d="m245.69,109.45c-17.48,3.92-34.83-7.07-38.75-24.55-3.92-17.48,7.07-34.83,24.55-38.75,17.48-3.92,34.83,7.07,38.75,24.55,3.92,17.48-7.07,34.83-24.55,38.75Z"/>
      <path class="cls-91" d="m247.28,111.59c-17.48,3.92-34.83-7.07-38.75-24.55-3.92-17.48,7.07-34.83,24.55-38.75,17.48-3.92,34.83,7.07,38.75,24.55,3.92,17.48-7.07,34.83-24.55,38.75Z"/>
      <path class="cls-190" d="m248.82,113.77c-17.48,3.92-34.83-7.07-38.75-24.55-3.92-17.48,7.07-34.83,24.55-38.75,17.48-3.92,34.83,7.07,38.75,24.55,3.92,17.48-7.07,34.83-24.55,38.75Z"/>
      <path class="cls-49" d="m250.31,116c-17.48,3.92-34.83-7.07-38.75-24.55-3.92-17.48,7.07-34.83,24.55-38.75,17.48-3.92,34.83,7.07,38.75,24.55,3.92,17.48-7.07,34.83-24.55,38.75Z"/>
      <path class="cls-46" d="m251.76,118.26c-17.48,3.92-34.83-7.07-38.75-24.55-3.92-17.48,7.07-34.83,24.55-38.75,17.48-3.92,34.83,7.07,38.75,24.55,3.92,17.48-7.07,34.83-24.55,38.75Z"/>
      <path class="cls-194" d="m253.15,120.56c-17.48,3.92-34.83-7.07-38.75-24.55-3.92-17.48,7.07-34.83,24.55-38.75,17.48-3.92,34.83,7.07,38.75,24.55,3.92,17.48-7.07,34.83-24.55,38.75Z"/>
      <path class="cls-27" d="m254.49,122.9c-17.48,3.92-34.83-7.07-38.75-24.55-3.92-17.48,7.07-34.83,24.55-38.75,17.48-3.92,34.83,7.07,38.75,24.55,3.92,17.48-7.07,34.83-24.55,38.75Z"/>
      <path class="cls-22" d="m255.78,125.27c-17.48,3.92-34.83-7.07-38.75-24.55-3.92-17.48,7.07-34.83,24.55-38.75,17.48-3.92,34.83,7.07,38.75,24.55,3.92,17.48-7.07,34.83-24.55,38.75Z"/>
      <path class="cls-162" d="m257.01,127.69c-17.48,3.92-34.83-7.07-38.75-24.55-3.92-17.48,7.07-34.83,24.55-38.75,17.48-3.92,34.83,7.07,38.75,24.55,3.92,17.48-7.07,34.83-24.55,38.75Z"/>
      <path class="cls-149" d="m258.2,130.14c-17.48,3.92-34.83-7.07-38.75-24.55-3.92-17.48,7.07-34.83,24.55-38.75,17.48-3.92,34.83,7.07,38.75,24.55,3.92,17.48-7.07,34.83-24.55,38.75Z"/>
      <path class="cls-97" d="m259.32,132.62c-17.48,3.92-34.83-7.07-38.75-24.55-3.92-17.48,7.07-34.83,24.55-38.75,17.48-3.92,34.83,7.07,38.75,24.55,3.92,17.48-7.07,34.83-24.55,38.75Z"/>
      <path class="cls-134" d="m260.39,135.14c-17.48,3.92-34.83-7.07-38.75-24.55-3.92-17.48,7.07-34.83,24.55-38.75,17.48-3.92,34.83,7.07,38.75,24.55,3.92,17.48-7.07,34.83-24.55,38.75Z"/>
      <path class="cls-28" d="m261.41,137.7c-17.48,3.92-34.83-7.07-38.75-24.55-3.92-17.48,7.07-34.83,24.55-38.75,17.48-3.92,34.83,7.07,38.75,24.55,3.92,17.48-7.07,34.83-24.55,38.75Z"/>
      <path class="cls-31" d="m262.36,140.29c-17.48,3.92-34.83-7.07-38.75-24.55-3.92-17.48,7.07-34.83,24.55-38.75,17.48-3.92,34.83,7.07,38.75,24.55,3.92,17.48-7.07,34.83-24.55,38.75Z"/>
      <path class="cls-172" d="m263.26,142.91c-17.48,3.92-34.83-7.07-38.75-24.55-3.92-17.48,7.07-34.83,24.55-38.75,17.48-3.92,34.83,7.07,38.75,24.55,3.92,17.48-7.07,34.83-24.55,38.75Z"/>
      <path class="cls-68" d="m264.1,145.57c-17.48,3.92-34.83-7.07-38.75-24.55-3.92-17.48,7.07-34.83,24.55-38.75,17.48-3.92,34.83,7.07,38.75,24.55,3.92,17.48-7.07,34.83-24.55,38.75Z"/>
      <path class="cls-126" d="m264.87,148.26c-17.48,3.92-34.83-7.07-38.75-24.55-3.92-17.48,7.07-34.83,24.55-38.75,17.48-3.92,34.83,7.07,38.75,24.55,3.92,17.48-7.07,34.83-24.55,38.75Z"/>
      <path class="cls-200" d="m265.59,150.98c-17.48,3.92-34.83-7.07-38.75-24.55-3.92-17.48,7.07-34.83,24.55-38.75,17.48-3.92,34.83,7.07,38.75,24.55,3.92,17.48-7.07,34.83-24.55,38.75Z"/>
      <path class="cls-75" d="m266.24,153.74c-17.48,3.92-34.83-7.07-38.75-24.55-3.92-17.48,7.07-34.83,24.55-38.75,17.48-3.92,34.83,7.07,38.75,24.55,3.92,17.48-7.07,34.83-24.55,38.75Z"/>
    </g>
  </g>
</svg>